<svg width="85" height="19" viewBox="0 0 85 19" fill="none" xmlns="http://www.w3.org/2000/svg">
<path d="M25.7877 6.23936C26.4998 6.23936 27.1151 6.36697 27.6322 6.61752C28.1517 6.87055 28.5803 7.2114 28.9242 7.64006C29.2634 8.07092 29.5159 8.5745 29.6789 9.15163C29.8408 9.73041 29.922 10.3526 29.922 11.0186C29.922 12.0417 29.7346 13.0082 29.3561 13.9194C28.9777 14.8318 28.4642 15.6233 27.8111 16.2984C27.1585 16.9727 26.3879 17.5043 25.4993 17.897C24.612 18.29 23.6474 18.4865 22.6117 18.4865C22.4778 18.4865 22.2423 18.4826 21.9097 18.4758C21.5771 18.4689 21.1948 18.4346 20.7667 18.3767C20.3358 18.3166 19.8802 18.2277 19.3992 18.1086C18.9184 17.9917 18.4617 17.8278 18.0317 17.6198L21.877 1.46231L25.3212 0.928536L23.9443 6.66226C24.2391 6.52943 24.536 6.42652 24.8324 6.3516C25.1291 6.27778 25.4474 6.23936 25.7877 6.23936ZM22.8987 15.7542C23.4174 15.7542 23.9062 15.6266 24.3653 15.376C24.8258 15.1252 25.2232 14.7866 25.5561 14.3648C25.889 13.941 26.1524 13.4638 26.3445 12.9306C26.5366 12.3974 26.6338 11.8411 26.6338 11.2623C26.6338 10.5512 26.5149 9.99661 26.2781 9.59567C26.0413 9.19637 25.603 8.99548 24.9666 8.99548C24.758 8.99548 24.4893 9.03527 24.1562 9.10635C23.8219 9.18182 23.5228 9.33852 23.2547 9.57426L21.7887 15.6634C21.877 15.679 21.9552 15.6938 22.0219 15.7078C22.0872 15.7229 22.1594 15.7336 22.2313 15.741C22.3073 15.7495 22.3943 15.7539 22.4994 15.7539C22.6045 15.7539 22.736 15.7542 22.8987 15.7542Z" fill="#F0F0F0"/>
<path d="M33.4946 18.1758H30.205L32.983 6.4858H36.2952L33.4946 18.1758ZM35.0954 5.06149C34.6362 5.06149 34.2199 4.92482 33.8505 4.65094C33.4781 4.3787 33.2937 3.95964 33.2937 3.39486C33.2937 3.0842 33.3568 2.79276 33.482 2.51777C33.609 2.24334 33.7751 2.00706 33.9831 1.80617C34.1908 1.60693 34.4315 1.44776 34.7048 1.32783C34.9798 1.20983 35.2724 1.15083 35.5841 1.15083C36.043 1.15083 36.4571 1.28749 36.8279 1.56138C37.1972 1.83663 37.383 2.25569 37.383 2.81746C37.383 3.12921 37.3202 3.42176 37.1939 3.69619C37.0685 3.97062 36.9025 4.20691 36.6945 4.40779C36.4884 4.6073 36.2455 4.76593 35.9727 4.88476C35.6975 5.00468 35.406 5.06149 35.0954 5.06149Z" fill="#F0F0F0"/>
<path d="M39.1776 3.57379L42.6231 3.04002L41.777 6.4858H45.467L44.8007 9.19664H41.1329L40.1559 13.2857C40.0659 13.6265 40.0148 13.9449 40.0006 14.2407C39.9844 14.5379 40.022 14.7931 40.1109 15.008C40.1993 15.2235 40.3582 15.3895 40.5887 15.5069C40.8181 15.6263 41.1466 15.6864 41.5775 15.6864C41.9323 15.6864 42.2781 15.6527 42.6124 15.5857C42.9447 15.5198 43.2814 15.4282 43.6223 15.3083L43.8676 17.8429C43.423 18.0059 42.9417 18.1462 42.423 18.2642C41.9035 18.3838 41.2885 18.4415 40.5777 18.4415C39.5557 18.4415 38.7634 18.2897 38.1989 17.9875C37.6352 17.6832 37.2368 17.2674 36.9983 16.7411C36.7631 16.2166 36.658 15.6121 36.6873 14.9309C36.7178 14.2481 36.8207 13.5305 36.9983 12.7747L39.1776 3.57379Z" fill="#F0F0F0"/>
<path d="M45.3218 13.5091C45.3218 12.5022 45.4848 11.5526 45.8106 10.6638C46.1358 9.77405 46.6042 8.99603 47.2121 8.32833C47.8178 7.66393 48.5557 7.13757 49.4243 6.75117C50.2888 6.36696 51.2567 6.17322 52.3234 6.17322C52.9911 6.17322 53.5875 6.23634 54.1122 6.36285C54.6391 6.49046 55.1158 6.6554 55.5469 6.86232L54.4124 9.44198C54.116 9.32178 53.8084 9.21585 53.4903 9.1198C53.172 9.02183 52.7834 8.97463 52.3237 8.97463C51.2257 8.97463 50.3577 9.35307 49.7117 10.1075C49.0681 10.8624 48.744 11.8787 48.744 13.1534C48.744 13.9089 48.907 14.5198 49.2341 14.9872C49.5596 15.4545 50.1609 15.687 51.0339 15.687C51.4647 15.687 51.8805 15.642 52.2787 15.5541C52.6799 15.4652 53.0342 15.3533 53.3462 15.221L53.5919 17.8654C53.1758 18.0268 52.717 18.1725 52.2137 18.3001C51.7092 18.4233 51.1088 18.4873 50.4126 18.4873C49.4935 18.4873 48.7155 18.3528 48.0791 18.088C47.4424 17.819 46.9163 17.462 46.5019 17.0097C46.0853 16.5564 45.7862 16.027 45.6012 15.4194C45.4162 14.8124 45.3218 14.1746 45.3218 13.5091Z" fill="#F0F0F0"/>
<path d="M59.9348 18.4867C59.1497 18.4867 58.4677 18.3671 57.8892 18.1302C57.3124 17.8934 56.8346 17.5611 56.4567 17.1302C56.0782 16.7015 55.795 16.1936 55.601 15.6082C55.407 15.0231 55.3137 14.3752 55.3137 13.6652C55.3137 12.7747 55.4566 11.8844 55.7456 10.9966C56.0332 10.1069 56.46 9.30751 57.0248 8.59701C57.5851 7.8854 58.2764 7.3036 59.0904 6.84997C59.9035 6.39935 60.8388 6.17267 61.8893 6.17267C62.6602 6.17267 63.3386 6.29259 63.9251 6.52943C64.5088 6.76572 64.9896 7.1008 65.3697 7.52946C65.7457 7.96032 66.0314 8.4661 66.2235 9.05229C66.4169 9.63628 66.5124 10.2859 66.5124 10.9964C66.5124 11.8842 66.3714 12.7744 66.0915 13.665C65.8113 14.5511 65.3955 15.3524 64.8466 16.0646C64.2989 16.7751 63.6139 17.3566 62.7911 17.8083C61.9695 18.2601 61.0166 18.4867 59.9348 18.4867ZM61.579 8.97435C61.0913 8.97435 60.6602 9.11596 60.2911 9.3956C59.9206 9.67854 59.6094 10.0342 59.3585 10.4631C59.105 10.894 58.917 11.3638 58.7899 11.8746C58.6639 12.3864 58.6022 12.8702 58.6022 13.3299C58.6022 14.0717 58.7218 14.6493 58.957 15.0651C59.1955 15.4787 59.6239 15.6867 60.2466 15.6867C60.7359 15.6867 61.1648 15.5462 61.5361 15.2635C61.9044 14.9828 62.2159 14.6268 62.4687 14.1971C62.7206 13.7684 62.9102 13.2972 63.0373 12.7857C63.1616 12.2755 63.225 11.7889 63.225 11.3301C63.225 10.5902 63.1059 10.0112 62.8685 9.59594C62.6314 9.18237 62.2011 8.97435 61.579 8.97435Z" fill="#F0F0F0"/>
<path d="M70.0982 18.1758H66.8058L69.5839 6.4858H72.8977L70.0982 18.1758ZM71.6965 5.06149C71.2376 5.06149 70.8216 4.92482 70.4528 4.65094C70.0823 4.3787 69.8962 3.95964 69.8962 3.39486C69.8962 3.0842 69.9602 2.79276 70.0856 2.51777C70.211 2.24334 70.3781 2.00706 70.5861 1.80617C70.7928 1.60693 71.0357 1.44776 71.3084 1.32783C71.5818 1.20983 71.8743 1.15083 72.185 1.15083C72.6449 1.15083 73.0604 1.28749 73.4304 1.56138C73.8006 1.83663 73.9875 2.25569 73.9875 2.81746C73.9875 3.12921 73.921 3.42176 73.7967 3.69619C73.6724 3.97062 73.5053 4.20691 73.2981 4.40779C73.0895 4.6073 72.8497 4.76593 72.5763 4.88476C72.3008 5.00468 72.0088 5.06149 71.6965 5.06149Z" fill="#F0F0F0"/>
<path d="M75.2671 7.01847C75.5169 6.94547 75.7957 6.85765 76.0989 6.76215C76.4033 6.66665 76.7433 6.57773 77.1231 6.4976C77.4988 6.41499 77.9228 6.34803 78.3891 6.29616C78.8553 6.2432 79.3867 6.2174 79.977 6.2174C81.7119 6.2174 82.9079 6.72263 83.5682 7.73007C84.2279 8.73751 84.3421 10.1163 83.914 11.8639L82.4007 18.1758H79.0894L80.556 11.9967C80.6455 11.6108 80.7157 11.2379 80.7676 10.8734C80.82 10.5123 80.817 10.1939 80.7558 9.9184C80.6973 9.64616 80.5596 9.42332 80.3458 9.2507C80.1287 9.08083 79.8008 8.99548 79.3559 8.99548C78.927 8.99548 78.4906 9.04159 78.0452 9.1305L75.889 18.1755H72.5763L75.2671 7.01847Z" fill="#F0F0F0"/>
<path fill-rule="evenodd" clip-rule="evenodd" d="M6.70966 18.2258C11.4148 19.3989 16.1798 16.5358 17.3527 11.8312C18.5256 7.12632 15.6628 2.36053 10.9579 1.1876C6.2541 0.0146752 1.48912 2.8781 0.316744 7.58325C-0.856731 12.2876 2.00643 17.0528 6.70966 18.2258ZM10.7737 6.2399C11.9903 6.65896 12.88 7.28714 12.7052 8.45567C12.5787 9.31108 12.1045 9.7252 11.4749 9.87037C12.3394 10.3204 12.7793 11.0106 12.3602 12.2072C11.8402 13.6932 10.6047 13.8186 8.96166 13.5077L8.56291 15.1057L7.59937 14.8656L7.99291 13.289C7.74318 13.227 7.48795 13.1611 7.22504 13.0897L6.83014 14.6738L5.8677 14.4336L6.26645 12.8326C6.1765 12.8096 6.08597 12.786 5.99481 12.7622C5.85791 12.7265 5.71957 12.6904 5.57955 12.6553L4.32566 12.3427L4.804 11.2398C4.804 11.2398 5.51396 11.4286 5.50435 11.4146C5.77714 11.4821 5.89816 11.3043 5.94591 11.1857L6.57601 8.65958C6.59965 8.66526 6.62281 8.67106 6.64514 8.67666C6.65625 8.67944 6.66716 8.68218 6.67783 8.68482C6.63941 8.66946 6.60455 8.65958 6.57766 8.65271L7.02718 6.84942C7.03898 6.64469 6.96845 6.38645 6.57821 6.28903C6.5933 6.27887 5.8784 6.11504 5.8784 6.11504L6.13473 5.08591L7.46353 5.4177L7.46243 5.42264C7.66222 5.47232 7.86804 5.51952 8.07771 5.56727L8.47262 3.98489L9.4356 4.22502L9.04865 5.77639C9.30717 5.83539 9.56733 5.89494 9.82063 5.95806L10.2048 4.41685L11.1684 4.65698L10.7737 6.2399ZM7.72602 11.979C7.65528 11.9603 7.59209 11.9437 7.53818 11.9303L8.06728 9.80917C8.13293 9.82556 8.21314 9.84356 8.30401 9.86395C9.11717 10.0464 10.7836 10.4203 10.5037 11.5428C10.2305 12.6405 8.51222 12.1867 7.72602 11.979ZM8.46739 8.87961C8.40782 8.86372 8.35464 8.84952 8.30933 8.83823L8.78904 6.91446C8.84404 6.92817 8.91138 6.94308 8.98773 6.95998C9.6664 7.11022 11.0561 7.41785 10.8017 8.43838C10.5527 9.43611 9.12288 9.05454 8.46739 8.87961Z" fill="#F0F0F0"/>
</svg>
