<svg width="103" height="19" viewBox="0 0 103 19" fill="none" xmlns="http://www.w3.org/2000/svg">
<path d="M3.88463 3.42223L8.76184 0.600098L13.639 3.42223L11.8091 4.41436L8.76184 2.65938L5.63543 4.41436L3.88463 3.42223ZM13.564 6.92801L11.8091 5.93589L8.76184 7.69086L5.63543 5.93589L3.88046 6.92801V8.98729L6.93185 10.7423V14.3273L8.68681 15.3944L10.4418 14.3273V10.8215L13.4932 9.0665V6.93218H13.564V6.92801ZM13.564 12.5723V10.513L11.8091 11.5802V13.5602L13.564 12.5723ZM14.8604 13.2559L11.8132 15.0109V17.0702L16.6946 14.2481V8.60795L14.8646 9.75015L14.8604 13.2559ZM13.1055 5.17721L14.8604 6.24436V8.30365L16.6154 7.23649V5.17721L14.8604 4.11005L13.1055 5.17721ZM6.93185 15.7738V17.833L8.68681 18.9002L10.4418 17.833V15.7738L8.68681 16.8409L6.93185 15.7738ZM3.88046 12.5723L5.63543 13.5644V11.5051L3.88046 10.438V12.5723ZM6.93185 5.17721L8.68681 6.24436L10.5168 5.17721L8.76184 4.11005L6.93185 5.17721ZM2.58821 6.24436L4.41821 5.17721L2.58821 4.11005L0.833252 5.17721V7.23649L2.58821 8.30365V6.24436ZM2.58821 9.75015L0.833252 8.68299V14.3231L5.71463 17.1452V15.0859L2.66325 13.331V9.74598L2.58821 9.75015Z" fill="#F0F0F0"/>
<path d="M30.436 12.021C30.436 10.6496 29.6731 9.96177 28.531 9.50322C29.2938 9.12388 29.9024 8.43606 29.9024 7.29387C29.9024 5.69313 28.606 4.62598 26.5467 4.62598H21.8196V14.8432H26.6968C28.9103 14.764 30.436 13.8511 30.436 12.021ZM27.6139 7.67321C27.6139 8.43606 27.0053 8.74037 26.0131 8.74037H23.9539V6.53102H26.1632C27.1595 6.53102 27.6139 6.91453 27.6139 7.67321ZM28.2266 11.7167C28.2266 12.4796 27.618 12.8589 26.6259 12.8589H23.958V10.6496H26.5509C27.6931 10.5704 28.2266 11.0289 28.2266 11.7167Z" fill="#F0F0F0"/>
<path d="M41.491 4.62601H39.2775V10.8789L34.4754 4.62601H32.4203V14.8432H34.6296V8.36107L39.586 14.8432H41.491V4.62601Z" fill="#F0F0F0"/>
<path d="M52.6962 12.021C52.6962 10.6496 51.9333 9.96177 50.7911 9.50322C51.554 9.12388 52.1626 8.43606 52.1626 7.29387C52.1626 5.69313 50.8662 4.62598 48.8069 4.62598H44.0798V14.8432H48.957C51.1705 14.764 52.6962 13.8511 52.6962 12.021ZM49.9533 7.67321C49.9533 8.43606 49.3446 8.74037 48.3525 8.74037H46.2933V6.53102H48.5026C49.4197 6.53102 49.9533 6.91453 49.9533 7.67321ZM50.4868 11.7167C50.4868 12.4796 49.8782 12.8589 48.8861 12.8589H46.2182V10.6496H48.8111C49.9532 10.5704 50.4868 11.0289 50.4868 11.7167Z" fill="#F0F0F0"/>
<path d="M65.0349 13.1352L63.9255 12.0259C63.1118 12.8397 62.298 13.285 61.1118 13.285C59.1846 13.285 57.8526 11.7303 57.8526 9.73031C57.8526 7.80317 59.2616 6.25255 61.1118 6.25255C62.2211 6.25255 63.1118 6.77077 63.8527 7.51167L64.962 6.17967C63.9984 5.29302 62.8891 4.625 61.1118 4.625C58.1482 4.625 56.0024 6.92057 56.0024 9.73436C56.0024 12.621 58.1482 14.8437 61.0389 14.8437C62.8891 14.8356 63.9984 14.1717 65.0349 13.1352Z" fill="#F0F0F0"/>
<path d="M73.4761 10.544V14.6898H75.1806V4.76664H73.4761V8.91243H68.7393V4.76664H67.0348V14.6898H68.7393V10.544H73.4761Z" fill="#F0F0F0"/>
<path d="M83.0266 4.76668H81.399L77.0306 14.7627H78.8079L79.8444 12.3943H84.5084L85.5448 14.7627H87.395L83.0266 4.76668ZM83.9173 10.7627H80.5124L82.2169 6.83957L83.9173 10.7627Z" fill="#F0F0F0"/>
<path d="M89.3223 4.76664V14.6898H91.0227V4.76664H89.3223Z" fill="#F0F0F0"/>
<path d="M100.723 11.6534L95.3914 4.83955H93.8367V14.7627H95.5412V7.65334L101.019 14.6899H102.501V4.76668H100.796V11.6534H100.723Z" fill="#F0F0F0"/>
</svg>
