<svg width="24" height="25" viewBox="0 0 24 25" fill="none" xmlns="http://www.w3.org/2000/svg">
<g clip-path="url(#clip0_1363_2795)">
<path d="M19.9512 2.32242C20.0172 2.33318 20.0832 2.34395 20.1512 2.35504C20.2224 2.38703 20.2937 2.41901 20.3671 2.45197C20.4089 2.50362 20.4507 2.55527 20.4938 2.60848C20.5282 2.67346 20.5627 2.73844 20.5982 2.80539C20.637 2.87749 20.6758 2.94959 20.7158 3.02387C20.7553 3.10118 20.7948 3.17849 20.8355 3.25814C20.8768 3.33746 20.9181 3.41678 20.9607 3.4985C21.0414 3.65587 21.1212 3.81376 21.1999 3.97218C21.2802 4.13695 21.3595 4.30222 21.4384 4.46766C21.471 4.54638 21.5036 4.6251 21.5372 4.70621C21.5651 4.78654 21.593 4.86687 21.6217 4.94963C21.6492 5.05052 21.6767 5.1514 21.705 5.25534C21.7435 5.418 21.7809 5.5809 21.8175 5.74397C21.8746 6.00897 21.9299 6.27425 21.9841 6.53987C22.0147 6.6957 22.0452 6.85155 22.0755 7.00743C22.0847 7.06669 22.094 7.12595 22.1036 7.18701C22.0977 7.24309 22.0919 7.29917 22.0858 7.35694C22.1835 7.38846 22.2812 7.41997 22.3818 7.45244C22.4745 7.4976 22.5672 7.54277 22.6627 7.5893C22.6541 7.67166 22.6454 7.75403 22.6365 7.83889C22.5624 8.00487 22.4877 8.17063 22.4125 8.33616C22.4319 8.40105 22.4513 8.46594 22.4713 8.53279C22.5047 8.60921 22.5382 8.68562 22.5726 8.76435C22.6089 8.8491 22.6453 8.93386 22.6827 9.02119C22.7413 9.15407 22.7413 9.15407 22.801 9.28964C22.9138 9.54886 23.0256 9.80842 23.1363 10.0686C23.1691 10.149 23.202 10.2295 23.2359 10.3124C23.2618 10.382 23.2877 10.4516 23.3144 10.5233C23.3364 10.5884 23.3584 10.6535 23.381 10.7206C23.4008 10.7845 23.4205 10.8485 23.4409 10.9144C23.4589 10.9799 23.477 11.0453 23.4955 11.1128C23.513 11.1848 23.5305 11.2569 23.5486 11.3311C23.565 11.4056 23.5814 11.48 23.5983 11.5568C23.6281 11.707 23.6574 11.8574 23.6861 12.0079C23.7098 12.1216 23.7098 12.1216 23.734 12.2376C23.7482 12.3114 23.7625 12.3853 23.7771 12.4614C23.7879 12.5312 23.7987 12.601 23.8098 12.673C23.8183 12.7683 23.8183 12.7683 23.827 12.8656C23.816 12.9651 23.805 13.0646 23.7937 13.1671C23.7416 13.2658 23.7416 13.2658 23.6885 13.3665C23.6197 13.393 23.5509 13.4196 23.4801 13.4469C23.4057 13.4337 23.3314 13.4205 23.2548 13.4069C23.2069 13.3441 23.159 13.2814 23.1096 13.2168C23.0673 13.1265 23.0249 13.0363 22.9813 12.9433C22.9332 12.8427 22.885 12.742 22.8354 12.6384C22.7595 12.4788 22.7595 12.4788 22.682 12.3159C22.5996 12.1676 22.5996 12.1676 22.5155 12.0162C22.4603 11.9158 22.4051 11.8153 22.3482 11.7118C22.295 11.6083 22.2419 11.5048 22.1871 11.3982C22.1393 11.2821 22.0915 11.1659 22.0422 11.0461C22.0225 10.973 22.0029 10.8999 21.9826 10.8246C21.9478 10.6701 21.9139 10.5154 21.8812 10.3604C21.8667 10.2855 21.8522 10.2106 21.8373 10.1334C21.8244 10.0572 21.8116 9.98108 21.7983 9.9026C21.7804 9.802 21.7804 9.802 21.7621 9.69936C21.7279 9.58249 21.7279 9.58249 21.6929 9.46325C21.6795 9.54932 21.666 9.63539 21.6521 9.72406C21.6389 9.79134 21.6256 9.85862 21.612 9.92793C21.5871 9.99596 21.5622 10.064 21.5366 10.1341C21.4896 10.1835 21.4426 10.2329 21.3942 10.2838C21.3346 10.3264 21.2751 10.369 21.2137 10.4129C21.1136 10.4757 21.1136 10.4757 21.0114 10.5398C20.9398 10.5786 20.8682 10.6175 20.7945 10.6575C20.7234 10.6924 20.6523 10.7273 20.5791 10.7632C20.5052 10.7959 20.4313 10.8287 20.3552 10.8624C20.2771 10.8938 20.1991 10.9253 20.1186 10.9577C19.9941 11.0054 19.9941 11.0054 19.867 11.0541C19.7764 11.0889 19.6858 11.1237 19.5924 11.1596C19.401 11.2315 19.2091 11.3023 19.0168 11.3719C18.8373 11.4353 18.6576 11.4982 18.4777 11.5605C18.308 11.6171 18.1379 11.6723 17.9673 11.7263C17.7786 11.7831 17.5895 11.8384 17.4 11.8927C17.1776 11.9532 16.9548 12.0121 16.7317 12.0698C16.4513 12.1397 16.1702 12.2064 15.8887 12.2714C15.0675 12.4582 14.244 12.6346 13.4199 12.8077C11.5044 13.2069 9.58464 13.5856 7.66462 13.9622C7.47183 14.0001 7.27903 14.0379 7.08625 14.0758C6.90166 14.1121 6.71706 14.1482 6.53246 14.1844C6.20226 14.2495 5.87221 14.3151 5.5425 14.3826C5.22604 14.4517 4.91016 14.5231 4.59462 14.5962C4.47906 14.6239 4.36349 14.6516 4.24442 14.6802C4.10344 14.7058 4.10344 14.7058 3.95961 14.7319C3.87743 14.7345 3.79525 14.7372 3.71058 14.7399C3.65257 14.7225 3.59455 14.7052 3.53478 14.6873C3.51851 14.5722 3.50224 14.4571 3.48548 14.3385C3.42074 14.3477 3.356 14.3568 3.28929 14.3663C3.1717 14.3725 3.1717 14.3725 3.05174 14.3789C2.94365 14.2692 2.94365 14.2692 2.83339 14.1574C2.75325 14.0347 2.75325 14.0347 2.67149 13.9095C2.67738 13.8534 2.68327 13.7973 2.68933 13.7396C2.86639 13.6731 2.86639 13.6731 3.04703 13.6053C3.05586 13.5212 3.06468 13.4371 3.07378 13.3504C2.98323 13.2351 2.98323 13.2351 2.89086 13.1175C2.80914 13.0288 2.72742 12.9402 2.64322 12.8489C2.47884 12.6695 2.31513 12.4895 2.15228 12.3088C2.10356 12.2444 2.05484 12.1801 2.00464 12.1138C1.96801 12.0629 1.93139 12.0119 1.89365 11.9595C1.79581 11.8536 1.79581 11.8536 1.69599 11.7455C1.62415 11.7379 1.5523 11.7304 1.47827 11.7226C1.40698 11.7435 1.3357 11.7644 1.26225 11.7859C1.11487 11.8282 0.967327 11.8701 0.819584 11.9112C0.735468 11.9024 0.651352 11.8935 0.564687 11.8844C0.577658 11.7777 0.59063 11.671 0.603995 11.5611C0.642604 11.4464 0.681213 11.3318 0.720993 11.2136C0.785725 11.1708 0.850457 11.128 0.917151 11.0839C0.973402 11.0544 1.02965 11.0248 1.08761 10.9944C1.07134 10.8793 1.05507 10.7642 1.03831 10.6456C1.08967 10.6047 1.14102 10.5638 1.19393 10.5217C1.34229 10.4498 1.49094 10.3785 1.63985 10.3078C1.71135 10.2775 1.78285 10.2473 1.85651 10.2161C1.94836 10.185 2.04021 10.1539 2.13485 10.1218C2.21711 10.1145 2.29938 10.1072 2.38414 10.0997C2.47352 10.1121 2.5629 10.1246 2.65499 10.1375C2.75894 10.1736 2.86288 10.2098 2.96998 10.2471C3.01923 10.2838 3.06847 10.3205 3.1192 10.3583C3.19246 10.4255 3.19246 10.4255 3.2672 10.494C3.36969 10.5949 3.47141 10.6965 3.57244 10.7988C3.7361 10.9563 3.9011 11.1122 4.06667 11.2676C4.11807 11.3144 4.16947 11.3612 4.22242 11.4093C4.31092 11.4819 4.39941 11.5546 4.49059 11.6294C4.64169 11.736 4.7928 11.8426 4.94392 11.9491C5.02463 11.9745 5.10535 11.9999 5.18851 12.0261C5.36708 12.0007 5.36708 12.0007 5.54925 11.9747C5.65181 11.9477 5.65181 11.9477 5.75643 11.92C5.91127 11.8725 6.06577 11.8239 6.21997 11.7744C6.39072 11.7166 6.56099 11.6574 6.7308 11.5969C6.86099 11.5497 6.86099 11.5497 6.99381 11.5015C7.07985 11.471 7.16588 11.4404 7.25453 11.4089C7.42604 11.3474 7.59734 11.2853 7.76841 11.2225C7.85548 11.1893 7.94255 11.1561 8.03226 11.122C8.23314 11.0413 8.43367 10.9597 8.63377 10.8771C8.71464 10.8429 8.79551 10.8086 8.87883 10.7734C8.92554 10.7526 8.97226 10.7317 9.02039 10.7103C8.79266 10.79 8.56616 10.8725 8.33964 10.9556C8.26495 10.9836 8.19026 11.0115 8.1133 11.0404C8.04125 11.0664 7.9692 11.0925 7.89496 11.1193C7.82646 11.1446 7.75796 11.17 7.68738 11.1961C7.62707 11.21 7.56676 11.224 7.50463 11.2384C7.38287 11.1831 7.38287 11.1831 7.25865 11.1267C7.31836 10.9629 7.31836 10.9629 7.37929 10.7957C7.46845 10.7395 7.55762 10.6833 7.64949 10.6254C7.71229 10.5842 7.77509 10.543 7.83979 10.5005C7.77507 10.4967 7.71036 10.4929 7.64369 10.4889C7.48399 10.5102 7.48399 10.5102 7.32107 10.5319C7.25821 10.5522 7.19535 10.5725 7.13058 10.5934C6.99181 10.6464 6.8534 10.7002 6.71532 10.7549C6.57013 10.8141 6.425 10.8733 6.2799 10.9327C6.21041 10.9602 6.14092 10.9876 6.06933 11.0159C5.95122 11.0556 5.83312 11.0952 5.71143 11.1361C5.63026 11.0992 5.54908 11.0624 5.46545 11.0244C5.47181 10.9664 5.47817 10.9084 5.48472 10.8486C5.5113 10.7774 5.53788 10.7062 5.56526 10.6329C5.59895 10.5587 5.63263 10.4845 5.66733 10.4081C5.71426 10.3399 5.76118 10.2717 5.80952 10.2015C5.87391 10.1557 5.9383 10.11 6.00465 10.0628C6.07912 10.0272 6.1536 9.99168 6.23033 9.95504C6.34916 9.90772 6.34916 9.90772 6.47039 9.85944C6.55247 9.83018 6.63455 9.80093 6.71911 9.77078C6.80186 9.73828 6.88462 9.70577 6.96987 9.67228C7.12218 9.61354 7.27489 9.55584 7.4281 9.49953C7.48712 9.4816 7.54613 9.46367 7.60693 9.4452C7.66301 9.45108 7.71909 9.45697 7.77686 9.46303C7.75471 9.40401 7.73256 9.34499 7.70973 9.28418C7.61096 9.31368 7.61096 9.31368 7.5102 9.34377C7.42997 9.36547 7.34973 9.38717 7.26707 9.40952C7.19916 9.39719 7.13124 9.38486 7.06127 9.37215C6.99193 9.34173 6.9226 9.31131 6.85116 9.27997C6.77718 9.19514 6.77718 9.19514 6.7017 9.10859C6.6594 9.04214 6.6171 8.97569 6.57352 8.90722C6.53056 8.84071 6.4876 8.77419 6.44334 8.70565C6.40519 8.65027 6.36704 8.59488 6.32774 8.53782C6.24804 8.48694 6.24804 8.48694 6.16672 8.43502C6.22644 8.2712 6.22644 8.2712 6.28736 8.10408C6.35495 8.05093 6.42254 7.99779 6.49217 7.94303C6.57655 7.89873 6.66093 7.85444 6.74786 7.8088C6.87163 7.77504 6.87163 7.77504 6.99789 7.74061C7.1353 7.71673 7.1353 7.71673 7.27549 7.69237C7.35198 7.69231 7.42847 7.69225 7.50727 7.69218C7.68669 7.71103 7.86591 7.73179 8.04498 7.75363C8.15555 7.77167 8.26612 7.78971 8.38004 7.8083C8.50883 7.83392 8.63742 7.86058 8.76582 7.88809C9.05936 7.95391 9.352 8.02315 9.64442 8.09379C9.8048 8.13303 9.96518 8.17231 10.1255 8.21162C10.293 8.25218 10.4605 8.2927 10.6279 8.3332C11.9135 8.64523 13.1967 8.96676 14.4791 9.29134C14.6126 9.325 14.6126 9.325 14.7488 9.35935C14.9995 9.42268 15.25 9.48652 15.5005 9.55054C15.5757 9.56951 15.6509 9.58848 15.7284 9.60803C15.7965 9.62556 15.8646 9.64309 15.9348 9.66116C16.0913 9.70568 16.0913 9.70568 16.2509 9.75111C16.276 9.78209 16.3011 9.81307 16.3269 9.84499C16.3007 9.94322 16.3007 9.94322 16.2739 10.0434C16.2767 10.1181 16.2795 10.1928 16.2824 10.2698C16.3645 10.3316 16.4466 10.3934 16.5312 10.457C16.6892 10.5214 16.6892 10.5214 16.8504 10.5871C16.9239 10.5909 16.9975 10.5946 17.0733 10.5985C17.1709 10.5843 17.2685 10.5702 17.3691 10.5557C17.435 10.5368 17.5009 10.5178 17.5688 10.4983C17.6423 10.4741 17.7158 10.4498 17.7915 10.4249C17.9515 10.3684 18.1112 10.311 18.2706 10.253C18.3537 10.2234 18.4368 10.1938 18.5224 10.1632C18.6877 10.1034 18.8526 10.0429 19.0172 9.98142C19.1288 9.9378 19.1288 9.9378 19.2425 9.89329C19.3044 9.86654 19.3662 9.8398 19.4299 9.81224C19.5805 9.74291 19.7303 9.67178 19.8799 9.60047C19.9596 9.55978 20.0393 9.51909 20.1214 9.47717C20.1884 9.45353 20.2555 9.42989 20.3245 9.40554C20.4338 9.44535 20.543 9.48516 20.6555 9.52617C20.7337 9.59108 20.812 9.65599 20.8926 9.72286C20.8644 9.64538 20.8362 9.5679 20.8071 9.48807C20.7564 9.36989 20.7052 9.2519 20.6537 9.13406C20.5736 8.94541 20.4953 8.75619 20.4183 8.5663C20.3828 8.47261 20.3828 8.47261 20.3466 8.37703C20.3125 8.26394 20.2784 8.15085 20.2433 8.03433C20.192 7.83693 20.142 7.63922 20.0935 7.44112C20.0751 7.37075 20.0567 7.30039 20.0377 7.22789C20.0126 7.19691 19.9875 7.16593 19.9616 7.13401C19.8936 7.10616 19.8255 7.07831 19.7554 7.04961C19.671 7.0278 19.5866 7.00598 19.4996 6.98351C19.4154 6.97412 19.3313 6.96473 19.2446 6.95506C19.1728 6.98174 19.101 7.00842 19.027 7.03591C18.9905 7.13983 18.954 7.24374 18.9165 7.3508C18.9064 7.41626 18.8963 7.48172 18.8859 7.54916C18.8791 7.61868 18.8722 7.6882 18.8651 7.75983C18.858 7.82837 18.8508 7.89692 18.8435 7.96755C18.8399 8.0354 18.8362 8.10325 18.8325 8.17316C18.8336 8.23985 18.8347 8.30654 18.8358 8.37525C18.8459 8.43797 18.8561 8.50068 18.8665 8.5653C18.9282 8.66988 18.9898 8.77446 19.0534 8.88221C19.1447 8.99976 19.1447 8.99976 19.2378 9.11968C19.2319 9.17576 19.2261 9.23183 19.22 9.28961C19.1354 9.302 19.0509 9.31438 18.9637 9.32714C18.8771 9.32514 18.7905 9.32313 18.7013 9.32107C18.6791 9.26205 18.657 9.20303 18.6342 9.14222C18.577 9.21418 18.5198 9.28614 18.4609 9.36027C18.352 9.48703 18.352 9.48703 18.2408 9.61635C18.1647 9.64911 18.0886 9.68188 18.0102 9.71563C17.9402 9.72423 17.8702 9.73283 17.7981 9.74169C17.7169 9.70482 17.6358 9.66796 17.5521 9.62997C17.5887 9.56681 17.6252 9.50365 17.6628 9.43858C17.7225 9.36124 17.7823 9.28391 17.8438 9.20423C17.9326 9.08914 17.9326 9.08914 18.0232 8.97173C18.0909 8.86141 18.0909 8.86141 18.16 8.74885C18.1438 8.63376 18.1275 8.51866 18.1107 8.40007C18.0587 8.32197 18.0066 8.24387 17.953 8.1634C17.9076 8.08954 17.8622 8.01567 17.8155 7.93957C17.8523 7.8584 17.8892 7.77723 17.9272 7.69359C18.0423 7.67733 18.1574 7.66106 18.276 7.6443C18.3303 7.71733 18.3846 7.79036 18.4406 7.8656C18.4867 7.9165 18.5327 7.96739 18.5801 8.01983C18.6226 7.89406 18.6226 7.89406 18.6659 7.76575C18.6862 7.65627 18.7066 7.54679 18.7275 7.43399C18.7644 7.35282 18.8013 7.27164 18.8393 7.18801C18.7243 7.20252 18.6094 7.21704 18.491 7.23199C18.4086 7.24992 18.3263 7.26785 18.2414 7.28633C18.0565 7.33107 17.8717 7.37609 17.687 7.42142C17.5868 7.44811 17.4867 7.47481 17.3835 7.50231C17.2163 7.55054 17.2163 7.55054 17.0458 7.59975C16.9085 7.64202 16.7715 7.6855 16.6349 7.72976C16.1471 7.89639 15.6618 8.06988 15.1769 8.24447C14.9962 8.30992 14.8157 8.37567 14.6353 8.4418C14.4492 8.5098 14.2623 8.57585 14.0752 8.64126C14.0066 8.66982 13.9379 8.69838 13.8671 8.72781C13.8332 8.78094 13.7993 8.83407 13.7643 8.88882C13.6581 8.878 13.5518 8.86718 13.4423 8.85603C13.3062 8.83335 13.1702 8.80975 13.0343 8.78535C12.9672 8.77415 12.9 8.76295 12.8308 8.75142C12.6981 8.72871 12.5655 8.70488 12.4331 8.67987C12.3707 8.66782 12.3082 8.65576 12.2439 8.64334C12.1309 8.62262 12.0179 8.6019 11.9015 8.58056C11.8212 8.55264 11.7408 8.52472 11.658 8.49595C11.6584 8.39145 11.6587 8.28696 11.6591 8.17929C11.6796 8.11899 11.7001 8.05869 11.7212 7.99656C11.7519 7.93999 11.7827 7.88342 11.8143 7.82514C11.8966 7.7505 11.9788 7.67586 12.0636 7.59896C12.1207 7.56465 12.1777 7.53033 12.2366 7.49498C12.4177 7.40104 12.5997 7.3086 12.7819 7.21665C13.012 7.1048 13.2431 6.99572 13.4748 6.88705C13.5878 6.84078 13.7009 6.79451 13.8174 6.74684C13.9088 6.71719 13.9088 6.71719 14.002 6.68695C14.0627 6.66998 14.1235 6.65302 14.1861 6.63555C14.2975 6.6117 14.409 6.58785 14.5238 6.56328C14.6013 6.56012 14.6789 6.55696 14.7587 6.55371C14.8243 6.56125 14.8898 6.56879 14.9573 6.57657C15.0646 6.59082 15.0646 6.59082 15.1741 6.60536C15.2399 6.6209 15.3057 6.63644 15.3735 6.65246C15.4707 6.70518 15.5679 6.75791 15.6681 6.81223C15.7583 6.86422 15.8485 6.91621 15.9415 6.96978C16.0456 6.98679 16.1497 7.0038 16.2569 7.02132C16.3772 7.02785 16.4974 7.03439 16.6212 7.04112C16.7291 7.02947 16.837 7.01783 16.9482 7.00583C17.0594 6.98566 17.1707 6.9655 17.2853 6.94472C17.4709 6.91245 17.4709 6.91245 17.6601 6.87953C17.789 6.85631 17.9179 6.83298 18.0468 6.80955C18.2998 6.76363 18.5529 6.71893 18.8062 6.67483C18.926 6.65527 19.0458 6.63571 19.1692 6.61556C19.3356 6.59336 19.3356 6.59336 19.5054 6.57071C19.6015 6.5647 19.6976 6.5587 19.7966 6.55251C19.9222 6.55196 19.9222 6.55196 20.0503 6.55139C20.1214 6.55274 20.1925 6.55408 20.2657 6.55546C20.3261 6.56482 20.3866 6.57419 20.4489 6.58383C20.5438 6.64163 20.6387 6.69943 20.7365 6.75898C20.7981 6.83099 20.8596 6.90301 20.923 6.9772C20.9895 7.15426 20.9895 7.15426 21.0573 7.3349C21.0462 7.28435 21.0351 7.2338 21.0237 7.18172C20.9934 7.08619 20.9631 6.99066 20.9319 6.89224C20.853 6.71531 20.774 6.53846 20.6931 6.36243C20.6303 6.22426 20.5682 6.08573 20.5069 5.94689C20.4609 5.83797 20.4609 5.83797 20.414 5.72686C20.3843 5.65256 20.3546 5.57825 20.3241 5.5017C20.2972 5.42645 20.2704 5.3512 20.2428 5.27368C20.2112 5.16055 20.2112 5.16055 20.179 5.04514C20.1614 4.97022 20.1437 4.89529 20.1255 4.8181C20.1099 4.74422 20.0942 4.67034 20.0781 4.59422C20.0383 4.38757 19.9997 4.18084 19.9632 3.97359C19.9431 3.85222 19.9231 3.73086 19.9024 3.60582C19.8817 3.49468 19.8609 3.38354 19.8395 3.26903C19.8248 3.17801 19.8101 3.087 19.7949 2.99323C19.7994 2.8998 19.8039 2.80637 19.8085 2.7101C19.8217 2.6353 19.8349 2.5605 19.8484 2.48343C19.8824 2.4303 19.9163 2.37716 19.9512 2.32242ZM20.0766 2.76508C20.1097 2.87132 20.1429 2.97756 20.177 3.08702C20.2027 3.15161 20.2283 3.2162 20.2548 3.28275C20.2995 3.38063 20.2995 3.38063 20.3451 3.48048C20.3782 3.53987 20.4113 3.59926 20.4453 3.66045C20.4785 3.71255 20.5117 3.76464 20.5459 3.81831C20.6303 3.9255 20.6303 3.9255 20.7164 4.03486C20.7253 3.95074 20.7341 3.86663 20.7432 3.77996C20.7102 3.69998 20.6771 3.62 20.6431 3.53759C20.5758 3.40346 20.5758 3.40346 20.5071 3.26662C20.4628 3.17659 20.4184 3.08656 20.3727 2.9938C20.331 2.92421 20.2894 2.85462 20.2465 2.78292C20.1904 2.77703 20.1344 2.77114 20.0766 2.76508ZM20.8014 4.04378C20.8206 4.13084 20.8398 4.21789 20.8596 4.30759C20.8684 4.22348 20.8773 4.13936 20.8864 4.05269C20.8583 4.04975 20.8303 4.04681 20.8014 4.04378ZM21.0206 4.41039C21.0877 4.58924 21.0877 4.58924 21.0877 4.58924L21.0206 4.41039ZM14.6581 6.92098C14.7754 7.01834 14.7754 7.01834 14.8952 7.11767C15.0038 7.17159 15.0038 7.17159 15.1146 7.2266C15.1765 7.26144 15.2384 7.29628 15.3022 7.33218C15.2963 7.38826 15.2904 7.44434 15.2843 7.50212C15.194 7.53516 15.1038 7.56821 15.0107 7.60225C14.8806 7.65238 14.8806 7.65238 14.7478 7.70351C14.7699 7.76253 14.7921 7.82155 14.8149 7.88236C14.8982 7.86242 14.9814 7.84248 15.0672 7.82193C15.1688 7.78509 15.2705 7.74826 15.3752 7.7103C15.5291 7.65686 15.5291 7.65686 15.6862 7.60235C15.7528 7.56183 15.8194 7.52132 15.888 7.47957C15.8509 7.42939 15.8137 7.3792 15.7754 7.3275C15.7093 7.2818 15.6431 7.23609 15.5749 7.18901C15.4802 7.12858 15.4802 7.12858 15.3837 7.06693C15.3125 7.03642 15.2413 7.00592 15.1679 6.97449C15.0218 6.94852 15.0218 6.94852 14.8727 6.92203C14.8019 6.92169 14.7311 6.92134 14.6581 6.92098ZM21.1155 7.59871C21.1826 7.77756 21.1826 7.77756 21.1826 7.77756L21.1155 7.59871ZM21.4554 7.63438C21.4746 7.72144 21.4938 7.8085 21.5136 7.8982C21.6157 7.88765 21.7178 7.87711 21.823 7.86624C21.973 7.82884 21.973 7.82884 22.1262 7.79069C22.1291 7.76265 22.1321 7.73461 22.1351 7.70572C21.9653 7.67728 21.9653 7.67728 21.7921 7.64826C21.6254 7.64139 21.6254 7.64139 21.4554 7.63438ZM21.1826 7.77756C21.2498 7.95641 21.2498 7.95641 21.2498 7.95641L21.1826 7.77756ZM13.9427 7.1895C13.8521 7.21421 13.7614 7.23891 13.6681 7.26437C13.5769 7.30031 13.4858 7.33626 13.3919 7.37329C13.2543 7.42612 13.2543 7.42612 13.1139 7.48002C13.0333 7.51707 12.9527 7.55412 12.8696 7.59229C12.7767 7.66758 12.6837 7.74286 12.588 7.82043C12.7298 7.86189 12.7298 7.86189 12.8745 7.90419C12.9452 7.90984 13.0159 7.91549 13.0888 7.92131C13.2194 7.91111 13.2194 7.91111 13.3526 7.90069C13.519 7.85436 13.519 7.85436 13.6886 7.8071C13.8032 7.76598 13.9178 7.72485 14.0359 7.68248C14.147 7.64032 14.258 7.59816 14.3725 7.55473C14.4491 7.51382 14.5257 7.47292 14.6046 7.43078C14.5544 7.36881 14.5042 7.30685 14.4525 7.24301C14.3766 7.22652 14.3007 7.21003 14.2225 7.19303C14.1302 7.19187 14.0378 7.1907 13.9427 7.1895ZM21.308 8.22023C21.3751 8.39908 21.3751 8.39908 21.3751 8.39908L21.308 8.22023ZM21.3751 8.39908C21.4422 8.57793 21.4422 8.57793 21.4422 8.57793L21.3751 8.39908ZM21.4422 8.57793C21.4544 8.66425 21.4666 8.75057 21.4792 8.83951C21.5054 8.92731 21.5316 9.0151 21.5587 9.10556C21.5955 9.02438 21.6324 8.94321 21.6704 8.85958C21.5951 8.76663 21.5198 8.67369 21.4422 8.57793ZM9.00626 8.38944C9.00332 8.41748 9.00038 8.44551 8.99735 8.4744C9.10397 8.51331 9.10397 8.51331 9.21275 8.553C9.31417 8.58481 9.41558 8.61663 9.52006 8.64941C9.63444 8.68549 9.74882 8.72156 9.86667 8.75873C9.99321 8.79817 10.1198 8.83757 10.2463 8.87695C10.3752 8.91731 10.5042 8.95768 10.6331 8.99807C10.9043 9.08292 11.1757 9.16747 11.4471 9.25181C11.7937 9.35957 12.14 9.46827 12.4862 9.57724C12.753 9.66105 13.0199 9.74425 13.2869 9.8273C13.4145 9.8671 13.5421 9.9071 13.6696 9.94731C13.849 10.0038 14.0286 10.0594 14.2083 10.1149C14.3102 10.1467 14.4122 10.1785 14.5173 10.2113C14.6172 10.2367 14.7171 10.262 14.8201 10.2882C14.9391 10.3062 15.0581 10.3243 15.1807 10.3429C15.286 10.3484 15.3913 10.3539 15.4998 10.3595C15.5923 10.3157 15.6849 10.2719 15.7802 10.2268C15.8116 10.1702 15.843 10.1136 15.8754 10.0553C15.731 9.9968 15.731 9.9968 15.5838 9.93711C15.5059 9.91762 15.4281 9.89813 15.3479 9.87805C15.2575 9.8574 15.167 9.83675 15.0737 9.81547C14.9804 9.79263 14.887 9.76979 14.7908 9.74626C14.5665 9.69143 14.342 9.63737 14.1173 9.58384C13.6245 9.46577 13.1334 9.34114 12.642 9.21698C12.2631 9.1215 11.884 9.02617 11.505 8.93087C11.411 8.9072 11.3169 8.88352 11.22 8.85913C10.9485 8.79094 10.6768 8.72325 10.4051 8.65571C10.323 8.63503 10.241 8.61436 10.1565 8.59306C10.0075 8.55621 9.85844 8.51998 9.70916 8.48453C9.64544 8.4708 9.58171 8.45708 9.51606 8.44294C9.41379 8.42797 9.31152 8.413 9.20616 8.39758C9.14019 8.39489 9.07423 8.39221 9.00626 8.38944ZM22.5342 11.2696C22.6013 11.4484 22.6013 11.4484 22.6013 11.4484L22.5342 11.2696ZM22.6773 11.5423C22.6965 11.6294 22.7158 11.7164 22.7355 11.8061C22.7444 11.722 22.7532 11.6379 22.7623 11.5512C22.7343 11.5483 22.7062 11.5453 22.6773 11.5423ZM15.0037 10.9946C14.9341 11.0063 14.8646 11.018 14.793 11.0301C14.6948 11.0586 14.6948 11.0586 14.5946 11.0876C14.5266 11.1105 14.4586 11.1334 14.3886 11.157C14.3175 11.1828 14.2464 11.2085 14.1731 11.235C14.0117 11.2891 13.8502 11.3427 13.6885 11.3958C13.6015 11.4244 13.5145 11.4531 13.4249 11.4826C13.3306 11.5121 13.2363 11.5416 13.1391 11.5721C12.8043 11.6667 12.4687 11.7572 12.1323 11.8461C12.0197 11.8755 11.9071 11.9049 11.791 11.9352C11.6828 11.9637 11.5746 11.9922 11.463 12.0216C11.0873 12.1196 10.711 12.2153 10.3338 12.3076C10.2281 12.3321 10.2281 12.3321 10.1203 12.3572C10.0098 12.3788 9.89938 12.4004 9.78558 12.4227C9.66784 12.405 9.66784 12.405 9.54773 12.387C9.45959 12.3406 9.45959 12.3406 9.36967 12.2932C9.32012 12.2419 9.27058 12.1906 9.21954 12.1378C9.16575 12.0932 9.11197 12.0486 9.05656 12.0026C8.95172 11.9981 8.95172 11.9981 8.84477 11.9935C8.74349 12.0069 8.6422 12.0203 8.53784 12.034C8.47171 12.0503 8.40558 12.0666 8.33744 12.0833C8.18157 12.1271 8.02607 12.1721 7.87088 12.2182C7.74358 12.2569 7.74358 12.2569 7.61371 12.2964C7.52518 12.3228 7.43665 12.3492 7.34544 12.3765C7.06329 12.4607 6.78137 12.5457 6.49947 12.6308C6.21757 12.7155 5.93561 12.8 5.6536 12.8843C5.47839 12.9367 5.30325 12.9893 5.12819 13.0422C4.90584 13.109 4.68322 13.1744 4.45999 13.2382C4.35388 13.2669 4.24777 13.2957 4.13845 13.3253C4.07044 13.335 4.00243 13.3446 3.93236 13.3546C3.93178 13.2925 3.93121 13.2305 3.93062 13.1665C3.97395 13.0913 4.01727 13.0162 4.06191 12.9387C4.15293 12.8987 4.24395 12.8586 4.33772 12.8173C4.42376 12.7909 4.50981 12.7645 4.59846 12.7373C4.6014 12.7093 4.60434 12.6812 4.60737 12.6523C4.5025 12.6219 4.39763 12.5914 4.28957 12.5599C4.22208 12.5383 4.15458 12.5168 4.08504 12.4945C4.01095 12.464 3.93685 12.4336 3.86052 12.4022C3.78116 12.3543 3.70181 12.3064 3.62005 12.2571C3.46614 12.1515 3.31298 12.0448 3.16074 11.9368C3.1009 11.8898 3.04105 11.8427 2.9794 11.7943C2.92921 11.7323 2.87902 11.6703 2.8273 11.6065C2.73082 11.5804 2.63434 11.5544 2.53494 11.5275C2.46319 11.5359 2.39143 11.5443 2.31751 11.553C2.39599 11.6915 2.39599 11.6915 2.47606 11.8327C2.5214 11.8924 2.56674 11.9521 2.61345 12.0136C2.68841 12.1065 2.68841 12.1065 2.76488 12.2013C2.81015 12.2574 2.85541 12.3135 2.90205 12.3714C2.96826 12.4527 2.96826 12.4527 3.0358 12.5357C3.12306 12.6432 3.2102 12.7508 3.29722 12.8584C3.34073 12.9113 3.38423 12.9641 3.42906 13.0186C3.46693 13.0682 3.5048 13.1178 3.54382 13.1689C3.58498 13.2494 3.62613 13.3299 3.66854 13.4128C3.60334 13.4432 3.53815 13.4736 3.47097 13.5048C3.34965 13.5213 3.34965 13.5213 3.22588 13.5382C3.22293 13.5662 3.21999 13.5943 3.21696 13.6231C3.3084 13.6366 3.3084 13.6366 3.40169 13.6502C3.49337 13.6556 3.58506 13.6609 3.67952 13.6663C3.83944 13.6696 3.83944 13.6696 4.0026 13.6729C4.06768 13.6723 4.13277 13.6718 4.19982 13.6713C4.27096 13.6686 4.3421 13.6658 4.4154 13.663C4.52821 13.6532 4.52821 13.6532 4.64329 13.6432C4.80932 13.6246 4.97521 13.6048 5.14099 13.5841C5.23008 13.5722 5.31918 13.5603 5.41097 13.5481C5.50589 13.5354 5.60081 13.5227 5.6986 13.5097C5.89785 13.4819 6.09696 13.4532 6.29595 13.4237C6.39399 13.408 6.49203 13.3923 6.59305 13.3762C6.77841 13.343 6.96357 13.3088 7.14851 13.2733C7.51724 13.1995 7.8851 13.1219 8.25268 13.0424C8.44212 13.0008 8.63154 12.9592 8.82095 12.9174C9.02102 12.8739 9.22109 12.8305 9.42117 12.787C10.0025 12.6598 10.5832 12.5301 11.1629 12.3955C11.6096 12.2891 12.0552 12.1786 12.5001 12.0651C12.9819 11.9409 13.4629 11.8133 13.9436 11.6848C14.389 11.5669 14.8362 11.4564 15.2835 11.3461C15.3517 11.3296 15.4199 11.313 15.4902 11.296C15.5496 11.2812 15.6091 11.2664 15.6703 11.2512C15.7558 11.2269 15.8413 11.2027 15.9294 11.1777C15.9323 11.1497 15.9353 11.1216 15.9383 11.0927C15.8807 11.0801 15.8232 11.0675 15.7639 11.0545C15.6846 11.0442 15.6052 11.0339 15.5234 11.0233C15.4376 11.0153 15.3517 11.0072 15.2632 10.9988C15.1775 10.9975 15.0919 10.9961 15.0037 10.9946ZM22.8205 11.815C22.8334 11.8766 22.8463 11.9382 22.8596 12.0017C22.8881 12.0862 22.9165 12.1707 22.9459 12.2577C22.9965 12.372 22.9965 12.372 23.0481 12.4886C23.1042 12.5981 23.1042 12.5981 23.1615 12.7098C23.1989 12.7846 23.2364 12.8594 23.2749 12.9365C23.3081 12.9825 23.3412 13.0285 23.3754 13.0759C23.4123 12.9947 23.4491 12.9136 23.4871 12.8299C23.4561 12.7574 23.4251 12.6848 23.3931 12.61C23.3463 12.5291 23.2996 12.4483 23.2514 12.3649C23.2053 12.2837 23.1592 12.2025 23.1118 12.1188C23.0688 12.0525 23.0258 11.9862 22.9815 11.9178C22.9284 11.8839 22.8753 11.85 22.8205 11.815ZM17.2118 7.96212C17.3284 7.98078 17.3284 7.98078 17.4473 7.99982C17.5069 8.03013 17.5664 8.06044 17.6277 8.09167C17.7004 8.17548 17.7731 8.2593 17.848 8.34565C17.8978 8.44479 17.9477 8.54392 17.999 8.64605C17.9942 8.72528 17.9895 8.80451 17.9846 8.88613C17.9436 8.9722 17.9027 9.05826 17.8605 9.14693C17.822 9.20932 17.7834 9.27172 17.7437 9.336C17.6998 9.40137 17.6558 9.46674 17.6105 9.53409C17.567 9.59563 17.5234 9.65716 17.4785 9.72056C17.4176 9.79307 17.4176 9.79307 17.3555 9.86703C17.2669 9.90026 17.2669 9.90026 17.1766 9.93416C17.038 9.89847 17.038 9.89847 16.8966 9.86205C16.2095 9.64652 16.2095 9.64652 15.9546 9.56492C15.7515 9.50014 15.5481 9.43683 15.3446 9.37362C15.2165 9.33303 15.0885 9.29236 14.9604 9.25159C14.8431 9.21443 14.7257 9.17728 14.6048 9.13899C14.4788 9.08812 14.4788 9.08812 14.3502 9.03621C14.3561 8.98013 14.362 8.92405 14.368 8.86628C14.4527 8.83184 14.5373 8.79741 14.6245 8.76193C15.2862 8.54697 15.2862 8.54697 15.5615 8.46004C15.7632 8.39605 15.9642 8.33003 16.1652 8.26383C16.2934 8.22286 16.4215 8.182 16.5497 8.14128C16.6666 8.1038 16.7834 8.06632 16.9038 8.02771C17.0054 8.00607 17.1071 7.98442 17.2118 7.96212Z" fill="#E30437"/>
<path d="M0 23.4141C10.1597 23.4141 16.2332 14.7474 18 10.4141" stroke="#E30437" stroke-width="2.19495"/>
<path d="M0 23.4141C10.1597 23.4141 16.2332 14.7474 18 10.4141H22.5V23.4141H18H0Z" fill="#E30437" fill-opacity="0.28"/>
</g>
<defs>
<clipPath id="clip0_1363_2795">
<rect width="24" height="24" fill="white" transform="translate(0 0.375)"/>
</clipPath>
</defs>
</svg>
