<svg width="258" height="109" viewBox="0 0 258 109" fill="none" xmlns="http://www.w3.org/2000/svg">
<mask id="path-1-outside-1_2006_2125" maskUnits="userSpaceOnUse" x="3.5" y="36.5825" width="34" height="34" fill="black">
<rect fill="white" x="3.5" y="36.5825" width="34" height="34"/>
<path d="M35.828 47.0225V60.8225H28.008V69.5625H12.368V60.8225H4.548V47.0225H12.368V38.2825H28.008V47.0225H35.828Z"/>
</mask>
<path d="M35.828 47.0225V60.8225H28.008V69.5625H12.368V60.8225H4.548V47.0225H12.368V38.2825H28.008V47.0225H35.828Z" fill="url(#paint0_linear_2006_2125)"/>
<path d="M35.828 47.0225H36.828C36.828 46.4702 36.3803 46.0225 35.828 46.0225V47.0225ZM35.828 60.8225V61.8225C36.3803 61.8225 36.828 61.3748 36.828 60.8225H35.828ZM28.008 60.8225V59.8225C27.4557 59.8225 27.008 60.2702 27.008 60.8225H28.008ZM28.008 69.5625V70.5625C28.5603 70.5625 29.008 70.1148 29.008 69.5625H28.008ZM12.368 69.5625H11.368C11.368 70.1148 11.8157 70.5625 12.368 70.5625V69.5625ZM12.368 60.8225H13.368C13.368 60.2702 12.9203 59.8225 12.368 59.8225V60.8225ZM4.548 60.8225H3.548C3.548 61.3748 3.99572 61.8225 4.548 61.8225V60.8225ZM4.548 47.0225V46.0225C3.99572 46.0225 3.548 46.4702 3.548 47.0225H4.548ZM12.368 47.0225V48.0225C12.9203 48.0225 13.368 47.5748 13.368 47.0225H12.368ZM12.368 38.2825V37.2825C11.8157 37.2825 11.368 37.7302 11.368 38.2825H12.368ZM28.008 38.2825H29.008C29.008 37.7302 28.5603 37.2825 28.008 37.2825V38.2825ZM28.008 47.0225H27.008C27.008 47.5748 27.4557 48.0225 28.008 48.0225V47.0225ZM34.828 47.0225V60.8225H36.828V47.0225H34.828ZM35.828 59.8225H28.008V61.8225H35.828V59.8225ZM27.008 60.8225V69.5625H29.008V60.8225H27.008ZM28.008 68.5625H12.368V70.5625H28.008V68.5625ZM13.368 69.5625V60.8225H11.368V69.5625H13.368ZM12.368 59.8225H4.548V61.8225H12.368V59.8225ZM5.548 60.8225V47.0225H3.548V60.8225H5.548ZM4.548 48.0225H12.368V46.0225H4.548V48.0225ZM13.368 47.0225V38.2825H11.368V47.0225H13.368ZM12.368 39.2825H28.008V37.2825H12.368V39.2825ZM27.008 38.2825V47.0225H29.008V38.2825H27.008ZM28.008 48.0225H35.828V46.0225H28.008V48.0225Z" fill="url(#paint1_linear_2006_2125)" mask="url(#path-1-outside-1_2006_2125)"/>
<mask id="path-3-outside-2_2006_2125" maskUnits="userSpaceOnUse" x="30.5" y="19.5825" width="50" height="69" fill="black">
<rect fill="white" x="30.5" y="19.5825" width="50" height="69"/>
<path d="M53.432 87.4105C48.648 87.4105 44.324 86.5212 40.46 84.7425C36.6573 82.9025 33.7133 80.3572 31.628 77.1065L41.196 66.0665C42.9747 67.9679 44.9373 69.4705 47.084 70.5745C49.292 71.6172 51.4387 72.1385 53.524 72.1385C55.0573 72.1385 56.3453 71.8625 57.388 71.3105C58.492 70.7585 59.32 69.9612 59.872 68.9185C60.4853 67.8759 60.792 66.6799 60.792 65.3305C60.792 63.9812 60.516 62.8159 59.964 61.8345C59.4733 60.7919 58.7373 59.9945 57.756 59.4425C56.836 58.8905 55.732 58.6145 54.444 58.6145C53.156 58.6145 51.96 58.9212 50.856 59.5345C49.8133 60.0865 49.016 60.8532 48.464 61.8345H33.468L41.196 21.1705H73.948V37.0865H53.8L52.788 44.1705C52.788 44.1705 53.1253 44.1092 53.8 43.9865C54.4747 43.8025 55.548 43.7105 57.02 43.7105C61.252 43.7105 64.9933 44.6305 68.244 46.4705C71.4947 48.2492 74.04 50.7332 75.88 53.9225C77.7813 57.1119 78.732 60.7919 78.732 64.9625C78.732 69.3785 77.6587 73.2732 75.512 76.6465C73.3653 80.0199 70.3907 82.6572 66.588 84.5585C62.8467 86.4599 58.4613 87.4105 53.432 87.4105Z"/>
</mask>
<path d="M53.432 87.4105C48.648 87.4105 44.324 86.5212 40.46 84.7425C36.6573 82.9025 33.7133 80.3572 31.628 77.1065L41.196 66.0665C42.9747 67.9679 44.9373 69.4705 47.084 70.5745C49.292 71.6172 51.4387 72.1385 53.524 72.1385C55.0573 72.1385 56.3453 71.8625 57.388 71.3105C58.492 70.7585 59.32 69.9612 59.872 68.9185C60.4853 67.8759 60.792 66.6799 60.792 65.3305C60.792 63.9812 60.516 62.8159 59.964 61.8345C59.4733 60.7919 58.7373 59.9945 57.756 59.4425C56.836 58.8905 55.732 58.6145 54.444 58.6145C53.156 58.6145 51.96 58.9212 50.856 59.5345C49.8133 60.0865 49.016 60.8532 48.464 61.8345H33.468L41.196 21.1705H73.948V37.0865H53.8L52.788 44.1705C52.788 44.1705 53.1253 44.1092 53.8 43.9865C54.4747 43.8025 55.548 43.7105 57.02 43.7105C61.252 43.7105 64.9933 44.6305 68.244 46.4705C71.4947 48.2492 74.04 50.7332 75.88 53.9225C77.7813 57.1119 78.732 60.7919 78.732 64.9625C78.732 69.3785 77.6587 73.2732 75.512 76.6465C73.3653 80.0199 70.3907 82.6572 66.588 84.5585C62.8467 86.4599 58.4613 87.4105 53.432 87.4105Z" fill="url(#paint2_linear_2006_2125)"/>
<path d="M40.46 84.7425L40.0244 85.6427C40.0302 85.6455 40.036 85.6482 40.0419 85.6509L40.46 84.7425ZM31.628 77.1065L30.8723 76.4516C30.5818 76.7867 30.5468 77.2732 30.7863 77.6465L31.628 77.1065ZM41.196 66.0665L41.9263 65.3834C41.7327 65.1764 41.4604 65.0613 41.177 65.0667C40.8937 65.0721 40.6259 65.1974 40.4403 65.4116L41.196 66.0665ZM47.084 70.5745L46.6267 71.4638C46.6367 71.469 46.6468 71.474 46.657 71.4788L47.084 70.5745ZM57.388 71.3105L56.9408 70.4161C56.9339 70.4196 56.927 70.4231 56.9201 70.4267L57.388 71.3105ZM59.872 68.9185L59.0101 68.4115C59.0025 68.4244 58.9952 68.4374 58.9882 68.4506L59.872 68.9185ZM59.964 61.8345L59.0592 62.2603C59.0695 62.2822 59.0806 62.3037 59.0924 62.3248L59.964 61.8345ZM57.756 59.4425L57.2415 60.3C57.2495 60.3048 57.2576 60.3095 57.2657 60.3141L57.756 59.4425ZM50.856 59.5345L51.3239 60.4183C51.3298 60.4152 51.3358 60.4119 51.3416 60.4087L50.856 59.5345ZM48.464 61.8345V62.8345C48.8253 62.8345 49.1585 62.6397 49.3356 62.3248L48.464 61.8345ZM33.468 61.8345L32.4856 61.6478C32.43 61.9405 32.5077 62.2427 32.6977 62.4722C32.8877 62.7017 33.1701 62.8345 33.468 62.8345V61.8345ZM41.196 21.1705V20.1705C40.7157 20.1705 40.3033 20.512 40.2136 20.9838L41.196 21.1705ZM73.948 21.1705H74.948C74.948 20.6182 74.5003 20.1705 73.948 20.1705V21.1705ZM73.948 37.0865V38.0865C74.5003 38.0865 74.948 37.6388 74.948 37.0865H73.948ZM53.8 37.0865V36.0865C53.3024 36.0865 52.8804 36.4524 52.8101 36.9451L53.8 37.0865ZM52.788 44.1705L51.7981 44.0291C51.7526 44.3473 51.8629 44.668 52.0944 44.8909C52.326 45.1139 52.6506 45.2119 52.9669 45.1544L52.788 44.1705ZM53.8 43.9865L53.9789 44.9704C54.0072 44.9652 54.0353 44.9589 54.0631 44.9513L53.8 43.9865ZM68.244 46.4705L67.7514 47.3408C67.7556 47.3431 67.7598 47.3455 67.764 47.3478L68.244 46.4705ZM75.88 53.9225L75.0138 54.4222C75.0162 54.4264 75.0186 54.4305 75.0211 54.4346L75.88 53.9225ZM75.512 76.6465L76.3557 77.1834L76.3557 77.1834L75.512 76.6465ZM66.588 84.5585L66.1408 83.6641L66.135 83.667L66.588 84.5585ZM53.432 86.4105C48.7743 86.4105 44.5955 85.5453 40.8781 83.8341L40.0419 85.6509C44.0525 87.4971 48.5217 88.4105 53.432 88.4105V86.4105ZM40.8956 83.8424C37.2428 82.0749 34.4462 79.6476 32.4697 76.5666L30.7863 77.6465C32.9805 81.0668 36.0719 83.7302 40.0244 85.6427L40.8956 83.8424ZM32.3837 77.7614L41.9517 66.7214L40.4403 65.4116L30.8723 76.4516L32.3837 77.7614ZM40.4657 66.7497C42.3167 68.7283 44.3701 70.3033 46.6267 71.4638L47.5413 69.6852C45.5046 68.6377 43.6327 67.2074 41.9263 65.3834L40.4657 66.7497ZM46.657 71.4788C48.9758 72.5738 51.2678 73.1385 53.524 73.1385V71.1385C51.6095 71.1385 49.6082 70.6606 47.511 69.6703L46.657 71.4788ZM53.524 73.1385C55.1731 73.1385 56.6324 72.8421 57.8559 72.1943L56.9201 70.4267C56.0583 70.883 54.9416 71.1385 53.524 71.1385V73.1385ZM57.8352 72.2049C59.1165 71.5643 60.1016 70.6221 60.7558 69.3864L58.9882 68.4506C58.5384 69.3002 57.8675 69.9527 56.9408 70.4161L57.8352 72.2049ZM60.7339 69.4255C61.4478 68.212 61.792 66.8371 61.792 65.3305H59.792C59.792 66.5227 59.5229 67.5397 59.0101 68.4115L60.7339 69.4255ZM61.792 65.3305C61.792 63.8435 61.487 62.5024 60.8356 61.3443L59.0924 62.3248C59.545 63.1293 59.792 64.1189 59.792 65.3305H61.792ZM60.8688 61.4087C60.2919 60.1827 59.4132 59.2274 58.2463 58.5709L57.2657 60.3141C58.0614 60.7617 58.6548 61.401 59.0592 62.2603L60.8688 61.4087ZM58.2705 58.585C57.1665 57.9226 55.8768 57.6145 54.444 57.6145V59.6145C55.5873 59.6145 56.5055 59.8584 57.2415 60.3L58.2705 58.585ZM54.444 57.6145C52.9896 57.6145 51.626 57.9628 50.3704 58.6604L51.3416 60.4087C52.294 59.8796 53.3224 59.6145 54.444 59.6145V57.6145ZM50.3881 58.6507C49.1845 59.288 48.2431 60.1875 47.5924 61.3443L49.3356 62.3248C49.7889 61.5188 50.4422 60.8851 51.3239 60.4183L50.3881 58.6507ZM48.464 60.8345H33.468V62.8345H48.464V60.8345ZM34.4504 62.0212L42.1784 21.3572L40.2136 20.9838L32.4856 61.6478L34.4504 62.0212ZM41.196 22.1705H73.948V20.1705H41.196V22.1705ZM72.948 21.1705V37.0865H74.948V21.1705H72.948ZM73.948 36.0865H53.8V38.0865H73.948V36.0865ZM52.8101 36.9451L51.7981 44.0291L53.7779 44.3119L54.79 37.2279L52.8101 36.9451ZM52.788 44.1705C52.9669 45.1544 52.9669 45.1544 52.9669 45.1544C52.9669 45.1544 52.9669 45.1544 52.9669 45.1544C52.9669 45.1544 52.9669 45.1544 52.9669 45.1544C52.9669 45.1544 52.9669 45.1544 52.9669 45.1544C52.967 45.1544 52.9669 45.1544 52.967 45.1544C52.9671 45.1544 52.9671 45.1544 52.9671 45.1543C52.9672 45.1543 52.9673 45.1543 52.9674 45.1543C52.9683 45.1541 52.967 45.1544 52.9679 45.1542C52.9684 45.1541 52.9676 45.1543 52.9681 45.1542C52.9682 45.1541 52.9684 45.1541 52.9684 45.1541C52.9691 45.154 52.9684 45.1541 52.9691 45.154C52.9699 45.1538 52.9687 45.1541 52.9695 45.1539C52.9696 45.1539 52.9696 45.1539 52.9697 45.1539C52.9698 45.1539 52.9698 45.1538 52.9699 45.1538C52.9703 45.1538 52.9699 45.1538 52.9704 45.1538C52.9708 45.1537 52.9704 45.1537 52.9708 45.1537C52.9775 45.1524 52.9684 45.1541 52.9758 45.1528C52.9914 45.1499 52.9664 45.1545 52.9827 45.1515C52.9884 45.1505 52.9941 45.1494 53.0025 45.1479C53.019 45.1449 53.011 45.1464 53.0301 45.1429C53.0991 45.1303 53.0297 45.143 53.1092 45.1285C53.12 45.1266 53.1472 45.1216 53.1606 45.1192C53.174 45.1167 53.1752 45.1165 53.1892 45.114C53.2231 45.1078 53.1854 45.1147 53.2199 45.1084C53.3042 45.0931 53.2001 45.112 53.2871 45.0962C53.3611 45.0827 53.2855 45.0964 53.3622 45.0825C53.3658 45.0819 53.3685 45.0814 53.3721 45.0807C53.3905 45.0774 53.3638 45.0822 53.3822 45.0789C53.3841 45.0785 53.3854 45.0783 53.3873 45.0779C53.3891 45.0776 53.3905 45.0774 53.3924 45.077C53.3961 45.0763 53.3989 45.0758 53.4027 45.0751C53.4192 45.0721 53.3966 45.0763 53.4132 45.0732C53.417 45.0726 53.4146 45.073 53.4184 45.0723C53.4255 45.071 53.4166 45.0726 53.4237 45.0713C53.4246 45.0712 53.4255 45.071 53.4264 45.0708C53.4273 45.0707 53.4282 45.0705 53.429 45.0704C53.4299 45.0702 53.4308 45.07 53.4317 45.0699C53.4326 45.0697 53.4335 45.0695 53.4344 45.0694C53.4357 45.0692 53.4439 45.0677 53.4452 45.0674C53.5506 45.0483 53.4281 45.0705 53.5361 45.0509C53.5833 45.0423 53.5851 45.042 53.635 45.0329C53.7035 45.0205 53.6182 45.036 53.6873 45.0234C53.7001 45.0211 53.7283 45.016 53.7417 45.0135C53.782 45.0062 53.8135 45.0005 53.8563 44.9927C53.8708 44.99 53.8716 44.9899 53.8862 44.9872C53.9118 44.9826 53.8758 44.9891 53.9014 44.9845C53.9032 44.9842 53.9148 44.982 53.9166 44.9817C53.9315 44.979 53.9325 44.9788 53.9475 44.9761C53.9818 44.9698 53.9444 44.9767 53.9789 44.9704L53.6211 43.0026C53.5511 43.0154 53.4434 43.035 53.3839 43.0458C53.3535 43.0513 53.305 43.0601 53.2772 43.0652C53.2646 43.0675 53.2387 43.0722 53.2268 43.0743C53.2028 43.0787 53.2017 43.0789 53.1784 43.0831C53.0911 43.099 53.0811 43.1008 53.0044 43.1148C52.9773 43.1197 52.8787 43.1376 52.8621 43.1406C52.7982 43.1523 52.6941 43.1712 52.6724 43.1751C52.6577 43.1778 52.6291 43.183 52.6249 43.1838C52.6229 43.1841 52.623 43.1841 52.6212 43.1844C52.6208 43.1845 52.6199 43.1847 52.6196 43.1847C52.6178 43.1851 52.6197 43.1847 52.618 43.185C52.6175 43.1851 52.6156 43.1855 52.6153 43.1855C52.6145 43.1857 52.6137 43.1858 52.6131 43.1859C52.6114 43.1862 52.6112 43.1863 52.6101 43.1865C52.6099 43.1865 52.6094 43.1866 52.6094 43.1866C52.6093 43.1866 52.6092 43.1866 52.6092 43.1866C52.6092 43.1866 52.6091 43.1866 52.6091 43.1866C52.6091 43.1866 52.6091 43.1866 52.6091 43.1866C52.6091 43.1866 52.6091 43.1866 52.788 44.1705ZM54.0631 44.9513C54.6012 44.8045 55.5615 44.7105 57.02 44.7105V42.7105C55.5345 42.7105 54.3481 42.8005 53.5369 43.0218L54.0631 44.9513ZM57.02 44.7105C61.1027 44.7105 64.6701 45.5966 67.7514 47.3408L68.7366 45.6003C65.3166 43.6644 61.4013 42.7105 57.02 42.7105V44.7105ZM67.764 47.3478C70.8548 49.039 73.2661 51.3929 75.0138 54.4222L76.7462 53.4228C74.8139 50.0735 72.1345 47.4594 68.724 45.5933L67.764 47.3478ZM75.0211 54.4346C76.8191 57.4506 77.732 60.9494 77.732 64.9625H79.732C79.732 60.6343 78.7436 56.7731 76.739 53.4105L75.0211 54.4346ZM77.732 64.9625C77.732 69.2089 76.7024 72.9133 74.6683 76.1096L76.3557 77.1834C78.6149 73.6331 79.732 69.5481 79.732 64.9625H77.732ZM74.6683 76.1096C72.6252 79.3203 69.792 81.8385 66.1408 83.6641L67.0352 85.4529C70.9893 83.4759 74.1055 80.7194 76.3557 77.1834L74.6683 76.1096ZM66.135 83.667C62.5592 85.4842 58.3348 86.4105 53.432 86.4105V88.4105C58.5878 88.4105 63.1341 87.4355 67.0411 85.45L66.135 83.667Z" fill="url(#paint3_linear_2006_2125)" mask="url(#path-3-outside-2_2006_2125)"/>
<mask id="path-5-outside-3_2006_2125" maskUnits="userSpaceOnUse" x="72.5" y="19.5825" width="62" height="69" fill="black">
<rect fill="white" x="72.5" y="19.5825" width="62" height="69"/>
<path d="M103.344 87.5025C98.4987 87.5025 94.2053 86.4905 90.464 84.4665C86.784 82.4425 83.6867 79.7745 81.172 76.4625C78.7187 73.1505 76.848 69.5625 75.56 65.6985C74.3333 61.8345 73.72 58.0625 73.72 54.3825C73.72 50.4572 74.3947 46.5319 75.744 42.6065C77.0933 38.6812 79.056 35.1238 81.632 31.9345C84.208 28.6839 87.3053 26.1079 90.924 24.2065C94.604 22.2438 98.744 21.2625 103.344 21.2625C108.251 21.2625 112.544 22.3052 116.224 24.3905C119.904 26.4758 122.971 29.1745 125.424 32.4865C127.939 35.7985 129.809 39.3865 131.036 43.2505C132.324 47.1145 132.968 50.8252 132.968 54.3825C132.968 58.3692 132.293 62.3252 130.944 66.2505C129.595 70.1759 127.632 73.7332 125.056 76.9225C122.48 80.1119 119.352 82.6879 115.672 84.6505C112.053 86.5519 107.944 87.5025 103.344 87.5025ZM91.936 54.3825C91.936 56.4065 92.1507 58.4305 92.58 60.4545C93.0093 62.4785 93.6533 64.3492 94.512 66.0665C95.432 67.7225 96.628 69.0719 98.1 70.1145C99.572 71.0959 101.32 71.5865 103.344 71.5865C105.491 71.5865 107.269 71.0345 108.68 69.9305C110.152 68.8265 111.317 67.4159 112.176 65.6985C113.096 63.9812 113.74 62.1412 114.108 60.1785C114.537 58.1545 114.752 56.2225 114.752 54.3825C114.752 52.3585 114.537 50.3345 114.108 48.3105C113.679 46.2865 113.004 44.4465 112.084 42.7905C111.164 41.0732 109.968 39.7239 108.496 38.7425C107.085 37.6999 105.368 37.1785 103.344 37.1785C101.259 37.1785 99.48 37.7305 98.008 38.8345C96.536 39.9385 95.34 41.3492 94.42 43.0665C93.5613 44.7839 92.9173 46.6545 92.488 48.6785C92.12 50.6412 91.936 52.5425 91.936 54.3825Z"/>
</mask>
<path d="M103.344 87.5025C98.4987 87.5025 94.2053 86.4905 90.464 84.4665C86.784 82.4425 83.6867 79.7745 81.172 76.4625C78.7187 73.1505 76.848 69.5625 75.56 65.6985C74.3333 61.8345 73.72 58.0625 73.72 54.3825C73.72 50.4572 74.3947 46.5319 75.744 42.6065C77.0933 38.6812 79.056 35.1238 81.632 31.9345C84.208 28.6839 87.3053 26.1079 90.924 24.2065C94.604 22.2438 98.744 21.2625 103.344 21.2625C108.251 21.2625 112.544 22.3052 116.224 24.3905C119.904 26.4758 122.971 29.1745 125.424 32.4865C127.939 35.7985 129.809 39.3865 131.036 43.2505C132.324 47.1145 132.968 50.8252 132.968 54.3825C132.968 58.3692 132.293 62.3252 130.944 66.2505C129.595 70.1759 127.632 73.7332 125.056 76.9225C122.48 80.1119 119.352 82.6879 115.672 84.6505C112.053 86.5519 107.944 87.5025 103.344 87.5025ZM91.936 54.3825C91.936 56.4065 92.1507 58.4305 92.58 60.4545C93.0093 62.4785 93.6533 64.3492 94.512 66.0665C95.432 67.7225 96.628 69.0719 98.1 70.1145C99.572 71.0959 101.32 71.5865 103.344 71.5865C105.491 71.5865 107.269 71.0345 108.68 69.9305C110.152 68.8265 111.317 67.4159 112.176 65.6985C113.096 63.9812 113.74 62.1412 114.108 60.1785C114.537 58.1545 114.752 56.2225 114.752 54.3825C114.752 52.3585 114.537 50.3345 114.108 48.3105C113.679 46.2865 113.004 44.4465 112.084 42.7905C111.164 41.0732 109.968 39.7239 108.496 38.7425C107.085 37.6999 105.368 37.1785 103.344 37.1785C101.259 37.1785 99.48 37.7305 98.008 38.8345C96.536 39.9385 95.34 41.3492 94.42 43.0665C93.5613 44.7839 92.9173 46.6545 92.488 48.6785C92.12 50.6412 91.936 52.5425 91.936 54.3825Z" fill="url(#paint4_linear_2006_2125)"/>
<path d="M90.464 84.4665L89.9821 85.3428L89.9882 85.3461L90.464 84.4665ZM81.172 76.4625L80.3684 77.0578L80.3756 77.0672L81.172 76.4625ZM75.56 65.6985L74.6069 66.0011C74.6083 66.0057 74.6098 66.0102 74.6113 66.0147L75.56 65.6985ZM75.744 42.6065L76.6897 42.9316L76.6897 42.9316L75.744 42.6065ZM81.632 31.9345L82.41 32.5629L82.4157 32.5556L81.632 31.9345ZM90.924 24.2065L91.3891 25.0918L91.3946 25.0889L90.924 24.2065ZM116.224 24.3905L116.717 23.5205L116.717 23.5205L116.224 24.3905ZM125.424 32.4865L124.62 33.0818L124.628 33.0912L125.424 32.4865ZM131.036 43.2505L130.083 43.5531C130.084 43.5577 130.086 43.5622 130.087 43.5667L131.036 43.2505ZM130.944 66.2505L129.998 65.9254L129.998 65.9254L130.944 66.2505ZM125.056 76.9225L125.834 77.5509L125.834 77.5509L125.056 76.9225ZM115.672 84.6505L116.137 85.5358L116.143 85.5329L115.672 84.6505ZM94.512 66.0665L93.6176 66.5137C93.6241 66.5267 93.6308 66.5395 93.6378 66.5522L94.512 66.0665ZM98.1 70.1145L97.522 70.9305C97.5297 70.936 97.5375 70.9413 97.5453 70.9466L98.1 70.1145ZM108.68 69.9305L108.08 69.1305C108.075 69.1346 108.069 69.1388 108.064 69.143L108.68 69.9305ZM112.176 65.6985L111.295 65.2263C111.29 65.2346 111.286 65.2429 111.282 65.2513L112.176 65.6985ZM114.108 60.1785L113.13 59.971C113.128 59.9787 113.127 59.9865 113.125 59.9942L114.108 60.1785ZM114.108 48.3105L115.086 48.103L115.086 48.103L114.108 48.3105ZM112.084 42.7905L111.203 43.2627C111.205 43.2672 111.207 43.2717 111.21 43.2762L112.084 42.7905ZM108.496 38.7425L107.902 39.5467C107.915 39.5563 107.928 39.5656 107.941 39.5746L108.496 38.7425ZM98.008 38.8345L97.408 38.0345L97.408 38.0345L98.008 38.8345ZM94.42 43.0665L93.5385 42.5943C93.5341 42.6026 93.5298 42.6109 93.5256 42.6193L94.42 43.0665ZM92.488 48.6785L91.5098 48.471C91.5081 48.4787 91.5066 48.4865 91.5051 48.4942L92.488 48.6785ZM103.344 86.5025C98.6414 86.5025 94.5158 85.5215 90.9398 83.587L89.9882 85.3461C93.8949 87.4595 98.3559 88.5025 103.344 88.5025V86.5025ZM90.9459 83.5903C87.3874 81.6331 84.3976 79.0571 81.9684 75.8578L80.3756 77.0672C82.9758 80.4919 86.1806 83.2519 89.9821 85.3427L90.9459 83.5903ZM81.9756 75.8673C79.5843 72.639 77.7629 69.145 76.5087 65.3823L74.6113 66.0147C75.9331 69.98 77.8531 73.662 80.3684 77.0577L81.9756 75.8673ZM76.5131 65.3959C75.3144 61.6199 74.72 57.95 74.72 54.3825H72.72C72.72 58.175 73.3523 62.0491 74.6069 66.0011L76.5131 65.3959ZM74.72 54.3825C74.72 50.574 75.3742 46.7584 76.6897 42.9316L74.7983 42.2814C73.4151 46.3053 72.72 50.3403 72.72 54.3825H74.72ZM76.6897 42.9316C78.0017 39.1149 79.908 35.6605 82.4099 32.5629L80.8541 31.3062C78.204 34.5872 76.185 38.2474 74.7983 42.2814L76.6897 42.9316ZM82.4157 32.5556C84.9064 29.4126 87.8958 26.9273 91.3891 25.0918L90.4589 23.3213C86.7149 25.2884 83.5096 27.9551 80.8483 31.3134L82.4157 32.5556ZM91.3946 25.0889C94.9153 23.2112 98.8909 22.2625 103.344 22.2625V20.2625C98.5971 20.2625 94.2927 21.2765 90.4534 23.3242L91.3946 25.0889ZM103.344 22.2625C108.106 22.2625 112.224 23.2732 115.731 25.2605L116.717 23.5205C112.864 21.3372 108.396 20.2625 103.344 20.2625V22.2625ZM115.731 25.2605C119.293 27.2788 122.253 29.885 124.62 33.0817L126.228 31.8913C123.689 28.464 120.515 25.6729 116.717 23.5205L115.731 25.2605ZM124.628 33.0912C127.075 36.3146 128.892 39.8008 130.083 43.5531L131.989 42.9479C130.727 38.9722 128.802 35.2824 126.22 31.8818L124.628 33.0912ZM130.087 43.5667C131.346 47.3433 131.968 50.947 131.968 54.3825H133.968C133.968 50.7034 133.302 46.8857 131.985 42.9343L130.087 43.5667ZM131.968 54.3825C131.968 58.2541 131.313 62.1004 129.998 65.9254L131.89 66.5756C133.273 62.55 133.968 58.4843 133.968 54.3825H131.968ZM129.998 65.9254C128.686 69.7421 126.78 73.1965 124.278 76.2942L125.834 77.5509C128.484 74.2698 130.503 70.6096 131.89 66.5756L129.998 65.9254ZM124.278 76.2942C121.788 79.3772 118.765 81.8676 115.201 83.7682L116.143 85.5329C119.939 83.5081 123.172 80.8465 125.834 77.5509L124.278 76.2942ZM115.207 83.7653C111.749 85.5822 107.803 86.5025 103.344 86.5025V88.5025C108.085 88.5025 112.358 87.5215 116.137 85.5358L115.207 83.7653ZM90.936 54.3825C90.936 56.4778 91.1583 58.5713 91.6018 60.662L93.5582 60.247C93.143 58.2897 92.936 56.3352 92.936 54.3825H90.936ZM91.6018 60.662C92.0474 62.7628 92.7181 64.7147 93.6176 66.5137L95.4064 65.6193C94.5886 63.9836 93.9713 62.1943 93.5582 60.247L91.6018 60.662ZM93.6378 66.5522C94.6268 68.3323 95.9216 69.797 97.522 70.9305L98.678 69.2985C97.3344 68.3467 96.2372 67.1127 95.3862 65.5809L93.6378 66.5522ZM97.5453 70.9466C99.2044 72.0526 101.152 72.5865 103.344 72.5865V70.5865C101.488 70.5865 99.9396 70.1391 98.6547 69.2825L97.5453 70.9466ZM103.344 72.5865C105.668 72.5865 107.677 71.9855 109.296 70.718L108.064 69.143C106.862 70.0835 105.313 70.5865 103.344 70.5865V72.5865ZM109.28 70.7305C110.882 69.5293 112.145 67.9957 113.07 66.1457L111.282 65.2513C110.489 66.836 109.422 68.1238 108.08 69.1305L109.28 70.7305ZM113.057 66.1707C114.027 64.3609 114.704 62.4235 115.091 60.3628L113.125 59.9942C112.776 61.8588 112.165 63.6014 111.295 65.2263L113.057 66.1707ZM115.086 60.386C115.528 58.3021 115.752 56.3003 115.752 54.3825H113.752C113.752 56.1448 113.546 58.0069 113.13 59.971L115.086 60.386ZM115.752 54.3825C115.752 52.2872 115.53 50.1937 115.086 48.103L113.13 48.518C113.545 50.4753 113.752 52.4298 113.752 54.3825H115.752ZM115.086 48.103C114.638 45.9906 113.931 44.0555 112.958 42.3049L111.21 43.2762C112.077 44.8375 112.719 46.5825 113.13 48.518L115.086 48.103ZM112.965 42.3183C111.976 40.4709 110.673 38.992 109.051 37.9105L107.941 39.5746C109.263 40.4557 110.352 41.6754 111.203 43.2627L112.965 42.3183ZM109.09 37.9383C107.482 36.7496 105.548 36.1785 103.344 36.1785V38.1785C105.188 38.1785 106.689 38.6501 107.902 39.5467L109.09 37.9383ZM103.344 36.1785C101.072 36.1785 99.0758 36.7837 97.408 38.0345L98.608 39.6345C99.8842 38.6774 101.445 38.1785 103.344 38.1785V36.1785ZM97.408 38.0345C95.8126 39.2311 94.5232 40.7562 93.5385 42.5943L95.3015 43.5387C96.1568 41.9422 97.2594 40.646 98.608 39.6345L97.408 38.0345ZM93.5256 42.6193C92.6261 44.4183 91.9554 46.3703 91.5098 48.471L93.4662 48.886C93.8793 46.9388 94.4966 45.1494 95.3144 43.5137L93.5256 42.6193ZM91.5051 48.4942C91.1267 50.5126 90.936 52.4757 90.936 54.3825H92.936C92.936 52.6093 93.1133 50.7698 93.4709 48.8628L91.5051 48.4942Z" fill="url(#paint5_linear_2006_2125)" mask="url(#path-5-outside-3_2006_2125)"/>
<mask id="path-7-outside-4_2006_2125" maskUnits="userSpaceOnUse" x="126.5" y="19.5825" width="62" height="69" fill="black">
<rect fill="white" x="126.5" y="19.5825" width="62" height="69"/>
<path d="M157.344 87.5025C152.499 87.5025 148.205 86.4905 144.464 84.4665C140.784 82.4425 137.687 79.7745 135.172 76.4625C132.719 73.1505 130.848 69.5625 129.56 65.6985C128.333 61.8345 127.72 58.0625 127.72 54.3825C127.72 50.4572 128.395 46.5319 129.744 42.6065C131.093 38.6812 133.056 35.1238 135.632 31.9345C138.208 28.6839 141.305 26.1079 144.924 24.2065C148.604 22.2438 152.744 21.2625 157.344 21.2625C162.251 21.2625 166.544 22.3052 170.224 24.3905C173.904 26.4758 176.971 29.1745 179.424 32.4865C181.939 35.7985 183.809 39.3865 185.036 43.2505C186.324 47.1145 186.968 50.8252 186.968 54.3825C186.968 58.3692 186.293 62.3252 184.944 66.2505C183.595 70.1759 181.632 73.7332 179.056 76.9225C176.48 80.1119 173.352 82.6879 169.672 84.6505C166.053 86.5519 161.944 87.5025 157.344 87.5025ZM145.936 54.3825C145.936 56.4065 146.151 58.4305 146.58 60.4545C147.009 62.4785 147.653 64.3492 148.512 66.0665C149.432 67.7225 150.628 69.0719 152.1 70.1145C153.572 71.0959 155.32 71.5865 157.344 71.5865C159.491 71.5865 161.269 71.0345 162.68 69.9305C164.152 68.8265 165.317 67.4159 166.176 65.6985C167.096 63.9812 167.74 62.1412 168.108 60.1785C168.537 58.1545 168.752 56.2225 168.752 54.3825C168.752 52.3585 168.537 50.3345 168.108 48.3105C167.679 46.2865 167.004 44.4465 166.084 42.7905C165.164 41.0732 163.968 39.7239 162.496 38.7425C161.085 37.6999 159.368 37.1785 157.344 37.1785C155.259 37.1785 153.48 37.7305 152.008 38.8345C150.536 39.9385 149.34 41.3492 148.42 43.0665C147.561 44.7839 146.917 46.6545 146.488 48.6785C146.12 50.6412 145.936 52.5425 145.936 54.3825Z"/>
</mask>
<path d="M157.344 87.5025C152.499 87.5025 148.205 86.4905 144.464 84.4665C140.784 82.4425 137.687 79.7745 135.172 76.4625C132.719 73.1505 130.848 69.5625 129.56 65.6985C128.333 61.8345 127.72 58.0625 127.72 54.3825C127.72 50.4572 128.395 46.5319 129.744 42.6065C131.093 38.6812 133.056 35.1238 135.632 31.9345C138.208 28.6839 141.305 26.1079 144.924 24.2065C148.604 22.2438 152.744 21.2625 157.344 21.2625C162.251 21.2625 166.544 22.3052 170.224 24.3905C173.904 26.4758 176.971 29.1745 179.424 32.4865C181.939 35.7985 183.809 39.3865 185.036 43.2505C186.324 47.1145 186.968 50.8252 186.968 54.3825C186.968 58.3692 186.293 62.3252 184.944 66.2505C183.595 70.1759 181.632 73.7332 179.056 76.9225C176.48 80.1119 173.352 82.6879 169.672 84.6505C166.053 86.5519 161.944 87.5025 157.344 87.5025ZM145.936 54.3825C145.936 56.4065 146.151 58.4305 146.58 60.4545C147.009 62.4785 147.653 64.3492 148.512 66.0665C149.432 67.7225 150.628 69.0719 152.1 70.1145C153.572 71.0959 155.32 71.5865 157.344 71.5865C159.491 71.5865 161.269 71.0345 162.68 69.9305C164.152 68.8265 165.317 67.4159 166.176 65.6985C167.096 63.9812 167.74 62.1412 168.108 60.1785C168.537 58.1545 168.752 56.2225 168.752 54.3825C168.752 52.3585 168.537 50.3345 168.108 48.3105C167.679 46.2865 167.004 44.4465 166.084 42.7905C165.164 41.0732 163.968 39.7239 162.496 38.7425C161.085 37.6999 159.368 37.1785 157.344 37.1785C155.259 37.1785 153.48 37.7305 152.008 38.8345C150.536 39.9385 149.34 41.3492 148.42 43.0665C147.561 44.7839 146.917 46.6545 146.488 48.6785C146.12 50.6412 145.936 52.5425 145.936 54.3825Z" fill="url(#paint6_linear_2006_2125)"/>
<path d="M144.464 84.4665L143.982 85.3428L143.988 85.3461L144.464 84.4665ZM135.172 76.4625L134.368 77.0578L134.376 77.0672L135.172 76.4625ZM129.56 65.6985L128.607 66.0011C128.608 66.0057 128.61 66.0102 128.611 66.0147L129.56 65.6985ZM129.744 42.6065L130.69 42.9316L130.69 42.9316L129.744 42.6065ZM135.632 31.9345L136.41 32.5629L136.416 32.5556L135.632 31.9345ZM144.924 24.2065L145.389 25.0918L145.395 25.0889L144.924 24.2065ZM170.224 24.3905L170.717 23.5205L170.717 23.5205L170.224 24.3905ZM179.424 32.4865L178.62 33.0818L178.628 33.0912L179.424 32.4865ZM185.036 43.2505L184.083 43.5531C184.084 43.5577 184.086 43.5622 184.087 43.5667L185.036 43.2505ZM184.944 66.2505L183.998 65.9254L183.998 65.9254L184.944 66.2505ZM179.056 76.9225L179.834 77.5509L179.834 77.5509L179.056 76.9225ZM169.672 84.6505L170.137 85.5358L170.143 85.5329L169.672 84.6505ZM148.512 66.0665L147.618 66.5137C147.624 66.5267 147.631 66.5395 147.638 66.5522L148.512 66.0665ZM152.1 70.1145L151.522 70.9305C151.53 70.936 151.537 70.9413 151.545 70.9466L152.1 70.1145ZM162.68 69.9305L162.08 69.1305C162.075 69.1346 162.069 69.1388 162.064 69.143L162.68 69.9305ZM166.176 65.6985L165.295 65.2263C165.29 65.2346 165.286 65.2429 165.282 65.2513L166.176 65.6985ZM168.108 60.1785L167.13 59.971C167.128 59.9787 167.127 59.9865 167.125 59.9942L168.108 60.1785ZM168.108 48.3105L169.086 48.103L169.086 48.103L168.108 48.3105ZM166.084 42.7905L165.203 43.2627C165.205 43.2672 165.207 43.2717 165.21 43.2762L166.084 42.7905ZM162.496 38.7425L161.902 39.5467C161.915 39.5563 161.928 39.5656 161.941 39.5746L162.496 38.7425ZM152.008 38.8345L151.408 38.0345L151.408 38.0345L152.008 38.8345ZM148.42 43.0665L147.539 42.5943C147.534 42.6026 147.53 42.6109 147.526 42.6193L148.42 43.0665ZM146.488 48.6785L145.51 48.471C145.508 48.4787 145.507 48.4865 145.505 48.4942L146.488 48.6785ZM157.344 86.5025C152.641 86.5025 148.516 85.5215 144.94 83.587L143.988 85.3461C147.895 87.4595 152.356 88.5025 157.344 88.5025V86.5025ZM144.946 83.5903C141.387 81.6331 138.398 79.0571 135.968 75.8578L134.376 77.0672C136.976 80.4919 140.181 83.2519 143.982 85.3427L144.946 83.5903ZM135.976 75.8673C133.584 72.639 131.763 69.145 130.509 65.3823L128.611 66.0147C129.933 69.98 131.853 73.662 134.368 77.0577L135.976 75.8673ZM130.513 65.3959C129.314 61.6199 128.72 57.95 128.72 54.3825H126.72C126.72 58.175 127.352 62.0491 128.607 66.0011L130.513 65.3959ZM128.72 54.3825C128.72 50.574 129.374 46.7584 130.69 42.9316L128.798 42.2814C127.415 46.3053 126.72 50.3403 126.72 54.3825H128.72ZM130.69 42.9316C132.002 39.1149 133.908 35.6605 136.41 32.5629L134.854 31.3062C132.204 34.5872 130.185 38.2474 128.798 42.2814L130.69 42.9316ZM136.416 32.5556C138.906 29.4126 141.896 26.9273 145.389 25.0918L144.459 23.3213C140.715 25.2884 137.51 27.9551 134.848 31.3134L136.416 32.5556ZM145.395 25.0889C148.915 23.2112 152.891 22.2625 157.344 22.2625V20.2625C152.597 20.2625 148.293 21.2765 144.453 23.3242L145.395 25.0889ZM157.344 22.2625C162.106 22.2625 166.224 23.2732 169.731 25.2605L170.717 23.5205C166.864 21.3372 162.396 20.2625 157.344 20.2625V22.2625ZM169.731 25.2605C173.293 27.2788 176.253 29.885 178.62 33.0817L180.228 31.8913C177.689 28.464 174.515 25.6729 170.717 23.5205L169.731 25.2605ZM178.628 33.0912C181.075 36.3146 182.892 39.8008 184.083 43.5531L185.989 42.9479C184.727 38.9722 182.802 35.2824 180.22 31.8818L178.628 33.0912ZM184.087 43.5667C185.346 47.3433 185.968 50.947 185.968 54.3825H187.968C187.968 50.7034 187.302 46.8857 185.985 42.9343L184.087 43.5667ZM185.968 54.3825C185.968 58.2541 185.313 62.1004 183.998 65.9254L185.89 66.5756C187.273 62.55 187.968 58.4843 187.968 54.3825H185.968ZM183.998 65.9254C182.686 69.7421 180.78 73.1965 178.278 76.2942L179.834 77.5509C182.484 74.2698 184.503 70.6096 185.89 66.5756L183.998 65.9254ZM178.278 76.2942C175.788 79.3772 172.765 81.8676 169.201 83.7682L170.143 85.5329C173.939 83.5081 177.172 80.8465 179.834 77.5509L178.278 76.2942ZM169.207 83.7653C165.749 85.5822 161.803 86.5025 157.344 86.5025V88.5025C162.085 88.5025 166.358 87.5215 170.137 85.5358L169.207 83.7653ZM144.936 54.3825C144.936 56.4778 145.158 58.5713 145.602 60.662L147.558 60.247C147.143 58.2897 146.936 56.3352 146.936 54.3825H144.936ZM145.602 60.662C146.047 62.7628 146.718 64.7147 147.618 66.5137L149.406 65.6193C148.589 63.9836 147.971 62.1943 147.558 60.247L145.602 60.662ZM147.638 66.5522C148.627 68.3323 149.922 69.797 151.522 70.9305L152.678 69.2985C151.334 68.3467 150.237 67.1127 149.386 65.5809L147.638 66.5522ZM151.545 70.9466C153.204 72.0526 155.152 72.5865 157.344 72.5865V70.5865C155.488 70.5865 153.94 70.1391 152.655 69.2825L151.545 70.9466ZM157.344 72.5865C159.668 72.5865 161.677 71.9855 163.296 70.718L162.064 69.143C160.862 70.0835 159.313 70.5865 157.344 70.5865V72.5865ZM163.28 70.7305C164.882 69.5293 166.145 67.9957 167.07 66.1457L165.282 65.2513C164.489 66.836 163.422 68.1238 162.08 69.1305L163.28 70.7305ZM167.057 66.1707C168.027 64.3609 168.704 62.4235 169.091 60.3628L167.125 59.9942C166.776 61.8588 166.165 63.6014 165.295 65.2263L167.057 66.1707ZM169.086 60.386C169.528 58.3021 169.752 56.3003 169.752 54.3825H167.752C167.752 56.1448 167.546 58.0069 167.13 59.971L169.086 60.386ZM169.752 54.3825C169.752 52.2872 169.53 50.1937 169.086 48.103L167.13 48.518C167.545 50.4753 167.752 52.4298 167.752 54.3825H169.752ZM169.086 48.103C168.638 45.9906 167.931 44.0555 166.958 42.3049L165.21 43.2762C166.077 44.8375 166.719 46.5825 167.13 48.518L169.086 48.103ZM166.965 42.3183C165.976 40.4709 164.673 38.992 163.051 37.9105L161.941 39.5746C163.263 40.4557 164.352 41.6754 165.203 43.2627L166.965 42.3183ZM163.09 37.9383C161.482 36.7496 159.548 36.1785 157.344 36.1785V38.1785C159.188 38.1785 160.689 38.6501 161.902 39.5467L163.09 37.9383ZM157.344 36.1785C155.072 36.1785 153.076 36.7837 151.408 38.0345L152.608 39.6345C153.884 38.6774 155.445 38.1785 157.344 38.1785V36.1785ZM151.408 38.0345C149.813 39.2311 148.523 40.7562 147.539 42.5943L149.301 43.5387C150.157 41.9422 151.259 40.646 152.608 39.6345L151.408 38.0345ZM147.526 42.6193C146.626 44.4183 145.955 46.3703 145.51 48.471L147.466 48.886C147.879 46.9388 148.497 45.1494 149.314 43.5137L147.526 42.6193ZM145.505 48.4942C145.127 50.5126 144.936 52.4757 144.936 54.3825H146.936C146.936 52.6093 147.113 50.7698 147.471 48.8628L145.505 48.4942Z" fill="url(#paint7_linear_2006_2125)" mask="url(#path-7-outside-4_2006_2125)"/>
<mask id="path-9-outside-5_2006_2125" maskUnits="userSpaceOnUse" x="180.5" y="18.5825" width="75" height="70" fill="black">
<rect fill="white" x="180.5" y="18.5825" width="75" height="70"/>
<path d="M197.912 49.4145C194.845 49.4145 192.055 48.7705 189.54 47.4825C187.087 46.1945 185.124 44.4465 183.652 42.2385C182.241 40.0305 181.536 37.5772 181.536 34.8785C181.536 32.1799 182.241 29.7265 183.652 27.5185C185.124 25.3105 187.087 23.5625 189.54 22.2745C192.055 20.9865 194.845 20.3425 197.912 20.3425C200.979 20.3425 203.739 20.9865 206.192 22.2745C208.707 23.5625 210.669 25.3105 212.08 27.5185C213.552 29.7265 214.288 32.1799 214.288 34.8785C214.288 37.5772 213.552 40.0305 212.08 42.2385C210.669 44.4465 208.707 46.1945 206.192 47.4825C203.739 48.7705 200.979 49.4145 197.912 49.4145ZM197.912 41.1345C198.709 41.1345 199.445 40.8585 200.12 40.3065C200.795 39.6932 201.316 38.9265 201.684 38.0065C202.113 37.0252 202.328 35.9825 202.328 34.8785C202.328 33.7132 202.113 32.6705 201.684 31.7505C201.316 30.8305 200.795 30.0945 200.12 29.5425C199.445 28.9292 198.709 28.6225 197.912 28.6225C197.115 28.6225 196.379 28.9292 195.704 29.5425C195.029 30.0945 194.477 30.8305 194.048 31.7505C193.68 32.6705 193.496 33.7132 193.496 34.8785C193.496 35.9825 193.68 37.0252 194.048 38.0065C194.477 38.9265 195.029 39.6932 195.704 40.3065C196.379 40.8585 197.115 41.1345 197.912 41.1345ZM237.38 87.5025C234.313 87.5025 231.523 86.8585 229.008 85.5705C226.555 84.2825 224.592 82.5345 223.12 80.3265C221.709 78.1185 221.004 75.6652 221.004 72.9665C221.004 70.2679 221.709 67.8145 223.12 65.6065C224.592 63.3985 226.555 61.6505 229.008 60.3625C231.523 59.0745 234.313 58.4305 237.38 58.4305C240.447 58.4305 243.207 59.0745 245.66 60.3625C248.175 61.6505 250.137 63.3985 251.548 65.6065C253.02 67.8145 253.756 70.2679 253.756 72.9665C253.756 75.6652 253.02 78.1185 251.548 80.3265C250.137 82.5345 248.175 84.2825 245.66 85.5705C243.207 86.8585 240.447 87.5025 237.38 87.5025ZM237.38 79.2225C238.177 79.2225 238.913 78.9465 239.588 78.3945C240.263 77.7812 240.784 77.0145 241.152 76.0945C241.581 75.1132 241.796 74.0705 241.796 72.9665C241.796 71.8012 241.581 70.7585 241.152 69.8385C240.784 68.9185 240.263 68.1825 239.588 67.6305C238.913 67.0172 238.177 66.7105 237.38 66.7105C236.583 66.7105 235.847 67.0172 235.172 67.6305C234.497 68.1825 233.945 68.9185 233.516 69.8385C233.148 70.7585 232.964 71.8012 232.964 72.9665C232.964 74.0705 233.148 75.1132 233.516 76.0945C233.945 77.0145 234.497 77.7812 235.172 78.3945C235.847 78.9465 236.583 79.2225 237.38 79.2225ZM189.264 80.6025L215.3 51.2545L238.392 20.2505L246.028 27.1505L221.096 55.5785L196.9 87.5025L189.264 80.6025Z"/>
</mask>
<path d="M197.912 49.4145C194.845 49.4145 192.055 48.7705 189.54 47.4825C187.087 46.1945 185.124 44.4465 183.652 42.2385C182.241 40.0305 181.536 37.5772 181.536 34.8785C181.536 32.1799 182.241 29.7265 183.652 27.5185C185.124 25.3105 187.087 23.5625 189.54 22.2745C192.055 20.9865 194.845 20.3425 197.912 20.3425C200.979 20.3425 203.739 20.9865 206.192 22.2745C208.707 23.5625 210.669 25.3105 212.08 27.5185C213.552 29.7265 214.288 32.1799 214.288 34.8785C214.288 37.5772 213.552 40.0305 212.08 42.2385C210.669 44.4465 208.707 46.1945 206.192 47.4825C203.739 48.7705 200.979 49.4145 197.912 49.4145ZM197.912 41.1345C198.709 41.1345 199.445 40.8585 200.12 40.3065C200.795 39.6932 201.316 38.9265 201.684 38.0065C202.113 37.0252 202.328 35.9825 202.328 34.8785C202.328 33.7132 202.113 32.6705 201.684 31.7505C201.316 30.8305 200.795 30.0945 200.12 29.5425C199.445 28.9292 198.709 28.6225 197.912 28.6225C197.115 28.6225 196.379 28.9292 195.704 29.5425C195.029 30.0945 194.477 30.8305 194.048 31.7505C193.68 32.6705 193.496 33.7132 193.496 34.8785C193.496 35.9825 193.68 37.0252 194.048 38.0065C194.477 38.9265 195.029 39.6932 195.704 40.3065C196.379 40.8585 197.115 41.1345 197.912 41.1345ZM237.38 87.5025C234.313 87.5025 231.523 86.8585 229.008 85.5705C226.555 84.2825 224.592 82.5345 223.12 80.3265C221.709 78.1185 221.004 75.6652 221.004 72.9665C221.004 70.2679 221.709 67.8145 223.12 65.6065C224.592 63.3985 226.555 61.6505 229.008 60.3625C231.523 59.0745 234.313 58.4305 237.38 58.4305C240.447 58.4305 243.207 59.0745 245.66 60.3625C248.175 61.6505 250.137 63.3985 251.548 65.6065C253.02 67.8145 253.756 70.2679 253.756 72.9665C253.756 75.6652 253.02 78.1185 251.548 80.3265C250.137 82.5345 248.175 84.2825 245.66 85.5705C243.207 86.8585 240.447 87.5025 237.38 87.5025ZM237.38 79.2225C238.177 79.2225 238.913 78.9465 239.588 78.3945C240.263 77.7812 240.784 77.0145 241.152 76.0945C241.581 75.1132 241.796 74.0705 241.796 72.9665C241.796 71.8012 241.581 70.7585 241.152 69.8385C240.784 68.9185 240.263 68.1825 239.588 67.6305C238.913 67.0172 238.177 66.7105 237.38 66.7105C236.583 66.7105 235.847 67.0172 235.172 67.6305C234.497 68.1825 233.945 68.9185 233.516 69.8385C233.148 70.7585 232.964 71.8012 232.964 72.9665C232.964 74.0705 233.148 75.1132 233.516 76.0945C233.945 77.0145 234.497 77.7812 235.172 78.3945C235.847 78.9465 236.583 79.2225 237.38 79.2225ZM189.264 80.6025L215.3 51.2545L238.392 20.2505L246.028 27.1505L221.096 55.5785L196.9 87.5025L189.264 80.6025Z" fill="url(#paint8_linear_2006_2125)"/>
<path d="M189.54 47.4825L189.075 48.368L189.084 48.3726L189.54 47.4825ZM183.652 42.2385L182.809 42.7769C182.813 42.7824 182.816 42.7878 182.82 42.7932L183.652 42.2385ZM183.652 27.5185L182.82 26.9638C182.816 26.9692 182.813 26.9747 182.809 26.9801L183.652 27.5185ZM189.54 22.2745L189.084 21.3844L189.075 21.3891L189.54 22.2745ZM206.192 22.2745L205.727 23.16L205.736 23.1646L206.192 22.2745ZM212.08 27.5185L211.237 28.0569C211.241 28.0624 211.244 28.0678 211.248 28.0732L212.08 27.5185ZM212.08 42.2385L211.248 41.6838C211.244 41.6892 211.241 41.6947 211.237 41.7001L212.08 42.2385ZM206.192 47.4825L205.736 46.5924L205.727 46.5971L206.192 47.4825ZM200.12 40.3065L200.753 41.0805C200.767 41.0695 200.78 41.0581 200.793 41.0465L200.12 40.3065ZM201.684 38.0065L200.768 37.6057C200.764 37.6154 200.759 37.6253 200.756 37.6351L201.684 38.0065ZM201.684 31.7505L200.756 32.1219C200.762 32.1393 200.77 32.1565 200.778 32.1734L201.684 31.7505ZM200.12 29.5425L199.447 30.2825C199.46 30.2941 199.473 30.3055 199.487 30.3165L200.12 29.5425ZM195.704 29.5425L196.337 30.3165C196.351 30.3055 196.364 30.2941 196.377 30.2825L195.704 29.5425ZM194.048 31.7505L193.142 31.3276C193.134 31.3446 193.126 31.3618 193.12 31.3791L194.048 31.7505ZM194.048 38.0065L193.112 38.3576C193.121 38.3819 193.131 38.4059 193.142 38.4294L194.048 38.0065ZM195.704 40.3065L195.031 41.0465C195.044 41.0581 195.057 41.0695 195.071 41.0805L195.704 40.3065ZM229.008 85.5705L228.543 86.456L228.552 86.4606L229.008 85.5705ZM223.12 80.3265L222.277 80.8649C222.281 80.8704 222.284 80.8758 222.288 80.8812L223.12 80.3265ZM223.12 65.6065L222.288 65.0518C222.284 65.0572 222.281 65.0627 222.277 65.0681L223.12 65.6065ZM229.008 60.3625L228.552 59.4724L228.543 59.4771L229.008 60.3625ZM245.66 60.3625L245.195 61.248L245.204 61.2526L245.66 60.3625ZM251.548 65.6065L250.705 66.1449C250.709 66.1504 250.712 66.1558 250.716 66.1612L251.548 65.6065ZM251.548 80.3265L250.716 79.7718C250.712 79.7772 250.709 79.7827 250.705 79.7881L251.548 80.3265ZM245.66 85.5705L245.204 84.6804L245.195 84.6851L245.66 85.5705ZM239.588 78.3945L240.221 79.1685C240.235 79.1575 240.248 79.1461 240.261 79.1345L239.588 78.3945ZM241.152 76.0945L240.236 75.6937C240.232 75.7034 240.227 75.7133 240.224 75.7231L241.152 76.0945ZM241.152 69.8385L240.224 70.2099C240.23 70.2273 240.238 70.2445 240.246 70.2614L241.152 69.8385ZM239.588 67.6305L238.915 68.3705C238.928 68.3821 238.941 68.3935 238.955 68.4045L239.588 67.6305ZM235.172 67.6305L235.805 68.4045C235.819 68.3935 235.832 68.3821 235.845 68.3705L235.172 67.6305ZM233.516 69.8385L232.61 69.4156C232.602 69.4326 232.594 69.4498 232.588 69.4671L233.516 69.8385ZM233.516 76.0945L232.58 76.4456C232.589 76.4699 232.599 76.4939 232.61 76.5174L233.516 76.0945ZM235.172 78.3945L234.499 79.1345C234.512 79.1461 234.525 79.1575 234.539 79.1685L235.172 78.3945ZM189.264 80.6025L188.516 79.9389C188.152 80.3494 188.186 80.9766 188.594 81.3445L189.264 80.6025ZM215.3 51.2545L216.048 51.9182C216.067 51.8968 216.085 51.8747 216.102 51.8519L215.3 51.2545ZM238.392 20.2505L239.062 19.5086C238.853 19.3197 238.575 19.2278 238.294 19.2553C238.014 19.2828 237.758 19.4273 237.59 19.6532L238.392 20.2505ZM246.028 27.1505L246.78 27.8099C247.14 27.399 247.104 26.775 246.698 26.4086L246.028 27.1505ZM221.096 55.5785L220.344 54.9192C220.328 54.9371 220.313 54.9555 220.299 54.9745L221.096 55.5785ZM196.9 87.5025L196.23 88.2445C196.437 88.4323 196.715 88.5244 196.994 88.4981C197.273 88.4719 197.528 88.3299 197.697 88.1066L196.9 87.5025ZM197.912 48.4145C194.99 48.4145 192.358 47.8022 189.996 46.5925L189.084 48.3726C191.752 49.7389 194.701 50.4145 197.912 50.4145V48.4145ZM190.005 46.5971C187.693 45.3833 185.859 43.7464 184.484 41.6838L182.82 42.7932C184.389 45.1467 186.48 47.0057 189.075 48.3679L190.005 46.5971ZM184.495 41.7001C183.19 39.6579 182.536 37.3924 182.536 34.8785H180.536C180.536 37.7619 181.293 40.4031 182.809 42.7769L184.495 41.7001ZM182.536 34.8785C182.536 32.3646 183.19 30.0991 184.495 28.0569L182.809 26.9801C181.293 29.3539 180.536 31.9951 180.536 34.8785H182.536ZM184.484 28.0732C185.859 26.0107 187.693 24.3737 190.005 23.1599L189.075 21.3891C186.48 22.7513 184.389 24.6104 182.82 26.9638L184.484 28.0732ZM189.996 23.1646C192.358 21.9549 194.99 21.3425 197.912 21.3425V19.3425C194.701 19.3425 191.752 20.0182 189.084 21.3845L189.996 23.1646ZM197.912 21.3425C200.834 21.3425 203.432 21.955 205.727 23.1599L206.657 21.3891C204.045 20.0181 201.123 19.3425 197.912 19.3425V21.3425ZM205.736 23.1646C208.106 24.3783 209.93 26.01 211.237 28.0569L212.923 26.9801C211.409 24.611 209.308 22.7468 206.648 21.3845L205.736 23.1646ZM211.248 28.0732C212.608 30.114 213.288 32.3737 213.288 34.8785H215.288C215.288 31.986 214.496 29.339 212.912 26.9638L211.248 28.0732ZM213.288 34.8785C213.288 37.3833 212.608 39.643 211.248 41.6838L212.912 42.7932C214.496 40.418 215.288 37.7711 215.288 34.8785H213.288ZM211.237 41.7001C209.93 43.747 208.106 45.3788 205.736 46.5925L206.648 48.3726C209.308 47.0103 211.409 45.146 212.923 42.7769L211.237 41.7001ZM205.727 46.5971C203.432 47.8021 200.834 48.4145 197.912 48.4145V50.4145C201.123 50.4145 204.045 49.739 206.657 48.3679L205.727 46.5971ZM197.912 42.1345C198.962 42.1345 199.918 41.7641 200.753 41.0805L199.487 39.5326C198.973 39.953 198.456 40.1345 197.912 40.1345V42.1345ZM200.793 41.0465C201.589 40.3226 202.193 39.4261 202.612 38.3779L200.756 37.6351C200.439 38.4269 200 39.0638 199.447 39.5666L200.793 41.0465ZM202.6 38.4073C203.087 37.2957 203.328 36.1161 203.328 34.8785H201.328C201.328 35.8489 201.14 36.7547 200.768 37.6057L202.6 38.4073ZM203.328 34.8785C203.328 33.5886 203.09 32.3983 202.59 31.3276L200.778 32.1734C201.137 32.9427 201.328 33.8377 201.328 34.8785H203.328ZM202.612 31.3791C202.19 30.3239 201.576 29.4416 200.753 28.7686L199.487 30.3165C200.014 30.7475 200.442 31.3371 200.756 32.1219L202.612 31.3791ZM200.793 28.8026C199.962 28.0476 198.994 27.6225 197.912 27.6225V29.6225C198.425 29.6225 198.928 29.8107 199.447 30.2825L200.793 28.8026ZM197.912 27.6225C196.83 27.6225 195.862 28.0476 195.031 28.8026L196.377 30.2825C196.896 29.8107 197.399 29.6225 197.912 29.6225V27.6225ZM195.071 28.7686C194.262 29.4301 193.624 30.2939 193.142 31.3276L194.954 32.1734C195.33 31.3671 195.796 30.759 196.337 30.3165L195.071 28.7686ZM193.12 31.3791C192.697 32.4361 192.496 33.608 192.496 34.8785H194.496C194.496 33.8184 194.663 32.9049 194.976 32.1219L193.12 31.3791ZM192.496 34.8785C192.496 36.096 192.699 37.2581 193.112 38.3576L194.984 37.6554C194.661 36.7922 194.496 35.8691 194.496 34.8785H192.496ZM193.142 38.4294C193.621 39.4559 194.248 40.3344 195.031 41.0465L196.377 39.5666C195.811 39.052 195.334 38.3972 194.954 37.5836L193.142 38.4294ZM195.071 41.0805C195.906 41.7641 196.862 42.1345 197.912 42.1345V40.1345C197.368 40.1345 196.851 39.953 196.337 39.5326L195.071 41.0805ZM237.38 86.5025C234.458 86.5025 231.826 85.8902 229.464 84.6805L228.552 86.4606C231.22 87.8269 234.169 88.5025 237.38 88.5025V86.5025ZM229.473 84.6851C227.161 83.4713 225.327 81.8344 223.952 79.7718L222.288 80.8812C223.857 83.2347 225.948 85.0937 228.543 86.4559L229.473 84.6851ZM223.963 79.7881C222.658 77.7459 222.004 75.4804 222.004 72.9665H220.004C220.004 75.8499 220.761 78.4911 222.277 80.8649L223.963 79.7881ZM222.004 72.9665C222.004 70.4526 222.658 68.1871 223.963 66.1449L222.277 65.0681C220.761 67.4419 220.004 70.0831 220.004 72.9665H222.004ZM223.952 66.1612C225.327 64.0987 227.161 62.4617 229.473 61.2479L228.543 59.4771C225.948 60.8393 223.857 62.6984 222.288 65.0518L223.952 66.1612ZM229.464 61.2526C231.826 60.0429 234.458 59.4305 237.38 59.4305V57.4305C234.169 57.4305 231.22 58.1062 228.552 59.4725L229.464 61.2526ZM237.38 59.4305C240.302 59.4305 242.9 60.043 245.195 61.2479L246.125 59.4771C243.513 58.1061 240.591 57.4305 237.38 57.4305V59.4305ZM245.204 61.2526C247.574 62.4663 249.398 64.098 250.705 66.1449L252.391 65.0681C250.877 62.699 248.776 60.8348 246.116 59.4725L245.204 61.2526ZM250.716 66.1612C252.076 68.202 252.756 70.4617 252.756 72.9665H254.756C254.756 70.074 253.964 67.427 252.38 65.0518L250.716 66.1612ZM252.756 72.9665C252.756 75.4713 252.076 77.731 250.716 79.7718L252.38 80.8812C253.964 78.506 254.756 75.8591 254.756 72.9665H252.756ZM250.705 79.7881C249.398 81.835 247.574 83.4668 245.204 84.6805L246.116 86.4606C248.776 85.0983 250.877 83.234 252.391 80.8649L250.705 79.7881ZM245.195 84.6851C242.9 85.8901 240.302 86.5025 237.38 86.5025V88.5025C240.591 88.5025 243.513 87.827 246.125 86.4559L245.195 84.6851ZM237.38 80.2225C238.43 80.2225 239.386 79.8521 240.221 79.1685L238.955 77.6206C238.441 78.041 237.924 78.2225 237.38 78.2225V80.2225ZM240.261 79.1345C241.057 78.4106 241.661 77.5141 242.08 76.4659L240.224 75.7231C239.907 76.5149 239.468 77.1518 238.915 77.6546L240.261 79.1345ZM242.068 76.4953C242.555 75.3837 242.796 74.2041 242.796 72.9665H240.796C240.796 73.9369 240.608 74.8427 240.236 75.6937L242.068 76.4953ZM242.796 72.9665C242.796 71.6766 242.558 70.4863 242.058 69.4156L240.246 70.2614C240.605 71.0307 240.796 71.9257 240.796 72.9665H242.796ZM242.08 69.4671C241.658 68.4119 241.044 67.5295 240.221 66.8566L238.955 68.4045C239.482 68.8355 239.91 69.4251 240.224 70.2099L242.08 69.4671ZM240.261 66.8906C239.43 66.1356 238.462 65.7105 237.38 65.7105V67.7105C237.893 67.7105 238.396 67.8987 238.915 68.3705L240.261 66.8906ZM237.38 65.7105C236.298 65.7105 235.33 66.1356 234.499 66.8906L235.845 68.3705C236.364 67.8987 236.867 67.7105 237.38 67.7105V65.7105ZM234.539 66.8566C233.73 67.5181 233.092 68.3819 232.61 69.4156L234.422 70.2614C234.798 69.4551 235.264 68.847 235.805 68.4045L234.539 66.8566ZM232.588 69.4671C232.165 70.5241 231.964 71.696 231.964 72.9665H233.964C233.964 71.9064 234.131 70.9929 234.444 70.2099L232.588 69.4671ZM231.964 72.9665C231.964 74.184 232.167 75.3461 232.58 76.4456L234.452 75.7434C234.129 74.8802 233.964 73.9571 233.964 72.9665H231.964ZM232.61 76.5174C233.089 77.5439 233.716 78.4224 234.499 79.1345L235.845 77.6546C235.279 77.14 234.802 76.4852 234.422 75.6716L232.61 76.5174ZM234.539 79.1685C235.374 79.8521 236.33 80.2225 237.38 80.2225V78.2225C236.836 78.2225 236.319 78.041 235.805 77.6206L234.539 79.1685ZM190.012 81.2662L216.048 51.9182L214.552 50.5909L188.516 79.9389L190.012 81.2662ZM216.102 51.8519L239.194 20.8478L237.59 19.6532L214.498 50.6572L216.102 51.8519ZM237.722 20.9925L245.358 27.8925L246.698 26.4086L239.062 19.5086L237.722 20.9925ZM245.276 26.4912L220.344 54.9192L221.848 56.2379L246.78 27.8099L245.276 26.4912ZM220.299 54.9745L196.103 86.8985L197.697 88.1066L221.893 56.1826L220.299 54.9745ZM197.57 86.7606L189.934 79.8606L188.594 81.3445L196.23 88.2445L197.57 86.7606Z" fill="url(#paint9_linear_2006_2125)" mask="url(#path-9-outside-5_2006_2125)"/>
<defs>
<linearGradient id="paint0_linear_2006_2125" x1="20.5" y1="17.7355" x2="20.5" y2="86.9825" gradientUnits="userSpaceOnUse">
<stop stop-color="#28A809"/>
<stop offset="1" stop-color="white"/>
</linearGradient>
<linearGradient id="paint1_linear_2006_2125" x1="20.5" y1="0.58252" x2="20.5" y2="108.583" gradientUnits="userSpaceOnUse">
<stop stop-color="white"/>
<stop offset="1" stop-color="#999999"/>
</linearGradient>
<linearGradient id="paint2_linear_2006_2125" x1="55.5" y1="17.7355" x2="55.5" y2="86.9825" gradientUnits="userSpaceOnUse">
<stop stop-color="#28A809"/>
<stop offset="1" stop-color="white"/>
</linearGradient>
<linearGradient id="paint3_linear_2006_2125" x1="55.5" y1="0.58252" x2="55.5" y2="108.583" gradientUnits="userSpaceOnUse">
<stop stop-color="white"/>
<stop offset="1" stop-color="#999999"/>
</linearGradient>
<linearGradient id="paint4_linear_2006_2125" x1="103.5" y1="17.7355" x2="103.5" y2="86.9825" gradientUnits="userSpaceOnUse">
<stop stop-color="#28A809"/>
<stop offset="1" stop-color="white"/>
</linearGradient>
<linearGradient id="paint5_linear_2006_2125" x1="103.5" y1="0.58252" x2="103.5" y2="108.583" gradientUnits="userSpaceOnUse">
<stop stop-color="white"/>
<stop offset="1" stop-color="#999999"/>
</linearGradient>
<linearGradient id="paint6_linear_2006_2125" x1="157.5" y1="17.7355" x2="157.5" y2="86.9825" gradientUnits="userSpaceOnUse">
<stop stop-color="#28A809"/>
<stop offset="1" stop-color="white"/>
</linearGradient>
<linearGradient id="paint7_linear_2006_2125" x1="157.5" y1="0.58252" x2="157.5" y2="108.583" gradientUnits="userSpaceOnUse">
<stop stop-color="white"/>
<stop offset="1" stop-color="#999999"/>
</linearGradient>
<linearGradient id="paint8_linear_2006_2125" x1="218" y1="17.7355" x2="218" y2="86.9825" gradientUnits="userSpaceOnUse">
<stop stop-color="#28A809"/>
<stop offset="1" stop-color="white"/>
</linearGradient>
<linearGradient id="paint9_linear_2006_2125" x1="218" y1="0.58252" x2="218" y2="108.583" gradientUnits="userSpaceOnUse">
<stop stop-color="white"/>
<stop offset="1" stop-color="#999999"/>
</linearGradient>
</defs>
</svg>
