<svg width="298" height="116" viewBox="0 0 298 116" fill="none" xmlns="http://www.w3.org/2000/svg">
<g filter="url(#filter0_d_401_3015)">
<mask id="path-1-outside-1_401_3015" maskUnits="userSpaceOnUse" x="27" y="37" width="34" height="34" fill="black">
<rect fill="white" x="27" y="37" width="34" height="34"/>
<path d="M59.328 47.44V61.24H51.508V69.98H35.868V61.24H28.048V47.44H35.868V38.7H51.508V47.44H59.328Z"/>
</mask>
<path d="M59.328 47.44V61.24H51.508V69.98H35.868V61.24H28.048V47.44H35.868V38.7H51.508V47.44H59.328Z" fill="url(#paint0_linear_401_3015)"/>
<path d="M59.328 47.44H60.328C60.328 46.8877 59.8803 46.44 59.328 46.44V47.44ZM59.328 61.24V62.24C59.8803 62.24 60.328 61.7923 60.328 61.24H59.328ZM51.508 61.24V60.24C50.9557 60.24 50.508 60.6877 50.508 61.24H51.508ZM51.508 69.98V70.98C52.0603 70.98 52.508 70.5323 52.508 69.98H51.508ZM35.868 69.98H34.868C34.868 70.5323 35.3157 70.98 35.868 70.98V69.98ZM35.868 61.24H36.868C36.868 60.6877 36.4203 60.24 35.868 60.24V61.24ZM28.048 61.24H27.048C27.048 61.7923 27.4957 62.24 28.048 62.24V61.24ZM28.048 47.44V46.44C27.4957 46.44 27.048 46.8877 27.048 47.44H28.048ZM35.868 47.44V48.44C36.4203 48.44 36.868 47.9923 36.868 47.44H35.868ZM35.868 38.7V37.7C35.3157 37.7 34.868 38.1477 34.868 38.7H35.868ZM51.508 38.7H52.508C52.508 38.1477 52.0603 37.7 51.508 37.7V38.7ZM51.508 47.44H50.508C50.508 47.9923 50.9557 48.44 51.508 48.44V47.44ZM58.328 47.44V61.24H60.328V47.44H58.328ZM59.328 60.24H51.508V62.24H59.328V60.24ZM50.508 61.24V69.98H52.508V61.24H50.508ZM51.508 68.98H35.868V70.98H51.508V68.98ZM36.868 69.98V61.24H34.868V69.98H36.868ZM35.868 60.24H28.048V62.24H35.868V60.24ZM29.048 61.24V47.44H27.048V61.24H29.048ZM28.048 48.44H35.868V46.44H28.048V48.44ZM36.868 47.44V38.7H34.868V47.44H36.868ZM35.868 39.7H51.508V37.7H35.868V39.7ZM50.508 38.7V47.44H52.508V38.7H50.508ZM51.508 48.44H59.328V46.44H51.508V48.44Z" fill="url(#paint1_linear_401_3015)" mask="url(#path-1-outside-1_401_3015)"/>
</g>
<g filter="url(#filter1_d_401_3015)">
<mask id="path-3-outside-2_401_3015" maskUnits="userSpaceOnUse" x="54" y="20" width="50" height="69" fill="black">
<rect fill="white" x="54" y="20" width="50" height="69"/>
<path d="M76.932 87.828C72.148 87.828 67.824 86.9387 63.96 85.16C60.1573 83.32 57.2133 80.7747 55.128 77.524L64.696 66.484C66.4747 68.3853 68.4373 69.888 70.584 70.992C72.792 72.0347 74.9387 72.556 77.024 72.556C78.5573 72.556 79.8453 72.28 80.888 71.728C81.992 71.176 82.82 70.3787 83.372 69.336C83.9853 68.2933 84.292 67.0973 84.292 65.748C84.292 64.3987 84.016 63.2333 83.464 62.252C82.9733 61.2093 82.2373 60.412 81.256 59.86C80.336 59.308 79.232 59.032 77.944 59.032C76.656 59.032 75.46 59.3387 74.356 59.952C73.3133 60.504 72.516 61.2707 71.964 62.252H56.968L64.696 21.588H97.448V37.504H77.3L76.288 44.588C76.288 44.588 76.6253 44.5267 77.3 44.404C77.9747 44.22 79.048 44.128 80.52 44.128C84.752 44.128 88.4933 45.048 91.744 46.888C94.9947 48.6667 97.54 51.1507 99.38 54.34C101.281 57.5293 102.232 61.2093 102.232 65.38C102.232 69.796 101.159 73.6907 99.012 77.064C96.8653 80.4373 93.8907 83.0747 90.088 84.976C86.3467 86.8773 81.9613 87.828 76.932 87.828Z"/>
</mask>
<path d="M76.932 87.828C72.148 87.828 67.824 86.9387 63.96 85.16C60.1573 83.32 57.2133 80.7747 55.128 77.524L64.696 66.484C66.4747 68.3853 68.4373 69.888 70.584 70.992C72.792 72.0347 74.9387 72.556 77.024 72.556C78.5573 72.556 79.8453 72.28 80.888 71.728C81.992 71.176 82.82 70.3787 83.372 69.336C83.9853 68.2933 84.292 67.0973 84.292 65.748C84.292 64.3987 84.016 63.2333 83.464 62.252C82.9733 61.2093 82.2373 60.412 81.256 59.86C80.336 59.308 79.232 59.032 77.944 59.032C76.656 59.032 75.46 59.3387 74.356 59.952C73.3133 60.504 72.516 61.2707 71.964 62.252H56.968L64.696 21.588H97.448V37.504H77.3L76.288 44.588C76.288 44.588 76.6253 44.5267 77.3 44.404C77.9747 44.22 79.048 44.128 80.52 44.128C84.752 44.128 88.4933 45.048 91.744 46.888C94.9947 48.6667 97.54 51.1507 99.38 54.34C101.281 57.5293 102.232 61.2093 102.232 65.38C102.232 69.796 101.159 73.6907 99.012 77.064C96.8653 80.4373 93.8907 83.0747 90.088 84.976C86.3467 86.8773 81.9613 87.828 76.932 87.828Z" fill="url(#paint2_linear_401_3015)"/>
<path d="M63.96 85.16L63.5244 86.0602C63.5302 86.063 63.536 86.0657 63.5419 86.0684L63.96 85.16ZM55.128 77.524L54.3723 76.8691C54.0818 77.2042 54.0468 77.6907 54.2863 78.064L55.128 77.524ZM64.696 66.484L65.4263 65.8008C65.2327 65.5939 64.9604 65.4788 64.677 65.4842C64.3937 65.4896 64.1259 65.6149 63.9403 65.8291L64.696 66.484ZM70.584 70.992L70.1267 71.8813C70.1367 71.8864 70.1468 71.8914 70.157 71.8962L70.584 70.992ZM80.888 71.728L80.4408 70.8336C80.4339 70.837 80.427 70.8406 80.4201 70.8442L80.888 71.728ZM83.372 69.336L82.5101 68.829C82.5025 68.8419 82.4952 68.8549 82.4882 68.8681L83.372 69.336ZM83.464 62.252L82.5592 62.6778C82.5695 62.6997 82.5806 62.7212 82.5924 62.7423L83.464 62.252ZM81.256 59.86L80.7415 60.7175C80.7495 60.7223 80.7576 60.727 80.7657 60.7316L81.256 59.86ZM74.356 59.952L74.8239 60.8358C74.8298 60.8326 74.8358 60.8294 74.8416 60.8262L74.356 59.952ZM71.964 62.252V63.252C72.3253 63.252 72.6585 63.0571 72.8356 62.7423L71.964 62.252ZM56.968 62.252L55.9856 62.0653C55.93 62.358 56.0077 62.6602 56.1977 62.8897C56.3877 63.1192 56.6701 63.252 56.968 63.252V62.252ZM64.696 21.588V20.588C64.2157 20.588 63.8033 20.9295 63.7136 21.4013L64.696 21.588ZM97.448 21.588H98.448C98.448 21.0357 98.0003 20.588 97.448 20.588V21.588ZM97.448 37.504V38.504C98.0003 38.504 98.448 38.0563 98.448 37.504H97.448ZM77.3 37.504V36.504C76.8024 36.504 76.3804 36.8699 76.3101 37.3626L77.3 37.504ZM76.288 44.588L75.2981 44.4466C75.2526 44.7648 75.3629 45.0855 75.5944 45.3084C75.826 45.5313 76.1506 45.6294 76.4669 45.5719L76.288 44.588ZM77.3 44.404L77.4789 45.3879C77.5072 45.3827 77.5353 45.3763 77.5631 45.3688L77.3 44.404ZM91.744 46.888L91.2514 47.7583C91.2556 47.7606 91.2598 47.763 91.264 47.7653L91.744 46.888ZM99.38 54.34L98.5138 54.8397C98.5162 54.8439 98.5186 54.848 98.5211 54.8521L99.38 54.34ZM99.012 77.064L99.8557 77.6009L99.8557 77.6009L99.012 77.064ZM90.088 84.976L89.6408 84.0816L89.635 84.0845L90.088 84.976ZM76.932 86.828C72.2743 86.828 68.0955 85.9628 64.3781 84.2516L63.5419 86.0684C67.5525 87.9145 72.0217 88.828 76.932 88.828V86.828ZM64.3956 84.2598C60.7428 82.4924 57.9462 80.0651 55.9697 76.984L54.2863 78.064C56.4805 81.4842 59.5719 84.1476 63.5244 86.0602L64.3956 84.2598ZM55.8837 78.1789L65.4517 67.1389L63.9403 65.8291L54.3723 76.8691L55.8837 78.1789ZM63.9657 67.1672C65.8167 69.1458 67.8701 70.7208 70.1267 71.8813L71.0413 70.1027C69.0046 69.0552 67.1327 67.6249 65.4263 65.8008L63.9657 67.1672ZM70.157 71.8962C72.4758 72.9913 74.7678 73.556 77.024 73.556V71.556C75.1095 71.556 73.1082 71.0781 71.011 70.0878L70.157 71.8962ZM77.024 73.556C78.6731 73.556 80.1324 73.2595 81.3559 72.6118L80.4201 70.8442C79.5583 71.3005 78.4416 71.556 77.024 71.556V73.556ZM81.3352 72.6224C82.6165 71.9818 83.6016 71.0396 84.2558 69.8039L82.4882 68.8681C82.0384 69.7177 81.3675 70.3702 80.4408 70.8336L81.3352 72.6224ZM84.2339 69.843C84.9478 68.6295 85.292 67.2545 85.292 65.748H83.292C83.292 66.9401 83.0229 67.9572 82.5101 68.829L84.2339 69.843ZM85.292 65.748C85.292 64.261 84.987 62.9199 84.3356 61.7617L82.5924 62.7423C83.045 63.5468 83.292 64.5364 83.292 65.748H85.292ZM84.3688 61.8262C83.7919 60.6002 82.9132 59.6449 81.7463 58.9884L80.7657 60.7316C81.5614 61.1791 82.1548 61.8185 82.5592 62.6778L84.3688 61.8262ZM81.7705 59.0025C80.6665 58.3401 79.3768 58.032 77.944 58.032V60.032C79.0873 60.032 80.0055 60.2759 80.7415 60.7175L81.7705 59.0025ZM77.944 58.032C76.4896 58.032 75.126 58.3803 73.8704 59.0778L74.8416 60.8262C75.794 60.297 76.8224 60.032 77.944 60.032V58.032ZM73.8881 59.0682C72.6845 59.7054 71.7431 60.605 71.0924 61.7617L72.8356 62.7423C73.2889 61.9363 73.9422 61.3026 74.8239 60.8358L73.8881 59.0682ZM71.964 61.252H56.968V63.252H71.964V61.252ZM57.9504 62.4387L65.6784 21.7747L63.7136 21.4013L55.9856 62.0653L57.9504 62.4387ZM64.696 22.588H97.448V20.588H64.696V22.588ZM96.448 21.588V37.504H98.448V21.588H96.448ZM97.448 36.504H77.3V38.504H97.448V36.504ZM76.3101 37.3626L75.2981 44.4466L77.2779 44.7294L78.29 37.6454L76.3101 37.3626ZM76.288 44.588C76.4669 45.5719 76.4669 45.5719 76.4669 45.5719C76.4669 45.5719 76.4669 45.5719 76.4669 45.5719C76.4669 45.5719 76.4669 45.5719 76.4669 45.5719C76.4669 45.5719 76.4669 45.5719 76.4669 45.5719C76.467 45.5718 76.4669 45.5719 76.467 45.5718C76.4671 45.5718 76.4671 45.5718 76.4671 45.5718C76.4672 45.5718 76.4673 45.5718 76.4674 45.5718C76.4683 45.5716 76.467 45.5719 76.4679 45.5717C76.4684 45.5716 76.4676 45.5717 76.4681 45.5716C76.4682 45.5716 76.4684 45.5716 76.4684 45.5716C76.4691 45.5715 76.4684 45.5716 76.4691 45.5715C76.4699 45.5713 76.4687 45.5715 76.4695 45.5714C76.4696 45.5714 76.4696 45.5714 76.4697 45.5714C76.4698 45.5713 76.4698 45.5713 76.4699 45.5713C76.4703 45.5712 76.4699 45.5713 76.4704 45.5712C76.4708 45.5712 76.4704 45.5712 76.4708 45.5711C76.4775 45.5699 76.4684 45.5716 76.4758 45.5703C76.4914 45.5674 76.4664 45.572 76.4827 45.569C76.4884 45.5679 76.4941 45.5669 76.5025 45.5654C76.519 45.5624 76.511 45.5639 76.5301 45.5604C76.5991 45.5478 76.5297 45.5605 76.6092 45.546C76.62 45.544 76.6472 45.5391 76.6606 45.5366C76.674 45.5342 76.6752 45.534 76.6892 45.5314C76.7231 45.5253 76.6854 45.5321 76.7199 45.5259C76.8042 45.5105 76.7001 45.5295 76.7871 45.5136C76.8611 45.5002 76.7855 45.5139 76.8622 45.5C76.8658 45.4993 76.8685 45.4988 76.8721 45.4982C76.8905 45.4948 76.8638 45.4997 76.8822 45.4964C76.8841 45.496 76.8854 45.4958 76.8873 45.4954C76.8891 45.4951 76.8905 45.4948 76.8924 45.4945C76.8961 45.4938 76.8989 45.4933 76.9027 45.4926C76.9192 45.4896 76.8966 45.4937 76.9132 45.4907C76.917 45.49 76.9146 45.4905 76.9184 45.4898C76.9255 45.4885 76.9166 45.4901 76.9237 45.4888C76.9246 45.4886 76.9255 45.4885 76.9264 45.4883C76.9273 45.4882 76.9282 45.488 76.929 45.4878C76.9299 45.4877 76.9308 45.4875 76.9317 45.4874C76.9326 45.4872 76.9335 45.487 76.9344 45.4869C76.9357 45.4866 76.9439 45.4851 76.9452 45.4849C77.0506 45.4657 76.9281 45.488 77.0361 45.4684C77.0833 45.4598 77.0851 45.4595 77.135 45.4504C77.2035 45.4379 77.1182 45.4535 77.1873 45.4409C77.2001 45.4386 77.2283 45.4334 77.2417 45.431C77.282 45.4237 77.3135 45.4179 77.3563 45.4101C77.3708 45.4075 77.3716 45.4074 77.3862 45.4047C77.4118 45.4001 77.3758 45.4066 77.4014 45.402C77.4032 45.4016 77.4148 45.3995 77.4166 45.3992C77.4315 45.3965 77.4325 45.3963 77.4475 45.3936C77.4818 45.3873 77.4444 45.3941 77.4789 45.3879L77.1211 43.4201C77.0511 43.4329 76.9434 43.4524 76.8839 43.4633C76.8535 43.4688 76.805 43.4776 76.7772 43.4827C76.7646 43.4849 76.7387 43.4897 76.7268 43.4918C76.7028 43.4962 76.7017 43.4964 76.6784 43.5006C76.5911 43.5165 76.5811 43.5183 76.5044 43.5323C76.4773 43.5372 76.3787 43.5551 76.3621 43.5581C76.2982 43.5697 76.1941 43.5887 76.1724 43.5926C76.1577 43.5953 76.1291 43.6005 76.1249 43.6013C76.1229 43.6016 76.123 43.6016 76.1212 43.6019C76.1208 43.602 76.1199 43.6022 76.1196 43.6022C76.1178 43.6025 76.1197 43.6022 76.118 43.6025C76.1175 43.6026 76.1156 43.603 76.1153 43.603C76.1145 43.6032 76.1137 43.6033 76.1131 43.6034C76.1114 43.6037 76.1112 43.6038 76.1101 43.6039C76.1099 43.604 76.1094 43.6041 76.1094 43.6041C76.1093 43.6041 76.1092 43.6041 76.1092 43.6041C76.1092 43.6041 76.1091 43.6041 76.1091 43.6041C76.1091 43.6041 76.1091 43.6041 76.1091 43.6041C76.1091 43.6041 76.1091 43.6041 76.288 44.588ZM77.5631 45.3688C78.1012 45.222 79.0615 45.128 80.52 45.128V43.128C79.0345 43.128 77.8481 43.218 77.0369 43.4392L77.5631 45.3688ZM80.52 45.128C84.6027 45.128 88.1701 46.0141 91.2514 47.7583L92.2366 46.0177C88.8166 44.0819 84.9013 43.128 80.52 43.128V45.128ZM91.264 47.7653C94.3548 49.4565 96.7661 51.8103 98.5138 54.8397L100.246 53.8403C98.3139 50.491 95.6345 47.8769 92.224 46.0107L91.264 47.7653ZM98.5211 54.8521C100.319 57.8681 101.232 61.3669 101.232 65.38H103.232C103.232 61.0518 102.244 57.1906 100.239 53.8279L98.5211 54.8521ZM101.232 65.38C101.232 69.6264 100.202 73.3308 98.1683 76.5271L99.8557 77.6009C102.115 74.0506 103.232 69.9656 103.232 65.38H101.232ZM98.1683 76.5271C96.1252 79.7378 93.292 82.256 89.6408 84.0816L90.5352 85.8704C94.4893 83.8934 97.6055 81.1369 99.8557 77.6009L98.1683 76.5271ZM89.635 84.0845C86.0592 85.9017 81.8348 86.828 76.932 86.828V88.828C82.0878 88.828 86.6341 87.853 90.5411 85.8675L89.635 84.0845Z" fill="url(#paint3_linear_401_3015)" mask="url(#path-3-outside-2_401_3015)"/>
</g>
<g filter="url(#filter2_d_401_3015)">
<mask id="path-5-outside-3_401_3015" maskUnits="userSpaceOnUse" x="96" y="20" width="62" height="69" fill="black">
<rect fill="white" x="96" y="20" width="62" height="69"/>
<path d="M126.844 87.92C121.999 87.92 117.705 86.908 113.964 84.884C110.284 82.86 107.187 80.192 104.672 76.88C102.219 73.568 100.348 69.98 99.06 66.116C97.8333 62.252 97.22 58.48 97.22 54.8C97.22 50.8747 97.8947 46.9493 99.244 43.024C100.593 39.0987 102.556 35.5413 105.132 32.352C107.708 29.1013 110.805 26.5253 114.424 24.624C118.104 22.6613 122.244 21.68 126.844 21.68C131.751 21.68 136.044 22.7227 139.724 24.808C143.404 26.8933 146.471 29.592 148.924 32.904C151.439 36.216 153.309 39.804 154.536 43.668C155.824 47.532 156.468 51.2427 156.468 54.8C156.468 58.7867 155.793 62.7427 154.444 66.668C153.095 70.5933 151.132 74.1507 148.556 77.34C145.98 80.5293 142.852 83.1053 139.172 85.068C135.553 86.9693 131.444 87.92 126.844 87.92ZM115.436 54.8C115.436 56.824 115.651 58.848 116.08 60.872C116.509 62.896 117.153 64.7667 118.012 66.484C118.932 68.14 120.128 69.4893 121.6 70.532C123.072 71.5133 124.82 72.004 126.844 72.004C128.991 72.004 130.769 71.452 132.18 70.348C133.652 69.244 134.817 67.8333 135.676 66.116C136.596 64.3987 137.24 62.5587 137.608 60.596C138.037 58.572 138.252 56.64 138.252 54.8C138.252 52.776 138.037 50.752 137.608 48.728C137.179 46.704 136.504 44.864 135.584 43.208C134.664 41.4907 133.468 40.1413 131.996 39.16C130.585 38.1173 128.868 37.596 126.844 37.596C124.759 37.596 122.98 38.148 121.508 39.252C120.036 40.356 118.84 41.7667 117.92 43.484C117.061 45.2013 116.417 47.072 115.988 49.096C115.62 51.0587 115.436 52.96 115.436 54.8Z"/>
</mask>
<path d="M126.844 87.92C121.999 87.92 117.705 86.908 113.964 84.884C110.284 82.86 107.187 80.192 104.672 76.88C102.219 73.568 100.348 69.98 99.06 66.116C97.8333 62.252 97.22 58.48 97.22 54.8C97.22 50.8747 97.8947 46.9493 99.244 43.024C100.593 39.0987 102.556 35.5413 105.132 32.352C107.708 29.1013 110.805 26.5253 114.424 24.624C118.104 22.6613 122.244 21.68 126.844 21.68C131.751 21.68 136.044 22.7227 139.724 24.808C143.404 26.8933 146.471 29.592 148.924 32.904C151.439 36.216 153.309 39.804 154.536 43.668C155.824 47.532 156.468 51.2427 156.468 54.8C156.468 58.7867 155.793 62.7427 154.444 66.668C153.095 70.5933 151.132 74.1507 148.556 77.34C145.98 80.5293 142.852 83.1053 139.172 85.068C135.553 86.9693 131.444 87.92 126.844 87.92ZM115.436 54.8C115.436 56.824 115.651 58.848 116.08 60.872C116.509 62.896 117.153 64.7667 118.012 66.484C118.932 68.14 120.128 69.4893 121.6 70.532C123.072 71.5133 124.82 72.004 126.844 72.004C128.991 72.004 130.769 71.452 132.18 70.348C133.652 69.244 134.817 67.8333 135.676 66.116C136.596 64.3987 137.24 62.5587 137.608 60.596C138.037 58.572 138.252 56.64 138.252 54.8C138.252 52.776 138.037 50.752 137.608 48.728C137.179 46.704 136.504 44.864 135.584 43.208C134.664 41.4907 133.468 40.1413 131.996 39.16C130.585 38.1173 128.868 37.596 126.844 37.596C124.759 37.596 122.98 38.148 121.508 39.252C120.036 40.356 118.84 41.7667 117.92 43.484C117.061 45.2013 116.417 47.072 115.988 49.096C115.62 51.0587 115.436 52.96 115.436 54.8Z" fill="url(#paint4_linear_401_3015)"/>
<path d="M113.964 84.884L113.482 85.7602L113.488 85.7635L113.964 84.884ZM104.672 76.88L103.868 77.4753L103.876 77.4847L104.672 76.88ZM99.06 66.116L98.1069 66.4186C98.1083 66.4231 98.1098 66.4277 98.1113 66.4322L99.06 66.116ZM99.244 43.024L100.19 43.3491L100.19 43.3491L99.244 43.024ZM105.132 32.352L105.91 32.9804L105.916 32.9731L105.132 32.352ZM114.424 24.624L114.889 25.5093L114.895 25.5063L114.424 24.624ZM139.724 24.808L140.217 23.938L140.217 23.938L139.724 24.808ZM148.924 32.904L148.12 33.4993L148.128 33.5087L148.924 32.904ZM154.536 43.668L153.583 43.9706C153.584 43.9751 153.586 43.9797 153.587 43.9842L154.536 43.668ZM154.444 66.668L153.498 66.3429L153.498 66.3429L154.444 66.668ZM148.556 77.34L149.334 77.9683L149.334 77.9683L148.556 77.34ZM139.172 85.068L139.637 85.9533L139.643 85.9504L139.172 85.068ZM118.012 66.484L117.118 66.9312C117.124 66.9442 117.131 66.957 117.138 66.9696L118.012 66.484ZM121.6 70.532L121.022 71.348C121.03 71.3535 121.037 71.3588 121.045 71.364L121.6 70.532ZM132.18 70.348L131.58 69.548C131.575 69.5521 131.569 69.5563 131.564 69.5605L132.18 70.348ZM135.676 66.116L134.795 65.6438C134.79 65.6521 134.786 65.6604 134.782 65.6688L135.676 66.116ZM137.608 60.596L136.63 60.3885C136.628 60.3962 136.627 60.404 136.625 60.4117L137.608 60.596ZM137.608 48.728L138.586 48.5205L138.586 48.5205L137.608 48.728ZM135.584 43.208L134.703 43.6802C134.705 43.6847 134.707 43.6892 134.71 43.6936L135.584 43.208ZM131.996 39.16L131.402 39.9642C131.415 39.9738 131.428 39.9831 131.441 39.992L131.996 39.16ZM121.508 39.252L120.908 38.452L120.908 38.452L121.508 39.252ZM117.92 43.484L117.039 43.0118C117.034 43.0201 117.03 43.0284 117.026 43.0368L117.92 43.484ZM115.988 49.096L115.01 48.8885C115.008 48.8962 115.007 48.904 115.005 48.9117L115.988 49.096ZM126.844 86.92C122.141 86.92 118.016 85.939 114.44 84.0045L113.488 85.7635C117.395 87.877 121.856 88.92 126.844 88.92V86.92ZM114.446 84.0078C110.887 82.0506 107.898 79.4746 105.468 76.2753L103.876 77.4847C106.476 80.9094 109.681 83.6694 113.482 85.7602L114.446 84.0078ZM105.476 76.2848C103.084 73.0565 101.263 69.5625 100.009 65.7998L98.1113 66.4322C99.4331 70.3975 101.353 74.0795 103.868 77.4752L105.476 76.2848ZM100.013 65.8134C98.8144 62.0374 98.22 58.3675 98.22 54.8H96.22C96.22 58.5925 96.8523 62.4666 98.1069 66.4186L100.013 65.8134ZM98.22 54.8C98.22 50.9915 98.8742 47.1758 100.19 43.3491L98.2983 42.6989C96.9151 46.7228 96.22 50.7578 96.22 54.8H98.22ZM100.19 43.3491C101.502 39.5324 103.408 36.078 105.91 32.9803L104.354 31.7237C101.704 35.0047 99.685 38.6649 98.2983 42.6989L100.19 43.3491ZM105.916 32.9731C108.406 29.8301 111.396 27.3447 114.889 25.5092L113.959 23.7388C110.215 25.7059 107.01 28.3726 104.348 31.7309L105.916 32.9731ZM114.895 25.5063C118.415 23.6286 122.391 22.68 126.844 22.68V20.68C122.097 20.68 117.793 21.694 113.953 23.7416L114.895 25.5063ZM126.844 22.68C131.606 22.68 135.724 23.6907 139.231 25.678L140.217 23.938C136.364 21.7547 131.896 20.68 126.844 20.68V22.68ZM139.231 25.678C142.793 27.6963 145.753 30.3025 148.12 33.4992L149.728 32.3088C147.189 28.8815 144.015 26.0903 140.217 23.938L139.231 25.678ZM148.128 33.5087C150.575 36.7321 152.392 40.2183 153.583 43.9706L155.489 43.3654C154.227 39.3897 152.302 35.6999 149.72 32.2993L148.128 33.5087ZM153.587 43.9842C154.846 47.7608 155.468 51.3645 155.468 54.8H157.468C157.468 51.1209 156.802 47.3032 155.485 43.3518L153.587 43.9842ZM155.468 54.8C155.468 58.6715 154.813 62.5178 153.498 66.3429L155.39 66.9931C156.773 62.9675 157.468 58.9018 157.468 54.8H155.468ZM153.498 66.3429C152.186 70.1596 150.28 73.614 147.778 76.7117L149.334 77.9683C151.984 74.6873 154.003 71.0271 155.39 66.9931L153.498 66.3429ZM147.778 76.7117C145.288 79.7947 142.265 82.285 138.701 84.1856L139.643 85.9504C143.439 83.9256 146.672 81.264 149.334 77.9683L147.778 76.7117ZM138.707 84.1828C135.249 85.9997 131.303 86.92 126.844 86.92V88.92C131.585 88.92 135.858 87.939 139.637 85.9532L138.707 84.1828ZM114.436 54.8C114.436 56.8953 114.658 58.9888 115.102 61.0795L117.058 60.6645C116.643 58.7072 116.436 56.7527 116.436 54.8H114.436ZM115.102 61.0795C115.547 63.1802 116.218 65.1322 117.118 66.9312L118.906 66.0368C118.089 64.4011 117.471 62.6118 117.058 60.6645L115.102 61.0795ZM117.138 66.9696C118.127 68.7498 119.422 70.2144 121.022 71.348L122.178 69.716C120.834 68.7642 119.737 67.5302 118.886 65.9984L117.138 66.9696ZM121.045 71.364C122.704 72.4701 124.652 73.004 126.844 73.004V71.004C124.988 71.004 123.44 70.5566 122.155 69.6999L121.045 71.364ZM126.844 73.004C129.168 73.004 131.177 72.403 132.796 71.1355L131.564 69.5605C130.362 70.501 128.813 71.004 126.844 71.004V73.004ZM132.78 71.148C134.382 69.9468 135.645 68.4132 136.57 66.5632L134.782 65.6688C133.989 67.2535 132.922 68.5412 131.58 69.548L132.78 71.148ZM136.557 66.5882C137.527 64.7784 138.204 62.841 138.591 60.7803L136.625 60.4117C136.276 62.2763 135.665 64.0189 134.795 65.6438L136.557 66.5882ZM138.586 60.8035C139.028 58.7196 139.252 56.7177 139.252 54.8H137.252C137.252 56.5623 137.046 58.4244 136.63 60.3885L138.586 60.8035ZM139.252 54.8C139.252 52.7047 139.03 50.6112 138.586 48.5205L136.63 48.9355C137.045 50.8928 137.252 52.8473 137.252 54.8H139.252ZM138.586 48.5205C138.138 46.408 137.431 44.473 136.458 42.7224L134.71 43.6936C135.577 45.255 136.219 47 136.63 48.9355L138.586 48.5205ZM136.465 42.7358C135.476 40.8884 134.173 39.4095 132.551 38.3279L131.441 39.992C132.763 40.8732 133.852 42.0929 134.703 43.6802L136.465 42.7358ZM132.59 38.3558C130.982 37.167 129.048 36.596 126.844 36.596V38.596C128.688 38.596 130.189 39.0676 131.402 39.9642L132.59 38.3558ZM126.844 36.596C124.572 36.596 122.576 37.2012 120.908 38.452L122.108 40.052C123.384 39.0948 124.945 38.596 126.844 38.596V36.596ZM120.908 38.452C119.313 39.6485 118.023 41.1737 117.039 43.0118L118.801 43.9562C119.657 42.3596 120.759 41.0634 122.108 40.052L120.908 38.452ZM117.026 43.0368C116.126 44.8358 115.455 46.7878 115.01 48.8885L116.966 49.3035C117.379 47.3562 117.997 45.5669 118.814 43.9312L117.026 43.0368ZM115.005 48.9117C114.627 50.93 114.436 52.8932 114.436 54.8H116.436C116.436 53.0268 116.613 51.1873 116.971 49.2803L115.005 48.9117Z" fill="url(#paint5_linear_401_3015)" mask="url(#path-5-outside-3_401_3015)"/>
</g>
<g filter="url(#filter3_d_401_3015)">
<mask id="path-7-outside-4_401_3015" maskUnits="userSpaceOnUse" x="150" y="20" width="62" height="69" fill="black">
<rect fill="white" x="150" y="20" width="62" height="69"/>
<path d="M180.844 87.92C175.999 87.92 171.705 86.908 167.964 84.884C164.284 82.86 161.187 80.192 158.672 76.88C156.219 73.568 154.348 69.98 153.06 66.116C151.833 62.252 151.22 58.48 151.22 54.8C151.22 50.8747 151.895 46.9493 153.244 43.024C154.593 39.0987 156.556 35.5413 159.132 32.352C161.708 29.1013 164.805 26.5253 168.424 24.624C172.104 22.6613 176.244 21.68 180.844 21.68C185.751 21.68 190.044 22.7227 193.724 24.808C197.404 26.8933 200.471 29.592 202.924 32.904C205.439 36.216 207.309 39.804 208.536 43.668C209.824 47.532 210.468 51.2427 210.468 54.8C210.468 58.7867 209.793 62.7427 208.444 66.668C207.095 70.5933 205.132 74.1507 202.556 77.34C199.98 80.5293 196.852 83.1053 193.172 85.068C189.553 86.9693 185.444 87.92 180.844 87.92ZM169.436 54.8C169.436 56.824 169.651 58.848 170.08 60.872C170.509 62.896 171.153 64.7667 172.012 66.484C172.932 68.14 174.128 69.4893 175.6 70.532C177.072 71.5133 178.82 72.004 180.844 72.004C182.991 72.004 184.769 71.452 186.18 70.348C187.652 69.244 188.817 67.8333 189.676 66.116C190.596 64.3987 191.24 62.5587 191.608 60.596C192.037 58.572 192.252 56.64 192.252 54.8C192.252 52.776 192.037 50.752 191.608 48.728C191.179 46.704 190.504 44.864 189.584 43.208C188.664 41.4907 187.468 40.1413 185.996 39.16C184.585 38.1173 182.868 37.596 180.844 37.596C178.759 37.596 176.98 38.148 175.508 39.252C174.036 40.356 172.84 41.7667 171.92 43.484C171.061 45.2013 170.417 47.072 169.988 49.096C169.62 51.0587 169.436 52.96 169.436 54.8Z"/>
</mask>
<path d="M180.844 87.92C175.999 87.92 171.705 86.908 167.964 84.884C164.284 82.86 161.187 80.192 158.672 76.88C156.219 73.568 154.348 69.98 153.06 66.116C151.833 62.252 151.22 58.48 151.22 54.8C151.22 50.8747 151.895 46.9493 153.244 43.024C154.593 39.0987 156.556 35.5413 159.132 32.352C161.708 29.1013 164.805 26.5253 168.424 24.624C172.104 22.6613 176.244 21.68 180.844 21.68C185.751 21.68 190.044 22.7227 193.724 24.808C197.404 26.8933 200.471 29.592 202.924 32.904C205.439 36.216 207.309 39.804 208.536 43.668C209.824 47.532 210.468 51.2427 210.468 54.8C210.468 58.7867 209.793 62.7427 208.444 66.668C207.095 70.5933 205.132 74.1507 202.556 77.34C199.98 80.5293 196.852 83.1053 193.172 85.068C189.553 86.9693 185.444 87.92 180.844 87.92ZM169.436 54.8C169.436 56.824 169.651 58.848 170.08 60.872C170.509 62.896 171.153 64.7667 172.012 66.484C172.932 68.14 174.128 69.4893 175.6 70.532C177.072 71.5133 178.82 72.004 180.844 72.004C182.991 72.004 184.769 71.452 186.18 70.348C187.652 69.244 188.817 67.8333 189.676 66.116C190.596 64.3987 191.24 62.5587 191.608 60.596C192.037 58.572 192.252 56.64 192.252 54.8C192.252 52.776 192.037 50.752 191.608 48.728C191.179 46.704 190.504 44.864 189.584 43.208C188.664 41.4907 187.468 40.1413 185.996 39.16C184.585 38.1173 182.868 37.596 180.844 37.596C178.759 37.596 176.98 38.148 175.508 39.252C174.036 40.356 172.84 41.7667 171.92 43.484C171.061 45.2013 170.417 47.072 169.988 49.096C169.62 51.0587 169.436 52.96 169.436 54.8Z" fill="url(#paint6_linear_401_3015)"/>
<path d="M167.964 84.884L167.482 85.7602L167.488 85.7635L167.964 84.884ZM158.672 76.88L157.868 77.4753L157.876 77.4847L158.672 76.88ZM153.06 66.116L152.107 66.4186C152.108 66.4231 152.11 66.4277 152.111 66.4322L153.06 66.116ZM153.244 43.024L154.19 43.3491L154.19 43.3491L153.244 43.024ZM159.132 32.352L159.91 32.9804L159.916 32.9731L159.132 32.352ZM168.424 24.624L168.889 25.5093L168.895 25.5063L168.424 24.624ZM193.724 24.808L194.217 23.938L194.217 23.938L193.724 24.808ZM202.924 32.904L202.12 33.4993L202.128 33.5087L202.924 32.904ZM208.536 43.668L207.583 43.9706C207.584 43.9751 207.586 43.9797 207.587 43.9842L208.536 43.668ZM208.444 66.668L207.498 66.3429L207.498 66.3429L208.444 66.668ZM202.556 77.34L203.334 77.9683L203.334 77.9683L202.556 77.34ZM193.172 85.068L193.637 85.9533L193.643 85.9504L193.172 85.068ZM172.012 66.484L171.118 66.9312C171.124 66.9442 171.131 66.957 171.138 66.9696L172.012 66.484ZM175.6 70.532L175.022 71.348C175.03 71.3535 175.037 71.3588 175.045 71.364L175.6 70.532ZM186.18 70.348L185.58 69.548C185.575 69.5521 185.569 69.5563 185.564 69.5605L186.18 70.348ZM189.676 66.116L188.795 65.6438C188.79 65.6521 188.786 65.6604 188.782 65.6688L189.676 66.116ZM191.608 60.596L190.63 60.3885C190.628 60.3962 190.627 60.404 190.625 60.4117L191.608 60.596ZM191.608 48.728L192.586 48.5205L192.586 48.5205L191.608 48.728ZM189.584 43.208L188.703 43.6802C188.705 43.6847 188.707 43.6892 188.71 43.6936L189.584 43.208ZM185.996 39.16L185.402 39.9642C185.415 39.9738 185.428 39.9831 185.441 39.992L185.996 39.16ZM175.508 39.252L174.908 38.452L174.908 38.452L175.508 39.252ZM171.92 43.484L171.039 43.0118C171.034 43.0201 171.03 43.0284 171.026 43.0368L171.92 43.484ZM169.988 49.096L169.01 48.8885C169.008 48.8962 169.007 48.904 169.005 48.9117L169.988 49.096ZM180.844 86.92C176.141 86.92 172.016 85.939 168.44 84.0045L167.488 85.7635C171.395 87.877 175.856 88.92 180.844 88.92V86.92ZM168.446 84.0078C164.887 82.0506 161.898 79.4746 159.468 76.2753L157.876 77.4847C160.476 80.9094 163.681 83.6694 167.482 85.7602L168.446 84.0078ZM159.476 76.2848C157.084 73.0565 155.263 69.5625 154.009 65.7998L152.111 66.4322C153.433 70.3975 155.353 74.0795 157.868 77.4752L159.476 76.2848ZM154.013 65.8134C152.814 62.0374 152.22 58.3675 152.22 54.8H150.22C150.22 58.5925 150.852 62.4666 152.107 66.4186L154.013 65.8134ZM152.22 54.8C152.22 50.9915 152.874 47.1758 154.19 43.3491L152.298 42.6989C150.915 46.7228 150.22 50.7578 150.22 54.8H152.22ZM154.19 43.3491C155.502 39.5324 157.408 36.078 159.91 32.9803L158.354 31.7237C155.704 35.0047 153.685 38.6649 152.298 42.6989L154.19 43.3491ZM159.916 32.9731C162.406 29.8301 165.396 27.3447 168.889 25.5092L167.959 23.7388C164.215 25.7059 161.01 28.3726 158.348 31.7309L159.916 32.9731ZM168.895 25.5063C172.415 23.6286 176.391 22.68 180.844 22.68V20.68C176.097 20.68 171.793 21.694 167.953 23.7416L168.895 25.5063ZM180.844 22.68C185.606 22.68 189.724 23.6907 193.231 25.678L194.217 23.938C190.364 21.7547 185.896 20.68 180.844 20.68V22.68ZM193.231 25.678C196.793 27.6963 199.753 30.3025 202.12 33.4992L203.728 32.3088C201.189 28.8815 198.015 26.0903 194.217 23.938L193.231 25.678ZM202.128 33.5087C204.575 36.7321 206.392 40.2183 207.583 43.9706L209.489 43.3654C208.227 39.3897 206.302 35.6999 203.72 32.2993L202.128 33.5087ZM207.587 43.9842C208.846 47.7608 209.468 51.3645 209.468 54.8H211.468C211.468 51.1209 210.802 47.3032 209.485 43.3518L207.587 43.9842ZM209.468 54.8C209.468 58.6715 208.813 62.5178 207.498 66.3429L209.39 66.9931C210.773 62.9675 211.468 58.9018 211.468 54.8H209.468ZM207.498 66.3429C206.186 70.1596 204.28 73.614 201.778 76.7117L203.334 77.9683C205.984 74.6873 208.003 71.0271 209.39 66.9931L207.498 66.3429ZM201.778 76.7117C199.288 79.7947 196.265 82.285 192.701 84.1856L193.643 85.9504C197.439 83.9256 200.672 81.264 203.334 77.9683L201.778 76.7117ZM192.707 84.1828C189.249 85.9997 185.303 86.92 180.844 86.92V88.92C185.585 88.92 189.858 87.939 193.637 85.9532L192.707 84.1828ZM168.436 54.8C168.436 56.8953 168.658 58.9888 169.102 61.0795L171.058 60.6645C170.643 58.7072 170.436 56.7527 170.436 54.8H168.436ZM169.102 61.0795C169.547 63.1802 170.218 65.1322 171.118 66.9312L172.906 66.0368C172.089 64.4011 171.471 62.6118 171.058 60.6645L169.102 61.0795ZM171.138 66.9696C172.127 68.7498 173.422 70.2144 175.022 71.348L176.178 69.716C174.834 68.7642 173.737 67.5302 172.886 65.9984L171.138 66.9696ZM175.045 71.364C176.704 72.4701 178.652 73.004 180.844 73.004V71.004C178.988 71.004 177.44 70.5566 176.155 69.6999L175.045 71.364ZM180.844 73.004C183.168 73.004 185.177 72.403 186.796 71.1355L185.564 69.5605C184.362 70.501 182.813 71.004 180.844 71.004V73.004ZM186.78 71.148C188.382 69.9468 189.645 68.4132 190.57 66.5632L188.782 65.6688C187.989 67.2535 186.922 68.5412 185.58 69.548L186.78 71.148ZM190.557 66.5882C191.527 64.7784 192.204 62.841 192.591 60.7803L190.625 60.4117C190.276 62.2763 189.665 64.0189 188.795 65.6438L190.557 66.5882ZM192.586 60.8035C193.028 58.7196 193.252 56.7177 193.252 54.8H191.252C191.252 56.5623 191.046 58.4244 190.63 60.3885L192.586 60.8035ZM193.252 54.8C193.252 52.7047 193.03 50.6112 192.586 48.5205L190.63 48.9355C191.045 50.8928 191.252 52.8473 191.252 54.8H193.252ZM192.586 48.5205C192.138 46.408 191.431 44.473 190.458 42.7224L188.71 43.6936C189.577 45.255 190.219 47 190.63 48.9355L192.586 48.5205ZM190.465 42.7358C189.476 40.8884 188.173 39.4095 186.551 38.3279L185.441 39.992C186.763 40.8732 187.852 42.0929 188.703 43.6802L190.465 42.7358ZM186.59 38.3558C184.982 37.167 183.048 36.596 180.844 36.596V38.596C182.688 38.596 184.189 39.0676 185.402 39.9642L186.59 38.3558ZM180.844 36.596C178.572 36.596 176.576 37.2012 174.908 38.452L176.108 40.052C177.384 39.0948 178.945 38.596 180.844 38.596V36.596ZM174.908 38.452C173.313 39.6485 172.023 41.1737 171.039 43.0118L172.801 43.9562C173.657 42.3596 174.759 41.0634 176.108 40.052L174.908 38.452ZM171.026 43.0368C170.126 44.8358 169.455 46.7878 169.01 48.8885L170.966 49.3035C171.379 47.3562 171.997 45.5669 172.814 43.9312L171.026 43.0368ZM169.005 48.9117C168.627 50.93 168.436 52.8932 168.436 54.8H170.436C170.436 53.0268 170.613 51.1873 170.971 49.2803L169.005 48.9117Z" fill="url(#paint7_linear_401_3015)" mask="url(#path-7-outside-4_401_3015)"/>
</g>
<g filter="url(#filter4_d_401_3015)">
<mask id="path-9-outside-5_401_3015" maskUnits="userSpaceOnUse" x="204" y="19" width="75" height="70" fill="black">
<rect fill="white" x="204" y="19" width="75" height="70"/>
<path d="M221.412 49.832C218.345 49.832 215.555 49.188 213.04 47.9C210.587 46.612 208.624 44.864 207.152 42.656C205.741 40.448 205.036 37.9947 205.036 35.296C205.036 32.5973 205.741 30.144 207.152 27.936C208.624 25.728 210.587 23.98 213.04 22.692C215.555 21.404 218.345 20.76 221.412 20.76C224.479 20.76 227.239 21.404 229.692 22.692C232.207 23.98 234.169 25.728 235.58 27.936C237.052 30.144 237.788 32.5973 237.788 35.296C237.788 37.9947 237.052 40.448 235.58 42.656C234.169 44.864 232.207 46.612 229.692 47.9C227.239 49.188 224.479 49.832 221.412 49.832ZM221.412 41.552C222.209 41.552 222.945 41.276 223.62 40.724C224.295 40.1107 224.816 39.344 225.184 38.424C225.613 37.4427 225.828 36.4 225.828 35.296C225.828 34.1307 225.613 33.088 225.184 32.168C224.816 31.248 224.295 30.512 223.62 29.96C222.945 29.3467 222.209 29.04 221.412 29.04C220.615 29.04 219.879 29.3467 219.204 29.96C218.529 30.512 217.977 31.248 217.548 32.168C217.18 33.088 216.996 34.1307 216.996 35.296C216.996 36.4 217.18 37.4427 217.548 38.424C217.977 39.344 218.529 40.1107 219.204 40.724C219.879 41.276 220.615 41.552 221.412 41.552ZM260.88 87.92C257.813 87.92 255.023 87.276 252.508 85.988C250.055 84.7 248.092 82.952 246.62 80.744C245.209 78.536 244.504 76.0827 244.504 73.384C244.504 70.6853 245.209 68.232 246.62 66.024C248.092 63.816 250.055 62.068 252.508 60.78C255.023 59.492 257.813 58.848 260.88 58.848C263.947 58.848 266.707 59.492 269.16 60.78C271.675 62.068 273.637 63.816 275.048 66.024C276.52 68.232 277.256 70.6853 277.256 73.384C277.256 76.0827 276.52 78.536 275.048 80.744C273.637 82.952 271.675 84.7 269.16 85.988C266.707 87.276 263.947 87.92 260.88 87.92ZM260.88 79.64C261.677 79.64 262.413 79.364 263.088 78.812C263.763 78.1987 264.284 77.432 264.652 76.512C265.081 75.5307 265.296 74.488 265.296 73.384C265.296 72.2187 265.081 71.176 264.652 70.256C264.284 69.336 263.763 68.6 263.088 68.048C262.413 67.4347 261.677 67.128 260.88 67.128C260.083 67.128 259.347 67.4347 258.672 68.048C257.997 68.6 257.445 69.336 257.016 70.256C256.648 71.176 256.464 72.2187 256.464 73.384C256.464 74.488 256.648 75.5307 257.016 76.512C257.445 77.432 257.997 78.1987 258.672 78.812C259.347 79.364 260.083 79.64 260.88 79.64ZM212.764 81.02L238.8 51.672L261.892 20.668L269.528 27.568L244.596 55.996L220.4 87.92L212.764 81.02Z"/>
</mask>
<path d="M221.412 49.832C218.345 49.832 215.555 49.188 213.04 47.9C210.587 46.612 208.624 44.864 207.152 42.656C205.741 40.448 205.036 37.9947 205.036 35.296C205.036 32.5973 205.741 30.144 207.152 27.936C208.624 25.728 210.587 23.98 213.04 22.692C215.555 21.404 218.345 20.76 221.412 20.76C224.479 20.76 227.239 21.404 229.692 22.692C232.207 23.98 234.169 25.728 235.58 27.936C237.052 30.144 237.788 32.5973 237.788 35.296C237.788 37.9947 237.052 40.448 235.58 42.656C234.169 44.864 232.207 46.612 229.692 47.9C227.239 49.188 224.479 49.832 221.412 49.832ZM221.412 41.552C222.209 41.552 222.945 41.276 223.62 40.724C224.295 40.1107 224.816 39.344 225.184 38.424C225.613 37.4427 225.828 36.4 225.828 35.296C225.828 34.1307 225.613 33.088 225.184 32.168C224.816 31.248 224.295 30.512 223.62 29.96C222.945 29.3467 222.209 29.04 221.412 29.04C220.615 29.04 219.879 29.3467 219.204 29.96C218.529 30.512 217.977 31.248 217.548 32.168C217.18 33.088 216.996 34.1307 216.996 35.296C216.996 36.4 217.18 37.4427 217.548 38.424C217.977 39.344 218.529 40.1107 219.204 40.724C219.879 41.276 220.615 41.552 221.412 41.552ZM260.88 87.92C257.813 87.92 255.023 87.276 252.508 85.988C250.055 84.7 248.092 82.952 246.62 80.744C245.209 78.536 244.504 76.0827 244.504 73.384C244.504 70.6853 245.209 68.232 246.62 66.024C248.092 63.816 250.055 62.068 252.508 60.78C255.023 59.492 257.813 58.848 260.88 58.848C263.947 58.848 266.707 59.492 269.16 60.78C271.675 62.068 273.637 63.816 275.048 66.024C276.52 68.232 277.256 70.6853 277.256 73.384C277.256 76.0827 276.52 78.536 275.048 80.744C273.637 82.952 271.675 84.7 269.16 85.988C266.707 87.276 263.947 87.92 260.88 87.92ZM260.88 79.64C261.677 79.64 262.413 79.364 263.088 78.812C263.763 78.1987 264.284 77.432 264.652 76.512C265.081 75.5307 265.296 74.488 265.296 73.384C265.296 72.2187 265.081 71.176 264.652 70.256C264.284 69.336 263.763 68.6 263.088 68.048C262.413 67.4347 261.677 67.128 260.88 67.128C260.083 67.128 259.347 67.4347 258.672 68.048C257.997 68.6 257.445 69.336 257.016 70.256C256.648 71.176 256.464 72.2187 256.464 73.384C256.464 74.488 256.648 75.5307 257.016 76.512C257.445 77.432 257.997 78.1987 258.672 78.812C259.347 79.364 260.083 79.64 260.88 79.64ZM212.764 81.02L238.8 51.672L261.892 20.668L269.528 27.568L244.596 55.996L220.4 87.92L212.764 81.02Z" fill="url(#paint8_linear_401_3015)"/>
<path d="M213.04 47.9L212.575 48.7854L212.584 48.79L213.04 47.9ZM207.152 42.656L206.309 43.1944C206.313 43.1999 206.316 43.2053 206.32 43.2107L207.152 42.656ZM207.152 27.936L206.32 27.3813C206.316 27.3867 206.313 27.3921 206.309 27.3976L207.152 27.936ZM213.04 22.692L212.584 21.8019L212.575 21.8066L213.04 22.692ZM229.692 22.692L229.227 23.5774L229.236 23.582L229.692 22.692ZM235.58 27.936L234.737 28.4744C234.741 28.4799 234.744 28.4853 234.748 28.4907L235.58 27.936ZM235.58 42.656L234.748 42.1013C234.744 42.1067 234.741 42.1121 234.737 42.1176L235.58 42.656ZM229.692 47.9L229.236 47.0099L229.227 47.0146L229.692 47.9ZM223.62 40.724L224.253 41.498C224.267 41.487 224.28 41.4756 224.293 41.4639L223.62 40.724ZM225.184 38.424L224.268 38.0232C224.264 38.0329 224.259 38.0427 224.256 38.0526L225.184 38.424ZM225.184 32.168L224.256 32.5394C224.262 32.5568 224.27 32.5739 224.278 32.5909L225.184 32.168ZM223.62 29.96L222.947 30.6999C222.96 30.7116 222.973 30.723 222.987 30.734L223.62 29.96ZM219.204 29.96L219.837 30.734C219.851 30.723 219.864 30.7116 219.877 30.6999L219.204 29.96ZM217.548 32.168L216.642 31.7451C216.634 31.7621 216.626 31.7792 216.62 31.7966L217.548 32.168ZM217.548 38.424L216.612 38.7751C216.621 38.7994 216.631 38.8234 216.642 38.8469L217.548 38.424ZM219.204 40.724L218.531 41.4639C218.544 41.4756 218.557 41.487 218.571 41.498L219.204 40.724ZM252.508 85.988L252.043 86.8734L252.052 86.878L252.508 85.988ZM246.62 80.744L245.777 81.2824C245.781 81.2879 245.784 81.2933 245.788 81.2987L246.62 80.744ZM246.62 66.024L245.788 65.4693C245.784 65.4747 245.781 65.4801 245.777 65.4856L246.62 66.024ZM252.508 60.78L252.052 59.8899L252.043 59.8946L252.508 60.78ZM269.16 60.78L268.695 61.6654L268.704 61.67L269.16 60.78ZM275.048 66.024L274.205 66.5624C274.209 66.5679 274.212 66.5733 274.216 66.5787L275.048 66.024ZM275.048 80.744L274.216 80.1893C274.212 80.1947 274.209 80.2001 274.205 80.2056L275.048 80.744ZM269.16 85.988L268.704 85.0979L268.695 85.1026L269.16 85.988ZM263.088 78.812L263.721 79.586C263.735 79.575 263.748 79.5636 263.761 79.5519L263.088 78.812ZM264.652 76.512L263.736 76.1112C263.732 76.1209 263.727 76.1307 263.724 76.1406L264.652 76.512ZM264.652 70.256L263.724 70.6274C263.73 70.6448 263.738 70.6619 263.746 70.6789L264.652 70.256ZM263.088 68.048L262.415 68.7879C262.428 68.7996 262.441 68.811 262.455 68.822L263.088 68.048ZM258.672 68.048L259.305 68.822C259.319 68.811 259.332 68.7996 259.345 68.7879L258.672 68.048ZM257.016 70.256L256.11 69.8331C256.102 69.8501 256.094 69.8672 256.088 69.8846L257.016 70.256ZM257.016 76.512L256.08 76.8631C256.089 76.8874 256.099 76.9114 256.11 76.9349L257.016 76.512ZM258.672 78.812L257.999 79.5519C258.012 79.5636 258.025 79.575 258.039 79.586L258.672 78.812ZM212.764 81.02L212.016 80.3564C211.652 80.7668 211.686 81.3941 212.094 81.762L212.764 81.02ZM238.8 51.672L239.548 52.3356C239.567 52.3143 239.585 52.2922 239.602 52.2693L238.8 51.672ZM261.892 20.668L262.562 19.926C262.353 19.7372 262.075 19.6453 261.794 19.6728C261.514 19.7003 261.258 19.8448 261.09 20.0707L261.892 20.668ZM269.528 27.568L270.28 28.2274C270.64 27.8165 270.604 27.1924 270.198 26.826L269.528 27.568ZM244.596 55.996L243.844 55.3366C243.828 55.3545 243.813 55.373 243.799 55.392L244.596 55.996ZM220.4 87.92L219.73 88.662C219.937 88.8498 220.215 88.9418 220.494 88.9156C220.773 88.8894 221.028 88.7473 221.197 88.524L220.4 87.92ZM221.412 48.832C218.49 48.832 215.858 48.2196 213.496 47.01L212.584 48.79C215.252 50.1564 218.201 50.832 221.412 50.832V48.832ZM213.505 47.0146C211.193 45.8008 209.359 44.1638 207.984 42.1013L206.32 43.2107C207.889 45.5642 209.98 47.4232 212.575 48.7854L213.505 47.0146ZM207.995 42.1176C206.69 40.0754 206.036 37.8099 206.036 35.296H204.036C204.036 38.1794 204.793 40.8206 206.309 43.1944L207.995 42.1176ZM206.036 35.296C206.036 32.7821 206.69 30.5166 207.995 28.4744L206.309 27.3976C204.793 29.7714 204.036 32.4126 204.036 35.296H206.036ZM207.984 28.4907C209.359 26.4282 211.193 24.7912 213.505 23.5774L212.575 21.8066C209.98 23.1688 207.889 25.0278 206.32 27.3813L207.984 28.4907ZM213.496 23.582C215.858 22.3724 218.49 21.76 221.412 21.76V19.76C218.201 19.76 215.252 20.4356 212.584 21.802L213.496 23.582ZM221.412 21.76C224.334 21.76 226.932 22.3724 229.227 23.5774L230.157 21.8066C227.545 20.4356 224.623 19.76 221.412 19.76V21.76ZM229.236 23.582C231.606 24.7957 233.43 26.4275 234.737 28.4744L236.423 27.3976C234.909 25.0285 232.808 23.1643 230.148 21.802L229.236 23.582ZM234.748 28.4907C236.108 30.5315 236.788 32.7912 236.788 35.296H238.788C238.788 32.4035 237.996 29.7565 236.412 27.3813L234.748 28.4907ZM236.788 35.296C236.788 37.8008 236.108 40.0605 234.748 42.1013L236.412 43.2107C237.996 40.8355 238.788 38.1885 238.788 35.296H236.788ZM234.737 42.1176C233.43 44.1645 231.606 45.7963 229.236 47.01L230.148 48.79C232.808 47.4277 234.909 45.5635 236.423 43.1944L234.737 42.1176ZM229.227 47.0146C226.932 48.2196 224.334 48.832 221.412 48.832V50.832C224.623 50.832 227.545 50.1564 230.157 48.7854L229.227 47.0146ZM221.412 42.552C222.462 42.552 223.418 42.1816 224.253 41.498L222.987 39.95C222.473 40.3704 221.956 40.552 221.412 40.552V42.552ZM224.293 41.4639C225.089 40.7401 225.693 39.8436 226.112 38.7954L224.256 38.0526C223.939 38.8444 223.5 39.4812 222.947 39.9841L224.293 41.4639ZM226.1 38.8248C226.587 37.7132 226.828 36.5336 226.828 35.296H224.828C224.828 36.2664 224.64 37.1722 224.268 38.0232L226.1 38.8248ZM226.828 35.296C226.828 34.0061 226.59 32.8158 226.09 31.7451L224.278 32.5909C224.637 33.3602 224.828 34.2552 224.828 35.296H226.828ZM226.112 31.7966C225.69 30.7414 225.076 29.859 224.253 29.186L222.987 30.734C223.514 31.165 223.942 31.7546 224.256 32.5394L226.112 31.7966ZM224.293 29.2201C223.462 28.4651 222.494 28.04 221.412 28.04V30.04C221.925 30.04 222.428 30.2282 222.947 30.6999L224.293 29.2201ZM221.412 28.04C220.33 28.04 219.362 28.4651 218.531 29.2201L219.877 30.6999C220.396 30.2282 220.899 30.04 221.412 30.04V28.04ZM218.571 29.186C217.762 29.8475 217.124 30.7114 216.642 31.7451L218.454 32.5909C218.83 31.7846 219.296 31.1765 219.837 30.734L218.571 29.186ZM216.62 31.7966C216.197 32.8536 215.996 34.0255 215.996 35.296H217.996C217.996 34.2359 218.163 33.3224 218.476 32.5394L216.62 31.7966ZM215.996 35.296C215.996 36.5134 216.199 37.6756 216.612 38.7751L218.484 38.0729C218.161 37.2097 217.996 36.2866 217.996 35.296H215.996ZM216.642 38.8469C217.121 39.8734 217.748 40.7518 218.531 41.4639L219.877 39.9841C219.311 39.4695 218.834 38.8146 218.454 38.0011L216.642 38.8469ZM218.571 41.498C219.406 42.1816 220.362 42.552 221.412 42.552V40.552C220.868 40.552 220.351 40.3704 219.837 39.95L218.571 41.498ZM260.88 86.92C257.958 86.92 255.326 86.3076 252.964 85.098L252.052 86.878C254.72 88.2444 257.669 88.92 260.88 88.92V86.92ZM252.973 85.1026C250.661 83.8888 248.827 82.2518 247.452 80.1893L245.788 81.2987C247.357 83.6522 249.448 85.5112 252.043 86.8734L252.973 85.1026ZM247.463 80.2056C246.158 78.1634 245.504 75.8979 245.504 73.384H243.504C243.504 76.2674 244.261 78.9086 245.777 81.2824L247.463 80.2056ZM245.504 73.384C245.504 70.8701 246.158 68.6046 247.463 66.5624L245.777 65.4856C244.261 67.8594 243.504 70.5006 243.504 73.384H245.504ZM247.452 66.5787C248.827 64.5162 250.661 62.8792 252.973 61.6654L252.043 59.8946C249.448 61.2568 247.357 63.1158 245.788 65.4693L247.452 66.5787ZM252.964 61.67C255.326 60.4604 257.958 59.848 260.88 59.848V57.848C257.669 57.848 254.72 58.5236 252.052 59.89L252.964 61.67ZM260.88 59.848C263.802 59.848 266.4 60.4604 268.695 61.6654L269.625 59.8946C267.013 58.5236 264.091 57.848 260.88 57.848V59.848ZM268.704 61.67C271.074 62.8837 272.898 64.5155 274.205 66.5624L275.891 65.4856C274.377 63.1165 272.276 61.2523 269.616 59.89L268.704 61.67ZM274.216 66.5787C275.576 68.6195 276.256 70.8792 276.256 73.384H278.256C278.256 70.4915 277.464 67.8445 275.88 65.4693L274.216 66.5787ZM276.256 73.384C276.256 75.8888 275.576 78.1485 274.216 80.1893L275.88 81.2987C277.464 78.9235 278.256 76.2765 278.256 73.384H276.256ZM274.205 80.2056C272.898 82.2525 271.074 83.8843 268.704 85.098L269.616 86.878C272.276 85.5157 274.377 83.6515 275.891 81.2824L274.205 80.2056ZM268.695 85.1026C266.4 86.3076 263.802 86.92 260.88 86.92V88.92C264.091 88.92 267.013 88.2444 269.625 86.8734L268.695 85.1026ZM260.88 80.64C261.93 80.64 262.886 80.2696 263.721 79.586L262.455 78.038C261.941 78.4584 261.424 78.64 260.88 78.64V80.64ZM263.761 79.5519C264.557 78.8281 265.161 77.9316 265.58 76.8834L263.724 76.1406C263.407 76.9324 262.968 77.5692 262.415 78.0721L263.761 79.5519ZM265.568 76.9128C266.055 75.8012 266.296 74.6216 266.296 73.384H264.296C264.296 74.3544 264.108 75.2602 263.736 76.1112L265.568 76.9128ZM266.296 73.384C266.296 72.0941 266.058 70.9038 265.558 69.8331L263.746 70.6789C264.105 71.4482 264.296 72.3432 264.296 73.384H266.296ZM265.58 69.8846C265.158 68.8294 264.544 67.947 263.721 67.274L262.455 68.822C262.982 69.253 263.41 69.8426 263.724 70.6274L265.58 69.8846ZM263.761 67.3081C262.93 66.5531 261.962 66.128 260.88 66.128V68.128C261.393 68.128 261.896 68.3162 262.415 68.7879L263.761 67.3081ZM260.88 66.128C259.798 66.128 258.83 66.5531 257.999 67.3081L259.345 68.7879C259.864 68.3162 260.367 68.128 260.88 68.128V66.128ZM258.039 67.274C257.23 67.9355 256.592 68.7994 256.11 69.8331L257.922 70.6789C258.298 69.8726 258.764 69.2645 259.305 68.822L258.039 67.274ZM256.088 69.8846C255.665 70.9416 255.464 72.1135 255.464 73.384H257.464C257.464 72.3239 257.631 71.4104 257.944 70.6274L256.088 69.8846ZM255.464 73.384C255.464 74.6014 255.667 75.7636 256.08 76.8631L257.952 76.1609C257.629 75.2977 257.464 74.3746 257.464 73.384H255.464ZM256.11 76.9349C256.589 77.9614 257.216 78.8398 257.999 79.5519L259.345 78.0721C258.779 77.5575 258.302 76.9026 257.922 76.0891L256.11 76.9349ZM258.039 79.586C258.874 80.2696 259.83 80.64 260.88 80.64V78.64C260.336 78.64 259.819 78.4584 259.305 78.038L258.039 79.586ZM213.512 81.6836L239.548 52.3356L238.052 51.0084L212.016 80.3564L213.512 81.6836ZM239.602 52.2693L262.694 21.2653L261.09 20.0707L237.998 51.0747L239.602 52.2693ZM261.222 21.41L268.858 28.31L270.198 26.826L262.562 19.926L261.222 21.41ZM268.776 26.9086L243.844 55.3366L245.348 56.6554L270.28 28.2274L268.776 26.9086ZM243.799 55.392L219.603 87.316L221.197 88.524L245.393 56.6L243.799 55.392ZM221.07 87.178L213.434 80.278L212.094 81.762L219.73 88.662L221.07 87.178Z" fill="url(#paint9_linear_401_3015)" mask="url(#path-9-outside-5_401_3015)"/>
</g>
<defs>
<filter id="filter0_d_401_3015" x="0.0480957" y="18.7002" width="79.2798" height="79.2798" filterUnits="userSpaceOnUse" color-interpolation-filters="sRGB">
<feFlood flood-opacity="0" result="BackgroundImageFix"/>
<feColorMatrix in="SourceAlpha" type="matrix" values="0 0 0 0 0 0 0 0 0 0 0 0 0 0 0 0 0 0 127 0" result="hardAlpha"/>
<feOffset dx="-4" dy="4"/>
<feGaussianBlur stdDeviation="12"/>
<feComposite in2="hardAlpha" operator="out"/>
<feColorMatrix type="matrix" values="0 0 0 0 0 0 0 0 0 0 0 0 0 0 0 0 0 0 1 0"/>
<feBlend mode="normal" in2="BackgroundImageFix" result="effect1_dropShadow_401_3015"/>
<feBlend mode="normal" in="SourceGraphic" in2="effect1_dropShadow_401_3015" result="shape"/>
</filter>
<filter id="filter1_d_401_3015" x="27.1279" y="1.58789" width="95.104" height="114.24" filterUnits="userSpaceOnUse" color-interpolation-filters="sRGB">
<feFlood flood-opacity="0" result="BackgroundImageFix"/>
<feColorMatrix in="SourceAlpha" type="matrix" values="0 0 0 0 0 0 0 0 0 0 0 0 0 0 0 0 0 0 127 0" result="hardAlpha"/>
<feOffset dx="-4" dy="4"/>
<feGaussianBlur stdDeviation="12"/>
<feComposite in2="hardAlpha" operator="out"/>
<feColorMatrix type="matrix" values="0 0 0 0 0 0 0 0 0 0 0 0 0 0 0 0 0 0 1 0"/>
<feBlend mode="normal" in2="BackgroundImageFix" result="effect1_dropShadow_401_3015"/>
<feBlend mode="normal" in="SourceGraphic" in2="effect1_dropShadow_401_3015" result="shape"/>
</filter>
<filter id="filter2_d_401_3015" x="69.22" y="1.68018" width="107.248" height="114.24" filterUnits="userSpaceOnUse" color-interpolation-filters="sRGB">
<feFlood flood-opacity="0" result="BackgroundImageFix"/>
<feColorMatrix in="SourceAlpha" type="matrix" values="0 0 0 0 0 0 0 0 0 0 0 0 0 0 0 0 0 0 127 0" result="hardAlpha"/>
<feOffset dx="-4" dy="4"/>
<feGaussianBlur stdDeviation="12"/>
<feComposite in2="hardAlpha" operator="out"/>
<feColorMatrix type="matrix" values="0 0 0 0 0 0 0 0 0 0 0 0 0 0 0 0 0 0 1 0"/>
<feBlend mode="normal" in2="BackgroundImageFix" result="effect1_dropShadow_401_3015"/>
<feBlend mode="normal" in="SourceGraphic" in2="effect1_dropShadow_401_3015" result="shape"/>
</filter>
<filter id="filter3_d_401_3015" x="123.22" y="1.68018" width="107.248" height="114.24" filterUnits="userSpaceOnUse" color-interpolation-filters="sRGB">
<feFlood flood-opacity="0" result="BackgroundImageFix"/>
<feColorMatrix in="SourceAlpha" type="matrix" values="0 0 0 0 0 0 0 0 0 0 0 0 0 0 0 0 0 0 127 0" result="hardAlpha"/>
<feOffset dx="-4" dy="4"/>
<feGaussianBlur stdDeviation="12"/>
<feComposite in2="hardAlpha" operator="out"/>
<feColorMatrix type="matrix" values="0 0 0 0 0 0 0 0 0 0 0 0 0 0 0 0 0 0 1 0"/>
<feBlend mode="normal" in2="BackgroundImageFix" result="effect1_dropShadow_401_3015"/>
<feBlend mode="normal" in="SourceGraphic" in2="effect1_dropShadow_401_3015" result="shape"/>
</filter>
<filter id="filter4_d_401_3015" x="177.036" y="0.667969" width="120.22" height="115.252" filterUnits="userSpaceOnUse" color-interpolation-filters="sRGB">
<feFlood flood-opacity="0" result="BackgroundImageFix"/>
<feColorMatrix in="SourceAlpha" type="matrix" values="0 0 0 0 0 0 0 0 0 0 0 0 0 0 0 0 0 0 127 0" result="hardAlpha"/>
<feOffset dx="-4" dy="4"/>
<feGaussianBlur stdDeviation="12"/>
<feComposite in2="hardAlpha" operator="out"/>
<feColorMatrix type="matrix" values="0 0 0 0 0 0 0 0 0 0 0 0 0 0 0 0 0 0 1 0"/>
<feBlend mode="normal" in2="BackgroundImageFix" result="effect1_dropShadow_401_3015"/>
<feBlend mode="normal" in="SourceGraphic" in2="effect1_dropShadow_401_3015" result="shape"/>
</filter>
<linearGradient id="paint0_linear_401_3015" x1="44" y1="18.1529" x2="44" y2="87.4" gradientUnits="userSpaceOnUse">
<stop stop-color="#28A809"/>
<stop offset="1" stop-color="white"/>
</linearGradient>
<linearGradient id="paint1_linear_401_3015" x1="44" y1="1" x2="44" y2="109" gradientUnits="userSpaceOnUse">
<stop stop-color="white"/>
<stop offset="1" stop-color="#999999"/>
</linearGradient>
<linearGradient id="paint2_linear_401_3015" x1="79" y1="18.1529" x2="79" y2="87.4" gradientUnits="userSpaceOnUse">
<stop stop-color="#28A809"/>
<stop offset="1" stop-color="white"/>
</linearGradient>
<linearGradient id="paint3_linear_401_3015" x1="79" y1="1" x2="79" y2="109" gradientUnits="userSpaceOnUse">
<stop stop-color="white"/>
<stop offset="1" stop-color="#999999"/>
</linearGradient>
<linearGradient id="paint4_linear_401_3015" x1="127" y1="18.1529" x2="127" y2="87.4" gradientUnits="userSpaceOnUse">
<stop stop-color="#28A809"/>
<stop offset="1" stop-color="white"/>
</linearGradient>
<linearGradient id="paint5_linear_401_3015" x1="127" y1="1" x2="127" y2="109" gradientUnits="userSpaceOnUse">
<stop stop-color="white"/>
<stop offset="1" stop-color="#999999"/>
</linearGradient>
<linearGradient id="paint6_linear_401_3015" x1="181" y1="18.1529" x2="181" y2="87.4" gradientUnits="userSpaceOnUse">
<stop stop-color="#28A809"/>
<stop offset="1" stop-color="white"/>
</linearGradient>
<linearGradient id="paint7_linear_401_3015" x1="181" y1="1" x2="181" y2="109" gradientUnits="userSpaceOnUse">
<stop stop-color="white"/>
<stop offset="1" stop-color="#999999"/>
</linearGradient>
<linearGradient id="paint8_linear_401_3015" x1="241.5" y1="18.1529" x2="241.5" y2="87.4" gradientUnits="userSpaceOnUse">
<stop stop-color="#28A809"/>
<stop offset="1" stop-color="white"/>
</linearGradient>
<linearGradient id="paint9_linear_401_3015" x1="241.5" y1="1" x2="241.5" y2="109" gradientUnits="userSpaceOnUse">
<stop stop-color="white"/>
<stop offset="1" stop-color="#999999"/>
</linearGradient>
</defs>
</svg>
