<svg width="104" height="22" viewBox="0 0 104 22" fill="none" xmlns="http://www.w3.org/2000/svg">
<g clip-path="url(#clip0_2007_3348)">
<path d="M11.3052 20.617C11.3098 20.5362 11.3303 20.457 11.3655 20.3841C11.4007 20.3112 11.4499 20.246 11.5103 20.1921C11.5708 20.1382 11.6412 20.0967 11.7176 20.0701C11.7941 20.0434 11.875 20.0321 11.9558 20.0367C12.0367 20.0413 12.1158 20.0618 12.1887 20.097C12.2616 20.1322 12.3269 20.1814 12.3808 20.2418C12.4346 20.3023 12.4761 20.3727 12.5028 20.4491C12.5294 20.5256 12.5408 20.6065 12.5362 20.6873C12.5268 20.8506 12.453 21.0034 12.331 21.1123C12.209 21.2211 12.0487 21.277 11.8855 21.2677C11.7223 21.2583 11.5694 21.1845 11.4606 21.0625C11.3518 20.9405 11.2959 20.7802 11.3052 20.617ZM6.25664 19.9501C6.29077 19.8951 6.33554 19.8476 6.38833 19.8102C6.44112 19.7729 6.50084 19.7464 6.564 19.7325C6.62715 19.7186 6.69245 19.7174 6.75605 19.7292C6.81966 19.7409 6.88027 19.7652 6.93433 19.8007C6.98839 19.8362 7.0348 19.8821 7.07083 19.9358C7.10685 19.9895 7.13177 20.0499 7.1441 20.1134C7.15644 20.1769 7.15594 20.2422 7.14265 20.3055C7.12935 20.3687 7.10352 20.4287 7.06669 20.4819C6.99515 20.587 6.88518 20.6598 6.76049 20.6845C6.6358 20.7093 6.50636 20.6841 6.40008 20.6143C6.29381 20.5446 6.21919 20.4358 6.19232 20.3116C6.16545 20.1873 6.18868 20.0575 6.25664 19.9501ZM17.085 19.7602C17.1418 19.7314 17.2037 19.7141 17.2672 19.7093C17.3307 19.7045 17.3945 19.7122 17.455 19.7321C17.5155 19.752 17.5714 19.7837 17.6197 19.8253C17.6679 19.8668 17.7074 19.9175 17.736 19.9744C17.7792 20.06 17.796 20.1565 17.7844 20.2516C17.7727 20.3468 17.7331 20.4364 17.6705 20.509C17.608 20.5816 17.5253 20.6341 17.4329 20.6597C17.3406 20.6854 17.2427 20.6831 17.1516 20.6531C17.0606 20.6231 16.9805 20.5668 16.9214 20.4912C16.8624 20.4157 16.8271 20.3244 16.8199 20.2288C16.8128 20.1332 16.8342 20.0376 16.8814 19.9542C16.9286 19.8707 16.9994 19.8033 17.085 19.7602ZM7.42684 17.3852C7.47967 17.3009 7.5488 17.2279 7.63017 17.1706C7.71154 17.1133 7.80353 17.0728 7.90075 17.0515C7.99797 17.0302 8.09846 17.0284 8.19634 17.0464C8.29423 17.0644 8.38754 17.1018 8.47082 17.1563C8.55409 17.2108 8.62565 17.2814 8.68132 17.3639C8.73698 17.4464 8.77563 17.5392 8.795 17.6368C8.81437 17.7344 8.81406 17.8349 8.79411 17.9324C8.77415 18.0299 8.73495 18.1225 8.67879 18.2046C8.56826 18.3663 8.39874 18.4783 8.20662 18.5164C8.0145 18.5545 7.81509 18.5158 7.65121 18.4085C7.48733 18.3012 7.37204 18.134 7.33009 17.9427C7.28814 17.7513 7.32288 17.5512 7.42684 17.3852ZM15.5651 17.109C15.6526 17.0643 15.7481 17.0374 15.8461 17.0297C15.9441 17.022 16.0426 17.0337 16.1361 17.0641C16.2295 17.0946 16.3161 17.1431 16.3907 17.207C16.4654 17.2709 16.5267 17.3489 16.5712 17.4366C16.6381 17.5677 16.6649 17.7156 16.6482 17.8619C16.6316 18.0082 16.5722 18.1463 16.4775 18.259C16.3827 18.3717 16.2569 18.454 16.1157 18.4956C15.9745 18.5372 15.8242 18.5363 15.6835 18.493C15.5428 18.4496 15.418 18.3658 15.3247 18.252C15.2313 18.1381 15.1736 17.9993 15.1587 17.8528C15.1438 17.7064 15.1724 17.5588 15.2409 17.4285C15.3094 17.2982 15.4148 17.1909 15.5439 17.1202L15.5651 17.109ZM11.1165 16.6521C11.1671 16.5481 11.2376 16.455 11.3242 16.3782C11.4107 16.3015 11.5115 16.2425 11.6208 16.2047C11.7302 16.1669 11.8459 16.1509 11.9613 16.1578C12.0768 16.1647 12.1898 16.1943 12.2938 16.2449C12.3979 16.2954 12.4909 16.366 12.5677 16.4525C12.6445 16.5391 12.7034 16.6399 12.7413 16.7492C12.7791 16.8585 12.795 16.9742 12.7881 17.0897C12.7812 17.2052 12.7516 17.3181 12.701 17.4222C12.5989 17.6323 12.4175 17.7932 12.1967 17.8696C11.9759 17.946 11.7339 17.9315 11.5237 17.8294C11.3136 17.7273 11.1527 17.5459 11.0763 17.3251C10.9999 17.1043 11.0144 16.8622 11.1165 16.6521ZM3.32544 15.2886C3.47083 15.2159 3.63907 15.2035 3.79354 15.2542C3.94801 15.3049 4.07619 15.4146 4.15018 15.5593C4.22416 15.7041 4.23796 15.8722 4.18856 16.0271C4.13917 16.182 4.03058 16.3111 3.88644 16.3863C3.7423 16.4615 3.57429 16.4767 3.41899 16.4286C3.26369 16.3805 3.13368 16.273 3.05727 16.1295C2.98086 15.986 2.96424 15.8182 3.01102 15.6625C3.0578 15.5068 3.1642 15.3758 3.30706 15.2982L3.32544 15.2886ZM19.8274 15.4639C19.917 15.3272 20.0572 15.2316 20.2173 15.1983C20.3774 15.1649 20.5441 15.1965 20.6809 15.2861C20.8176 15.3757 20.9132 15.516 20.9465 15.6761C20.9799 15.8361 20.9483 16.0029 20.8587 16.1397C20.8143 16.2074 20.757 16.2657 20.6901 16.3113C20.6232 16.3568 20.548 16.3888 20.4687 16.4053C20.3895 16.4218 20.3077 16.4226 20.2282 16.4075C20.1487 16.3924 20.0729 16.3618 20.0051 16.3174C19.9374 16.2731 19.8791 16.2158 19.8335 16.1489C19.788 16.082 19.756 16.0068 19.7395 15.9275C19.723 15.8482 19.7222 15.7665 19.7373 15.687C19.7524 15.6074 19.783 15.5316 19.8274 15.4639ZM9.49163 12.73C9.785 12.5717 10.1228 12.5157 10.4515 12.571C10.7803 12.6262 11.0812 12.7896 11.3067 13.0351C11.5322 13.2806 11.6693 13.5944 11.6964 13.9266C11.7235 14.2589 11.639 14.5907 11.4563 14.8695C11.3204 15.0781 11.1344 15.2493 10.9153 15.3675C10.6963 15.4858 10.4511 15.5473 10.2021 15.5465C9.86879 15.5462 9.54506 15.4347 9.28217 15.2298C9.01929 15.0248 8.83228 14.738 8.75074 14.4147C8.6692 14.0915 8.69779 13.7503 8.83198 13.4452C8.96617 13.14 9.1983 12.8884 9.49163 12.73ZM13.2764 12.6173C13.6164 12.5078 13.9842 12.5234 14.3136 12.6612C14.643 12.799 14.9124 13.0499 15.0732 13.3687C15.2509 13.7233 15.2808 14.1337 15.1565 14.5103C15.0321 14.8868 14.7637 15.1987 14.4099 15.3778C14.2007 15.4837 13.9698 15.5398 13.7353 15.5417C13.3782 15.5417 13.0328 15.4142 12.7614 15.1821C12.49 14.95 12.3104 14.6285 12.2551 14.2757C12.1997 13.9229 12.2722 13.562 12.4595 13.2579C12.6467 12.9538 12.9365 12.7266 13.2764 12.6173ZM6.06237 13.4493C6.13765 13.361 6.22962 13.2885 6.33301 13.2358C6.4364 13.1832 6.54916 13.1515 6.66483 13.1426C6.7805 13.1337 6.8968 13.1477 7.00704 13.1838C7.11728 13.22 7.21929 13.2775 7.30722 13.3532C7.39514 13.4289 7.46725 13.5212 7.5194 13.6249C7.57155 13.7285 7.60271 13.8414 7.6111 13.9571C7.61948 14.0728 7.60493 14.1891 7.56826 14.2991C7.5316 14.4092 7.47356 14.5109 7.39746 14.5985C7.24471 14.7743 7.02855 14.8824 6.79627 14.8993C6.56399 14.9161 6.33449 14.8403 6.15799 14.6883C5.98148 14.5364 5.87233 14.3207 5.85442 14.0886C5.8365 13.8564 5.91127 13.6265 6.06237 13.4493ZM16.4713 13.517C16.5347 13.4203 16.6166 13.3371 16.7123 13.272C16.8079 13.207 16.9155 13.1614 17.0287 13.1379C17.142 13.1144 17.2588 13.1134 17.3724 13.1351C17.4861 13.1567 17.5943 13.2005 17.691 13.264C17.886 13.3925 18.022 13.593 18.0695 13.8216C18.1169 14.0503 18.0718 14.2883 17.9441 14.4838C17.8159 14.6791 17.6153 14.8155 17.3866 14.8629C17.1578 14.9104 16.9196 14.865 16.7243 14.7368C16.529 14.6086 16.3926 14.4081 16.3452 14.1793C16.2977 13.9506 16.3431 13.7124 16.4713 13.517ZM6.92978 10.9112C6.94651 10.6203 7.04772 10.3406 7.22102 10.1063C7.39431 9.87203 7.63216 9.69338 7.90545 9.59223C8.17873 9.49108 8.47558 9.47182 8.75964 9.53682C9.0437 9.60182 9.30264 9.74824 9.50475 9.95816C9.70686 10.1681 9.84336 10.4324 9.89754 10.7187C9.95172 11.005 9.92122 11.3009 9.80978 11.5702C9.69834 11.8394 9.5108 12.0704 9.27013 12.2346C9.02945 12.3989 8.74609 12.4895 8.45474 12.4951L8.42736 12.4953H8.34541C7.95283 12.4725 7.58488 12.2965 7.32071 12.0052C7.05654 11.7139 6.91724 11.3306 6.93278 10.9376L6.93398 10.9104L6.92978 10.9112ZM13.9978 10.8944C14.0207 10.4977 14.2002 10.1263 14.4969 9.86189C14.7936 9.59748 15.1831 9.4617 15.5799 9.4844C15.7761 9.49444 15.9684 9.54347 16.1454 9.62864C16.3225 9.71382 16.4808 9.83342 16.6112 9.98046C16.8019 10.1941 16.9275 10.458 16.9729 10.7408C17.0183 11.0236 16.9817 11.3135 16.8674 11.5761C16.7531 11.8388 16.5659 12.0631 16.328 12.2227C16.0901 12.3822 15.8115 12.4701 15.5251 12.4762L15.4947 12.4766H15.4078C15.011 12.4536 14.6396 12.2741 14.3752 11.9774C14.1108 11.6807 13.975 11.2912 13.9978 10.8944ZM3.36562 10.9626C3.36969 10.8634 3.39345 10.766 3.43552 10.6761C3.47759 10.5862 3.53713 10.5056 3.61066 10.4389C3.6842 10.3723 3.77026 10.3209 3.86384 10.2878C3.95742 10.2547 4.05665 10.2406 4.15575 10.2462C4.25485 10.2519 4.35184 10.2771 4.44106 10.3206C4.53029 10.3641 4.60998 10.4249 4.67548 10.4995C4.74098 10.5741 4.791 10.6609 4.82261 10.755C4.85422 10.8491 4.86679 10.9485 4.8596 11.0475C4.84536 11.2434 4.75467 11.4259 4.6071 11.5555C4.45952 11.6851 4.2669 11.7515 4.0708 11.7404C3.8747 11.7292 3.69084 11.6414 3.55891 11.4959C3.42698 11.3504 3.35755 11.1588 3.36562 10.9626ZM19.0655 10.9286C19.0711 10.8305 19.096 10.7345 19.1387 10.646C19.1815 10.5575 19.2412 10.4783 19.3146 10.4129C19.3879 10.3475 19.4734 10.2972 19.5662 10.2648C19.659 10.2324 19.7572 10.2187 19.8554 10.2243C19.9535 10.2299 20.0495 10.2548 20.138 10.2975C20.2265 10.3403 20.3057 10.4 20.3711 10.4734C20.4365 10.5467 20.4868 10.6322 20.5192 10.725C20.5515 10.8178 20.5653 10.916 20.5597 11.0142C20.5484 11.2123 20.4588 11.3978 20.3107 11.5299C20.1626 11.662 19.968 11.7299 19.7699 11.7186C19.5718 11.7073 19.3862 11.6177 19.2541 11.4696C19.122 11.3215 19.0542 11.1268 19.0655 10.9286ZM1.32961 10.5301L1.34759 10.5309C1.41114 10.5343 1.47337 10.5503 1.53073 10.5779C1.58808 10.6054 1.63942 10.6441 1.6818 10.6915C1.72418 10.739 1.75677 10.7944 1.77768 10.8545C1.7986 10.9146 1.80744 10.9782 1.80368 11.0417C1.79818 11.1364 1.76497 11.2274 1.70818 11.3033C1.6514 11.3793 1.57353 11.4368 1.48428 11.4689C1.39503 11.5009 1.29833 11.506 1.2062 11.4836C1.11407 11.4611 1.03058 11.412 0.966112 11.3425C0.901645 11.2729 0.859044 11.186 0.843609 11.0924C0.828173 10.9988 0.840583 10.9028 0.879296 10.8162C0.918009 10.7297 0.981316 10.6564 1.06134 10.6055C1.14137 10.5546 1.23459 10.5284 1.32941 10.5301M22.6121 10.4801L22.6321 10.4809C22.7595 10.4886 22.8787 10.5463 22.9639 10.6414C23.049 10.7365 23.0932 10.8614 23.0868 10.9889C23.0805 11.1164 23.024 11.2363 22.9298 11.3224C22.8356 11.4086 22.7112 11.454 22.5836 11.449C22.456 11.4439 22.3356 11.3888 22.2485 11.2954C22.1614 11.2021 22.1146 11.0782 22.1183 10.9506C22.122 10.823 22.176 10.702 22.2684 10.6139C22.3608 10.5258 22.4844 10.4777 22.6121 10.4801ZM10.189 6.43728C10.4662 6.43594 10.7383 6.51181 10.9749 6.65639C11.2114 6.80098 11.403 7.00858 11.5282 7.25593C11.644 7.48448 11.6992 7.73888 11.6886 7.99485C11.6781 8.25082 11.6021 8.4998 11.4679 8.71805C11.3338 8.9363 11.1459 9.11652 10.9223 9.24151C10.6987 9.36651 10.4467 9.4321 10.1906 9.43204C9.91275 9.43281 9.64024 9.35606 9.40367 9.21041C9.1671 9.06476 8.97587 8.856 8.85147 8.6076C8.7371 8.37928 8.68295 8.12551 8.69417 7.87039C8.7054 7.61527 8.78161 7.36724 8.91559 7.14984C9.04956 6.93243 9.23686 6.75286 9.45972 6.62816C9.68257 6.50345 9.93358 6.43775 10.189 6.43728ZM13.7231 6.42669C14.1205 6.42722 14.5013 6.58557 14.7819 6.86691C15.0625 7.14825 15.2198 7.52953 15.2193 7.92687C15.2188 8.32421 15.0604 8.70506 14.7791 8.98565C14.4978 9.26624 14.1165 9.42358 13.7191 9.42305C13.5224 9.42278 13.3276 9.38377 13.146 9.30824C12.9643 9.23271 12.7993 9.12213 12.6604 8.98283C12.3798 8.70149 12.2224 8.32021 12.223 7.92287C12.2235 7.52553 12.3818 7.14467 12.6632 6.86408C12.9445 6.5835 13.3258 6.42616 13.7231 6.42669ZM5.98043 7.49196C6.04315 7.39369 6.12476 7.30885 6.22052 7.24236C6.31628 7.17587 6.42429 7.12905 6.53828 7.10462C6.65228 7.08018 6.76999 7.07862 6.88459 7.10003C6.99919 7.12143 7.1084 7.16537 7.20589 7.2293C7.30338 7.29323 7.38721 7.37588 7.45251 7.47245C7.51782 7.56903 7.5633 7.6776 7.58633 7.79189C7.60935 7.90617 7.60946 8.02389 7.58665 8.13822C7.56383 8.25255 7.51855 8.36121 7.45342 8.4579C7.32472 8.6519 7.12446 8.78705 6.8964 8.83381C6.66835 8.88058 6.43105 8.83516 6.23639 8.70748C6.04172 8.5798 5.90552 8.38024 5.85756 8.15243C5.8096 7.92463 5.85377 7.6871 5.98043 7.49176M16.7996 7.16499C16.9029 7.11286 17.0155 7.08162 17.1308 7.07304C17.2462 7.06446 17.3622 7.07871 17.472 7.11499C17.5819 7.15126 17.6835 7.20884 17.7711 7.28443C17.8587 7.36002 17.9305 7.45214 17.9824 7.55552C18.0608 7.71111 18.0912 7.88645 18.0699 8.05935C18.0487 8.23225 17.9766 8.39495 17.8628 8.52688C17.749 8.65882 17.5987 8.75405 17.4308 8.80054C17.2629 8.84703 17.085 8.84269 16.9196 8.78807C16.7542 8.73345 16.6087 8.63101 16.5015 8.49369C16.3943 8.35637 16.3302 8.19034 16.3174 8.01661C16.3045 7.84288 16.3435 7.66924 16.4293 7.51765C16.5152 7.36606 16.644 7.24333 16.7996 7.16499ZM3.06682 5.8363C3.1112 5.76859 3.16849 5.71029 3.2354 5.66473C3.30231 5.61917 3.37754 5.58723 3.4568 5.57074C3.53606 5.55425 3.61779 5.55353 3.69732 5.56863C3.77685 5.58372 3.85263 5.61433 3.92034 5.65872C3.98804 5.7031 4.04634 5.76038 4.0919 5.8273C4.13747 5.89421 4.16941 5.96944 4.1859 6.0487C4.20239 6.12795 4.2031 6.20968 4.18801 6.28922C4.17291 6.36875 4.1423 6.44453 4.09792 6.51223C4.00828 6.64899 3.86799 6.74454 3.70791 6.77786C3.54782 6.81118 3.38106 6.77955 3.2443 6.68991C3.10754 6.60028 3.01199 6.45999 2.97867 6.2999C2.94535 6.13982 2.97699 5.97305 3.06662 5.8363M20.0438 5.58667C20.1161 5.55026 20.1949 5.52846 20.2756 5.5225C20.3564 5.51653 20.4375 5.52653 20.5144 5.55192C20.5912 5.57731 20.6624 5.61759 20.7237 5.67047C20.785 5.72334 20.8353 5.78777 20.8717 5.86008C20.9081 5.93239 20.9299 6.01116 20.9358 6.09189C20.9418 6.17263 20.9318 6.25375 20.9064 6.33062C20.881 6.40749 20.8407 6.47861 20.7879 6.53992C20.735 6.60122 20.6706 6.65151 20.5982 6.68791C20.4522 6.76143 20.2829 6.77393 20.1277 6.72266C19.9725 6.67138 19.8439 6.56053 19.7704 6.4145C19.6969 6.26847 19.6844 6.09921 19.7357 5.94396C19.7869 5.78871 19.8978 5.66019 20.0438 5.58667ZM11.0688 4.88834C11.0821 4.65511 11.1876 4.43675 11.362 4.28129C11.5364 4.12584 11.7654 4.04602 11.9986 4.05941C12.2318 4.07279 12.4502 4.17828 12.6057 4.35266C12.7611 4.52705 12.8409 4.75604 12.8276 4.98927C12.8142 5.22251 12.7087 5.44087 12.5343 5.59632C12.3599 5.75178 12.1309 5.83159 11.8977 5.81821C11.6645 5.80482 11.4461 5.69934 11.2906 5.52495C11.1352 5.35057 11.0554 5.12157 11.0688 4.88834ZM7.68546 3.52987C7.77332 3.48467 7.86926 3.45732 7.96774 3.44939C8.06622 3.44146 8.16529 3.45311 8.25925 3.48367C8.3532 3.51423 8.44017 3.5631 8.51515 3.62745C8.59012 3.69179 8.6516 3.77035 8.69606 3.85858C8.74051 3.94682 8.76705 4.04298 8.77415 4.14153C8.78124 4.24007 8.76875 4.33904 8.7374 4.43274C8.70604 4.52643 8.65645 4.61298 8.59147 4.68741C8.52649 4.76183 8.44741 4.82265 8.35881 4.86636C8.1818 4.95366 7.97748 4.96751 7.79032 4.90487C7.60316 4.84224 7.44832 4.7082 7.35952 4.53195C7.27072 4.35569 7.25515 4.15149 7.3162 3.96381C7.37724 3.77612 7.50997 3.62016 7.68546 3.52987ZM15.2439 3.77011C15.2973 3.68681 15.3666 3.61492 15.4479 3.55857C15.5293 3.50223 15.6209 3.46254 15.7177 3.44182C15.8144 3.42109 15.9143 3.41973 16.0115 3.43782C16.1088 3.4559 16.2015 3.49308 16.2843 3.54719C16.3671 3.6013 16.4384 3.67128 16.4941 3.75309C16.5497 3.8349 16.5885 3.92692 16.6084 4.02383C16.6283 4.12074 16.6288 4.22063 16.6098 4.31773C16.5909 4.41483 16.5529 4.50721 16.498 4.58955C16.3885 4.75394 16.2185 4.86843 16.025 4.90811C15.8316 4.94778 15.6302 4.90942 15.4649 4.80138C15.2995 4.69334 15.1835 4.52436 15.1421 4.33122C15.1007 4.13808 15.1373 3.93641 15.2439 3.77011ZM6.39954 1.35176C6.4565 1.3217 6.51889 1.3033 6.58304 1.29763C6.64719 1.29195 6.71184 1.29912 6.77319 1.31872C6.83454 1.33831 6.89137 1.36994 6.94036 1.41175C6.98935 1.45356 7.02952 1.50471 7.05851 1.56222C7.0875 1.61973 7.10475 1.68244 7.10923 1.74669C7.11371 1.81094 7.10534 1.87544 7.08461 1.93642C7.06387 1.9974 7.0312 2.05363 6.98849 2.10183C6.94577 2.15004 6.89388 2.18925 6.83585 2.21717C6.72142 2.27222 6.58995 2.28016 6.46973 2.23929C6.3495 2.19841 6.25012 2.11199 6.19295 1.9986C6.13579 1.88521 6.1254 1.75392 6.16404 1.63295C6.20267 1.51199 6.28724 1.41102 6.39954 1.35176ZM16.8578 1.49446C16.892 1.43987 16.9368 1.39264 16.9894 1.35555C17.0421 1.31845 17.1017 1.29223 17.1646 1.27842C17.2275 1.26461 17.2926 1.26348 17.3559 1.2751C17.4193 1.28673 17.4797 1.31087 17.5337 1.34612C17.5876 1.38137 17.634 1.42702 17.67 1.4804C17.7061 1.53377 17.7312 1.59381 17.7438 1.65699C17.7564 1.72017 17.7563 1.78524 17.7434 1.84837C17.7306 1.91151 17.7053 1.97145 17.669 2.0247C17.5985 2.13166 17.4884 2.20631 17.3629 2.23231C17.2374 2.25832 17.1067 2.23356 16.9994 2.16345C16.8921 2.09335 16.817 1.98361 16.7904 1.85823C16.7638 1.73286 16.788 1.60207 16.8576 1.49446M11.7373 0.741576C11.8916 0.687615 12.0611 0.697171 12.2084 0.768143C12.3556 0.839114 12.4687 0.965687 12.5227 1.12002C12.5766 1.27435 12.5671 1.44379 12.4961 1.59108C12.4251 1.73836 12.2985 1.85142 12.1442 1.90538C11.9899 1.95934 11.8204 1.94979 11.6732 1.87881C11.5259 1.80784 11.4128 1.68127 11.3589 1.52694C11.3049 1.37261 11.3145 1.20316 11.3854 1.05588C11.4564 0.908596 11.583 0.795537 11.7373 0.741576ZM98.1469 5.88146C101.266 5.88146 103.167 7.53514 103.167 11.0315C103.167 14.5282 101.269 16.1818 98.1469 16.1818C95.0246 16.1818 93.1417 14.5282 93.1417 11.0315C93.1417 7.53494 95.0278 5.88146 98.1469 5.88146ZM32.068 5.87827C34.5239 5.87827 36.425 7.10423 36.463 9.64829L36.4634 9.72584H34.5633C34.5633 8.24585 33.5474 7.44839 32.097 7.44839C30.1143 7.44839 29.171 8.58542 29.151 10.8163L29.1506 10.8842V11.174C29.1506 13.4949 30.0806 14.6123 32.0976 14.6123C33.6189 14.6123 34.6153 13.83 34.6351 12.4068L34.6355 12.3636H36.4634C36.4634 14.9611 34.5781 16.1792 32.0682 16.1792C29.0211 16.1792 27.2513 14.6123 27.2513 11.0291C27.2513 7.53274 29.0211 5.87827 32.068 5.87827ZM43.824 6.05515L47.7001 16.0083H45.6981L44.8795 13.8462H40.327L39.5295 16.0081H37.6138L41.4878 6.05495L43.824 6.05515ZM54.8093 6.05515C57 6.05515 58.0594 7.23074 58.0594 9.07268C58.0594 10.4082 57.4769 11.3879 56.3266 11.8582L56.2895 11.8732L58.418 16.0083H56.3868L54.5041 12.1606H51.4142V16.0081H49.5567V6.05495L54.8093 6.05515ZM64.5742 6.05515C67.5769 6.05515 69.4025 7.62208 69.4025 11.0317C69.4025 14.4072 67.6117 15.9766 64.6623 16.0077L64.5724 16.0081H60.5971V6.05495L64.5742 6.05515ZM76.6026 6.05515L80.4763 16.0083H78.4739L77.6619 13.8462H73.1062L72.3079 16.0081H70.3932L74.2686 6.05495L76.6026 6.05515ZM84.1087 6.05515L88.4321 11.9895L88.4473 12.0121L88.4799 12.062L88.5146 12.1166L88.5512 12.1752L88.6276 12.2995L88.868 12.7L88.9024 12.7554L88.9124 12.7712L88.9232 12.7867L88.9951 12.7582L88.9941 12.7128L88.9885 12.5741L88.9755 12.2787L88.9695 12.12L88.9675 12.0506L88.9667 11.9917V11.9747H88.9649V6.05515H90.7487V16.0083H89.0083L84.6557 10.0164C84.6246 9.97124 84.5942 9.92553 84.5645 9.87933L84.535 9.83257L84.5058 9.786L84.4632 9.71604L84.4089 9.62511L84.3829 9.58094L84.3225 9.47621L84.2032 9.26635L84.18 9.22738L84.1712 9.21339L84.1644 9.2034L84.0915 9.24697L84.0927 9.28794L84.1109 9.68427L84.1159 9.81138L84.1192 9.91931L84.1204 9.98526L84.1208 10.0162V16.0081H82.3363V6.05495L84.1087 6.05515ZM98.1471 7.44839C96.1652 7.44839 95.0648 8.58542 95.043 10.8187L95.0426 10.8866V11.1912C95.0426 13.4687 96.1306 14.6149 98.1469 14.6149C100.157 14.6149 101.244 13.4917 101.266 11.2592L101.266 11.1912V10.8866C101.266 8.6084 100.164 7.44839 98.1469 7.44839M64.5738 7.63667H62.456V14.4266H64.574C66.4413 14.4266 67.4692 13.3747 67.504 11.2414L67.5048 11.1764V10.8866C67.5048 8.73252 66.4777 7.65825 64.6302 7.63687L64.5738 7.63667ZM42.6334 7.64806H42.5614L42.5389 7.71361L42.2501 8.59801L42.1647 8.85563L42.0884 9.08208L42.0584 9.16902L42.001 9.33351L41.9738 9.41005L41.9477 9.4818L40.907 12.2767L44.2871 12.2759L43.272 9.54816L43.2604 9.51798L43.236 9.45342L43.2106 9.38427L43.1706 9.27235L43.1287 9.15283L43.0859 9.02732L43.0419 8.8974L42.9686 8.67596L42.6656 7.74299L42.6364 7.65665L42.6334 7.64806ZM75.4146 7.64806H75.3406L75.3183 7.71361L75.0295 8.59801L74.9441 8.85563L74.8678 9.08208L74.838 9.16902L74.7806 9.33351L74.7532 9.41005L74.7273 9.4818L73.688 12.2767L77.0683 12.2759L76.053 9.54816L76.0294 9.4862L76.0046 9.41945L75.9652 9.31072L75.9238 9.1936L75.8667 9.02732L75.8081 8.85343L75.7494 8.67596L75.656 8.39055L75.4368 7.71381L75.4146 7.64806ZM54.6634 7.63667H51.4142V10.5962H54.6634C55.6213 10.5962 56.1869 10.0166 56.1869 9.07288C56.1869 8.18389 55.6763 7.64886 54.6965 7.63707L54.6634 7.63667Z" fill="#F0F0F0"/>
</g>
<defs>
<clipPath id="clip0_2007_3348">
<rect width="102.33" height="20.5859" fill="white" transform="translate(0.836182 0.707031)"/>
</clipPath>
</defs>
</svg>
