<svg width="94" height="18" viewBox="0 0 94 18" fill="none" xmlns="http://www.w3.org/2000/svg">
<path fill-rule="evenodd" clip-rule="evenodd" d="M11.0299 12.8849L9.76573 11.5899C9.31864 12.0216 8.82531 12.3762 8.30114 12.6691C7.74614 12.9466 7.12948 13.0853 6.51281 13.0699C6.00406 13.0699 5.49531 12.962 5.01739 12.7462C4.57031 12.5303 4.15406 12.2374 3.83031 11.8828C3.49114 11.5128 3.22906 11.0658 3.05948 10.5878C2.87448 10.0791 2.78198 9.53951 2.78198 8.99993C2.78198 8.46034 2.87448 7.93618 3.05948 7.42743C3.24448 6.96493 3.50656 6.53326 3.83031 6.14784C4.16948 5.77784 4.57031 5.48493 5.01739 5.28451C5.47989 5.06868 5.98864 4.96076 6.51281 4.96076C7.11406 4.94534 7.71531 5.08409 8.23948 5.36159C8.76364 5.63909 9.24156 5.97826 9.67323 6.37909L10.9528 4.89909C10.6907 4.63701 10.3978 4.40576 10.1049 4.18992C9.79656 3.97409 9.47281 3.7891 9.11823 3.63493C8.74823 3.46535 8.34739 3.34201 7.94656 3.26492C7.48406 3.17242 7.00614 3.12618 6.52823 3.14159C5.71114 3.12618 4.90948 3.29576 4.16948 3.60409C3.47573 3.89701 2.84364 4.32868 2.31948 4.86826C1.81073 5.40785 1.40989 6.02451 1.13239 6.71826C0.854894 7.44285 0.700727 8.2291 0.716143 9.01535C0.716143 9.8016 0.854894 10.5878 1.14781 11.3124C1.42531 12.0062 1.84156 12.6383 2.35031 13.1778C2.87448 13.702 3.49114 14.1337 4.16948 14.4266C4.89406 14.7349 5.68031 14.8891 6.46656 14.8891C6.95989 14.8891 7.43781 14.8428 7.91573 14.7503C8.33198 14.6578 8.73281 14.5345 9.10281 14.3495C9.45739 14.1645 9.81198 13.9641 10.1357 13.7174C10.4286 13.4862 10.737 13.1933 11.0299 12.8849Z" fill="#F0F0F0"/>
<path fill-rule="evenodd" clip-rule="evenodd" d="M36.6667 6.36329C36.6667 5.97787 36.8517 5.62329 37.1446 5.39204C37.4684 5.12996 37.9155 5.00662 38.5013 5.00662C39.0255 5.00662 39.5342 5.11454 40.0276 5.31496C40.5671 5.54621 41.0913 5.83912 41.5538 6.17829L42.6176 4.66745C42.0626 4.22037 41.4305 3.85037 40.7676 3.60371C40.0584 3.34162 39.303 3.21829 38.5476 3.23371C38.0234 3.23371 37.4992 3.31079 37.0059 3.46496C36.5588 3.60371 36.1426 3.83496 35.8034 4.14329C35.4642 4.43621 35.2021 4.79079 35.0171 5.19162C34.8167 5.60787 34.7088 6.07037 34.7242 6.54829C34.7088 7.01079 34.8013 7.47329 34.9709 7.88954C35.1405 8.25954 35.3871 8.56787 35.6955 8.82996C36.0501 9.10746 36.4509 9.32329 36.8671 9.47746C37.3913 9.66246 37.9309 9.81662 38.4705 9.93996C38.9021 10.0479 39.3338 10.1712 39.7501 10.31C40.0276 10.4025 40.2742 10.5258 40.5209 10.6954C40.6905 10.8033 40.8292 10.9575 40.9063 11.1425C40.9834 11.312 41.0142 11.497 41.0142 11.6975C41.0296 12.1137 40.8292 12.5145 40.4746 12.7458C40.043 13.0233 39.5342 13.162 39.0255 13.1466C38.378 13.162 37.7151 13.0233 37.1138 12.7612C36.5126 12.4683 35.9576 12.1137 35.4642 11.6666L34.2617 13.085C35.5259 14.272 37.2063 14.9195 38.9484 14.9041C39.5034 14.9041 40.0584 14.827 40.5826 14.6729C41.0451 14.5341 41.4767 14.3029 41.8467 14.01C42.2013 13.717 42.4788 13.3625 42.6638 12.9462C42.8642 12.4837 42.9567 12.0058 42.9567 11.497C42.9567 11.0654 42.8796 10.6491 42.7255 10.2483C42.5713 9.89371 42.3401 9.56996 42.0471 9.32329C41.708 9.03037 41.3226 8.79913 40.9063 8.64496C40.3976 8.44454 39.8734 8.27496 39.3338 8.13621C38.7942 8.01287 38.3471 7.87412 38.008 7.76621C37.7151 7.67371 37.453 7.55037 37.1909 7.38079C37.0059 7.27287 36.8671 7.10329 36.7746 6.91829C36.6976 6.74871 36.6667 6.56371 36.6667 6.36329Z" fill="#F0F0F0"/>
<path fill-rule="evenodd" clip-rule="evenodd" d="M58.6835 6.51742V14.6266H60.6414V3.32617H58.5293L55.1068 8.67575L51.6843 3.32617H49.5723V14.6266H51.5302V6.54825L55.0606 11.8516H55.1223L58.6835 6.51742Z" fill="#F0F0F0"/>
<path fill-rule="evenodd" clip-rule="evenodd" d="M77.1368 9.04605C77.1368 9.58563 77.0442 10.1098 76.8592 10.6186C76.6897 11.0965 76.4122 11.5281 76.073 11.8981C75.3638 12.6536 74.3772 13.0852 73.3442 13.0698C72.8201 13.0698 72.2805 12.9619 71.8026 12.7461C71.3401 12.5302 70.9238 12.2373 70.5847 11.8673C70.2455 11.4973 69.968 11.0502 69.7984 10.5723C69.413 9.5548 69.413 8.4448 69.7984 7.4273C69.968 6.94938 70.2301 6.51772 70.5692 6.14772C71.2784 5.3923 72.2651 4.96063 73.298 4.97605C73.8222 4.97605 74.3618 5.08397 74.8397 5.2998C75.3022 5.51564 75.7184 5.80855 76.0576 6.17855C76.3968 6.54855 76.6742 6.99564 76.8592 7.47355C77.0442 7.96689 77.1368 8.50647 77.1368 9.04605ZM79.218 8.9998C79.218 8.21355 79.0792 7.44272 78.7863 6.71814C78.5088 6.02439 78.108 5.3923 77.5838 4.85272C77.0597 4.31314 76.4276 3.88147 75.7338 3.58855C74.9784 3.2648 74.1613 3.11063 73.3442 3.12605C71.7409 3.11063 70.1992 3.74272 69.0738 4.88355C68.5342 5.42313 68.118 6.05522 67.8405 6.76439C67.2547 8.22897 67.2547 9.84772 67.8405 11.3123C68.118 12.0061 68.5343 12.6381 69.043 13.1777C69.5672 13.7173 70.1993 14.149 70.893 14.4419C71.6484 14.7656 72.4655 14.9198 73.2826 14.9044C74.0997 14.9198 74.9168 14.7502 75.6722 14.4265C76.3813 14.1336 77.0134 13.6865 77.5376 13.1469C78.0772 12.6073 78.4934 11.9752 78.7709 11.2661C79.0793 10.5569 79.218 9.78605 79.218 8.9998Z" fill="#F0F0F0"/>
<path fill-rule="evenodd" clip-rule="evenodd" d="M87.4674 6.36329C87.4674 5.97787 87.6524 5.62329 87.9453 5.39204C88.2691 5.12996 88.7162 5.00662 89.302 5.00662C89.8262 5.00662 90.3349 5.11454 90.8283 5.31496C91.3678 5.54621 91.892 5.83912 92.3545 6.17829L93.4183 4.66745C92.8633 4.22037 92.2312 3.86579 91.5683 3.60371C90.8591 3.34162 90.1037 3.21829 89.3483 3.23371C88.8241 3.23371 88.2999 3.31079 87.8066 3.46496C87.3595 3.60371 86.9433 3.83496 86.6041 4.14329C86.2649 4.43621 86.0028 4.79079 85.8178 5.19162C85.6174 5.60787 85.5095 6.07037 85.5249 6.54829C85.5095 7.01079 85.602 7.47329 85.7716 7.88954C85.9412 8.25954 86.1878 8.56787 86.4962 8.82995C86.8508 9.10745 87.2516 9.32329 87.6678 9.47746C88.192 9.66246 88.7316 9.81662 89.2712 9.93996C89.7028 10.0479 90.1345 10.1712 90.5508 10.31C90.8283 10.4025 91.0749 10.5258 91.3216 10.6954C91.4912 10.8033 91.6299 10.9575 91.707 11.1425C91.7841 11.312 91.8149 11.497 91.8149 11.6975C91.8303 12.1137 91.6299 12.5145 91.2753 12.7458C90.8437 13.0233 90.3349 13.162 89.8262 13.1466C89.1787 13.162 88.5158 13.0233 87.9299 12.7612C87.3287 12.4683 86.7737 12.1137 86.2803 11.6666L85.0933 13.1004C86.3574 14.2875 88.0378 14.935 89.7799 14.9195C90.3349 14.9195 90.8899 14.8425 91.4141 14.6883C91.8766 14.5495 92.3083 14.3183 92.6783 14.0254C93.0328 13.7325 93.3103 13.3779 93.4953 12.9616C93.6958 12.4991 93.7883 12.0058 93.7883 11.5125C93.7883 11.0808 93.7112 10.6645 93.557 10.2637C93.4028 9.90912 93.1716 9.58537 92.8787 9.33871C92.5395 9.04579 92.1541 8.81454 91.7378 8.66037C91.2291 8.45995 90.7049 8.29037 90.1653 8.15162C89.6258 8.02829 89.1787 7.88954 88.8395 7.78162C88.5466 7.68912 88.2845 7.55037 88.0224 7.38079C87.8374 7.27287 87.6987 7.10329 87.6062 6.91829C87.4983 6.74871 87.4674 6.5637 87.4674 6.36329Z" fill="#F0F0F0"/>
<path fill-rule="evenodd" clip-rule="evenodd" d="M24.505 5.59251L19.1246 10.9883C19.0475 10.8496 18.9858 10.7108 18.9242 10.5721C18.5542 9.57002 18.5542 8.46001 18.9242 7.44251C19.1092 6.9646 19.3712 6.53293 19.7104 6.16293C20.0496 5.79293 20.4504 5.50001 20.8975 5.2996C21.3754 5.08376 21.915 4.97585 22.4392 4.97585C22.9633 4.97585 23.4875 5.08376 23.9808 5.2996C24.1812 5.3921 24.3354 5.4846 24.505 5.59251ZM24.0271 12.7304C23.5491 12.9463 23.0096 13.0542 22.4854 13.0542C21.7608 13.0696 21.0517 12.8538 20.4504 12.4529L25.8154 7.0571C25.8925 7.19585 25.9542 7.3346 26.0004 7.47335C26.3704 8.47543 26.3704 9.58543 26.0004 10.6029C25.8308 11.0808 25.5687 11.5125 25.2296 11.8825C24.8904 12.2525 24.4896 12.53 24.0271 12.7304ZM24.8441 14.4263C25.5379 14.1179 26.1854 13.6863 26.725 13.1467C27.2491 12.6071 27.6654 11.975 27.9583 11.2813C28.5441 9.8321 28.5441 8.19793 27.9583 6.74876C27.7887 6.33251 27.5883 5.9471 27.3262 5.5771L30.8258 2.0621L29.4383 0.65918L25.9233 4.1896C25.5996 3.95835 25.245 3.77335 24.8904 3.6346C24.135 3.32627 23.3179 3.15668 22.5008 3.1721C20.9129 3.15668 19.3712 3.78876 18.2612 4.91418C17.7371 5.45376 17.3054 6.08585 17.0279 6.7796C16.2571 8.66043 16.4883 10.8188 17.6754 12.4838L14.1604 15.9833L15.5479 17.3863L19.0629 13.8558C19.3867 14.0717 19.7258 14.2567 20.0804 14.4108C20.8358 14.7192 21.6529 14.8888 22.47 14.8733C23.2717 14.9042 24.0887 14.7346 24.8441 14.4263Z" fill="#F0F0F0"/>
</svg>
