<svg width="101" height="27" viewBox="0 0 101 27" fill="none" xmlns="http://www.w3.org/2000/svg">
<path d="M7.92879 18.2725C7.8533 18.2981 7.81028 18.2324 7.75895 18.2022C5.24288 16.7173 2.72957 15.2313 0.219037 13.7443C0.194727 13.732 0.169488 13.7217 0.143555 13.7133V13.6801L0.188091 13.6545C0.251326 13.6379 0.313574 13.6177 0.374535 13.5941L6.30366 10.8964C6.83203 10.6556 7.36041 10.4186 7.88878 10.18H7.92653C7.92653 10.2555 7.92653 10.3227 7.92653 10.3944C7.92854 13.0207 7.92929 15.6467 7.92879 18.2725Z" fill="#F0F0F0"/>
<path d="M7.93253 10.1819H7.89479C7.89479 10.1064 7.90234 10.0309 7.90234 9.95165C7.90234 7.00182 7.90234 4.05173 7.90234 1.1014C7.89367 1.02563 7.89878 0.948906 7.91744 0.874954H7.93329C8.24352 1.33313 8.51375 1.81621 8.79907 2.28948C11.0595 6.03892 13.3187 9.78786 15.5766 13.5363C15.5985 13.5733 15.6159 13.6118 15.6355 13.6525C15.5716 13.6389 15.5087 13.6204 15.4475 13.5974C15.0331 13.4102 14.6172 13.22 14.2066 13.029C13.5635 12.7347 12.9201 12.4408 12.2765 12.1474L9.17573 10.7427C8.76284 10.5525 8.34769 10.3676 7.93253 10.1819Z" fill="#F0F0F0"/>
<path d="M7.91993 0.871053C7.90127 0.945005 7.89615 1.02172 7.90483 1.0975C7.90483 4.04733 7.90483 6.99741 7.90483 9.94775C7.90483 10.0232 7.9003 10.0987 7.89728 10.178C7.36891 10.4165 6.84053 10.6535 6.31216 10.8943L0.383032 13.592C0.322072 13.6156 0.259823 13.6358 0.196589 13.6524C0.367933 13.2961 0.590608 12.9731 0.793655 12.6319C3.14618 8.72142 5.50047 4.81171 7.85652 0.902756C7.87208 0.881102 7.88898 0.86043 7.90709 0.840861L7.91993 0.871053Z" fill="#F0F0F0"/>
<path d="M7.93253 10.1819C8.34769 10.3676 8.76297 10.5526 9.17736 10.7397L12.2782 12.1445C12.9223 12.4373 13.5656 12.7312 14.2083 13.0261C14.6219 13.2156 15.0386 13.4073 15.4492 13.5945C15.5104 13.6175 15.5732 13.6359 15.6371 13.6496C15.7126 13.7439 15.6009 13.7477 15.5669 13.7681C14.9231 14.153 14.2762 14.5327 13.6308 14.9146C11.7785 16.0106 9.92665 17.1064 8.07532 18.2019C8.02852 18.2291 7.97785 18.2491 7.92879 18.2725C7.92879 15.6472 7.92889 13.0221 7.92889 10.3963C7.92964 10.3246 7.93178 10.2536 7.93253 10.1819Z" fill="#F0F0F0"/>
<path d="M7.90227 19.7637L12.752 16.9052C13.6779 16.3587 14.6033 15.8117 15.5282 15.2643L15.612 15.2182C15.6203 15.2937 15.5682 15.3337 15.5365 15.3775C13.423 18.357 11.3095 21.3355 9.19603 24.313C8.79598 24.8776 8.39667 25.4452 7.99284 26.0053C7.97171 26.0348 7.93925 26.1729 7.87434 26.0265C7.92567 25.9827 7.90302 25.9238 7.90302 25.8755C7.90352 23.8375 7.90327 21.8002 7.90227 19.7637Z" fill="#F0F0F0"/>
<path d="M7.90185 19.7641C7.90185 21.8006 7.90185 23.8366 7.90185 25.8721C7.90185 25.9242 7.92449 25.9831 7.87316 26.0231C7.76523 25.9581 7.71843 25.8419 7.64672 25.746C5.19606 22.294 2.74667 18.8415 0.29853 15.3884C0.267583 15.3446 0.238898 15.2978 0.207195 15.2495C0.2706 15.2125 0.30457 15.2631 0.341556 15.285C2.81989 16.7484 5.29771 18.213 7.77504 19.6788C7.82108 19.7075 7.86033 19.7369 7.90185 19.7641Z" fill="#F0F0F0"/>
<path d="M7.92048 0.871011L7.90237 0.843084C7.93558 0.821949 7.93105 0.852896 7.93634 0.868747L7.92048 0.871011Z" fill="#F0F0F0"/>
<path d="M46.5743 13.9378V17.815C46.572 17.8945 46.5394 17.9701 46.4831 18.0263C46.4269 18.0825 46.3513 18.1152 46.2718 18.1175C46.2318 18.1186 46.1919 18.1116 46.1547 18.0968C46.1175 18.082 46.0837 18.0597 46.0554 18.0314C46.0271 18.0031 46.0048 17.9693 45.99 17.9321C45.9752 17.8949 45.9682 17.855 45.9693 17.815V13.9378C45.9693 12.6271 45.2269 11.3256 43.7695 11.3256C41.8997 11.3256 41.0931 12.9571 41.2031 14.6344C41.2031 14.6602 41.2089 14.7323 41.2139 14.7954C41.2179 14.8443 41.2214 14.8882 41.2214 14.9002V17.8058C41.2213 17.8833 41.1935 17.9581 41.1431 18.0169C41.0927 18.0757 41.023 18.1146 40.9464 18.1266C40.9037 18.1323 40.8602 18.1287 40.8189 18.116C40.7777 18.1033 40.7397 18.0819 40.7075 18.0532C40.6753 18.0245 40.6497 17.9891 40.6324 17.9496C40.6151 17.9101 40.6065 17.8673 40.6073 17.8242V5.07445C40.608 4.99445 40.6401 4.91793 40.6967 4.86136C40.7533 4.80479 40.8298 4.77269 40.9098 4.77197C40.9893 4.77428 41.0649 4.80689 41.1211 4.86312C41.1773 4.91935 41.2099 4.99495 41.2122 5.07445V12.2788C41.7347 11.3439 42.6696 10.7114 43.7604 10.7114C45.5569 10.7114 46.5743 12.2788 46.5743 13.9378Z" fill="#F0F0F0"/>
<path d="M36.8406 10.9309C36.7844 10.8747 36.7088 10.8421 36.6293 10.8398H35.0069V8.48417C35.0077 8.44104 34.9991 8.39824 34.9818 8.35871C34.9646 8.31918 34.9389 8.28385 34.9067 8.25513C34.8745 8.22641 34.8365 8.20499 34.7953 8.19231C34.754 8.17964 34.7105 8.17602 34.6678 8.1817C34.5913 8.1937 34.5215 8.2326 34.4711 8.2914C34.4207 8.3502 34.393 8.42506 34.3928 8.5025V10.8398H32.8254C32.7454 10.8405 32.6689 10.8726 32.6123 10.9292C32.5558 10.9858 32.5237 11.0623 32.523 11.1423C32.5218 11.1823 32.5289 11.2221 32.5437 11.2594C32.5585 11.2966 32.5807 11.3304 32.609 11.3587C32.6373 11.387 32.6711 11.4092 32.7083 11.424C32.7456 11.4388 32.7854 11.4459 32.8254 11.4447H34.3928V17.8517C34.3951 17.9312 34.4277 18.0068 34.4839 18.063C34.5402 18.1192 34.6158 18.1518 34.6953 18.1542C34.7753 18.1534 34.8518 18.1213 34.9084 18.0648C34.9649 18.0082 34.997 17.9317 34.9977 17.8517V11.4447H36.6293C36.6693 11.4459 36.7091 11.4388 36.7464 11.424C36.7836 11.4092 36.8174 11.387 36.8457 11.3587C36.874 11.3304 36.8962 11.2966 36.911 11.2594C36.9258 11.2221 36.9329 11.1823 36.9317 11.1423C36.9294 11.0628 36.8968 10.9872 36.8406 10.9309Z" fill="#F0F0F0"/>
<path fill-rule="evenodd" clip-rule="evenodd" d="M29.1427 14.6888C29.2046 14.6287 29.2401 14.5465 29.2415 14.4603C29.2324 12.508 27.7658 10.6931 25.7127 10.6931C23.6595 10.6931 22.2021 12.5263 22.2021 14.4786C22.2021 16.431 23.6687 18.2641 25.7127 18.2641C26.9042 18.2641 28.1233 17.7417 28.7374 16.6785C28.7675 16.6321 28.7835 16.5779 28.7833 16.5226C28.7844 16.4826 28.7773 16.4428 28.7625 16.4055C28.7478 16.3683 28.7255 16.3345 28.6972 16.3062C28.6689 16.2779 28.6351 16.2557 28.5979 16.2409C28.5607 16.2261 28.5208 16.219 28.4808 16.2202C28.4271 16.2224 28.3748 16.2378 28.3284 16.2649C28.2821 16.2921 28.2431 16.3302 28.215 16.376C27.61 17.2467 26.8034 17.6592 25.7127 17.6592C24.1178 17.6592 22.9904 16.2843 22.8346 14.7811H28.9116C28.9978 14.7821 29.0809 14.7489 29.1427 14.6888ZM25.7127 11.2981C27.3075 11.2981 28.4624 12.673 28.5908 14.1762H22.8346C22.9904 12.673 24.1178 11.2981 25.7127 11.2981Z" fill="#F0F0F0"/>
<path fill-rule="evenodd" clip-rule="evenodd" d="M57.392 14.6888C57.4538 14.6287 57.4894 14.5465 57.4908 14.4603C57.4816 12.508 55.9968 10.6931 53.9619 10.6931C51.9088 10.6931 50.4514 12.5263 50.4514 14.4786C50.4514 16.431 51.918 18.2641 53.9619 18.2641C55.1535 18.2641 56.3726 17.7417 56.9867 16.6785C57.0168 16.6321 57.0327 16.5779 57.0325 16.5226C57.0336 16.4826 57.0266 16.4428 57.0118 16.4055C56.997 16.3683 56.9748 16.3345 56.9465 16.3062C56.9181 16.2779 56.8843 16.2557 56.8471 16.2409C56.8099 16.2261 56.7701 16.219 56.73 16.2202C56.6764 16.2224 56.624 16.2378 56.5777 16.2649C56.5314 16.2921 56.4924 16.3302 56.4642 16.376C55.8593 17.2467 55.0527 17.6592 53.9619 17.6592C52.3671 17.6592 51.2397 16.2843 51.0839 14.7811H57.1608C57.2471 14.7821 57.3302 14.7489 57.392 14.6888ZM53.9528 11.2981C55.5476 11.2981 56.7025 12.673 56.8309 14.1762H51.0747C51.2305 12.673 52.3579 11.2981 53.9528 11.2981Z" fill="#F0F0F0"/>
<path d="M64.961 11.1239C64.9668 11.2053 64.9402 11.2857 64.887 11.3475C64.8337 11.4093 64.7582 11.4476 64.6769 11.4539C62.8895 11.7197 62.0829 13.1771 62.0829 14.8728V17.7783C62.0828 17.8558 62.055 17.9306 62.0046 17.9894C61.9542 18.0482 61.8845 18.0871 61.808 18.0991C61.7652 18.1048 61.7217 18.1012 61.6805 18.0885C61.6392 18.0758 61.6012 18.0544 61.569 18.0257C61.5368 17.997 61.5112 17.9617 61.4939 17.9221C61.4766 17.8826 61.4681 17.8398 61.4688 17.7967V11.1697C61.469 11.0923 61.4968 11.0174 61.5472 10.9586C61.5976 10.8998 61.6673 10.8609 61.7438 10.8489C61.7866 10.8433 61.8301 10.8469 61.8713 10.8596C61.9125 10.8722 61.9506 10.8937 61.9828 10.9224C62.015 10.9511 62.0406 10.9864 62.0579 11.026C62.0752 11.0655 62.0837 11.1083 62.0829 11.1514V12.4988C62.5871 11.6464 63.5861 10.8398 64.6311 10.8398C64.7869 10.8398 64.961 10.9498 64.961 11.1239Z" fill="#F0F0F0"/>
<path fill-rule="evenodd" clip-rule="evenodd" d="M74.853 14.6888C74.9148 14.6287 74.9504 14.5465 74.9518 14.4603C74.9426 12.508 73.4761 10.6931 71.4229 10.6931C69.3698 10.6931 67.9124 12.5263 67.9124 14.4786C67.9124 16.431 69.379 18.2641 71.4229 18.2641C72.6145 18.2641 73.8336 17.7417 74.4477 16.6785C74.4778 16.6321 74.4937 16.5779 74.4935 16.5226C74.4947 16.4826 74.4876 16.4428 74.4728 16.4055C74.458 16.3683 74.4358 16.3345 74.4075 16.3062C74.3791 16.2779 74.3453 16.2557 74.3081 16.2409C74.2709 16.2261 74.2311 16.219 74.191 16.2202C74.1374 16.2224 74.0851 16.2378 74.0387 16.2649C73.9924 16.2921 73.9534 16.3302 73.9252 16.376C73.3203 17.2467 72.5137 17.6592 71.4229 17.6592C69.8281 17.6592 68.7007 16.2843 68.5449 14.7811H74.6218C74.7081 14.7821 74.7912 14.7489 74.853 14.6888ZM71.4229 11.2981C73.0178 11.2981 74.1727 12.673 74.301 14.1762H68.5449C68.7007 12.673 69.8281 11.2981 71.4229 11.2981Z" fill="#F0F0F0"/>
<path d="M84.7777 11.1972V17.8516C84.7754 17.9311 84.7428 18.0067 84.6865 18.063C84.6303 18.1192 84.5547 18.1518 84.4752 18.1541C84.4352 18.1553 84.3953 18.1482 84.3581 18.1334C84.3209 18.1186 84.2871 18.0964 84.2588 18.0681C84.2305 18.0397 84.2082 18.0059 84.1934 17.9687C84.1786 17.9315 84.1716 17.8917 84.1727 17.8516V16.5868C83.6686 17.5858 82.7795 18.3099 81.6429 18.3099C79.8372 18.3099 78.8382 16.7426 78.8382 15.0836V11.1881C78.8389 11.1081 78.871 11.0316 78.9276 10.975C78.9841 10.9184 79.0607 10.8863 79.1407 10.8856C79.2201 10.8879 79.2957 10.9205 79.352 10.9767C79.4082 11.033 79.4408 11.1086 79.4431 11.1881V15.0836C79.4431 16.3943 80.1856 17.6958 81.6429 17.6958C83.6869 17.6958 84.1727 15.7802 84.1727 13.6629V11.1789C84.1734 11.1299 84.1858 11.0817 84.2089 11.0385C84.232 10.9952 84.2652 10.9581 84.3055 10.9303C84.3459 10.9025 84.3924 10.8847 84.441 10.8785C84.4897 10.8724 84.5391 10.8779 84.5852 10.8948C84.6428 10.9215 84.6915 10.9643 84.7256 11.0179C84.7598 11.0715 84.7778 11.1337 84.7777 11.1972Z" fill="#F0F0F0"/>
<path d="M100.167 17.8058V13.9103C100.167 12.2605 99.1498 10.7114 97.3624 10.7114C96.1067 10.7114 95.126 11.5089 94.6218 12.6454C94.2277 11.4997 93.2653 10.7114 92.0279 10.7114C90.9371 10.7114 90.0022 11.3256 89.4798 12.2605V11.1514C89.4805 11.1083 89.472 11.0655 89.4547 11.0259C89.4374 10.9864 89.4118 10.9511 89.3796 10.9224C89.3474 10.8936 89.3094 10.8722 89.2681 10.8595C89.2269 10.8469 89.1834 10.8432 89.1406 10.8489C89.0641 10.8609 88.9944 10.8998 88.944 10.9586C88.8936 11.0174 88.8658 11.0923 88.8657 11.1697V17.815C88.8649 17.8581 88.8734 17.9009 88.8907 17.9404C88.908 17.98 88.9336 18.0153 88.9658 18.044C88.998 18.0727 89.036 18.0942 89.0773 18.1068C89.1185 18.1195 89.162 18.1231 89.2048 18.1175C89.2813 18.1055 89.351 18.0666 89.4014 18.0078C89.4518 17.9489 89.4796 17.8741 89.4798 17.7966V14.8727C89.4922 14.854 89.4877 14.8099 89.4836 14.7691C89.4816 14.75 89.4798 14.7316 89.4798 14.7169C89.4156 12.7738 90.1764 11.3164 92.0279 11.3164C93.4853 11.3164 94.2277 12.5996 94.2277 13.9103V17.8058C94.2266 17.8458 94.2336 17.8857 94.2484 17.9229C94.2632 17.9601 94.2854 17.9939 94.3138 18.0222C94.3421 18.0505 94.3759 18.0728 94.4131 18.0876C94.4503 18.1024 94.4901 18.1094 94.5302 18.1083C94.6097 18.106 94.6853 18.0734 94.7415 18.0171C94.7977 17.9609 94.8303 17.8853 94.8327 17.8058V14.7994C94.8327 13.2779 95.5293 11.3164 97.3624 11.3164C98.8198 11.3164 99.5622 12.5996 99.5622 13.9103V17.8058C99.5611 17.8458 99.5681 17.8857 99.5829 17.9229C99.5977 17.9601 99.62 17.9939 99.6483 18.0222C99.6766 18.0505 99.7104 18.0728 99.7476 18.0876C99.7848 18.1024 99.8247 18.1094 99.8647 18.1083C99.9442 18.106 100.02 18.0734 100.076 18.0171C100.132 17.9609 100.165 17.8853 100.167 17.8058Z" fill="#F0F0F0"/>
</svg>
