<svg width="87" height="24" viewBox="0 0 87 24" fill="none" xmlns="http://www.w3.org/2000/svg">
<g clip-path="url(#clip0_2007_3369)">
<path d="M8.28161 1.16357C8.823 0.879069 9.64678 0.879069 10.1882 1.16357L15.7126 4.06668C16.0386 4.23802 16.2177 4.49335 16.2498 4.75693H16.255V19.3495C16.2479 19.6369 16.0671 19.9225 15.7126 20.1089L10.1882 23.012C9.64678 23.2965 8.823 23.2965 8.28161 23.012L2.75722 20.1089C2.40416 19.9234 2.23473 19.6357 2.22634 19.3495C2.22551 19.3213 2.2254 19.2978 2.2262 19.2783L2.22617 4.85066C2.22561 4.83486 2.22556 4.81907 2.22601 4.80336L2.22634 4.75693L2.22881 4.75691C2.25335 4.49044 2.42429 4.24164 2.75722 4.06668L8.28161 1.16357ZM15.3854 12.898L10.1882 15.6292C9.64678 15.9137 8.823 15.9137 8.28161 15.6292L3.09577 12.9041V19.3206L8.28161 22.0313C8.57444 22.1871 8.87837 22.3388 9.17556 22.3582L9.2349 22.3601C9.54458 22.3611 9.84522 22.2047 10.1501 22.0566L15.3854 19.2972V12.898ZM1.3278 19.0322C1.3278 19.5912 1.39311 19.9587 1.52278 20.2177C1.63026 20.4322 1.79152 20.5962 2.08597 20.7958L2.10278 20.8071C2.1674 20.8504 2.23859 20.8958 2.32524 20.9491L2.42743 21.0114L2.74121 21.1999L2.29116 21.9402L1.93996 21.7291L1.88092 21.693C1.77937 21.6306 1.69521 21.5771 1.6167 21.5244C0.7775 20.9614 0.464521 20.3478 0.458345 19.071L0.458252 19.0322H1.3278ZM8.79999 8.98679C8.75978 9.00053 8.72208 9.01642 8.68771 9.03448L3.16332 11.9376C3.15753 11.9406 3.15199 11.9437 3.14674 11.9466L3.14206 11.9493L3.15072 11.9543L3.16332 11.9611L8.68771 14.8642C8.72208 14.8822 8.75978 14.8981 8.79999 14.9119V8.98679ZM9.6698 8.98679V14.9119C9.71002 14.8981 9.74771 14.8822 9.78207 14.8642L15.3065 11.9611C15.3123 11.958 15.3178 11.955 15.3231 11.952L15.3277 11.9493L15.3191 11.9444L15.3065 11.9376L9.78207 9.03448C9.74771 9.01642 9.71002 9.00053 9.6698 8.98679ZM15.3854 5.79208L10.4297 8.39635L15.3854 11.0006V5.79208ZM3.09577 5.79817V10.9945L8.03998 8.39635L3.09577 5.79817ZM9.78207 1.92859C9.49479 1.77762 8.97501 1.77762 8.68771 1.92859L3.16332 4.83171C3.15753 4.83475 3.15199 4.83776 3.14674 4.84074L3.14206 4.84344L3.15072 4.84838L3.16332 4.85518L8.68771 7.75829C8.97501 7.90926 9.49479 7.90926 9.78207 7.75829L15.3065 4.85518C15.3123 4.85214 15.3178 4.84913 15.3231 4.84613L15.3277 4.84344L15.3191 4.83849L15.3065 4.83171L9.78207 1.92859ZM16.2018 2.24695L16.553 2.45799L16.6121 2.49404C16.7136 2.55641 16.7978 2.60999 16.8763 2.66265C17.7155 3.22557 18.0285 3.8393 18.0346 5.11601L18.0347 5.15491H17.1652C17.1652 4.5958 17.0999 4.22833 16.9702 3.96943C16.8627 3.75486 16.7015 3.59088 16.407 3.39134L16.3902 3.38001C16.3256 3.33666 16.2544 3.29126 16.1677 3.23789L16.0656 3.17562L15.7518 2.98722L16.2018 2.24695Z" fill="#F0F0F0"/>
<path d="M26.8683 18.7413V10.6033H29.1251V9.11331H26.8683V8.04353C26.8683 6.83368 27.3975 6.22875 28.4558 6.22875C28.7617 6.22875 29.087 6.27969 29.4312 6.38156V4.79601C29.0104 4.66866 28.545 4.60498 28.035 4.60498C27.0533 4.60498 26.2914 4.88516 25.7495 5.44552C25.2076 6.00588 24.9366 6.82094 24.9366 7.89072V9.11331H23.0815V10.6033H24.9366V18.7413H26.8683ZM34.7097 18.875C35.4493 18.875 36.0963 18.7222 36.6509 18.4164C37.2055 18.1109 37.6232 17.6715 37.9037 17.0984V18.7413H39.8163V9.11331H37.9037V10.6798C37.6103 10.1067 37.1897 9.66412 36.6414 9.35209C36.0932 9.04008 35.4493 8.88407 34.7097 8.88407C33.881 8.88407 33.1414 9.0942 32.4912 9.51447C31.8409 9.93474 31.3341 10.5269 30.9708 11.2911C30.6074 12.0552 30.4257 12.9339 30.4257 13.9273C30.4257 14.9206 30.6041 15.7898 30.9612 16.5349C31.3181 17.2799 31.8186 17.8562 32.4625 18.2637C33.1064 18.6712 33.8554 18.875 34.7097 18.875ZM35.1688 17.3467C34.2889 17.3467 33.6036 17.0475 33.1128 16.4489C32.6219 15.8503 32.3764 15.0098 32.3764 13.9273C32.3764 12.832 32.6219 11.9756 33.1128 11.3579C33.6036 10.7402 34.2826 10.4314 35.1496 10.4314C36.0293 10.4314 36.7084 10.7307 37.1864 11.3293C37.6646 11.9278 37.9037 12.7811 37.9037 13.8891C37.9037 14.9843 37.6646 15.8344 37.1864 16.4393C36.7084 17.0443 36.0358 17.3467 35.1688 17.3467ZM44.5593 18.7413V13.2587C44.5593 12.4054 44.8047 11.7241 45.2956 11.2147C45.7865 10.7052 46.44 10.4505 47.256 10.4505C47.97 10.4505 48.4895 10.6416 48.8147 11.0236C49.1398 11.4057 49.3023 12.017 49.3023 12.8575V18.7413H51.234V12.7429C51.234 10.1704 50.0801 8.88407 47.7723 8.88407C47.0329 8.88407 46.373 9.04645 45.7928 9.3712C45.2128 9.69594 44.7697 10.164 44.4636 10.7753L44.2915 9.11331H42.4938C42.5958 9.91563 42.6468 10.8198 42.6468 11.826V18.7413H44.5593ZM57.6983 18.875C58.2338 18.875 58.712 18.805 59.1328 18.6649V17.0984C58.7884 17.2003 58.4506 17.2512 58.1191 17.2512C57.609 17.2512 57.2107 17.1143 56.9237 16.8405C56.6369 16.5667 56.4934 16.0987 56.4934 15.4364V10.6033H59.1519V9.11331H56.4934V6.03771L54.5619 6.70633V9.11331H52.6875V10.6033H54.5619V15.5892C54.5619 16.659 54.836 17.4741 55.3841 18.0344C55.9325 18.5948 56.7038 18.875 57.6983 18.875ZM65.0808 18.875C66.0115 18.875 66.8339 18.6712 67.5479 18.2637C68.262 17.8562 68.8133 17.2767 69.2022 16.5253C69.5911 15.7739 69.7855 14.8952 69.7855 13.8891C69.7855 12.883 69.5911 12.0011 69.2022 11.2433C68.8133 10.4855 68.262 9.90291 67.5479 9.49536C66.8339 9.08783 66.0115 8.88407 65.0808 8.88407C64.1372 8.88407 63.3085 9.08783 62.5945 9.49536C61.8805 9.90291 61.329 10.4855 60.94 11.2433C60.5513 12.0011 60.3567 12.883 60.3567 13.8891C60.3567 14.8952 60.5513 15.7739 60.94 16.5253C61.329 17.2767 61.8805 17.8562 62.5945 18.2637C63.3085 18.6712 64.1372 18.875 65.0808 18.875ZM65.0616 17.3467C64.1818 17.3467 63.5029 17.0538 63.0247 16.468C62.5466 15.8822 62.3075 15.0225 62.3075 13.8891C62.3075 12.7811 62.5498 11.9278 63.0343 11.3293C63.5187 10.7307 64.2009 10.4314 65.0808 10.4314C65.9478 10.4314 66.6204 10.7307 67.0984 11.3293C67.5766 11.9278 67.8156 12.7811 67.8156 13.8891C67.8156 15.0225 67.5798 15.8822 67.108 16.468C66.6362 17.0538 65.954 17.3467 65.0616 17.3467ZM73.9548 18.7413V13.2969C73.9548 12.4181 74.1717 11.7241 74.6051 11.2147C75.0386 10.7052 75.6251 10.4505 76.3647 10.4505C77.0022 10.4505 77.4644 10.6416 77.7512 11.0236C78.0381 11.4057 78.1815 12.0106 78.1815 12.8384V18.7413H80.1132V13.2969C80.1132 12.4181 80.3267 11.7241 80.7539 11.2147C81.181 10.7052 81.7643 10.4505 82.5039 10.4505C83.1414 10.4505 83.6036 10.6416 83.8904 11.0236C84.1774 11.4057 84.3208 12.0106 84.3208 12.8384V18.7413H86.2524V12.7429C86.2524 10.1704 85.1815 8.88407 83.0394 8.88407C82.3254 8.88407 81.6846 9.04964 81.1173 9.38075C80.5498 9.71187 80.1196 10.164 79.8264 10.7371C79.3673 9.50173 78.3919 8.88407 76.9002 8.88407C76.1989 8.88407 75.5868 9.04327 75.064 9.36164C74.5413 9.68004 74.1398 10.1321 73.8593 10.718L73.6872 9.11331H71.8893C71.9913 9.91563 72.0423 10.8198 72.0423 11.826V18.7413H73.9548Z" fill="#F0F0F0"/>
</g>
<defs>
<clipPath id="clip0_2007_3369">
<rect width="85.7941" height="22.2751" fill="white" transform="translate(0.458252 0.950195)"/>
</clipPath>
</defs>
</svg>
