<svg width="86" height="28" viewBox="0 0 86 28" fill="none" xmlns="http://www.w3.org/2000/svg">
<path fill-rule="evenodd" clip-rule="evenodd" d="M12.2973 27.5523C19.6504 28.6263 26.5077 23.504 27.5817 16.1509C28.6558 8.79791 23.5334 1.94058 16.1804 0.783922C8.82735 -0.290117 1.97002 4.83222 0.895982 12.1853C-0.178057 19.5383 4.94428 26.4782 12.2973 27.5523ZM15.6011 8.21935C15.6011 8.13673 17.5839 4.33629 20.3103 6.07127C21.6322 6.89746 20.806 7.47578 20.5582 7.39317C20.5582 7.39317 19.8972 7.5584 19.5668 6.73222C19.0711 5.57556 18.1623 6.23651 17.997 6.40175C17.9511 6.45917 17.9063 6.5138 17.8625 6.56727C17.2762 7.28314 16.8598 7.79162 16.0142 12.0198L19.4841 12.5155L19.3189 13.5069L15.8489 13.0112V13.0938L15.6837 14.1679C15.6837 14.1679 15.6011 14.4983 15.5185 14.9941L19.0711 15.4898L18.9058 16.4812L15.3532 15.9855C15.1054 17.1421 14.4444 19.7033 13.9487 20.6121C13.9487 20.6947 11.9659 24.4952 9.23946 22.7602C7.91757 21.8514 8.74375 21.3557 8.90899 21.3557C8.90899 21.3557 9.56994 21.1904 9.90041 22.0166C10.3961 23.1733 11.3049 22.5123 11.4702 22.3471C12.1311 21.6035 12.7921 20.199 13.7009 15.655L10.2309 15.1593L10.3961 14.1679L13.8661 14.6636V14.581L14.0313 13.5069C14.0313 13.5069 14.1139 13.1765 14.1966 12.6807L10.7266 12.185L10.8918 11.1936L14.4444 11.6893C14.6923 10.6153 15.1054 9.12815 15.6011 8.21935Z" fill="#4DD0FF"/>
<path fill-rule="evenodd" clip-rule="evenodd" d="M39.5596 13.4239H34.6025V9.37561H39.7249L39.8075 8.13633H33.198V20.116H34.6025V14.5806H39.5596V13.4239ZM42.7817 8.13633H41.4598V9.70608H42.7817V8.13633ZM42.7817 11.2758H41.4598V20.116H42.7817V11.2758ZM46.4169 8.05371L45.095 8.21895V16.3982C45.095 19.2898 45.1777 20.3639 47.3257 20.3639C47.6562 20.3639 47.9041 20.2812 48.2346 20.2812L48.1519 19.1246C47.7388 19.1246 47.6562 19.2072 47.4084 19.2072C46.4996 19.2072 46.4169 18.6289 46.4169 16.7286V8.05371ZM53.0264 20.2812C50.5479 20.2812 48.9781 18.4636 48.9781 15.6546C48.9781 13.0108 50.5479 11.1106 52.8612 11.028C55.0093 11.028 56.4138 12.6803 56.4138 15.2415C56.4138 15.4067 56.4138 15.7372 56.4138 15.8198H50.3826C50.3826 17.8027 51.5393 19.042 53.109 19.042C54.1005 19.042 55.0919 18.7115 55.9181 18.1332L56.3311 19.1246C55.505 19.8681 54.4309 20.2812 53.0264 20.2812ZM50.3826 14.9937H55.0919C55.0919 13.0934 54.1831 12.1846 52.8612 12.1846C51.5393 12.1846 50.5479 13.3413 50.3826 14.9937ZM64.2625 19.5377C63.6842 20.116 62.7754 20.3639 61.8666 20.3639C59.1402 20.3639 57.653 18.2158 57.653 15.7372C57.653 13.2587 59.2228 11.1106 61.8666 11.1106C62.858 11.1106 63.7668 11.4411 64.2625 11.8542L63.932 12.8456C63.3537 12.4325 62.6102 12.2672 61.8666 12.2672C60.2968 12.2672 59.0576 13.7544 59.0576 15.8198C59.0576 17.8853 60.2142 19.2898 62.0318 19.2898C62.7754 19.2898 63.4363 19.042 64.0147 18.6289L64.2625 19.5377ZM72.1113 15.7372C72.1113 13.837 71.4503 12.1846 69.4675 12.1846C67.5673 12.1846 66.7411 13.9196 66.7411 15.7372C66.7411 17.5548 67.6499 19.2072 69.5501 19.2072C71.4503 19.2072 72.1113 17.5548 72.1113 15.7372ZM73.5158 15.7372C73.5158 18.1332 72.1113 20.3639 69.4675 20.3639C66.8237 20.3639 65.3366 18.2984 65.3366 15.8198C65.3366 13.3413 66.8237 11.1932 69.5501 11.1932C72.1113 11.1106 73.5158 13.1761 73.5158 15.7372ZM76.7379 8.13633H75.416V9.70608H76.7379V8.13633ZM76.7379 11.2758H75.416V20.116H76.7379V11.2758ZM83.0995 11.1106C81.8602 11.1106 80.621 11.6889 79.96 12.5977L79.8774 11.2758H78.7207V13.4239V20.116H80.0426V14.0849C80.2905 13.2587 81.2819 12.2672 82.769 12.2672C84.4214 12.2672 84.504 13.4239 84.504 15.7372V20.116H85.8259V14.8284C85.9085 12.3499 85.0824 11.1106 83.0995 11.1106Z" fill="#4DD0FF"/>
</svg>
