<svg width="144" height="78" viewBox="0 0 144 78" fill="none" xmlns="http://www.w3.org/2000/svg">
<g clip-path="url(#clip0_2015_3615)">
<g clip-path="url(#clip1_2015_3615)">
<path d="M119.825 0.199111C120.231 0.265358 120.637 0.331604 121.055 0.399857C121.494 0.596679 121.932 0.7935 122.384 0.996286C122.641 1.3141 122.898 1.63191 123.163 1.95935C123.375 2.35919 123.587 2.75903 123.806 3.17099C124.044 3.61463 124.283 4.05827 124.529 4.51535C124.772 4.99104 125.016 5.46673 125.266 5.95683C125.52 6.44491 125.774 6.933 126.036 7.43587C126.533 8.4042 127.024 9.3757 127.508 10.3505C128.002 11.3644 128.49 12.3813 128.976 13.3993C129.176 13.8837 129.377 14.3681 129.584 14.8672C129.755 15.3614 129.927 15.8557 130.104 16.365C130.273 16.9858 130.442 17.6065 130.617 18.2461C130.853 19.247 131.083 20.2494 131.309 21.2528C131.66 22.8834 132 24.5157 132.334 26.1502C132.522 27.109 132.709 28.068 132.896 29.0271C132.953 29.3918 133.01 29.7565 133.069 30.1322C133.033 30.4772 132.997 30.8223 132.959 31.1778C133.56 31.3717 134.161 31.5656 134.781 31.7654C135.351 32.0433 135.922 32.3212 136.509 32.6075C136.456 33.1143 136.403 33.6211 136.348 34.1433C135.892 35.1646 135.432 36.1846 134.97 37.2031C135.089 37.6024 135.209 38.0017 135.331 38.4131C135.537 38.8833 135.743 39.3534 135.955 39.8379C136.178 40.3594 136.402 40.881 136.632 41.4183C136.993 42.236 136.993 42.236 137.36 43.0701C138.054 44.6652 138.742 46.2623 139.423 47.863C139.625 48.3582 139.828 48.8533 140.036 49.3635C140.196 49.7918 140.355 50.2201 140.519 50.6614C140.654 51.0619 140.79 51.4624 140.929 51.875C141.051 52.2687 141.172 52.6623 141.298 53.0679C141.409 53.4706 141.52 53.8734 141.634 54.2883C141.741 54.7316 141.849 55.1749 141.96 55.6316C142.061 56.0899 142.162 56.5481 142.266 57.0203C142.449 57.9449 142.63 58.8703 142.807 59.7963C142.952 60.4958 142.952 60.4958 143.101 61.2095C143.189 61.664 143.276 62.1185 143.366 62.5867C143.433 63.0164 143.499 63.446 143.568 63.8887C143.62 64.4754 143.62 64.4754 143.673 65.0739C143.606 65.6861 143.538 66.2984 143.468 66.9292C143.148 67.5364 143.148 67.5364 142.821 68.1559C142.398 68.3193 141.975 68.4827 141.539 68.651C141.081 68.5696 140.624 68.4882 140.152 68.4043C139.858 68.0184 139.563 67.6325 139.259 67.2349C138.999 66.6795 138.738 66.1241 138.469 65.5518C138.173 64.9327 137.877 64.3136 137.572 63.6758C137.105 62.6936 137.105 62.6936 136.628 61.6916C136.121 60.7788 136.121 60.7788 135.604 59.8476C135.264 59.2294 134.924 58.6111 134.574 57.9742C134.247 57.3375 133.92 56.7009 133.583 56.0449C133.288 55.3299 132.994 54.615 132.691 53.8783C132.57 53.4285 132.449 52.9788 132.325 52.5153C132.11 51.5645 131.902 50.6123 131.7 49.6585C131.611 49.1977 131.522 48.7369 131.431 48.2621C131.351 47.7934 131.272 47.3247 131.19 46.8418C131.08 46.2228 131.08 46.2228 130.968 45.5913C130.757 44.8721 130.757 44.8721 130.542 44.1384C130.459 44.668 130.376 45.1976 130.291 45.7432C130.209 46.1572 130.128 46.5712 130.044 46.9977C129.891 47.4163 129.738 47.8348 129.58 48.2661C129.291 48.5702 129.002 48.8743 128.704 49.1876C128.337 49.4497 127.971 49.7118 127.593 49.9819C126.977 50.3684 126.977 50.3684 126.348 50.7628C125.908 51.0017 125.467 51.2406 125.013 51.4868C124.576 51.7015 124.139 51.9163 123.689 52.1375C123.234 52.3388 122.779 52.5401 122.311 52.7476C121.83 52.9412 121.35 53.1348 120.855 53.3343C120.088 53.6278 120.088 53.6278 119.306 53.9271C118.749 54.1414 118.191 54.3556 117.617 54.5763C116.439 55.0189 115.258 55.4544 114.075 55.8829C112.97 56.2727 111.865 56.6599 110.758 57.0435C109.714 57.3916 108.667 57.7314 107.617 58.0636C106.456 58.4127 105.292 58.7535 104.127 59.0876C102.758 59.4597 101.387 59.8223 100.014 60.1773C98.2888 60.607 96.5595 61.0174 94.827 61.4179C89.7739 62.567 84.7071 63.6527 79.6357 64.7176C67.8494 67.1741 56.0367 69.5042 44.2223 71.8216C43.036 72.0545 41.8497 72.2875 40.6634 72.5206C39.5276 72.7437 38.3918 72.9663 37.2559 73.1888C35.2241 73.5894 33.1932 73.993 31.1644 74.4085C29.2171 74.8335 27.2735 75.2728 25.3319 75.7228C24.6208 75.8933 23.9097 76.0638 23.177 76.2395C22.3095 76.397 22.3095 76.397 21.4245 76.5577C20.9188 76.5739 20.4131 76.5902 19.8922 76.6069C19.5352 76.5001 19.1782 76.3934 18.8104 76.2834C18.7103 75.5751 18.6102 74.8669 18.5071 74.1372C18.1087 74.1935 17.7103 74.2498 17.2999 74.3079C16.5763 74.3464 16.5763 74.3464 15.8381 74.3857C15.1731 73.7108 15.1731 73.7108 14.4946 73.0224C14.0015 72.2674 14.0015 72.2674 13.4984 71.4973C13.5346 71.1522 13.5708 70.8071 13.6081 70.4516C14.6976 70.0427 14.6976 70.0427 15.8091 69.6255C15.8635 69.1079 15.9178 68.5903 15.9738 68.057C15.4166 67.3475 15.4166 67.3475 14.8482 66.6237C14.3453 66.0783 13.8425 65.5329 13.3244 64.9709C12.313 63.8673 11.3056 62.7598 10.3036 61.6476C10.0038 61.2516 9.70396 60.8556 9.39507 60.4476C9.16971 60.1344 8.94434 59.8212 8.71215 59.4984C8.11011 58.8465 8.11011 58.8465 7.4959 58.1815C7.0538 58.1351 6.61169 58.0887 6.15619 58.0409C5.71754 58.1693 5.27889 58.2977 4.82695 58.4299C3.92007 58.6908 3.01223 58.9483 2.10313 59.2012C1.58555 59.1469 1.06796 59.0926 0.534688 59.0366C0.614506 58.38 0.694325 57.7233 0.776562 57.0468C1.01413 56.3413 1.25171 55.6358 1.49648 54.9089C1.89479 54.6455 2.2931 54.3821 2.70349 54.1106C3.04961 53.9289 3.39574 53.7472 3.75235 53.56C3.65226 52.8518 3.55216 52.1435 3.44903 51.4139C3.76502 51.1622 4.08101 50.9106 4.40658 50.6513C5.31946 50.2089 6.23417 49.7703 7.15044 49.335C7.59038 49.1488 8.03032 48.9626 8.48359 48.7708C9.04878 48.5794 9.61396 48.388 10.1963 48.1907C10.7025 48.1458 11.2087 48.1008 11.7302 48.0544C12.2802 48.1312 12.8302 48.208 13.3968 48.2871C14.0364 48.5096 14.6761 48.7321 15.3351 48.9613C15.6381 49.1873 15.9411 49.4132 16.2532 49.646C16.704 50.0593 16.704 50.0593 17.1639 50.4809C17.7945 51.1016 18.4205 51.727 19.0421 52.3567C20.0492 53.3255 21.0644 54.2848 22.0832 55.2413C22.3995 55.529 22.7158 55.8167 23.0416 56.1131C23.5862 56.56 24.1307 57.0068 24.6917 57.4673C25.6215 58.1231 26.5513 58.7788 27.4812 59.4346C27.9778 59.5909 28.4745 59.7473 28.9862 59.9084C30.085 59.7519 30.085 59.7519 31.206 59.5922C31.837 59.4256 31.837 59.4256 32.4808 59.2556C33.4335 58.9634 34.3842 58.6643 35.333 58.3597C36.3837 58.0041 37.4314 57.6397 38.4763 57.2674C39.2774 56.9769 39.2774 56.9769 40.0947 56.6805C40.6241 56.4925 41.1535 56.3045 41.6989 56.1108C42.7543 55.7321 43.8084 55.3497 44.861 54.9634C45.3967 54.7593 45.9325 54.5552 46.4845 54.3449C47.7205 53.8483 48.9544 53.3462 50.1858 52.8379C50.6834 52.6274 51.1809 52.417 51.6936 52.2001C51.9811 52.0719 52.2685 51.9437 52.5647 51.8116C51.1634 52.302 49.7697 52.8099 48.3759 53.3211C47.9163 53.4933 47.4567 53.6655 46.9832 53.8429C46.5398 54.0031 46.0965 54.1634 45.6397 54.3285C45.2182 54.4844 44.7966 54.6402 44.3623 54.8008C43.9913 54.8868 43.6202 54.9727 43.2379 55.0613C42.4886 54.721 42.4886 54.721 41.7243 54.3739C42.0917 53.3659 42.0917 53.3659 42.4666 52.3375C43.0153 51.9917 43.5639 51.6459 44.1292 51.2897C44.5156 51.0359 44.902 50.7821 45.3001 50.5206C44.902 50.4972 44.5038 50.4738 44.0935 50.4497C43.1109 50.5806 43.1109 50.5806 42.1084 50.7142C41.7216 50.8391 41.3348 50.964 40.9363 51.0927C40.0824 51.4183 39.2307 51.7497 38.381 52.0862C37.4877 52.4502 36.5946 52.8149 35.7018 53.1802C35.2742 53.3492 34.8466 53.5183 34.4061 53.6925C33.6793 53.9365 32.9526 54.1804 32.2039 54.4318C31.7044 54.205 31.2049 53.9781 30.6903 53.7444C30.7294 53.3874 30.7685 53.0305 30.8088 52.6628C30.9724 52.2247 31.136 51.7866 31.3045 51.3353C31.5117 50.8789 31.719 50.4225 31.9325 49.9523C32.2212 49.5327 32.51 49.1131 32.8075 48.6808C33.2037 48.3993 33.5999 48.1177 34.0081 47.8276C34.4664 47.6088 34.9246 47.39 35.3968 47.1645C36.128 46.8733 36.128 46.8733 36.8739 46.5763C37.379 46.3962 37.884 46.2162 38.4044 46.0307C38.9136 45.8307 39.4228 45.6307 39.9474 45.4246C40.8845 45.0632 41.8242 44.7081 42.767 44.3617C43.1301 44.2513 43.4932 44.141 43.8673 44.0273C44.2124 44.0635 44.5575 44.0997 44.913 44.1371C44.7767 43.7739 44.6404 43.4107 44.4999 43.0365C43.8922 43.2181 43.8922 43.2181 43.2721 43.4032C42.7784 43.5367 42.2847 43.6703 41.7761 43.8078C41.3582 43.7319 40.9403 43.6561 40.5098 43.5779C40.0831 43.3907 39.6565 43.2035 39.2169 43.0106C38.7617 42.4886 38.7617 42.4886 38.2973 41.9561C38.037 41.5472 37.7767 41.1383 37.5085 40.717C37.2442 40.3077 36.9798 39.8984 36.7075 39.4767C36.4727 39.1359 36.238 38.7951 35.9962 38.444C35.5057 38.1309 35.5057 38.1309 35.0054 37.8115C35.3728 36.8035 35.3728 36.8035 35.7477 35.7751C36.1636 35.4481 36.5795 35.121 37.008 34.7841C37.5271 34.5116 38.0463 34.239 38.5813 33.9582C39.3428 33.7505 39.3428 33.7505 40.1198 33.5386C40.9653 33.3916 40.9653 33.3916 41.8279 33.2418C42.2985 33.2414 42.7692 33.241 43.2541 33.2406C44.3581 33.3566 45.4609 33.4843 46.5628 33.6187C47.2432 33.7297 47.9235 33.8407 48.6245 33.9551C49.417 34.1127 50.2082 34.2768 50.9983 34.4461C52.8045 34.8511 54.6052 35.2771 56.4045 35.7118C57.3914 35.9532 58.3782 36.1949 59.365 36.4368C60.3953 36.6864 61.4258 36.9358 62.4562 37.1849C70.3665 39.1049 78.2625 41.0834 86.1535 43.0806C86.975 43.2877 86.975 43.2877 87.813 43.4991C89.3554 43.8888 90.8971 44.2816 92.4385 44.6755C92.9013 44.7923 93.3641 44.909 93.841 45.0293C94.26 45.1371 94.679 45.245 95.1107 45.3562C96.0735 45.6301 96.0735 45.6301 97.0558 45.9097C97.2102 46.1003 97.3646 46.2909 97.5237 46.4873C97.3622 47.0918 97.3622 47.0918 97.1974 47.7085C97.2145 48.1681 97.2317 48.6278 97.2494 49.1014C97.7546 49.4815 98.2598 49.8616 98.7803 50.2532C99.7526 50.6496 99.7526 50.6496 100.744 51.054C101.197 51.077 101.65 51.0999 102.116 51.1236C102.717 51.0368 103.317 50.9499 103.936 50.8604C104.342 50.7439 104.747 50.6275 105.165 50.5075C105.618 50.3583 106.07 50.2091 106.536 50.0554C107.52 49.7078 108.503 49.3551 109.484 48.9979C109.995 48.8156 110.506 48.6334 111.033 48.4455C112.05 48.0776 113.065 47.7048 114.078 47.3269C114.764 47.0584 114.764 47.0584 115.464 46.7845C115.844 46.62 116.225 46.4554 116.617 46.2858C117.543 45.8592 118.465 45.4215 119.386 44.9828C119.877 44.7324 120.367 44.482 120.872 44.224C121.284 44.0786 121.697 43.9331 122.122 43.7833C122.794 44.0283 123.466 44.2732 124.158 44.5256C124.64 44.925 125.121 45.3244 125.617 45.7358C125.444 45.2591 125.27 44.7823 125.091 44.2911C124.779 43.5639 124.464 42.8379 124.147 42.1128C123.655 40.952 123.173 39.7877 122.699 38.6193C122.48 38.0428 122.48 38.0428 122.258 37.4546C122.048 36.7588 121.838 36.0629 121.622 35.3459C121.307 34.1313 120.999 32.9147 120.7 31.6957C120.587 31.2628 120.474 30.8298 120.357 30.3837C120.202 30.193 120.048 30.0024 119.889 29.806C119.47 29.6346 119.051 29.4633 118.62 29.2867C118.1 29.1525 117.581 29.0182 117.046 28.8799C116.528 28.8222 116.01 28.7644 115.476 28.7049C115.035 28.8691 114.593 29.0332 114.138 29.2024C113.913 29.8418 113.689 30.4812 113.458 31.14C113.396 31.5428 113.334 31.9456 113.27 32.3605C113.228 32.7883 113.185 33.2161 113.142 33.6568C113.098 34.0786 113.054 34.5004 113.009 34.935C112.986 35.3525 112.964 35.77 112.941 36.2001C112.948 36.6105 112.954 37.0209 112.961 37.4437C113.024 37.8296 113.086 38.2155 113.15 38.6131C113.53 39.2566 113.909 39.9001 114.3 40.5631C114.862 41.2864 114.862 41.2864 115.435 42.0243C115.399 42.3694 115.363 42.7144 115.325 43.07C114.805 43.1462 114.285 43.2224 113.748 43.3009C113.216 43.2886 112.683 43.2762 112.134 43.2635C111.997 42.9004 111.861 42.5372 111.721 42.163C111.369 42.6058 111.017 43.0486 110.655 43.5048C109.984 44.2847 109.984 44.2847 109.3 45.0804C108.832 45.2821 108.364 45.4837 107.881 45.6914C107.451 45.7443 107.02 45.7972 106.576 45.8517C106.077 45.6249 105.577 45.398 105.063 45.1643C105.287 44.7756 105.512 44.387 105.744 43.9866C106.111 43.5107 106.479 43.0349 106.857 42.5446C107.404 41.8364 107.404 41.8364 107.961 41.114C108.378 40.4351 108.378 40.4351 108.803 39.7425C108.703 39.0343 108.603 38.3261 108.5 37.5964C108.18 37.1158 107.859 36.6352 107.529 36.1401C107.25 35.6856 106.971 35.2311 106.683 34.7629C106.91 34.2634 107.137 33.7639 107.37 33.2493C108.079 33.1492 108.787 33.0491 109.516 32.946C109.851 33.3953 110.185 33.8447 110.53 34.3077C110.813 34.6208 111.096 34.934 111.388 35.2567C111.649 34.4828 111.649 34.4828 111.916 33.6933C112.041 33.0196 112.166 32.346 112.295 31.6519C112.522 31.1524 112.749 30.6529 112.983 30.1383C112.275 30.2276 111.568 30.3169 110.84 30.4089C110.333 30.5193 109.826 30.6296 109.304 30.7433C108.166 31.0186 107.029 31.2956 105.892 31.5745C105.276 31.7388 104.66 31.903 104.025 32.0723C102.996 32.3691 102.996 32.3691 101.947 32.6718C101.102 32.932 100.259 33.1995 99.4183 33.4718C96.417 34.4971 93.431 35.5646 90.4469 36.639C89.3355 37.0417 88.2248 37.4463 87.1149 37.8532C85.9694 38.2716 84.8195 38.678 83.6683 39.0805C83.2458 39.2562 82.8233 39.432 82.388 39.613C82.1792 39.94 81.9705 40.2669 81.7554 40.6038C81.1015 40.5372 80.4476 40.4706 79.7738 40.402C78.9361 40.2625 78.0992 40.1172 77.2633 39.9671C76.8501 39.8982 76.437 39.8293 76.0113 39.7583C75.1943 39.6186 74.3785 39.472 73.564 39.3181C73.1798 39.2439 72.7955 39.1697 72.3996 39.0933C71.7044 38.9658 71.0092 38.8383 70.2928 38.707C69.7985 38.5352 69.3041 38.3634 68.7948 38.1864C68.7969 37.5434 68.7989 36.9004 68.8011 36.2379C68.9272 35.8669 69.0534 35.4958 69.1834 35.1135C69.3725 34.7654 69.5617 34.4174 69.7566 34.0587C70.2627 33.5994 70.7687 33.1402 71.2902 32.667C71.6414 32.4558 71.9927 32.2447 72.3546 32.0271C73.4694 31.4491 74.5889 30.8803 75.7099 30.3145C77.1259 29.6263 78.5483 28.9551 79.9738 28.2864C80.6694 28.0017 81.3649 27.717 82.0816 27.4237C82.644 27.2412 82.644 27.2412 83.2178 27.0551C83.5916 26.9508 83.9653 26.8464 84.3504 26.7388C85.0362 26.5921 85.7221 26.4454 86.4287 26.2942C86.9057 26.2748 87.3826 26.2553 87.874 26.2353C88.2773 26.2817 88.6806 26.3281 89.0961 26.3759C89.7563 26.4636 89.7563 26.4636 90.4299 26.5531C90.8348 26.6487 91.2397 26.7444 91.6569 26.8429C92.2551 27.1674 92.8534 27.4918 93.4698 27.826C94.0249 28.146 94.58 28.4659 95.152 28.7955C95.7925 28.9001 96.433 29.0048 97.093 29.1126C97.8327 29.1528 98.5724 29.193 99.3345 29.2344C99.9984 29.1628 100.662 29.0911 101.346 29.0173C102.031 28.8932 102.716 28.7691 103.421 28.6413C104.562 28.4427 104.562 28.4427 105.727 28.2401C106.52 28.0972 107.313 27.9537 108.106 27.8095C109.663 27.527 111.22 27.2519 112.779 26.9806C113.516 26.8602 114.253 26.7399 115.013 26.6159C116.037 26.4792 116.037 26.4792 117.081 26.3399C117.673 26.3029 118.264 26.266 118.873 26.2279C119.646 26.2245 119.646 26.2245 120.434 26.221C120.872 26.2293 121.309 26.2376 121.76 26.2461C122.132 26.3037 122.504 26.3613 122.887 26.4206C123.471 26.7763 124.055 27.1319 124.657 27.4984C125.036 27.9415 125.414 28.3846 125.804 28.8411C126.213 29.9306 126.213 29.9306 126.631 31.0421C126.562 30.7311 126.494 30.4201 126.424 30.0996C126.238 29.5118 126.051 28.924 125.859 28.3183C125.374 27.2297 124.887 26.1415 124.39 25.0583C124.003 24.2081 123.621 23.3557 123.244 22.5014C122.961 21.8312 122.961 21.8312 122.672 21.1475C122.49 20.6903 122.307 20.2331 122.119 19.762C121.954 19.299 121.789 18.836 121.619 18.3589C121.425 17.6628 121.425 17.6628 121.227 16.9527C121.118 16.4917 121.009 16.0307 120.897 15.5557C120.801 15.1011 120.705 14.6465 120.606 14.1781C120.361 12.9065 120.123 11.6344 119.898 10.3592C119.775 9.61239 119.652 8.86561 119.525 8.09621C119.397 7.41233 119.269 6.72845 119.137 6.02384C119.047 5.4638 118.956 4.90377 118.863 4.32676C118.891 3.75186 118.918 3.17697 118.947 2.58465C119.028 2.12437 119.109 1.66409 119.192 1.18987C119.401 0.86292 119.61 0.535969 119.825 0.199111ZM120.596 2.92293C120.8 3.57664 121.004 4.23035 121.214 4.90387C121.372 5.30133 121.53 5.69879 121.693 6.10829C121.968 6.71053 121.968 6.71053 122.248 7.32494C122.452 7.69039 122.655 8.05584 122.865 8.43237C123.069 8.75291 123.273 9.07346 123.484 9.40372C124.003 10.0633 124.003 10.0633 124.533 10.7362C124.588 10.2186 124.642 9.70102 124.698 9.16774C124.495 8.6756 124.292 8.18345 124.082 7.67639C123.668 6.85105 123.668 6.85105 123.245 6.00904C122.972 5.45506 122.699 4.90107 122.418 4.3303C122.162 3.90208 121.906 3.47387 121.642 3.03267C121.297 2.99646 120.952 2.96024 120.596 2.92293ZM125.056 10.7911C125.174 11.3268 125.292 11.8625 125.414 12.4144C125.469 11.8968 125.523 11.3792 125.579 10.8459C125.406 10.8278 125.234 10.8097 125.056 10.7911ZM126.405 13.0469C126.818 14.1474 126.818 14.1474 126.818 14.1474L126.405 13.0469ZM87.2549 28.4952C87.9769 29.0943 87.9769 29.0943 88.7136 29.7054C89.3819 30.0372 89.3819 30.0372 90.0638 30.3757C90.4446 30.5901 90.8255 30.8045 91.2179 31.0254C91.1817 31.3705 91.1455 31.7156 91.1082 32.0711C90.5526 32.2744 89.9971 32.4777 89.4247 32.6872C88.6238 32.9956 88.6238 32.9956 87.8067 33.3103C87.943 33.6734 88.0793 34.0366 88.2197 34.4108C88.7321 34.2881 89.2444 34.1654 89.7722 34.039C90.3977 33.8123 91.0231 33.5856 91.6675 33.3521C92.6147 33.0233 92.6147 33.0233 93.581 32.6878C93.9908 32.4385 94.4006 32.1892 94.8227 31.9324C94.5942 31.6236 94.3656 31.3148 94.1302 30.9966C93.7229 30.7154 93.3157 30.4342 92.8961 30.1444C92.3137 29.7726 92.3137 29.7726 91.7196 29.3933C91.2814 29.2055 90.8432 29.0178 90.3918 28.8244C89.4928 28.6647 89.4928 28.6647 88.5756 28.5017C88.1398 28.4995 87.7039 28.4974 87.2549 28.4952ZM126.989 32.6655C127.402 33.766 127.402 33.766 127.402 33.766L126.989 32.6655ZM129.08 32.8849C129.198 33.4206 129.317 33.9563 129.438 34.5083C130.067 34.4434 130.695 34.3785 131.342 34.3116C132.266 34.0815 132.266 34.0815 133.208 33.8467C133.226 33.6742 133.244 33.5017 133.263 33.3239C132.218 33.1489 132.218 33.1489 131.152 32.9703C130.127 32.9281 130.127 32.9281 129.08 32.8849ZM127.402 33.766C127.815 34.8665 127.815 34.8665 127.815 34.8665L127.402 33.766ZM82.8529 30.1475C82.2952 30.2995 81.7376 30.4515 81.1631 30.6081C80.6022 30.8293 80.0414 31.0505 79.4636 31.2784C78.617 31.6035 78.617 31.6035 77.7532 31.9351C77.2571 32.1631 76.761 32.391 76.2499 32.6259C75.6779 33.0892 75.106 33.5524 74.5168 34.0297C75.3894 34.2849 75.3894 34.2849 76.2797 34.5451C76.7148 34.5799 77.15 34.6147 77.5983 34.6505C78.4021 34.5877 78.4021 34.5877 79.2221 34.5236C80.2455 34.2385 80.2455 34.2385 81.2895 33.9477C81.9947 33.6947 82.6999 33.4416 83.4265 33.1809C84.1098 32.9215 84.7932 32.6621 85.4973 32.3948C85.9687 32.1431 86.44 31.8914 86.9256 31.6321C86.6168 31.2508 86.308 30.8695 85.9898 30.4767C85.5228 30.3752 85.0558 30.2738 84.5747 30.1692C84.0065 30.162 83.4383 30.1549 82.8529 30.1475ZM128.173 36.4898C128.586 37.5903 128.586 37.5903 128.586 37.5903L128.173 36.4898ZM128.586 37.5903C128.999 38.6908 128.999 38.6908 128.999 38.6908L128.586 37.5903ZM128.999 38.6908C129.074 39.222 129.149 39.7531 129.227 40.3004C129.388 40.8406 129.549 41.3808 129.716 41.9374C129.943 41.4379 130.169 40.9385 130.403 40.4238C129.94 39.8519 129.477 39.28 128.999 38.6908ZM52.4778 37.531C52.4597 37.7035 52.4416 37.876 52.4229 38.0538C53.079 38.2932 53.079 38.2932 53.7484 38.5374C54.3724 38.7332 54.9964 38.929 55.6393 39.1307C56.3431 39.3527 57.0469 39.5746 57.7721 39.8033C58.5507 40.046 59.3294 40.2885 60.1081 40.5308C60.9015 40.7791 61.6948 41.0275 62.4881 41.276C64.1571 41.7982 65.8268 42.3184 67.4968 42.8374C69.6295 43.5005 71.7604 44.1693 73.8909 44.8398C75.5322 45.3555 77.1746 45.8675 78.8174 46.3785C79.6028 46.6234 80.3879 46.8695 81.1725 47.1169C82.2762 47.4645 83.3816 47.8064 84.4871 48.1482C85.1145 48.3439 85.7418 48.5396 86.3882 48.7413C87.0032 48.8973 87.6182 49.0534 88.2518 49.2142C88.984 49.3255 89.7161 49.4367 90.4705 49.5514C91.1186 49.585 91.7666 49.6186 92.4343 49.6532C93.0036 49.3839 93.5728 49.1145 94.1594 48.837C94.3526 48.4887 94.5459 48.1403 94.745 47.7814C93.8568 47.4215 93.8568 47.4215 92.9507 47.0542C92.4719 46.9343 91.993 46.8144 91.4997 46.6908C90.9429 46.5637 90.3861 46.4366 89.8124 46.3057C89.2379 46.1652 88.6635 46.0246 88.0716 45.8799C86.6912 45.5425 85.3096 45.2098 83.9273 44.8804C80.8948 44.1539 77.8727 43.387 74.8496 42.623C72.5176 42.0355 70.1855 41.4489 67.8532 40.8626C67.2745 40.7169 66.6957 40.5712 66.0994 40.4211C64.4286 40.0015 62.757 39.585 61.0851 39.1694C60.5803 39.0422 60.0754 38.915 59.5552 38.7839C58.6388 38.5572 57.7214 38.3342 56.8029 38.1161C56.4108 38.0316 56.0187 37.9472 55.6147 37.8602C54.9854 37.7681 54.3561 37.676 53.7078 37.5811C53.3019 37.5645 52.896 37.548 52.4778 37.531ZM135.718 55.2532C136.131 56.3537 136.131 56.3537 136.131 56.3537L135.718 55.2532ZM136.599 56.9314C136.717 57.4671 136.836 58.0028 136.957 58.5547C137.012 58.0371 137.066 57.5195 137.122 56.9863C136.95 56.9681 136.777 56.95 136.599 56.9314ZM89.3812 53.5614C88.9534 53.6334 88.5257 53.7054 88.0849 53.7797C87.4806 53.9548 87.4806 53.9548 86.8642 54.1334C86.4458 54.2744 86.0275 54.4154 85.5965 54.5607C85.1589 54.7189 84.7214 54.8771 84.2706 55.0402C83.2777 55.3734 82.2836 55.7031 81.2885 56.03C80.7534 56.2061 80.2183 56.3822 79.6669 56.5637C79.0866 56.7454 78.5062 56.9271 77.9083 57.1144C75.8483 57.6969 73.7829 58.2535 71.7133 58.8008C71.0202 58.9818 70.3271 59.1627 69.613 59.3491C68.947 59.5244 68.2811 59.6997 67.5949 59.8803C65.2828 60.4836 62.9677 61.0724 60.6465 61.6402C59.9962 61.7913 59.9962 61.7913 59.3327 61.9454C58.653 62.0785 57.9733 62.2116 57.2731 62.3487C56.5486 62.2399 56.5486 62.2399 55.8095 62.129C55.2672 61.8431 55.2672 61.8431 54.7139 61.5515C54.409 61.2361 54.1042 60.9206 53.7901 60.5956C53.4592 60.321 53.1282 60.0465 52.7872 59.7636C52.1422 59.7358 52.1422 59.7358 51.4841 59.7075C50.8608 59.7899 50.2376 59.8723 49.5955 59.9572C49.1885 60.0572 48.7816 60.1573 48.3624 60.2604C47.4032 60.5295 46.4464 60.8068 45.4915 61.0904C44.7082 61.3286 44.7082 61.3286 43.909 61.5717C43.3643 61.7342 42.8196 61.8966 42.2583 62.0641C40.5222 62.5825 38.7875 63.1056 37.0529 63.6292C35.3182 64.1501 33.5833 64.67 31.848 65.1887C30.7699 65.5112 29.6922 65.8352 28.6151 66.1607C27.2468 66.5715 25.877 66.9742 24.5034 67.3665C23.8505 67.5433 23.1976 67.7202 22.5249 67.9023C22.1064 67.9619 21.6879 68.0215 21.2568 68.0829C21.2533 67.701 21.2497 67.3191 21.2461 66.9256C21.5127 66.463 21.7793 66.0004 22.054 65.5237C22.614 65.2773 23.1741 65.0308 23.7511 64.7769C24.2805 64.6144 24.81 64.4519 25.3555 64.2845C25.3736 64.112 25.3917 63.9395 25.4103 63.7617C24.765 63.5741 24.1197 63.3864 23.4548 63.1931C23.0395 63.0602 22.6242 62.9274 22.1963 62.7905C21.7404 62.603 21.2845 62.4154 20.8147 62.2222C20.3264 61.9277 19.8382 61.6332 19.3351 61.3298C18.388 60.6799 17.4456 60.0233 16.5088 59.3587C16.1406 59.0693 15.7724 58.7799 15.393 58.4817C15.0842 58.1005 14.7753 57.7192 14.4571 57.3264C13.8634 57.1659 13.2698 57.0055 12.6581 56.8402C12.2166 56.892 11.7751 56.9438 11.3202 56.9971C11.8032 57.8491 11.8032 57.8491 12.2958 58.7183C12.5748 59.0855 12.8538 59.4528 13.1412 59.8311C13.6025 60.4028 13.6025 60.4028 14.073 60.9861C14.3516 61.3315 14.6301 61.6769 14.9171 62.0327C15.3245 62.5333 15.3245 62.5333 15.7401 63.0441C16.277 63.7054 16.8132 64.3673 17.3486 65.0299C17.6163 65.3551 17.884 65.6802 18.1599 66.0153C18.3929 66.3204 18.6259 66.6256 18.866 66.94C19.1193 67.4354 19.3725 67.9308 19.6335 68.4411C19.2323 68.628 18.8311 68.8148 18.4178 69.0073C17.6713 69.1088 17.6713 69.1088 16.9096 69.2124C16.8915 69.3849 16.8734 69.5575 16.8548 69.7352C17.4174 69.8178 17.4174 69.8178 17.9915 69.902C18.5556 69.9347 19.1198 69.9673 19.701 70.0009C20.6851 70.0208 20.6851 70.0208 21.689 70.0412C22.0895 70.038 22.49 70.0348 22.9026 70.0315C23.3403 70.0147 23.778 69.9979 24.2291 69.9806C24.9232 69.9202 24.9232 69.9202 25.6313 69.8586C26.6529 69.7441 27.6737 69.6226 28.6938 69.4951C29.242 69.4219 29.7902 69.3487 30.3551 69.2732C30.9391 69.1954 31.5232 69.1175 32.1249 69.0373C33.3509 68.8663 34.5761 68.6898 35.8006 68.508C36.4038 68.4115 37.0071 68.315 37.6287 68.2155C38.7692 68.0117 39.9086 67.8009 41.0465 67.5828C43.3155 67.1282 45.579 66.6509 47.8408 66.1621C49.0064 65.906 50.172 65.6496 51.3375 65.3927C52.5686 65.1252 53.7997 64.8577 55.0308 64.5903C58.6078 63.8075 62.1811 63.0097 65.7479 62.181C68.4965 61.5265 71.2384 60.8467 73.9762 60.1484C76.9411 59.384 79.9005 58.5988 82.8585 57.8079C85.5993 57.0828 88.3508 56.403 91.1034 55.7243C91.5229 55.6224 91.9425 55.5205 92.3747 55.4156C92.7406 55.3246 93.1064 55.2336 93.4834 55.1399C94.0094 54.9907 94.5354 54.8415 95.0773 54.6878C95.0954 54.5152 95.1136 54.3427 95.1322 54.165C94.7781 54.0874 94.424 54.0098 94.0592 53.9299C93.5709 53.8666 93.0826 53.8033 92.5796 53.7381C92.0511 53.6883 91.5227 53.6385 90.9782 53.5873C90.4512 53.5787 89.9242 53.5702 89.3812 53.5614ZM137.48 58.6096C137.56 58.9886 137.639 59.3676 137.721 59.7581C137.896 60.2779 138.071 60.7978 138.252 61.3334C138.563 62.0365 138.563 62.0365 138.881 62.7539C139.226 63.4279 139.226 63.4279 139.578 64.1155C139.809 64.5758 140.039 65.036 140.276 65.5102C140.48 65.7933 140.684 66.0763 140.895 66.368C141.121 65.8685 141.348 65.369 141.582 64.8544C141.391 64.4078 141.2 63.9612 141.003 63.5011C140.716 63.0035 140.428 62.5059 140.131 61.9932C139.848 61.4933 139.564 60.9934 139.272 60.4784C139.008 60.0704 138.743 59.6625 138.471 59.2421C138.144 59.0334 137.817 58.8246 137.48 58.6096ZM102.968 34.9016C103.686 35.0164 103.686 35.0164 104.418 35.1336C104.784 35.3201 105.15 35.5066 105.528 35.6987C105.975 36.2145 106.422 36.7302 106.883 37.2616C107.19 37.8715 107.496 38.4815 107.812 39.11C107.783 39.5975 107.754 40.085 107.723 40.5873C107.472 41.1168 107.22 41.6464 106.96 42.192C106.723 42.5759 106.486 42.9599 106.241 43.3554C105.971 43.7576 105.701 44.1599 105.422 44.5743C105.154 44.953 104.886 45.3316 104.61 45.7217C104.235 46.1679 104.235 46.1679 103.852 46.623C103.308 46.8275 103.308 46.8275 102.752 47.0361C101.899 46.8164 101.899 46.8164 101.029 46.5923C96.8013 45.2661 96.8013 45.2661 95.2323 44.764C93.9831 44.3654 92.7313 43.9758 91.4791 43.5869C90.691 43.3371 89.903 43.0869 89.1153 42.836C88.3931 42.6074 87.6709 42.3787 86.9268 42.1432C86.1514 41.8301 86.1514 41.8301 85.3603 41.5107C85.3965 41.1657 85.4327 40.8206 85.47 40.4651C85.9908 40.2532 86.5116 40.0413 87.0481 39.823C91.1196 38.5003 91.1196 38.5003 92.8138 37.9654C94.0551 37.5716 95.2918 37.1654 96.5286 36.7581C97.317 36.506 98.1056 36.2546 98.8945 36.004C99.6135 35.7734 100.332 35.5428 101.073 35.3052C101.699 35.172 102.324 35.0388 102.968 34.9016Z" fill="#E30437"/>
<path d="M113.505 30.1928C113.678 30.2109 113.85 30.229 114.028 30.2477C113.857 31.5735 113.671 32.8975 113.479 34.2204C113.366 34.9568 113.253 35.6931 113.137 36.4517C113.141 37.1648 113.146 37.878 113.15 38.6127C113.522 39.2446 113.895 39.8765 114.279 40.5275C114.66 41.0214 115.042 41.5152 115.435 42.024C115.399 42.369 115.362 42.7141 115.325 43.0696C114.805 43.1458 114.284 43.222 113.748 43.3005C113.215 43.2882 112.682 43.2759 112.133 43.2632C111.997 42.9 111.861 42.5369 111.72 42.1627C111.369 42.6055 111.017 43.0482 110.654 43.5044C110.207 44.0244 109.76 44.5444 109.3 45.0801C108.832 45.2817 108.363 45.4833 107.881 45.691C107.45 45.744 107.02 45.7969 106.576 45.8514C106.076 45.6245 105.577 45.3977 105.062 45.1639C105.287 44.7753 105.512 44.3867 105.743 43.9863C106.295 43.2725 106.295 43.2725 106.857 42.5442C107.221 42.0721 107.586 41.6 107.961 41.1136C108.239 40.6611 108.517 40.2085 108.803 39.7422C108.703 39.034 108.603 38.3258 108.499 37.5961C108.179 37.1155 107.859 36.6349 107.529 36.1398C107.25 35.6853 106.97 35.2308 106.683 34.7625C106.909 34.263 107.136 33.7636 107.37 33.2489C108.078 33.1488 108.786 33.0487 109.516 32.9456C109.851 33.395 110.185 33.8443 110.529 34.3073C110.813 34.6205 111.096 34.9337 111.388 35.2564C111.551 34.7393 111.715 34.2223 111.883 33.6895C112.019 33.017 112.155 32.3445 112.295 31.6515C112.694 31.1702 113.094 30.6888 113.505 30.1928Z" fill="#E30437"/>
</g>
</g>
<defs>
<clipPath id="clip0_2015_3615">
<rect width="144" height="78" fill="white"/>
</clipPath>
<clipPath id="clip1_2015_3615">
<rect width="148.244" height="93.5723" fill="white" transform="translate(5.76709 -16) rotate(5.99152)"/>
</clipPath>
</defs>
</svg>
