<svg width="943" height="943" viewBox="0 0 943 943" fill="none" xmlns="http://www.w3.org/2000/svg">
<g clip-path="url(#clip0_364_2616)">
<path d="M470.724 469.954L352.799 -51.2858L312.23 -40.4154L470.724 469.954Z" fill="url(#paint0_radial_364_2616)"/>
<path d="M470.822 470.672L102.163 -230.093L48.2707 -198.978L470.822 470.672Z" fill="url(#paint1_radial_364_2616)"/>
<path d="M471.159 470.159L471.008 469.996L470.938 469.919L-374.745 -445L-444 -375.745L471.159 470.159Z" fill="url(#paint2_radial_364_2616)"/>
<path d="M471.508 470.901L-248.071 9.10153L-288.211 78.6267L471.508 470.901Z" fill="url(#paint3_radial_364_2616)"/>
<path d="M471.076 471.262L-255.992 232.714L-277.857 314.317L471.076 471.262Z" fill="url(#paint4_radial_364_2616)"/>
<path d="M471.008 471.955L-293.026 429.714V471.955H471.008Z" fill="url(#paint5_radial_364_2616)"/>
<path d="M470.938 469.919L450.008 -62.2856H471.008V469.996L470.938 469.919Z" fill="url(#paint6_radial_364_2616)"/>
<path d="M470.724 474.001L352.799 995.241L312.23 984.37L470.724 474.001Z" fill="url(#paint7_radial_364_2616)"/>
<path d="M470.822 473.283L102.163 1174.05L48.2707 1142.93L470.822 473.283Z" fill="url(#paint8_radial_364_2616)"/>
<path d="M471.159 473.796L471.008 473.959L470.938 474.036L-374.745 1388.96L-444 1319.7L471.159 473.796Z" fill="url(#paint9_radial_364_2616)"/>
<path d="M471.508 473.054L-248.071 934.854L-288.211 865.328L471.508 473.054Z" fill="url(#paint10_radial_364_2616)"/>
<path d="M471.076 472.693L-255.992 711.241L-277.857 629.638L471.076 472.693Z" fill="url(#paint11_radial_364_2616)"/>
<path d="M471.008 472L-293.026 514.241V472H471.008Z" fill="url(#paint12_radial_364_2616)"/>
<path d="M470.938 474.036L450.008 1006.24H471.008V473.959L470.938 474.036Z" fill="url(#paint13_radial_364_2616)"/>
<path d="M471.285 469.954L589.209 -51.2858L629.778 -40.4154L471.285 469.954Z" fill="url(#paint14_radial_364_2616)"/>
<path d="M471.187 470.672L839.845 -230.093L893.738 -198.978L471.187 470.672Z" fill="url(#paint15_radial_364_2616)"/>
<path d="M470.849 470.159L471 469.996L471.071 469.919L1316.75 -445L1386.01 -375.745L470.849 470.159Z" fill="url(#paint16_radial_364_2616)"/>
<path d="M470.5 470.901L1190.08 9.10153L1230.22 78.6267L470.5 470.901Z" fill="url(#paint17_radial_364_2616)"/>
<path d="M470.933 471.262L1198 232.714L1219.87 314.317L470.933 471.262Z" fill="url(#paint18_radial_364_2616)"/>
<path d="M471 471.955L1235.03 429.714V471.955H471Z" fill="url(#paint19_radial_364_2616)"/>
<path d="M471.071 469.919L492 -62.2856H471V469.996L471.071 469.919Z" fill="url(#paint20_radial_364_2616)"/>
<path d="M471.285 474.001L589.209 995.241L629.778 984.37L471.285 474.001Z" fill="url(#paint21_radial_364_2616)"/>
<path d="M471.187 473.283L839.845 1174.05L893.738 1142.93L471.187 473.283Z" fill="url(#paint22_radial_364_2616)"/>
<path d="M470.849 473.796L471 473.959L471.071 474.036L1316.75 1388.96L1386.01 1319.7L470.849 473.796Z" fill="url(#paint23_radial_364_2616)"/>
<path d="M470.5 473.054L1190.08 934.854L1230.22 865.328L470.5 473.054Z" fill="url(#paint24_radial_364_2616)"/>
<path d="M470.933 472.693L1198 711.241L1219.87 629.638L470.933 472.693Z" fill="url(#paint25_radial_364_2616)"/>
<path d="M471 472L1235.03 514.241V472H471Z" fill="url(#paint26_radial_364_2616)"/>
<path d="M471.071 474.036L492 1006.24H471V473.959L471.071 474.036Z" fill="url(#paint27_radial_364_2616)"/>
</g>
<defs>
<radialGradient id="paint0_radial_364_2616" cx="0" cy="0" r="1" gradientUnits="userSpaceOnUse" gradientTransform="translate(470.5 471.955) rotate(1.71454) scale(451.202 451.202)">
<stop stop-color="white" stop-opacity="0.14"/>
<stop offset="1" stop-color="white" stop-opacity="0"/>
</radialGradient>
<radialGradient id="paint1_radial_364_2616" cx="0" cy="0" r="1" gradientUnits="userSpaceOnUse" gradientTransform="translate(470.5 471.955) rotate(1.71454) scale(451.202 451.202)">
<stop stop-color="white" stop-opacity="0.14"/>
<stop offset="1" stop-color="white" stop-opacity="0"/>
</radialGradient>
<radialGradient id="paint2_radial_364_2616" cx="0" cy="0" r="1" gradientUnits="userSpaceOnUse" gradientTransform="translate(470.5 471.955) rotate(1.71454) scale(451.202 451.202)">
<stop stop-color="white" stop-opacity="0.14"/>
<stop offset="1" stop-color="white" stop-opacity="0"/>
</radialGradient>
<radialGradient id="paint3_radial_364_2616" cx="0" cy="0" r="1" gradientUnits="userSpaceOnUse" gradientTransform="translate(470.5 471.955) rotate(1.71454) scale(451.202 451.202)">
<stop stop-color="white" stop-opacity="0.14"/>
<stop offset="1" stop-color="white" stop-opacity="0"/>
</radialGradient>
<radialGradient id="paint4_radial_364_2616" cx="0" cy="0" r="1" gradientUnits="userSpaceOnUse" gradientTransform="translate(470.5 471.955) rotate(1.71454) scale(451.202 451.202)">
<stop stop-color="white" stop-opacity="0.14"/>
<stop offset="1" stop-color="white" stop-opacity="0"/>
</radialGradient>
<radialGradient id="paint5_radial_364_2616" cx="0" cy="0" r="1" gradientUnits="userSpaceOnUse" gradientTransform="translate(470.5 471.955) rotate(1.71454) scale(451.202 451.202)">
<stop stop-color="white" stop-opacity="0.14"/>
<stop offset="1" stop-color="white" stop-opacity="0"/>
</radialGradient>
<radialGradient id="paint6_radial_364_2616" cx="0" cy="0" r="1" gradientUnits="userSpaceOnUse" gradientTransform="translate(470.5 471.955) rotate(1.71454) scale(451.202 451.202)">
<stop stop-color="white" stop-opacity="0.14"/>
<stop offset="1" stop-color="white" stop-opacity="0"/>
</radialGradient>
<radialGradient id="paint7_radial_364_2616" cx="0" cy="0" r="1" gradientUnits="userSpaceOnUse" gradientTransform="translate(470.5 471.955) rotate(1.71454) scale(451.202 451.202)">
<stop stop-color="white" stop-opacity="0.14"/>
<stop offset="1" stop-color="white" stop-opacity="0"/>
</radialGradient>
<radialGradient id="paint8_radial_364_2616" cx="0" cy="0" r="1" gradientUnits="userSpaceOnUse" gradientTransform="translate(470.5 471.955) rotate(1.71454) scale(451.202 451.202)">
<stop stop-color="white" stop-opacity="0.14"/>
<stop offset="1" stop-color="white" stop-opacity="0"/>
</radialGradient>
<radialGradient id="paint9_radial_364_2616" cx="0" cy="0" r="1" gradientUnits="userSpaceOnUse" gradientTransform="translate(470.5 471.955) rotate(1.71454) scale(451.202 451.202)">
<stop stop-color="white" stop-opacity="0.14"/>
<stop offset="1" stop-color="white" stop-opacity="0"/>
</radialGradient>
<radialGradient id="paint10_radial_364_2616" cx="0" cy="0" r="1" gradientUnits="userSpaceOnUse" gradientTransform="translate(470.5 471.955) rotate(1.71454) scale(451.202 451.202)">
<stop stop-color="white" stop-opacity="0.14"/>
<stop offset="1" stop-color="white" stop-opacity="0"/>
</radialGradient>
<radialGradient id="paint11_radial_364_2616" cx="0" cy="0" r="1" gradientUnits="userSpaceOnUse" gradientTransform="translate(470.5 471.955) rotate(1.71454) scale(451.202 451.202)">
<stop stop-color="white" stop-opacity="0.14"/>
<stop offset="1" stop-color="white" stop-opacity="0"/>
</radialGradient>
<radialGradient id="paint12_radial_364_2616" cx="0" cy="0" r="1" gradientUnits="userSpaceOnUse" gradientTransform="translate(470.5 471.955) rotate(1.71454) scale(451.202 451.202)">
<stop stop-color="white" stop-opacity="0.14"/>
<stop offset="1" stop-color="white" stop-opacity="0"/>
</radialGradient>
<radialGradient id="paint13_radial_364_2616" cx="0" cy="0" r="1" gradientUnits="userSpaceOnUse" gradientTransform="translate(470.5 471.955) rotate(1.71454) scale(451.202 451.202)">
<stop stop-color="white" stop-opacity="0.14"/>
<stop offset="1" stop-color="white" stop-opacity="0"/>
</radialGradient>
<radialGradient id="paint14_radial_364_2616" cx="0" cy="0" r="1" gradientUnits="userSpaceOnUse" gradientTransform="translate(470.5 471.955) rotate(1.71454) scale(451.202 451.202)">
<stop stop-color="white" stop-opacity="0.14"/>
<stop offset="1" stop-color="white" stop-opacity="0"/>
</radialGradient>
<radialGradient id="paint15_radial_364_2616" cx="0" cy="0" r="1" gradientUnits="userSpaceOnUse" gradientTransform="translate(470.5 471.955) rotate(1.71454) scale(451.202 451.202)">
<stop stop-color="white" stop-opacity="0.14"/>
<stop offset="1" stop-color="white" stop-opacity="0"/>
</radialGradient>
<radialGradient id="paint16_radial_364_2616" cx="0" cy="0" r="1" gradientUnits="userSpaceOnUse" gradientTransform="translate(470.5 471.955) rotate(1.71454) scale(451.202 451.202)">
<stop stop-color="white" stop-opacity="0.14"/>
<stop offset="1" stop-color="white" stop-opacity="0"/>
</radialGradient>
<radialGradient id="paint17_radial_364_2616" cx="0" cy="0" r="1" gradientUnits="userSpaceOnUse" gradientTransform="translate(470.5 471.955) rotate(1.71454) scale(451.202 451.202)">
<stop stop-color="white" stop-opacity="0.14"/>
<stop offset="1" stop-color="white" stop-opacity="0"/>
</radialGradient>
<radialGradient id="paint18_radial_364_2616" cx="0" cy="0" r="1" gradientUnits="userSpaceOnUse" gradientTransform="translate(470.5 471.955) rotate(1.71454) scale(451.202 451.202)">
<stop stop-color="white" stop-opacity="0.14"/>
<stop offset="1" stop-color="white" stop-opacity="0"/>
</radialGradient>
<radialGradient id="paint19_radial_364_2616" cx="0" cy="0" r="1" gradientUnits="userSpaceOnUse" gradientTransform="translate(470.5 471.955) rotate(1.71454) scale(451.202 451.202)">
<stop stop-color="white" stop-opacity="0.14"/>
<stop offset="1" stop-color="white" stop-opacity="0"/>
</radialGradient>
<radialGradient id="paint20_radial_364_2616" cx="0" cy="0" r="1" gradientUnits="userSpaceOnUse" gradientTransform="translate(470.5 471.955) rotate(1.71454) scale(451.202 451.202)">
<stop stop-color="white" stop-opacity="0.14"/>
<stop offset="1" stop-color="white" stop-opacity="0"/>
</radialGradient>
<radialGradient id="paint21_radial_364_2616" cx="0" cy="0" r="1" gradientUnits="userSpaceOnUse" gradientTransform="translate(470.5 471.955) rotate(1.71454) scale(451.202 451.202)">
<stop stop-color="white" stop-opacity="0.14"/>
<stop offset="1" stop-color="white" stop-opacity="0"/>
</radialGradient>
<radialGradient id="paint22_radial_364_2616" cx="0" cy="0" r="1" gradientUnits="userSpaceOnUse" gradientTransform="translate(470.5 471.955) rotate(1.71454) scale(451.202 451.202)">
<stop stop-color="white" stop-opacity="0.14"/>
<stop offset="1" stop-color="white" stop-opacity="0"/>
</radialGradient>
<radialGradient id="paint23_radial_364_2616" cx="0" cy="0" r="1" gradientUnits="userSpaceOnUse" gradientTransform="translate(470.5 471.955) rotate(1.71454) scale(451.202 451.202)">
<stop stop-color="white" stop-opacity="0.14"/>
<stop offset="1" stop-color="white" stop-opacity="0"/>
</radialGradient>
<radialGradient id="paint24_radial_364_2616" cx="0" cy="0" r="1" gradientUnits="userSpaceOnUse" gradientTransform="translate(470.5 471.955) rotate(1.71454) scale(451.202 451.202)">
<stop stop-color="white" stop-opacity="0.14"/>
<stop offset="1" stop-color="white" stop-opacity="0"/>
</radialGradient>
<radialGradient id="paint25_radial_364_2616" cx="0" cy="0" r="1" gradientUnits="userSpaceOnUse" gradientTransform="translate(470.5 471.955) rotate(1.71454) scale(451.202 451.202)">
<stop stop-color="white" stop-opacity="0.14"/>
<stop offset="1" stop-color="white" stop-opacity="0"/>
</radialGradient>
<radialGradient id="paint26_radial_364_2616" cx="0" cy="0" r="1" gradientUnits="userSpaceOnUse" gradientTransform="translate(470.5 471.955) rotate(1.71454) scale(451.202 451.202)">
<stop stop-color="white" stop-opacity="0.14"/>
<stop offset="1" stop-color="white" stop-opacity="0"/>
</radialGradient>
<radialGradient id="paint27_radial_364_2616" cx="0" cy="0" r="1" gradientUnits="userSpaceOnUse" gradientTransform="translate(470.5 471.955) rotate(1.71454) scale(451.202 451.202)">
<stop stop-color="white" stop-opacity="0.14"/>
<stop offset="1" stop-color="white" stop-opacity="0"/>
</radialGradient>
<clipPath id="clip0_364_2616">
<rect width="943" height="943" fill="white"/>
</clipPath>
</defs>
</svg>
