<svg width="39" height="38" viewBox="0 0 39 38" fill="none" xmlns="http://www.w3.org/2000/svg">
<path fill-rule="evenodd" clip-rule="evenodd" d="M0.404541 18.9656L2.41753 16.9526L3.32096 17.856L2.2114 18.9656L3.32096 20.0752L2.41753 20.9786L0.404541 18.9656ZM4.65626 16.088L5.10815 14.262L3.96918 15.4009L4.65626 16.088ZM9.12056 10.2496H10.9274L19.3418 1.83518L27.7561 10.2495L29.563 10.2495L19.3418 0.0283203L9.12056 10.2496ZM27.7369 27.7009L19.3418 36.096L11.1665 27.9207H9.35963L19.3418 37.9029L29.5437 27.7009L27.7369 27.7009ZM33.5535 23.6911L34.0134 21.8292L34.7144 22.5302L33.5535 23.6911ZM36.4722 18.9656L35.3675 17.8608L36.2709 16.9574L38.2791 18.9656L36.2709 20.9738L35.3675 20.0703L36.4722 18.9656Z" fill="#FFB600"/>
<path fill-rule="evenodd" clip-rule="evenodd" d="M20.7526 26.4236L18.8063 25.2168L20.952 16.529H29.9438L30.0924 15.8238L32.3211 14.5183H8.5145L10.0679 15.8238L8.24843 23.1907L10.6818 22.049H13.5239L14.2075 19.3851H11.3651L11.8101 17.6603L14.1099 16.529H18.9467L16.801 25.2168L14.3573 26.4236H5.57417L3.76099 25.0229L6.75872 12.8852L5.42192 11.5275H20.1986L21.8519 12.8852L22.1873 11.5273L33.5453 11.5275L34.9098 12.8852L33.9774 16.6603L32.0307 17.6603L33.4689 18.7054L31.5627 26.4235L20.7526 26.4236ZM25.7906 22.049L23.4366 23.1907L24.3636 19.3851H29.3163L28.6326 22.049H25.7906Z" fill="#F0F0F0"/>
</svg>
