<svg width="103" height="29" viewBox="0 0 103 29" fill="none" xmlns="http://www.w3.org/2000/svg">
<path fill-rule="evenodd" clip-rule="evenodd" d="M10.6558 15.5335H17.7865V13.7568H10.6558V15.5335Z" fill="#FF71CD"/>
<path fill-rule="evenodd" clip-rule="evenodd" d="M19.3379 20.2837H17.714V16.8429H10.5832V20.2837H8.97537V9.11724H10.5993V12.4776H17.7301V9.11724H19.354V20.2757H19.3379V20.2837ZM14.1526 0.804688C6.45106 0.804688 0.20459 7.05116 0.20459 14.7527C0.20459 22.4543 6.45106 28.7008 14.1526 28.7008C21.8542 28.7008 28.1007 22.4623 28.1007 14.7527C28.1007 7.04312 21.8542 0.804688 14.1526 0.804688Z" fill="#FF71CD"/>
<path fill-rule="evenodd" clip-rule="evenodd" d="M49.4285 13.853H42.0726V8.53906H40.1995V21.0159H42.0726V15.6055H49.4285V21.0159H51.3016V8.53906H49.4285V13.853Z" fill="#FF71CD"/>
<path fill-rule="evenodd" clip-rule="evenodd" d="M57.7474 12.0762C55.2231 12.0762 53.3018 14.0458 53.3018 16.6424C53.3018 19.2632 55.2714 21.2087 57.8922 21.2087C60.8988 21.2087 61.952 19.1909 62.0967 18.4915L62.1208 18.3709H60.3923L60.3682 18.4191C60.3441 18.4674 59.7653 19.5768 57.9163 19.5768C56.3808 19.5768 55.2473 18.4915 55.1025 16.9319H62.2173V16.8354C62.2173 14.0458 60.3682 12.0762 57.7474 12.0762ZM57.7474 13.6117C58.9774 13.6117 59.8135 14.2387 60.2235 15.4366H55.2231C55.5769 14.2628 56.4933 13.6117 57.7474 13.6117Z" fill="#FF71CD"/>
<path fill-rule="evenodd" clip-rule="evenodd" d="M70.9179 13.4668C70.4838 12.8639 69.503 12.0761 67.8871 12.0761C65.3387 12.0761 63.562 13.9492 63.562 16.6423C63.562 19.3355 65.3387 21.2086 67.8871 21.2086C69.6155 21.2086 70.5561 20.2439 70.9179 19.7455V20.9996H72.6704V8.08057H70.9179V13.4668ZM68.2006 19.5766C66.5446 19.5766 65.411 18.3708 65.411 16.6423C65.411 14.9139 66.5687 13.708 68.2006 13.708C69.8326 13.708 70.9661 14.9139 70.9661 16.6423C70.9661 18.3708 69.8165 19.5766 68.2006 19.5766Z" fill="#FF71CD"/>
<path fill-rule="evenodd" clip-rule="evenodd" d="M79.214 12.0762C76.6897 12.0762 74.7683 14.0458 74.7683 16.6424C74.7683 19.2632 76.7379 21.2087 79.3587 21.2087C82.3654 21.2087 83.4185 19.1909 83.5632 18.4915L83.5873 18.3709H81.8589L81.8348 18.4191C81.8107 18.4674 81.2318 19.5768 79.3828 19.5768C77.8473 19.5768 76.7138 18.4915 76.5691 16.9319H83.6838V16.8354C83.6597 14.0458 81.8348 12.0762 79.214 12.0762ZM79.214 13.6117C80.444 13.6117 81.2801 14.2387 81.6901 15.4366H76.6897C77.0273 14.2628 77.9438 13.6117 79.214 13.6117Z" fill="#FF71CD"/>
<path fill-rule="evenodd" clip-rule="evenodd" d="M87.4144 13.5391V12.2689H85.6538V21.0156H87.4064V16.0876C87.4064 14.5521 88.2022 13.9733 90.2683 13.9733H92.5515V12.2207H90.3166C88.564 12.2207 87.7762 12.9844 87.4144 13.5391Z" fill="#FF71CD"/>
<path fill-rule="evenodd" clip-rule="evenodd" d="M100.349 13.4679C100.011 12.9856 99.1189 12.0771 97.4146 12.0771C95.3003 12.0771 93.1619 13.6368 93.1619 16.6434C93.1619 19.3366 94.9144 21.2097 97.4146 21.2097C99.0466 21.2097 99.9389 20.3415 100.349 19.7707V21.0248H102.101V12.2701H100.349V13.4679ZM100.397 16.6434C100.397 18.3477 99.2636 19.5777 97.7281 19.5777C96.1203 19.5777 94.9868 18.3719 94.9868 16.6434C94.9868 14.915 96.1203 13.7091 97.7281 13.7091C99.2636 13.7091 100.397 14.9552 100.397 16.6434Z" fill="#FF71CD"/>
</svg>
