<svg width="89" height="26" viewBox="0 0 89 26" fill="none" xmlns="http://www.w3.org/2000/svg">
<path fill-rule="evenodd" clip-rule="evenodd" d="M12.6113 0.191406C5.73884 0.191406 0.166504 5.76373 0.166504 12.6363C0.166504 19.5088 5.73884 25.0811 12.6113 25.0811C19.484 25.0811 25.0563 19.5088 25.0563 12.6363C25.0419 5.76373 19.484 0.191406 12.6113 0.191406ZM12.7972 13.0363L11.5113 17.4085H18.4266C18.6695 17.4085 18.8266 17.6371 18.7696 17.8657L18.1694 19.9374C18.1122 20.1375 17.9265 20.2803 17.7122 20.2803H7.13904L8.92505 14.2365L6.95333 14.8509L7.38197 13.4221L9.36806 12.8077L11.8827 4.32064C11.9399 4.12061 12.1256 3.97773 12.3399 3.97773H15.0118C15.2546 3.97773 15.4119 4.20634 15.3547 4.43495L13.2258 11.6075L15.1976 10.9931L14.7689 12.4362L12.7972 13.0363Z" fill="#FF71CD"/>
<path d="M32.2432 3.96344H31.4716C31.3287 3.96344 31.2286 4.04917 31.2 4.19205L29.1997 20.0374C29.1855 20.1946 29.2283 20.2661 29.3856 20.2661H30.157C30.3143 20.2661 30.4 20.1946 30.4286 20.0374L32.4431 4.19205C32.486 4.03488 32.4003 3.96344 32.2432 3.96344Z" fill="#FF71CD"/>
<path d="M35.5152 8.5356H36.2867C36.4439 8.5356 36.501 8.62133 36.4867 8.7785L35.0722 20.0517C35.0436 20.2089 34.9437 20.2803 34.8008 20.2803H34.0292C33.8863 20.2803 33.8006 20.2089 33.8149 20.0517L35.2437 8.76421C35.2723 8.60704 35.3723 8.5356 35.5152 8.5356Z" fill="#FF71CD"/>
<path fill-rule="evenodd" clip-rule="evenodd" d="M70.0921 8.34986C69.0205 8.34986 68.0918 8.64991 67.306 9.26429C66.5201 9.87867 66.0058 10.6788 65.7486 11.679C65.5343 12.4934 65.3485 13.6364 65.2628 14.408L65.2424 14.5937L65.242 14.5969C65.1367 15.5555 65.0485 16.3589 65.0485 17.137C65.0627 18.1514 65.3914 18.9516 66.0058 19.5659C66.6344 20.166 67.4917 20.4804 68.5776 20.4804C69.6349 20.4804 70.5636 20.1803 71.3494 19.5659C72.1353 18.9658 72.6497 18.1514 72.9069 17.137C73.0784 16.4654 73.2499 15.5653 73.3927 14.408C73.5356 13.2078 73.6071 12.2933 73.6071 11.6647C73.6071 10.6645 73.2927 9.86439 72.664 9.26429C72.021 8.64991 71.1637 8.34986 70.0921 8.34986ZM72.2639 13.3078C72.1925 13.8793 72.1497 14.2508 72.1353 14.408C71.9924 15.5796 71.8639 16.4083 71.7496 16.9084C71.5781 17.6514 71.2066 18.2514 70.6494 18.7087C70.0921 19.1659 69.4349 19.3802 68.7062 19.3802C67.9633 19.3802 67.3774 19.1516 66.9345 18.7087C66.4915 18.2657 66.2772 17.6799 66.2772 16.9512C66.2772 16.5655 66.3202 16.0797 66.3916 15.5081C66.463 14.9366 66.5059 14.5651 66.5201 14.408C66.663 13.2935 66.7916 12.4648 66.9059 11.9076C67.0774 11.1646 67.4488 10.5645 68.0061 10.1073C68.5633 9.65007 69.2206 9.43575 69.9492 9.43575C70.6922 9.43575 71.278 9.66436 71.721 10.093C72.1639 10.5359 72.3782 11.1217 72.3782 11.8504C72.3782 12.2648 72.3354 12.7363 72.2639 13.3078Z" fill="#FF71CD"/>
<path d="M77.2505 8.5356H78.0078C78.165 8.5356 78.2221 8.62133 78.2078 8.7785L76.7933 20.0517C76.7647 20.2089 76.6648 20.2803 76.5219 20.2803H75.7503C75.6074 20.2803 75.5217 20.2089 75.5359 20.0517L76.979 8.76421C77.0076 8.62133 77.1076 8.5356 77.2505 8.5356Z" fill="#FF71CD"/>
<path d="M87.7522 9.20714C87.2235 8.6499 86.4805 8.37843 85.509 8.37843C84.8802 8.37843 84.3087 8.49274 83.7802 8.73563C83.2515 8.97853 82.8085 9.33573 82.437 9.82152C82.3656 9.87867 82.337 9.86439 82.337 9.77866L82.4513 8.7785C82.4657 8.63562 82.4084 8.54989 82.2656 8.54989H81.4941C81.3512 8.54989 81.2512 8.63562 81.2226 8.7785L79.808 20.0517C79.7938 20.1946 79.8366 20.2803 79.9938 20.2803H80.7653C80.9082 20.2803 81.0082 20.1946 81.0225 20.0517L82.0512 11.9647C82.2227 11.2075 82.5799 10.5931 83.1086 10.1501C83.6373 9.70722 84.2659 9.47861 85.0089 9.47861C85.6947 9.47861 86.2376 9.69293 86.6378 10.1216C87.0378 10.5502 87.2378 11.1217 87.2378 11.8504C87.2378 12.0647 87.2235 12.2362 87.2093 12.3648L86.2234 20.0517C86.2234 20.1232 86.2234 20.166 86.252 20.2089C86.2948 20.2518 86.352 20.2803 86.4377 20.2803H87.2093C87.3522 20.2803 87.4521 20.2089 87.4665 20.0517L88.4523 12.179C88.4809 11.8647 88.4952 11.6361 88.4952 11.4789C88.5381 10.5073 88.2809 9.75008 87.7522 9.20714Z" fill="#FF71CD"/>
<path d="M35.5152 4.37779C35.7437 3.90629 36.3295 3.73483 36.7867 3.97773C37.2582 4.22063 37.4297 4.79215 37.1869 5.26365C36.944 5.72087 36.3725 5.90661 35.9152 5.66371C35.458 5.42082 35.2723 4.83501 35.5152 4.37779Z" fill="#FF71CD"/>
<path d="M78.565 3.97773C78.1079 3.73483 77.522 3.90629 77.2935 4.37779C77.0506 4.83501 77.2363 5.42082 77.6935 5.66371C78.1508 5.90661 78.7365 5.72087 78.9795 5.26365C79.208 4.79215 79.0223 4.22063 78.565 3.97773Z" fill="#FF71CD"/>
<path d="M57.2472 9.26429C58.0331 8.66419 58.9618 8.34986 60.0334 8.34986C61.1194 8.34986 61.9623 8.64991 62.6053 9.23571C63.234 9.83581 63.5484 10.6359 63.5484 11.6361V11.9076C63.5484 11.9933 63.4769 12.0505 63.4055 12.0505H62.5052C62.4053 12.0505 62.3195 11.9647 62.3195 11.8647V11.8504C62.3195 11.1217 62.1052 10.5359 61.6623 10.093C61.2193 9.65007 60.6193 9.43575 59.8905 9.43575C59.1619 9.43575 58.5046 9.65007 57.9474 10.1073C57.3901 10.5645 57.0187 11.1646 56.8472 11.9076C56.7329 12.4648 56.6043 13.2935 56.4614 14.408C56.4519 14.512 56.4237 14.7474 56.3891 15.0356C56.3715 15.1829 56.3522 15.3439 56.3329 15.5081C56.2615 16.0797 56.2185 16.5655 56.2185 16.9512C56.2185 17.6799 56.4328 18.2657 56.8758 18.7087C57.3187 19.1516 57.9046 19.3802 58.6475 19.3802C59.3762 19.3802 60.0334 19.1659 60.5907 18.7087C61.1479 18.2514 61.5194 17.6514 61.6909 16.9084C61.6909 16.9084 61.7051 16.8798 61.7051 16.8655C61.7194 16.7798 61.7908 16.7512 61.848 16.7512H62.8054C62.8624 16.7512 62.9196 16.8084 62.9054 16.8798C62.9029 16.8944 62.9001 16.9091 62.897 16.9237C62.8937 16.9391 62.89 16.9546 62.8863 16.97L62.8768 17.0078L62.8669 17.0482C62.8596 17.0778 62.8531 17.1074 62.8482 17.137C62.591 18.1514 62.0766 18.9658 61.2907 19.5659C60.5049 20.1803 59.5762 20.4804 58.5189 20.4804C57.433 20.4804 56.5757 20.166 55.9471 19.5659C55.3327 18.9516 55.004 18.1514 54.9898 17.137C54.9898 16.3603 55.0904 15.4456 55.1854 14.5811V14.5782L55.2041 14.408C55.2755 13.7793 55.4756 12.4934 55.6899 11.679C55.9471 10.6788 56.4614 9.87867 57.2472 9.26429Z" fill="#FF71CD"/>
<path fill-rule="evenodd" clip-rule="evenodd" d="M52.275 9.26429C51.6463 8.66419 50.789 8.34986 49.7174 8.34986C48.6458 8.34986 47.7171 8.64991 46.9313 9.26429C46.1454 9.87867 45.6311 10.6788 45.3739 11.679C45.1705 12.4522 45.0699 13.1481 44.9136 14.2314L44.8881 14.408C44.731 15.5796 44.6738 16.3083 44.6738 17.137C44.688 18.1514 45.0167 18.9516 45.6311 19.5659C46.2597 20.166 47.117 20.4804 48.2029 20.4804C49.2602 20.4804 50.1889 20.1803 50.9747 19.5659C51.7606 18.9658 52.275 18.1514 52.5322 17.137C52.5393 17.0939 52.5501 17.0508 52.5608 17.0078C52.5669 16.9836 52.5731 16.9594 52.5785 16.9352C52.5826 16.9167 52.5863 16.8983 52.5894 16.8798C52.6036 16.8084 52.5608 16.7512 52.4894 16.7512H51.532C51.4748 16.7512 51.4034 16.7798 51.3891 16.8655C51.3891 16.8798 51.3749 16.9084 51.3749 16.9084C51.2034 17.6514 50.8319 18.2514 50.2747 18.7087C49.7174 19.1659 49.0602 19.3802 48.3315 19.3802C47.5886 19.3802 47.0027 19.1516 46.5598 18.7087C46.1168 18.2657 45.9025 17.6799 45.9025 16.9512C45.9025 16.6083 45.9311 16.1797 45.9883 15.6939L52.9322 13.5364C53.0751 13.4935 53.1323 13.4221 53.1609 13.2506C53.2038 12.8934 53.2324 12.2791 53.2324 11.6504C53.218 10.7502 52.9036 9.86439 52.275 9.26429ZM52.0035 12.5077C52.0035 12.5791 51.9607 12.6363 51.8892 12.6505L46.1312 14.4365V14.408C46.2741 13.2935 46.4026 12.4648 46.517 11.9076C46.6883 11.1646 47.0599 10.5645 47.6171 10.1073C48.1743 9.65007 48.8315 9.43575 49.5603 9.43575C50.3033 9.43575 50.8891 9.66436 51.3319 10.093C52.0321 10.8217 52.0463 11.5647 52.0035 12.5077Z" fill="#FF71CD"/>
<path d="M42.3019 19.223C42.3305 19.0659 42.1734 18.9658 42.0305 19.0373C41.5446 19.2659 40.6017 19.4945 40.1158 19.0944C39.7629 18.7551 39.8356 18.1448 39.9171 17.4598L39.9301 17.3513L40.7732 10.5645H43.1735C43.2306 10.5645 43.3164 10.5502 43.3592 10.5073C43.4021 10.4502 43.4164 10.4073 43.4307 10.3216L43.5021 9.77866C43.5021 9.63578 43.4449 9.55005 43.302 9.55005H40.8874L41.3303 5.8066C41.3589 5.678 41.3161 5.57799 41.1446 5.57799H40.4016C40.2445 5.57799 40.1444 5.64943 40.1302 5.8066L39.7872 8.43559L39.6443 9.62149L38.63 17.8942C38.5013 18.9801 38.7299 19.8517 39.6157 20.2518C40.3874 20.5947 41.3447 20.4804 42.0305 20.2232C42.1162 20.1803 42.1876 20.0946 42.202 19.9946L42.3019 19.223Z" fill="#FF71CD"/>
</svg>
