<svg width="73" height="72" viewBox="0 0 73 72" fill="none" xmlns="http://www.w3.org/2000/svg">
<path d="M22.475 27.3041C25.4789 22.4998 30.8162 19.3041 36.8999 19.3041C38.8247 19.3041 40.6748 19.624 42.3999 20.2135M15.076 26.3041C15.5056 25.3682 15.9936 24.4647 16.5353 23.5982C20.7761 16.8156 28.3111 12.3041 36.8999 12.3041C39.6172 12.3041 42.2291 12.7557 44.6646 13.5879C45.1656 13.7591 45.6591 13.9464 46.1445 14.1492M9.1831 24.8041C9.32286 24.4676 9.46857 24.1342 9.6201 23.8041C10.157 22.6342 10.767 21.5048 11.4442 20.4217C16.7451 11.9435 26.1639 6.30408 36.8999 6.30408C40.2966 6.30408 43.5615 6.86859 46.6058 7.90891C47.232 8.12291 47.8489 8.35704 48.4557 8.61053C48.9438 8.81443 49.4253 9.03085 49.8999 9.2594M7.5 30.3041C7.61696 29.7279 7.75043 29.1577 7.89989 28.5941M50.3248 44.3041C47.3209 49.1084 41.9836 52.3041 35.8999 52.3041C33.9751 52.3041 32.125 51.9842 30.3999 51.3947M57.7238 45.3041C57.2942 46.24 56.8062 47.1435 56.2645 48.01C52.0238 54.7925 44.4887 59.3041 35.8999 59.3041C33.1826 59.3041 30.5707 58.8525 28.1352 58.0202C27.6342 57.849 27.1407 57.6617 26.6553 57.4589M63.6167 46.8041C63.4769 47.1406 63.3312 47.4739 63.1797 47.8041C62.6428 48.974 62.0328 50.1034 61.3556 51.1864C56.0547 59.6646 46.6359 65.3041 35.8999 65.3041C32.5032 65.3041 29.2383 64.7396 26.194 63.6992C25.5678 63.4853 24.9509 63.2511 24.3441 62.9976C23.856 62.7937 23.3745 62.5773 22.8999 62.3488M65.2998 41.3041C65.1829 41.8803 65.0494 42.4504 64.8999 43.0141M31.0745 37.6185C30.9606 37.1996 30.8999 36.759 30.8999 36.3041C30.8999 33.5427 33.1385 31.3041 35.8999 31.3041C36.0096 31.3041 36.1184 31.3076 36.2263 31.3146M31.0745 37.6185L22.4905 42.4703C22.1075 42.6868 21.8065 43.0235 21.6343 43.4283L12.5817 64.7019C12.1909 65.6203 12.5371 66.6864 13.393 67.2L15.2646 68.3229C16.1801 68.8722 17.3655 68.6056 17.9577 67.7173L35.564 41.3079C35.5672 41.3032 35.5703 41.2984 35.5735 41.2936M31.0745 37.6185C31.6241 39.6413 33.4118 41.1543 35.5735 41.2936M35.5735 41.2936C35.6814 41.3005 35.7902 41.3041 35.8999 41.3041C38.6613 41.3041 40.8999 39.0655 40.8999 36.3041C40.8999 35.8492 40.8392 35.4085 40.7253 34.9897M40.7253 34.9897C40.1757 32.9669 38.388 31.4539 36.2263 31.3146M40.7253 34.9897L49.3093 30.1379C49.6923 29.9214 49.9933 29.5847 50.1655 29.1799L59.2181 7.90631C59.609 6.98782 59.2627 5.92177 58.4068 5.40821L56.5352 4.28524C55.6197 3.73597 54.4343 4.00254 53.8421 4.89082L36.2358 31.3002C36.2326 31.305 36.2295 31.3098 36.2263 31.3146" stroke="#E30437" stroke-width="2" stroke-linecap="round" stroke-linejoin="round"/>
</svg>
