<svg width="36" height="37" viewBox="0 0 36 37" fill="none" xmlns="http://www.w3.org/2000/svg">
<path d="M10.9875 14.2346C12.4894 11.8324 15.1581 10.2346 18.2 10.2346C19.1624 10.2346 20.0874 10.3945 20.95 10.6893M7.28802 13.7346C7.5028 13.2666 7.74679 12.8148 8.01766 12.3816C10.138 8.99034 13.9056 6.73456 18.1999 6.73456C19.5586 6.73456 20.8646 6.96036 22.0823 7.37649C22.3328 7.46209 22.5795 7.55574 22.8223 7.65714M4.34155 12.9846C4.41143 12.8163 4.48429 12.6496 4.56005 12.4846C4.82852 11.8996 5.13351 11.3349 5.4721 10.7934C8.12255 6.55429 12.832 3.73456 18.1999 3.73456C19.8983 3.73456 21.5307 4.01681 23.0529 4.53697C23.366 4.64397 23.6744 4.76104 23.9778 4.88779C24.2219 4.98973 24.4626 5.09794 24.6999 5.21222M3.5 15.7346C3.55848 15.4465 3.62521 15.1614 3.69995 14.8796M24.9124 22.7346C23.4105 25.1367 20.7418 26.7346 17.6999 26.7346C16.7375 26.7346 15.8125 26.5746 14.9499 26.2799M28.6119 23.2346C28.3971 23.7025 28.1531 24.1543 27.8822 24.5875C25.7619 27.9788 21.9944 30.2346 17.7 30.2346C16.3413 30.2346 15.0353 30.0088 13.8176 29.5926C13.5671 29.507 13.3204 29.4134 13.0776 29.312M31.5584 23.9846C31.4885 24.1528 31.4156 24.3195 31.3399 24.4846C31.0714 25.0695 30.7664 25.6342 30.4278 26.1757C27.7773 30.4148 23.0679 33.2346 17.7 33.2346C16.0016 33.2346 14.3692 32.9523 12.847 32.4321C12.5339 32.3251 12.2255 32.2081 11.9221 32.0813C11.678 31.9794 11.4373 31.8712 11.2 31.7569M32.3999 21.2346C32.3414 21.5226 32.2747 21.8077 32.2 22.0896M15.2872 19.3918C15.2303 19.1823 15.2 18.962 15.2 18.7346C15.2 17.3538 16.3192 16.2346 17.7 16.2346C17.7548 16.2346 17.8092 16.2363 17.8632 16.2398M15.2872 19.3918L10.9952 21.8177C10.8037 21.9259 10.6533 22.0943 10.5671 22.2967L6.04085 32.9334C5.84543 33.3927 6.01854 33.9257 6.44651 34.1825L7.38232 34.744C7.84004 35.0186 8.43277 34.8853 8.72887 34.4412L17.532 21.2365C17.5336 21.2341 17.5352 21.2317 17.5367 21.2293M15.2872 19.3918C15.5621 20.4032 16.4559 21.1597 17.5367 21.2293M17.5367 21.2293C17.5907 21.2328 17.6451 21.2346 17.7 21.2346C19.0807 21.2346 20.2 20.1153 20.2 18.7346C20.2 18.5071 20.1696 18.2868 20.1127 18.0774M20.1127 18.0774C19.8378 17.066 18.944 16.3095 17.8632 16.2398M20.1127 18.0774L24.4047 15.6515C24.5962 15.5432 24.7466 15.3749 24.8328 15.1725L29.3591 4.53567C29.5545 4.07643 29.3814 3.54341 28.9534 3.28662L28.0176 2.72514C27.5599 2.4505 26.9671 2.58379 26.671 3.02793L17.8679 16.2326C17.8663 16.235 17.8647 16.2374 17.8632 16.2398" stroke="white" stroke-linecap="round" stroke-linejoin="round"/>
</svg>
