<svg width="88" height="23" viewBox="0 0 88 23" fill="none" xmlns="http://www.w3.org/2000/svg">
<path d="M17.0695 14.3278C16.3728 13.9239 15.5869 13.8075 14.8083 13.7821C14.1552 13.7602 13.182 13.3418 13.182 12.1448C13.1857 11.7136 13.358 11.301 13.6618 10.9951C13.9657 10.6892 14.3772 10.5142 14.8083 10.5076C15.5869 10.4803 16.3728 10.3638 17.0695 9.96181C17.6951 9.59956 18.2144 9.07909 18.5752 8.45266C18.9361 7.82624 19.1257 7.11591 19.1252 6.393C19.1247 5.67008 18.9339 4.96004 18.5722 4.33415C18.2104 3.70827 17.6904 3.18857 17.0642 2.82725C16.4381 2.46594 15.7279 2.27571 15.005 2.27568C14.2821 2.27564 13.5719 2.46581 12.9457 2.82707C12.3195 3.18833 11.7994 3.70798 11.4376 4.33383C11.0758 4.95968 10.885 5.66971 10.8844 6.39262C10.8844 7.19123 11.1682 7.92617 11.532 8.60836C11.8358 9.18139 11.9904 10.2456 10.9444 10.8477C10.5664 11.0581 10.1209 11.1119 9.70363 10.9977C9.28634 10.8834 8.93046 10.6101 8.71232 10.2365C8.30301 9.58161 7.80274 8.96309 7.11692 8.56834C6.49051 8.20702 5.78005 8.01691 5.05691 8.01713C4.33377 8.01735 3.62342 8.20788 2.99723 8.56957C2.37104 8.93127 1.85108 9.45139 1.48957 10.0777C1.12806 10.704 0.937744 11.4144 0.937744 12.1375C0.937744 12.8607 1.12806 13.5711 1.48957 14.1974C1.85108 14.8237 2.37104 15.3438 2.99723 15.7055C3.62342 16.0672 4.33377 16.2577 5.05691 16.2579C5.78005 16.2581 6.49051 16.068 7.11692 15.7067C7.8082 15.3065 8.30301 14.6935 8.71232 14.0386C9.04886 13.4928 9.8875 12.8161 10.9444 13.4273C11.3157 13.6497 11.585 14.0088 11.6945 14.4274C11.804 14.8461 11.745 15.291 11.5302 15.6667C11.1664 16.3489 10.8844 17.0838 10.8844 17.8824C10.8844 18.9756 11.3186 20.024 12.0916 20.797C12.8646 21.57 13.9129 22.0042 15.0061 22.0043C15.7296 22.0045 16.4404 21.8143 17.0671 21.4527C17.6937 21.091 18.2142 20.5708 18.576 19.9443C19.1227 18.9978 19.2712 17.8728 18.9887 16.8169C18.7063 15.7609 18.016 14.8604 17.0697 14.3132L17.0695 14.3278Z" fill="#F0F0F0" fill-opacity="0.67"/>
<path d="M24.7979 5.88126H27.6667V7.23471C28.0493 6.7693 28.5299 6.39412 29.0742 6.13594C29.6186 5.87776 30.2132 5.74297 30.8157 5.74118C31.2243 5.72587 31.6329 5.77311 32.0272 5.88126V9.15574C32.0272 9.15574 31.6307 9.01567 30.6756 9.01567C29.0383 9.01567 27.9469 10.1072 27.9469 11.7444V18.4298H24.7979V5.88126ZM40.2153 5.88126H43.0841V7.09464C44.0636 6.22988 45.3231 5.74909 46.6296 5.74118C49.7786 5.74118 52.5073 8.46992 52.5073 12.1555C52.5073 15.8412 49.7786 18.5699 46.6296 18.5699C45.4264 18.573 44.2642 18.1333 43.3642 17.3347V22.9322H40.2153V5.88126ZM49.3584 12.1555C49.3584 10.1035 48.0049 8.75007 46.2331 8.75007C44.4612 8.75007 43.0841 10.0981 43.0841 12.1555C43.0841 14.213 44.4594 15.5556 46.2349 15.5556C48.0104 15.5556 49.3584 14.2094 49.3584 12.1555ZM54.8159 5.88126H57.6847V7.09464C58.6644 6.23031 59.9237 5.74958 61.2302 5.74118C64.3792 5.74118 67.1079 8.46992 67.1079 12.1555C67.1079 15.8412 64.3792 18.5699 61.2302 18.5699C60.0272 18.5719 58.8653 18.1324 57.9648 17.3347V22.9322H54.8159V5.88126ZM63.9608 12.1555C63.9608 10.1035 62.6073 8.75007 60.8336 8.75007C59.06 8.75007 57.6847 10.0981 57.6847 12.1555C57.6847 14.213 59.0618 15.5556 60.8336 15.5556C62.6055 15.5556 63.9608 14.2094 63.9608 12.1555ZM69.4183 1.24058H72.5672V18.4298H69.4183V1.24058ZM74.8757 12.1555C74.8757 8.61182 77.7446 5.74118 81.15 5.74118C84.4372 5.74118 87.166 8.33166 87.166 12.1555C87.1528 12.571 87.106 12.9847 87.0259 13.3926H78.2812C78.5614 14.6059 79.5255 15.5556 81.15 15.5556C82.6199 15.5556 83.2039 14.8806 83.2039 14.8806H86.6093C85.9781 16.5179 84.0188 18.5644 81.1518 18.5644C77.7446 18.5699 74.8757 15.7011 74.8757 12.1555ZM84.1535 11.2005C84.0103 10.5083 83.6329 9.8866 83.0848 9.44025C82.5367 8.9939 81.8514 8.75018 81.1446 8.75018C80.4377 8.75018 79.7525 8.9939 79.2044 9.44025C78.6563 9.8866 78.2788 10.5083 78.1357 11.2005H84.1535ZM33.8646 2.59221C33.8647 2.11895 34.0528 1.66512 34.3874 1.33047C34.7221 0.995828 35.1759 0.807762 35.6492 0.807617C36.0021 0.807617 36.3472 0.912282 36.6406 1.10838C36.9341 1.30447 37.1629 1.58319 37.2979 1.90928C37.433 2.23537 37.4683 2.59419 37.3995 2.94037C37.3306 3.28655 37.1607 3.60453 36.9111 3.85411C36.6615 4.10369 36.3435 4.27366 35.9973 4.34252C35.6512 4.41138 35.2923 4.37604 34.9662 4.24097C34.6402 4.10589 34.3614 3.87716 34.1653 3.58368C33.9692 3.29021 33.8646 2.94517 33.8646 2.59221ZM34.0756 5.88126H37.23V18.4335H34.0811L34.0756 5.88126Z" fill="#F0F0F0" fill-opacity="0.67"/>
</svg>
