<svg width="99" height="15" viewBox="0 0 99 15" fill="none" xmlns="http://www.w3.org/2000/svg">
<path d="M16.2602 11.505L13.6447 14.3094C13.5881 14.3704 13.5196 14.419 13.4434 14.4522C13.3673 14.4855 13.285 14.5027 13.2019 14.5028H0.803399C0.744265 14.5028 0.686423 14.4855 0.636956 14.4531C0.587491 14.4207 0.548548 14.3746 0.524894 14.3204C0.501241 14.2662 0.493906 14.2063 0.503786 14.148C0.513666 14.0897 0.540332 14.0355 0.580521 13.9921L3.19306 11.1877C3.24964 11.1268 3.31814 11.0782 3.39433 11.0449C3.47051 11.0116 3.55274 10.9944 3.63587 10.9943H16.0344C16.094 10.9931 16.1527 11.0095 16.2031 11.0416C16.2534 11.0737 16.2933 11.1199 16.3173 11.1745C16.3415 11.2291 16.3489 11.2896 16.3387 11.3484C16.3285 11.4072 16.3012 11.4617 16.2602 11.505ZM13.6447 5.85631C13.5879 5.79568 13.5194 5.74726 13.4432 5.71401C13.3671 5.68077 13.285 5.6634 13.2019 5.66297H0.803399C0.744265 5.663 0.686423 5.68027 0.636956 5.71268C0.587491 5.74508 0.548548 5.7912 0.524894 5.8454C0.501241 5.8996 0.493906 5.95951 0.503786 6.01782C0.513666 6.07612 0.540332 6.13029 0.580521 6.17367L3.19306 8.97957C3.24984 9.04021 3.31841 9.08862 3.39454 9.12188C3.47067 9.15511 3.5528 9.17249 3.63587 9.17292H16.0344C16.0934 9.17261 16.151 9.15511 16.2003 9.12261C16.2496 9.0901 16.2882 9.04396 16.3117 8.98982C16.3352 8.93568 16.3424 8.87587 16.3324 8.8177C16.3225 8.75953 16.2959 8.70551 16.2558 8.66223L13.6447 5.85631ZM0.803399 3.84155H13.2019C13.285 3.84148 13.3673 3.82425 13.4434 3.79098C13.5196 3.75773 13.5881 3.70911 13.6447 3.64819L16.2602 0.843773C16.3012 0.800455 16.3285 0.74596 16.3387 0.687142C16.3489 0.628324 16.3415 0.567812 16.3173 0.51322C16.2933 0.458628 16.2534 0.412396 16.2031 0.380341C16.1527 0.348286 16.094 0.33184 16.0344 0.333072H3.63587C3.55274 0.33316 3.47051 0.350374 3.39433 0.383641C3.31814 0.416908 3.24964 0.465515 3.19306 0.52643L0.580521 3.33085C0.540332 3.37423 0.513666 3.4284 0.503786 3.4867C0.493906 3.54501 0.501241 3.60492 0.524894 3.65912C0.548548 3.71332 0.587491 3.75944 0.636956 3.79184C0.686423 3.82425 0.744265 3.84152 0.803399 3.84155Z" fill="#F0F0F0"/>
<path fill-rule="evenodd" clip-rule="evenodd" d="M70.7884 1.95719H64.2939C64.0076 1.95564 63.7239 2.01049 63.4588 2.11861C63.1937 2.22674 62.9524 2.38602 62.749 2.58736C62.5454 2.78871 62.3835 3.02817 62.2725 3.29207C62.1615 3.55598 62.1035 3.83917 62.1021 4.12546V12.8797H64.3161V9.29151H70.781V12.8797H72.995V4.12546C72.9935 3.83792 72.9351 3.55352 72.8232 3.28863C72.7112 3.02376 72.5481 2.78364 72.3429 2.58209C72.1379 2.38056 71.895 2.22159 71.6281 2.11434C71.3612 2.0071 71.0759 1.95369 70.7884 1.95719ZM70.7722 7.10701H64.3072V4.14169H70.7722V7.10701Z" fill="#F0F0F0"/>
<path fill-rule="evenodd" clip-rule="evenodd" d="M40.8091 1.95717H47.4674C47.7537 1.95562 48.0374 2.01047 48.3025 2.11859C48.5676 2.22672 48.8089 2.386 49.0123 2.58734C49.2159 2.78869 49.3778 3.02815 49.4888 3.29205C49.5998 3.55596 49.6578 3.83915 49.6593 4.12544V10.7114C49.6578 10.9977 49.5998 11.2809 49.4888 11.5448C49.3778 11.8087 49.2159 12.0482 49.0123 12.2495C48.8089 12.4509 48.5676 12.6101 48.3025 12.7183C48.0374 12.8264 47.7537 12.8812 47.4674 12.8797H40.8091C40.5223 12.882 40.2379 12.8277 39.9721 12.72C39.7064 12.6122 39.4645 12.453 39.2603 12.2516C39.056 12.0502 38.8937 11.8105 38.7824 11.5462C38.671 11.2819 38.6128 10.9982 38.6113 10.7114V4.12544C38.6128 3.83865 38.671 3.55497 38.7824 3.29068C38.8937 3.02638 39.056 2.78666 39.2603 2.58525C39.4645 2.38381 39.7064 2.22467 39.9721 2.11689C40.2379 2.00911 40.5223 1.95484 40.8091 1.95717ZM40.8253 10.6952H47.4512L47.4482 4.14167H40.8253V10.6952Z" fill="#F0F0F0"/>
<path d="M27.984 6.32613H34.6172C34.9037 6.32458 35.1879 6.37954 35.4531 6.48785C35.7183 6.59616 35.9597 6.7557 36.1634 6.95735C36.3669 7.15901 36.5287 7.39881 36.6395 7.66306C36.7504 7.92731 36.8079 8.21081 36.8091 8.49735V10.7114C36.8076 10.9977 36.7496 11.2808 36.6386 11.5448C36.5276 11.8087 36.3657 12.0481 36.1622 12.2495C35.9588 12.4508 35.7175 12.6101 35.4524 12.7182C35.1873 12.8263 34.9036 12.8812 34.6172 12.8796H25.928V10.6951H34.604V8.51064H27.9619C27.6754 8.5122 27.3913 8.45725 27.126 8.34894C26.8608 8.24063 26.6195 8.08109 26.4158 7.87942C26.2122 7.67777 26.0505 7.43796 25.9396 7.17371C25.8288 6.90947 25.7712 6.62596 25.77 6.33942V4.1254C25.7715 3.83911 25.8295 3.55592 25.9405 3.29201C26.0515 3.02811 26.2134 2.78864 26.417 2.5873C26.6203 2.38596 26.8617 2.22668 27.1268 2.11855C27.3919 2.01043 27.6756 1.95558 27.9619 1.95713H36.3412V4.14163H27.984V6.32613Z" fill="#F0F0F0"/>
<path fill-rule="evenodd" clip-rule="evenodd" d="M90.1462 1.95713H96.6406C96.927 1.95558 97.2107 2.01043 97.4758 2.11855C97.7409 2.22668 97.982 2.38596 98.1856 2.5873C98.3891 2.78864 98.551 3.02811 98.662 3.29201C98.773 3.55592 98.831 3.83911 98.8325 4.1254V12.8796H96.6185V9.29145H90.1683V12.8796H87.9543V4.1254C87.9558 3.83911 88.0138 3.55592 88.1248 3.29201C88.2358 3.02811 88.3977 2.78864 88.6012 2.5873C88.8048 2.38596 89.046 2.22668 89.3111 2.11855C89.5762 2.01043 89.8599 1.95558 90.1462 1.95713ZM90.1536 7.10695H96.6185V4.14163H90.1536V7.10695Z" fill="#F0F0F0"/>
<path d="M83.7773 10.6951H82.8917L79.7256 2.87225C79.6172 2.60236 79.4304 2.37105 79.1896 2.20801C78.9487 2.04496 78.6645 1.95759 78.3736 1.95712H76.409C76.218 1.95615 76.0288 1.99279 75.8521 2.06496C75.6753 2.13713 75.5146 2.24341 75.3788 2.37772C75.2431 2.51206 75.1352 2.67178 75.0613 2.84781C74.9873 3.02382 74.9488 3.21269 74.9478 3.40361V12.8796H77.1618V4.14162H78.0474L81.212 11.9645C81.3222 12.2339 81.5104 12.4642 81.7524 12.6262C81.9941 12.7881 82.2788 12.8743 82.5699 12.8737H84.5345C84.7255 12.8747 84.9147 12.8381 85.0914 12.7659C85.2682 12.6937 85.4289 12.5874 85.5647 12.4531C85.7004 12.3188 85.8083 12.1591 85.8822 11.983C85.9562 11.807 85.9947 11.6182 85.9957 11.4272V1.95712H83.7773V10.6951Z" fill="#F0F0F0"/>
<path d="M51.6151 1.95717H53.8291V10.6952H60.4564V12.8797H53.8143C53.5274 12.8822 53.2428 12.8281 52.9768 12.7204C52.711 12.6127 52.4688 12.4536 52.2645 12.2521C52.0602 12.0507 51.8977 11.8109 51.7863 11.5465C51.6749 11.2821 51.6166 10.9983 51.6151 10.7114V1.95717Z" fill="#F0F0F0"/>
</svg>
