<svg width="24" height="24" viewBox="0 0 24 24" fill="none" xmlns="http://www.w3.org/2000/svg">
<path d="M9 17C9 17.7956 8.68393 18.5587 8.12132 19.1213C7.55871 19.6839 6.79565 20 6 20C5.20435 20 4.44129 19.6839 3.87868 19.1213C3.31607 18.5587 3 17.7956 3 17C3 16.2044 3.31607 15.4413 3.87868 14.8787C4.44129 14.3161 5.20435 14 6 14C6.79565 14 7.55871 14.3161 8.12132 14.8787C8.68393 15.4413 9 16.2044 9 17ZM9 17V9M14.4201 14.4502C14.0353 14.6888 13.7096 15.0115 13.4673 15.3939C13.225 15.7764 13.0724 16.2087 13.0209 16.6585C12.9694 17.1083 13.0204 17.5639 13.1701 17.9912C13.3197 18.4185 13.5642 18.8063 13.885 19.1257C14.2059 19.4451 14.5949 19.6878 15.0229 19.8354C15.4508 19.9831 15.9067 20.032 16.3562 19.9785C16.8058 19.9249 17.2374 19.7704 17.6187 19.5263C18.0001 19.2822 18.3212 18.955 18.5581 18.5692M9 5V4H19V15M12 8H19M3 3L21 21" stroke="#A9AABF" stroke-width="2" stroke-linecap="round" stroke-linejoin="round"/>
</svg>
