<svg width="24" height="25" viewBox="0 0 24 25" fill="none" xmlns="http://www.w3.org/2000/svg">
<path d="M9 17.5C9 18.2956 8.68393 19.0587 8.12132 19.6213C7.55871 20.1839 6.79565 20.5 6 20.5C5.20435 20.5 4.44129 20.1839 3.87868 19.6213C3.31607 19.0587 3 18.2956 3 17.5C3 16.7044 3.31607 15.9413 3.87868 15.3787C4.44129 14.8161 5.20435 14.5 6 14.5C6.79565 14.5 7.55871 14.8161 8.12132 15.3787C8.68393 15.9413 9 16.7044 9 17.5ZM9 17.5V4.5H19V17.5M19 17.5C19 18.2956 18.6839 19.0587 18.1213 19.6213C17.5587 20.1839 16.7956 20.5 16 20.5C15.2044 20.5 14.4413 20.1839 13.8787 19.6213C13.3161 19.0587 13 18.2956 13 17.5C13 16.7044 13.3161 15.9413 13.8787 15.3787C14.4413 14.8161 15.2044 14.5 16 14.5C16.7956 14.5 17.5587 14.8161 18.1213 15.3787C18.6839 15.9413 19 16.7044 19 17.5ZM9 8.5H19" stroke="#A9AABF" stroke-width="2" stroke-linecap="round" stroke-linejoin="round"/>
</svg>
