<svg width="87" height="22" viewBox="0 0 87 22" fill="none" xmlns="http://www.w3.org/2000/svg">
<g clip-path="url(#clip0_2007_3423)">
<path d="M66.6219 3.20696H68.5459V18.4603H66.6219V3.20696ZM62.7912 3.20696H64.6979V18.4603H62.7912V3.20696ZM77.6112 13.7283C77.6112 16.3976 75.8952 17.2123 74.1098 17.2123C72.7405 17.2123 71.9258 16.5016 71.9258 15.4269C71.9258 13.8669 74.1445 13.3469 77.6112 13.0176V13.7283ZM79.3445 14.2136L79.3618 11.5789C79.3965 8.37228 78.0445 6.91628 74.8725 6.91628C72.6885 6.91628 70.4872 8.28561 70.3312 10.7296H72.3072C72.3938 9.32561 73.2952 8.47628 74.8898 8.47628C76.3285 8.47628 77.4552 9.15228 77.4552 11.2323V11.5096C72.8272 12.0123 69.7938 12.8096 69.7938 15.4789C69.7938 17.5589 71.5618 18.7376 73.6938 18.7376C75.7045 18.7376 76.8658 18.0963 77.5592 16.9176C77.5765 17.4376 77.6285 17.9576 77.7152 18.4603H79.6392C79.3965 17.3856 79.3272 16.1029 79.3445 14.1963V14.2136ZM86.2605 7.08962C84.7698 7.14162 83.6431 7.83495 83.0711 9.11761V7.14162H81.1992V18.4603H83.1058V12.5149C83.1058 10.0016 83.9898 9.04828 85.7578 9.04828C86.1218 9.06561 86.4685 9.08294 86.8325 9.15228V7.10695C86.6418 7.08962 86.4511 7.08962 86.2605 7.08962ZM48.3352 4.31629H46.4112V7.14162H44.6259V8.68428H46.4112V15.6176C46.4112 17.9749 46.9139 18.4603 49.0806 18.4603H50.4846V16.8483H49.5139C48.4219 16.8483 48.3352 16.5536 48.3352 15.3923V8.68428H50.4846V7.14162H48.3352V4.31629ZM39.0966 9.72428L37.3286 9.32561C35.8899 8.99628 34.8326 8.33761 34.8326 6.98562C34.8326 5.26962 36.8953 4.74962 38.0739 4.74962C39.5993 4.74962 41.3672 5.35629 41.8699 7.10695H43.9499C43.3432 4.17762 40.9166 2.94696 38.1779 2.94696C35.7166 2.94696 32.6659 4.17762 32.6659 7.10695C32.6659 9.63761 34.7459 10.8163 36.8433 11.2669L38.7499 11.6656C40.6739 12.1163 42.0259 12.7403 42.0259 14.3696C42.0259 15.8776 40.7433 16.9349 38.4726 16.9349C36.0979 16.9349 34.6593 15.8429 34.2606 13.7283H32.1633C32.5619 16.7616 34.8326 18.7376 38.4206 18.7376C41.4539 18.7376 44.2272 17.1429 44.2272 14.1616C44.2272 11.0936 41.4192 10.2096 39.0966 9.70694V9.72428ZM52.8072 11.8043C52.9806 9.51628 54.5406 8.59761 56.2219 8.59761C58.2672 8.59761 59.4112 10.1923 59.4805 11.8043H52.8072ZM56.2219 6.95095C53.1366 6.95095 50.7272 9.23894 50.7272 12.8269C50.7272 16.1723 52.7032 18.7376 56.2739 18.7376C59.0299 18.7376 60.8499 17.1256 61.3352 15.1843H59.3939C58.9085 16.2936 57.9725 17.0563 56.2912 17.0563C54.6099 17.0563 52.8592 15.8776 52.8072 13.4509H61.5085C61.7512 9.84561 59.7059 6.96828 56.2392 6.96828L56.2219 6.95095ZM25.7673 5.42562L5.55667 15.7216L3.78867 16.6056L0.166016 18.4603V20.6789L3.77134 18.8416L6.85667 17.2643L21.7633 9.67228C22.4046 14.5256 18.99 18.9803 14.1366 19.6216C13.7553 19.6736 13.3567 19.7083 12.958 19.7083C11.45 19.7083 9.95933 19.3096 8.62466 18.5643L8.52066 18.6336L6.614 19.5869C11.45 23.1056 18.2273 22.0309 21.746 17.1776C23.0806 15.3403 23.8086 13.1216 23.8086 10.8336C23.8086 10.5563 23.8086 10.2789 23.774 10.0016C23.722 9.20428 24.138 8.45895 24.8486 8.09495L25.7673 7.60961V5.42562ZM22.162 2.84296L19.0766 4.40295L4.18734 11.9949C3.54601 7.14162 6.978 2.68696 11.8313 2.04563C13.7206 1.80296 15.6446 2.16696 17.3086 3.10296L19.0766 2.20163L19.3366 2.06296C14.5006 -1.4557 7.72333 -0.363701 4.20467 4.47229C2.85268 6.32695 2.14201 8.54561 2.14201 10.8336C2.14201 11.1109 2.14201 11.3883 2.15934 11.6656C2.22868 12.4456 1.81268 13.2083 1.10201 13.5723L0.166016 14.0403V16.2589L2.90468 14.8549L3.78867 14.4043L4.67267 13.9709L20.3593 5.96295L22.1273 5.06162L25.7673 3.20696V0.988296L22.162 2.84296Z" fill="#F0F0F0"/>
</g>
<defs>
<clipPath id="clip0_2007_3423">
<rect width="86.6665" height="21.6493" fill="white" transform="translate(0.166016)"/>
</clipPath>
</defs>
</svg>
