<svg width="94" height="21" viewBox="0 0 94 21" fill="none" xmlns="http://www.w3.org/2000/svg">
<path d="M13.0396 10.3782C16.0407 10.3782 18.549 9.87056 19.1629 9.19268C18.6423 8.61779 16.7594 8.1654 14.369 8.04118V9.47323C13.9405 9.4955 13.4958 9.50724 13.0396 9.50724C12.5836 9.50724 12.1388 9.4955 11.7103 9.47323V8.04118C9.31991 8.1654 7.43704 8.61779 6.91649 9.19268C7.53036 9.87056 10.0387 10.3782 13.0396 10.3782Z" fill="#F0F0F0"/>
<path fill-rule="evenodd" clip-rule="evenodd" d="M6.132 0.49707H20.1877C20.5231 0.49707 20.833 0.674082 21.0002 0.961254L25.0952 7.99213C25.3076 8.35672 25.2445 8.81695 24.9416 9.11263L13.67 20.115C13.3049 20.4714 12.7175 20.4714 12.3523 20.115L1.09593 9.12745C0.785983 8.82492 0.727945 8.35131 0.955864 7.98445L5.33311 0.938698C5.50358 0.664299 5.8061 0.49707 6.132 0.49707ZM18.3729 3.6361V5.60885H14.369V6.97663C17.1811 7.12279 19.2908 7.72308 19.3066 8.44264L19.3064 9.94271C19.2908 10.6623 17.1811 11.2626 14.369 11.4088V14.7654H11.7103V11.4088C8.89829 11.2626 6.78845 10.6623 6.7728 9.94271L6.77289 8.44264C6.78854 7.72308 8.89829 7.12279 11.7103 6.97663V5.60885H7.70642V3.6361H18.3729Z" fill="#F0F0F0"/>
<path d="M30.5822 4.31243L33.8314 3.9514V7.06521H36.6518V9.77287H33.8088V13.9697C33.8088 14.9625 34.23 15.459 35.0724 15.459C35.6139 15.459 36.0651 15.3687 36.4262 15.1882L37.1708 17.8958C36.4337 18.1816 35.6515 18.3471 34.8242 18.3922C33.5155 18.4524 32.4776 18.144 31.7104 17.4671C30.9583 16.7751 30.5822 15.6094 30.5822 13.9697V9.77287H28.5966V7.06521H30.5822V4.31243Z" fill="#F0F0F0"/>
<path fill-rule="evenodd" clip-rule="evenodd" d="M40.6218 13.6313H48.8123C49.1583 11.42 48.8048 9.71264 47.7518 8.50923C46.7139 7.30585 45.2096 6.70414 43.2391 6.70414C41.434 6.70414 39.9974 7.23816 38.9295 8.30617C37.8614 9.35918 37.3275 10.7431 37.3275 12.4579C37.3275 14.2781 37.8689 15.7222 38.952 16.7901C40.0501 17.8582 41.592 18.3922 43.5775 18.3922C45.6534 18.3922 47.2479 17.8432 48.361 16.745L46.5334 14.7143C45.8564 15.3009 44.8938 15.5943 43.6453 15.5943C42.7728 15.5943 42.0734 15.4138 41.5469 15.0527C41.0204 14.6767 40.712 14.2028 40.6218 13.6313ZM45.9016 11.2621H40.6218C40.7872 10.7055 41.1031 10.2692 41.5694 9.95333C42.0357 9.63741 42.5923 9.47949 43.2391 9.47949C43.9612 9.47949 44.5779 9.63741 45.0893 9.95333C45.6008 10.2542 45.8715 10.6904 45.9016 11.2621Z" fill="#F0F0F0"/>
<path d="M51.5211 4.31243L54.7703 3.9514V7.06521H57.5907V9.77287H54.7477V13.9697C54.7477 14.9625 55.1689 15.459 56.0112 15.459C56.5528 15.459 57.004 15.3687 57.3651 15.1882L58.1097 17.8958C57.3726 18.1816 56.5904 18.3471 55.7631 18.3922C54.4544 18.4524 53.4164 18.144 52.6493 17.4671C51.8972 16.7751 51.5211 15.6094 51.5211 13.9697V9.77287H49.5355V7.06521H51.5211V4.31243Z" fill="#F0F0F0"/>
<path d="M62.5997 2.34934H59.328V18.144H62.5772V12.503C62.5772 11.6456 62.8103 10.9762 63.2766 10.4949C63.758 10.0135 64.3522 9.77283 65.0592 9.77283C65.706 9.77283 66.2175 9.98342 66.5935 10.4046C66.9846 10.8258 67.1802 11.42 67.1802 12.1872V18.144H70.4293V12.1646C70.4293 8.59952 68.9476 6.81697 65.9843 6.81697C64.5252 6.81697 63.397 7.33594 62.5997 8.37389V2.34934Z" fill="#F0F0F0"/>
<path fill-rule="evenodd" clip-rule="evenodd" d="M83.1721 13.6313H74.9818C75.0721 14.2028 75.3805 14.6767 75.9066 15.0527C76.4332 15.4138 77.1329 15.5943 78.0057 15.5943C79.2538 15.5943 80.2169 15.3009 80.8932 14.7143L82.7214 16.745C81.608 17.8432 80.0137 18.3922 77.938 18.3922C75.9517 18.3922 74.4102 17.8582 73.3121 16.7901C72.2291 15.7222 71.6875 14.2781 71.6875 12.4579C71.6875 10.7431 72.2215 9.35918 73.2896 8.30617C74.3575 7.23816 75.7937 6.70414 77.5994 6.70414C79.5698 6.70414 81.0738 7.30585 82.112 8.50923C83.1646 9.71264 83.5182 11.42 83.1721 13.6313ZM74.9818 11.2621H80.262C80.2319 10.6904 79.961 10.2542 79.4494 9.95333C78.9378 9.63741 78.3209 9.47949 77.5994 9.47949C76.9524 9.47949 76.3956 9.63741 75.9291 9.95333C75.4631 10.2692 75.1473 10.7055 74.9818 11.2621Z" fill="#F0F0F0"/>
<path d="M87.5432 7.02004H84.5194V18.144H87.7689V12.3451C87.7689 11.5478 88.0172 10.9236 88.5137 10.4723C89.0103 10.006 89.6265 9.77283 90.3638 9.77283C91.0258 9.77283 91.6195 9.96085 92.1461 10.3369L93.5004 7.76461C92.7329 7.08773 91.8226 6.74927 90.77 6.74927C89.491 6.74927 88.4987 7.24568 87.7915 8.23845L87.5432 7.02004Z" fill="#F0F0F0"/>
</svg>
