<svg width="78" height="24" viewBox="0 0 78 24" fill="none" xmlns="http://www.w3.org/2000/svg">
<path d="M31.7421 9.6748H30.4595V18.0497H31.7421V9.6748Z" fill="#F0F0F0"/>
<path d="M37.4896 6.12695H27.0347V7.40962H37.4896V6.12695Z" fill="#F0F0F0"/>
<path d="M34.061 9.6748H32.7783V18.0497H34.061V9.6748Z" fill="#F0F0F0"/>
<path d="M69.4941 18.0574H70.7884V13.0134L69.4941 11.5747V18.0574Z" fill="#F0F0F0"/>
<path d="M76.3102 6.12607V15.4774L67.1553 5.30273V18.0572H68.4466V8.70296L77.6073 18.8805V6.12607H76.3102Z" fill="#F0F0F0"/>
<path d="M58.7751 6.12012C55.4847 6.12012 52.8096 8.79523 52.8096 12.0857C52.8096 15.3761 55.4847 18.0512 58.7751 18.0512C62.0656 18.0512 64.7407 15.3761 64.7407 12.0857C64.7407 8.79812 62.0656 6.12012 58.7751 6.12012ZM58.7751 16.7657C56.1954 16.7657 54.0951 14.6684 54.0951 12.0857C54.0951 9.50301 56.1925 7.40567 58.7751 7.40567C61.3549 7.40567 63.4551 9.50301 63.4551 12.0857C63.4551 14.6655 61.3549 16.7657 58.7751 16.7657Z" fill="#F0F0F0"/>
<path d="M58.7765 11.2275C58.3027 11.2275 57.9185 11.6118 57.9185 12.0855C57.9185 12.5593 58.3027 12.9435 58.7765 12.9435C59.2502 12.9435 59.6345 12.5593 59.6345 12.0855C59.6345 11.6118 59.2502 11.2275 58.7765 11.2275Z" fill="#F0F0F0"/>
<path d="M50.5657 9.78722C50.5657 7.77077 48.9364 6.12988 46.9344 6.12988H40.1108V18.061H41.3848V7.42411H46.9344C48.22 7.42411 49.2657 8.48433 49.2657 9.78722C49.2657 11.0843 48.2344 12.1388 46.9604 12.1532L42.4335 12.1503V18.061H43.7075V13.4446H46.6917L49.13 18.0581H50.612L48.0669 13.2626C49.5373 12.7743 50.5657 11.353 50.5657 9.78722Z" fill="#F0F0F0"/>
<path d="M18.212 3.76343L0.82666 0.56543L9.97578 23.5841L22.7216 8.05344L18.212 3.76343ZM17.9347 5.17321L20.5954 7.701L13.3211 9.01833L17.9347 5.17321ZM11.7409 8.75544L4.07378 2.39699L16.6029 4.70232L11.7409 8.75544ZM11.192 9.88211L9.94401 20.2157L3.20422 3.2521L11.192 9.88211ZM12.3476 10.4281L20.4018 8.96922L11.166 20.2243L12.3476 10.4281Z" fill="#F0F0F0"/>
</svg>
