<svg width="95" height="23" viewBox="0 0 95 23" fill="none" xmlns="http://www.w3.org/2000/svg">
<path d="M74.6472 12.8381C74.6472 10.4496 76.2178 8.52223 78.7238 8.52223C81.2297 8.52223 82.8003 10.4496 82.8003 12.8381C82.8003 15.2265 81.2297 17.1713 78.7238 17.1713C76.2178 17.1713 74.6472 15.2222 74.6472 12.8381ZM81.4516 12.8381C81.4516 11.1674 80.4814 9.66644 78.7238 9.66644C76.9661 9.66644 75.9785 11.1674 75.9785 12.8381C75.9785 14.5261 76.9661 16.0271 78.7238 16.0271C80.4814 16.0271 81.4516 14.5261 81.4516 12.8381ZM84.0272 6.47743C84.0276 6.25138 84.1175 6.03469 84.2773 5.87485C84.4372 5.71501 84.6539 5.62506 84.8799 5.62471C84.9932 5.6231 85.1056 5.64393 85.2108 5.686C85.316 5.72807 85.4118 5.79054 85.4926 5.86981C85.5735 5.94909 85.6379 6.04359 85.6821 6.14788C85.7263 6.25217 85.7494 6.36417 85.7501 6.47743C85.7494 6.70799 85.6575 6.92891 85.4945 7.09194C85.3314 7.25498 85.1105 7.34687 84.8799 7.34756C84.4188 7.34756 84.0272 6.95165 84.0272 6.47743ZM84.5871 8.75151H85.1701C85.2601 8.75151 85.3464 8.78726 85.4101 8.8509C85.4737 8.91454 85.5095 9.00086 85.5095 9.09086V16.6348C85.5095 16.7248 85.4737 16.8112 85.4101 16.8748C85.3464 16.9384 85.2601 16.9742 85.1701 16.9742H84.5871C84.5426 16.9742 84.4985 16.9654 84.4573 16.9484C84.4161 16.9313 84.3787 16.9063 84.3472 16.8748C84.3157 16.8433 84.2907 16.8059 84.2736 16.7647C84.2566 16.7235 84.2478 16.6794 84.2478 16.6348V9.09086C84.2478 9.04629 84.2566 9.00216 84.2736 8.96099C84.2907 8.91982 84.3157 8.88241 84.3472 8.8509C84.3787 8.81939 84.4161 8.79439 84.4573 8.77734C84.4985 8.76028 84.5426 8.75151 84.5871 8.75151ZM92.9012 11.5794C92.9012 10.1272 92.1699 9.66514 91.0705 9.66514C90.0698 9.66514 89.1179 10.2803 88.642 10.9473V16.6353C88.642 16.7253 88.6062 16.8116 88.5426 16.8752C88.4789 16.9389 88.3926 16.9746 88.3026 16.9746H87.6761C87.5861 16.9746 87.4998 16.9389 87.4362 16.8752C87.3725 16.8116 87.3368 16.7253 87.3368 16.6353V9.09129C87.3368 9.00129 87.3725 8.91497 87.4362 8.85133C87.4998 8.78769 87.5861 8.75194 87.6761 8.75194H88.2591C88.3491 8.75194 88.4354 8.78769 88.4991 8.85133C88.5627 8.91497 88.5984 9.00129 88.5984 9.09129V9.94271C89.178 9.26053 90.3065 8.54746 91.5356 8.54746C93.261 8.54746 94.1673 9.41759 94.1673 11.2013V16.6335C94.1673 16.6781 94.1585 16.7222 94.1415 16.7634C94.1244 16.8046 94.0994 16.842 94.0679 16.8735C94.0364 16.905 93.999 16.93 93.9578 16.947C93.9166 16.9641 93.8725 16.9729 93.8279 16.9729H93.245C93.155 16.9729 93.0686 16.9371 93.005 16.8735C92.9414 16.8098 92.9056 16.7235 92.9056 16.6335V11.5794H92.9012ZM63.7271 11.2849C63.7271 7.78697 66.3026 5.40283 69.5265 5.40283C71.4364 5.40283 72.7764 6.2338 73.6813 7.37366C73.7082 7.40767 73.7274 7.44708 73.7377 7.48919C73.7479 7.53131 73.7489 7.57514 73.7407 7.61768C73.7324 7.66023 73.715 7.70049 73.6898 7.73572C73.6645 7.77094 73.632 7.8003 73.5943 7.82178L72.9591 8.17418C72.8891 8.21315 72.8075 8.22623 72.7288 8.21112C72.65 8.19601 72.5791 8.15366 72.5284 8.09152C72.1646 7.64688 71.7066 7.28861 71.1875 7.04257C70.6683 6.79654 70.101 6.6689 69.5265 6.66886C67.0858 6.66886 65.1932 8.57878 65.1932 11.2892C65.1932 13.9823 67.0858 15.9096 69.5265 15.9096C70.7664 15.9096 71.8584 15.3353 72.5284 14.4869C72.5785 14.4241 72.6491 14.3809 72.7279 14.365C72.8067 14.349 72.8886 14.3614 72.9591 14.3999L73.603 14.7523C73.6415 14.7736 73.6748 14.8031 73.7006 14.8387C73.7264 14.8743 73.744 14.9151 73.7523 14.9582C73.7606 15.0014 73.7594 15.0458 73.7486 15.0884C73.7378 15.131 73.7179 15.1708 73.6901 15.2048C72.7503 16.3534 71.4364 17.1713 69.5265 17.1713C66.3026 17.1669 63.7271 14.7828 63.7271 11.2849Z" fill="#F0F0F0"/>
<path fill-rule="evenodd" clip-rule="evenodd" d="M8.74883 21.9559C14.7113 23.4402 20.7392 19.806 22.2226 13.8544C23.7023 7.89925 20.0739 1.85312 14.1078 0.387066C8.15985 -1.09718 2.13556 2.53704 0.652214 8.48858C-0.831135 14.4401 2.79725 20.4681 8.74883 21.9559ZM13.5802 3.34453C13.6264 3.15922 13.8117 3.06662 13.997 3.15922C16.5445 3.99295 18.5825 5.98466 19.4163 8.62479C20.8058 13.025 18.3972 17.7032 13.997 19.0927C13.9507 19.1389 13.8581 19.1389 13.8117 19.1389C13.6264 19.0927 13.5338 18.9537 13.5338 18.7684V18.12C13.5338 17.8884 13.6264 17.7494 13.8117 17.6568C15.7107 16.962 17.2392 15.4799 17.934 13.5345C19.2773 9.96797 17.4246 5.93831 13.8117 4.64148C13.6728 4.54877 13.5338 4.36357 13.5338 4.17826V3.52984C13.5338 3.43713 13.5338 3.39089 13.5802 3.34453ZM14.5065 12.7471C14.5065 11.126 13.5338 10.5702 11.5884 10.3386C10.1989 10.1533 9.92098 9.78281 9.92098 9.13428C9.92098 8.48575 10.3842 8.069 11.3105 8.069C12.1442 8.069 12.6075 8.34691 12.839 9.04168C12.8854 9.18063 13.0243 9.27323 13.1633 9.27323H13.9043C14.0896 9.27323 14.2286 9.13428 14.2286 8.94908V8.90273C14.0433 7.88369 13.2095 7.09632 12.1442 7.00372V5.89209C12.1442 5.70678 12.0053 5.56783 11.7737 5.52147H11.079C10.8937 5.52147 10.7547 5.66043 10.7083 5.89209V6.95737C9.31881 7.14268 8.43883 8.069 8.43883 9.22699C8.43883 10.7555 9.36516 11.3575 11.3105 11.5892C12.6075 11.8208 13.0243 12.0987 13.0243 12.8398C13.0243 13.5809 12.3758 14.0904 11.4958 14.0904C10.2915 14.0904 9.87462 13.5808 9.73567 12.886C9.68943 12.7008 9.55047 12.6081 9.41152 12.6081H8.62403C8.43884 12.6081 8.29988 12.7471 8.29988 12.9324V12.9788C8.48508 14.1366 9.22621 14.9704 10.7547 15.202V16.3136C10.7547 16.4988 10.8937 16.6378 11.1252 16.6842H11.82C12.0053 16.6842 12.1442 16.5452 12.1906 16.3136V15.202C13.5801 14.9704 14.5065 13.9977 14.5065 12.7471ZM4.96501 8.71739C3.62171 12.2839 5.47447 16.3136 9.08729 17.6104C9.22624 17.7032 9.3652 17.8884 9.3652 18.0273V18.6758C9.3652 18.7684 9.3652 18.8148 9.31884 18.861C9.2726 19.0463 9.08729 19.1389 8.90198 19.0463C6.3082 18.2126 4.31648 16.2209 3.48275 13.6271C2.09321 9.22696 4.50179 4.54876 8.90198 3.15922C8.94833 3.11298 9.04093 3.11298 9.08729 3.11298C9.2726 3.15922 9.3652 3.29818 9.3652 3.48349V4.1319C9.3652 4.36357 9.2726 4.50252 9.08729 4.59512C7.18828 5.28989 5.65978 6.77203 4.96501 8.71739Z" fill="#F0F0F0"/>
<path d="M29.0418 5.44612H29.7572C29.8473 5.44612 29.9338 5.48195 29.9976 5.54571C30.0614 5.60948 30.0972 5.69597 30.0972 5.78615V12.3818C30.0972 14.4656 31.225 15.7821 33.3231 15.7821C35.4213 15.7821 36.549 14.4656 36.549 12.3818V5.78615C36.549 5.69597 36.5849 5.60948 36.6486 5.54571C36.7124 5.48195 36.7989 5.44612 36.8891 5.44612H37.6476C37.6922 5.44612 37.7365 5.45492 37.7777 5.47201C37.819 5.48909 37.8565 5.51414 37.888 5.54571C37.9196 5.57729 37.9447 5.61477 37.9617 5.65603C37.9788 5.69728 37.9876 5.7415 37.9876 5.78615V12.3993C37.9876 15.2372 36.4326 17.0463 33.3449 17.0463C30.2572 17.0463 28.7022 15.2198 28.7022 12.4167V5.78615C28.7015 5.74134 28.7098 5.69684 28.7266 5.6553C28.7434 5.61375 28.7684 5.57601 28.8001 5.5443C28.8317 5.51259 28.8694 5.48756 28.911 5.4707C28.9525 5.45383 28.997 5.44547 29.0418 5.44612ZM40.1512 14.4451C40.1773 14.4123 40.2099 14.3852 40.247 14.3657C40.2841 14.3462 40.3249 14.3346 40.3668 14.3317C40.4086 14.3289 40.4506 14.3348 40.49 14.349C40.5295 14.3633 40.5655 14.3856 40.5958 14.4146C41.3587 15.1557 42.5009 15.7965 43.9482 15.7965C45.9796 15.7965 46.6292 14.7023 46.6292 13.8304C46.6292 12.4616 45.2473 12.0867 43.7433 11.6769C41.9167 11.1974 39.8809 10.6874 39.8809 8.44666C39.8809 6.56778 41.5549 5.28613 43.7956 5.28613C45.4042 5.28613 46.6771 5.77874 47.6144 6.64625C47.6793 6.70559 47.7187 6.78775 47.7244 6.87551C47.7301 6.96327 47.7016 7.04983 47.6449 7.11706L47.2003 7.66197C47.1742 7.6936 47.1419 7.71952 47.1054 7.73811C47.0689 7.7567 47.0289 7.76756 46.988 7.77001C46.9471 7.77247 46.9061 7.76646 46.8676 7.75238C46.8292 7.73829 46.794 7.71642 46.7643 7.68814C45.9317 6.90781 44.8331 6.55034 43.691 6.55034C42.3221 6.55034 41.35 7.28707 41.35 8.35947C41.35 9.50598 42.6665 9.84601 44.1182 10.2384C45.9796 10.7353 48.0983 11.3151 48.0983 13.7084C48.0983 15.3649 46.9692 17.0564 43.8959 17.0564C42.0562 17.0564 40.6699 16.4068 39.7283 15.4652C39.6689 15.4061 39.6334 15.3272 39.6286 15.2435C39.6238 15.1599 39.65 15.0774 39.7022 15.0118L40.1512 14.4451ZM49.8015 5.82975C49.8015 5.73957 49.8373 5.65307 49.9011 5.58931C49.9649 5.52554 50.0513 5.48972 50.1415 5.48972H53.6883C57.2194 5.48972 59.5255 7.9619 59.5255 11.1874C59.5255 14.4303 57.2229 16.8676 53.6883 16.8676H50.1415C50.0513 16.8676 49.9649 16.8318 49.9011 16.768C49.8373 16.7042 49.8015 16.6178 49.8015 16.5276V5.82975ZM53.6678 15.6034C56.4303 15.6034 58.0315 13.6238 58.0315 11.1874C58.0315 8.72914 56.4783 6.75393 53.6678 6.75393H51.1965V15.6034H53.6678Z" fill="#F0F0F0"/>
</svg>
