<svg width="84" height="34" viewBox="0 0 84 34" fill="none" xmlns="http://www.w3.org/2000/svg">
<path fill-rule="evenodd" clip-rule="evenodd" d="M0.96582 17.1138C0.96582 7.87655 8.48739 0.35498 17.7246 0.35498C26.9756 0.35498 34.4835 7.87655 34.4835 17.1138C34.4835 26.3511 26.9619 33.8726 17.7246 33.8726C8.48739 33.8726 0.96582 26.3511 0.96582 17.1138ZM3.72461 17.1139C3.72461 24.8413 10.0109 31.1139 17.7246 31.1139C25.4521 31.1139 31.7246 24.8551 31.7246 17.1276C31.7246 9.40015 25.4521 3.1276 17.7246 3.1276C9.99716 3.1276 3.72461 9.38643 3.72461 17.1139Z" fill="#F0F0F0"/>
<path d="M48.6618 10.8276V11.8845L40.4403 22.3159H48.8403V23.3316H39.1089V22.2747L47.3305 11.8433H39.6579V10.8276H48.6618Z" fill="#F0F0F0"/>
<path d="M55.4693 15.536C55.0575 15.1516 54.4948 14.9595 53.7536 14.9595C53.2732 14.9458 52.7928 15.0693 52.3673 15.3026C51.983 15.5222 51.6399 15.8242 51.3791 16.1811C51.1183 16.5516 50.9124 16.9634 50.7889 17.4164C50.5281 18.336 50.5281 19.3105 50.7889 20.2438C50.9124 20.683 51.1183 21.1085 51.3791 21.4791C51.6399 21.836 51.983 22.1379 52.3673 22.3575C52.7928 22.5909 53.2732 22.7007 53.7536 22.6869C54.083 22.6869 54.4124 22.6183 54.7144 22.4948C55.0164 22.3713 55.2909 22.1928 55.5105 21.9595C55.7438 21.7262 55.9497 21.4516 56.0869 21.1497C56.2379 20.834 56.334 20.4771 56.3615 20.1203H57.4595C57.3085 21.2183 56.9105 22.0693 56.2517 22.6869C55.5928 23.3046 54.7556 23.6065 53.7262 23.6065C53.0399 23.6065 52.436 23.483 51.9007 23.236C51.3791 23.0026 50.9262 22.6458 50.5556 22.2065C50.185 21.7673 49.9105 21.2458 49.732 20.6967C49.3615 19.4889 49.3615 18.1987 49.732 17.0046C49.9105 16.4556 50.185 15.934 50.5556 15.4948C50.9262 15.0556 51.3791 14.7124 51.9007 14.4654C52.436 14.2046 53.0399 14.0811 53.7262 14.0811C54.6869 14.0811 55.5105 14.3418 56.183 14.8497C56.8556 15.3713 57.2536 16.1399 57.3771 17.183H56.2791C56.1556 16.4556 55.8811 15.9203 55.4693 15.536Z" fill="#F0F0F0"/>
<path d="M59.0795 15.7004C59.2579 15.3298 59.5187 15.0004 59.8344 14.7533C60.1776 14.5063 60.5619 14.3141 60.9599 14.2043C61.4266 14.0808 61.907 14.0259 62.3874 14.0259C62.7854 14.0259 63.1834 14.0671 63.5815 14.1357C63.9658 14.2043 64.3226 14.3553 64.6521 14.5612C64.9815 14.7808 65.2423 15.0965 65.4207 15.4533C65.6266 15.8376 65.7227 16.3318 65.7227 16.922V21.7259C65.7227 22.1651 65.9423 22.3984 66.3677 22.3984C66.4913 22.3984 66.6011 22.371 66.7246 22.3298V23.2494C66.6011 23.2769 66.4776 23.2906 66.3815 23.3043C66.2579 23.318 66.1344 23.3318 66.0109 23.318C65.7776 23.3318 65.5579 23.2906 65.3383 23.2082C65.1874 23.1396 65.0501 23.0298 64.9403 22.8925C64.8442 22.7416 64.7893 22.5769 64.7481 22.3847C64.7207 22.1651 64.707 21.9592 64.707 21.7533H64.6658C64.4736 22.0278 64.2815 22.2886 64.0619 22.5357C63.856 22.7553 63.6364 22.9474 63.3756 23.0984C63.1148 23.2494 62.8128 23.3729 62.5109 23.4553C62.1403 23.5376 61.756 23.5788 61.3717 23.5788C60.9736 23.5788 60.5756 23.5239 60.1913 23.4278C59.8344 23.3318 59.505 23.1808 59.2305 22.9612C58.956 22.7416 58.7364 22.4533 58.5854 22.1376C58.4207 21.7671 58.3383 21.369 58.3521 20.9573C58.3521 20.3259 58.4893 19.8318 58.7776 19.4886C59.0658 19.118 59.4501 18.8435 59.8893 18.6788C60.3972 18.4867 60.9187 18.3494 61.454 18.2808C62.0305 18.1984 62.6207 18.1298 63.2109 18.0612C63.4442 18.0337 63.6501 18.0063 63.8285 17.9788C63.9795 17.9514 64.1305 17.8827 64.2677 17.7867C64.3913 17.6906 64.4874 17.5671 64.5423 17.4298C64.6109 17.2376 64.6383 17.0318 64.6383 16.8396C64.6383 16.469 64.5697 16.1533 64.4462 15.92C64.3364 15.6867 64.1579 15.4945 63.9383 15.3573C63.705 15.22 63.4579 15.1102 63.1834 15.069C62.8815 15.0141 62.5795 14.9867 62.2638 14.9867C61.5638 14.9867 60.9874 15.1514 60.5481 15.4945C60.1089 15.8376 59.8756 16.3592 59.8481 17.1004H58.7501C58.7638 16.5925 58.8874 16.1259 59.0795 15.7004ZM64.5834 18.3906C64.5148 18.5141 64.3776 18.6102 64.1854 18.6651C64.007 18.72 63.8285 18.7612 63.6638 18.7886C63.1972 18.871 62.7168 18.9396 62.2227 19.0082C61.7697 19.0631 61.303 19.1592 60.8638 19.2965C60.4932 19.4063 60.1501 19.5847 59.8481 19.8455C59.5874 20.0788 59.4501 20.422 59.4501 20.8749C59.4364 21.1357 59.505 21.3965 59.6148 21.6161C59.7246 21.8357 59.8756 22.0278 60.054 22.1788C60.2462 22.3298 60.4658 22.4533 60.6991 22.5357C60.9462 22.618 61.1932 22.6592 61.454 22.6592C61.8658 22.6592 62.2638 22.5906 62.6619 22.4671C63.0325 22.3435 63.3756 22.1651 63.6776 21.9043C64.2815 21.3827 64.6246 20.6278 64.6109 19.818V18.3906H64.5834Z" fill="#F0F0F0"/>
<path d="M72.9569 16.057C72.8334 15.8099 72.6549 15.604 72.4353 15.4393C72.2157 15.2746 71.9686 15.1511 71.6941 15.0825C71.4059 15.0001 71.1039 14.9727 70.802 14.9727C70.5549 14.9727 70.2941 15.0001 70.0608 15.055C69.8137 15.1099 69.5804 15.1923 69.3608 15.3158C69.1549 15.4256 68.9765 15.5903 68.853 15.7962C68.7157 16.0158 68.6471 16.2766 68.6608 16.5374C68.6471 16.757 68.7157 16.9766 68.853 17.155C68.9765 17.3334 69.1412 17.4707 69.3196 17.5805C69.5118 17.704 69.7177 17.8001 69.9235 17.8687C70.1431 17.9511 70.349 18.006 70.5412 18.0609L72.0098 18.3903C72.3255 18.4452 72.6412 18.5276 72.9431 18.6374C73.2451 18.7472 73.5196 18.9119 73.7667 19.1178C74.0137 19.3236 74.2059 19.5707 74.3569 19.8589C74.5079 20.1746 74.5902 20.5315 74.5902 20.8883C74.5902 21.3687 74.4804 21.7942 74.2471 22.1374C74.0275 22.4805 73.7392 22.7687 73.3961 22.9884C73.0392 23.208 72.6412 23.3727 72.2294 23.455C71.8039 23.5511 71.3784 23.5923 70.953 23.5923C69.8961 23.5923 69.0314 23.3452 68.3726 22.8374C67.7137 22.3295 67.3431 21.5334 67.2471 20.4217H68.3451C68.4 21.1629 68.6608 21.7256 69.1549 22.1099C69.649 22.4942 70.2667 22.6727 71.0079 22.6727C71.2824 22.6727 71.5706 22.6452 71.8451 22.5903C72.1196 22.5354 72.3941 22.4393 72.6412 22.2884C72.8745 22.1511 73.0804 21.9727 73.2451 21.7531C73.4098 21.5197 73.4922 21.2315 73.4784 20.957C73.4922 20.7236 73.4235 20.4903 73.3137 20.2844C73.2039 20.0923 73.053 19.9413 72.8745 19.8315C72.6686 19.708 72.4628 19.5982 72.2432 19.5295C72.0098 19.4472 71.7628 19.3785 71.5157 19.3236L70.102 19.008C69.7588 18.9256 69.4294 18.8021 69.1 18.6785C68.8118 18.5687 68.551 18.4178 68.3039 18.2256C68.0843 18.0472 67.8922 17.8138 67.7686 17.5531C67.6314 17.2511 67.5628 16.9217 67.5765 16.5785C67.5628 16.1668 67.6726 15.7687 67.8784 15.3982C68.0843 15.0825 68.3451 14.808 68.6745 14.6158C69.0177 14.4099 69.3883 14.2589 69.7726 14.1766C70.1706 14.0805 70.5686 14.0393 70.9667 14.0393C71.3922 14.0256 71.8314 14.0942 72.2294 14.2178C72.6137 14.3276 72.9569 14.506 73.2588 14.7668C73.5608 15.0138 73.8079 15.3295 73.9726 15.6727C74.1647 16.0707 74.2608 16.5099 74.2745 16.9491H73.1765C73.1628 16.6334 73.0941 16.3315 72.9569 16.057Z" fill="#F0F0F0"/>
<path d="M77.0873 10.8276V15.8512H77.1285C77.3481 15.3021 77.7324 14.8355 78.2403 14.5198C78.7756 14.1904 79.3795 14.0119 80.0109 14.0119C80.6422 14.0119 81.1775 14.0943 81.5893 14.259C81.9873 14.3963 82.3305 14.6433 82.6187 14.959C82.8795 15.2747 83.0717 15.6453 83.1677 16.057C83.2775 16.5374 83.3324 17.0178 83.3187 17.5119V23.3316H82.2207V17.6904C82.2207 17.3335 82.1795 16.9629 82.1109 16.6198C82.0422 16.3178 81.9187 16.0159 81.7403 15.7551C81.5619 15.508 81.3148 15.3021 81.0266 15.1786C80.7246 15.0414 80.354 14.9727 79.9148 14.9727C79.503 14.959 79.105 15.0414 78.7344 15.2061C78.3913 15.357 78.103 15.5767 77.856 15.8512C77.6089 16.1394 77.4168 16.4688 77.2932 16.8257C77.156 17.2237 77.0736 17.6355 77.0736 18.061V23.3316H75.9756V10.8276H77.0873Z" fill="#F0F0F0"/>
<path d="M23.7093 11.8842V9.33125H19.125V6.53125H16.325V9.33125H11.7544V12.7214H18.8367L11.7544 22.343V24.896H16.325V27.696H19.125V24.896H23.7093V21.5058H16.6132L23.7093 11.8842Z" fill="#F0F0F0"/>
</svg>
