<svg width="84" height="32" viewBox="0 0 84 32" fill="none" xmlns="http://www.w3.org/2000/svg">
<g clip-path="url(#clip0_18564_71181)">
<g clip-path="url(#clip1_18564_71181)">
<mask id="mask0_18564_71181" style="mask-type:luminance" maskUnits="userSpaceOnUse" x="2" y="0" width="85" height="32">
<path d="M86.054 0.498047H2.96289V31.5022H86.054V0.498047Z" fill="white"/>
</mask>
<g mask="url(#mask0_18564_71181)">
<path opacity="0.01" d="M86.054 0.498047H2.96289V31.5022H86.054V0.498047Z" fill="white"/>
<path d="M21.4886 28.3546C19.9448 29.641 18.2114 30.6811 16.3697 31.4201C16.0717 31.5296 15.7467 31.5296 15.4759 31.4201C13.6341 30.6538 11.9008 29.6136 10.3569 28.3546L15.4488 26.2197C15.7467 26.1102 16.0717 26.1102 16.3697 26.2197L21.4886 28.3546ZM16.3697 17.68C16.0717 17.5705 15.7467 17.5705 15.4488 17.68L5.21089 21.9772C5.99634 23.51 6.97137 24.9333 8.136 26.2197L15.3134 23.2089C15.6925 23.0447 16.1529 23.0447 16.5322 23.2089L23.7095 26.2197C24.8471 24.9333 25.8491 23.51 26.6346 21.9772L16.3697 17.68ZM28.1242 14.0671L16.3697 9.14033C16.0717 9.03085 15.7467 9.03085 15.4488 9.14033L3.69417 14.0671C2.96289 14.3853 3.07123 14.3853 3.07123 14.6966C3.23373 16.2841 3.58583 17.8716 4.10043 19.377L15.3134 14.6692C15.6925 14.505 16.1529 14.505 16.5322 14.6692L27.7451 19.377C28.2597 17.8716 28.6118 16.2841 28.7742 14.6966C28.6388 14.3956 28.4221 14.1766 28.1242 14.0671ZM28.6659 5.96535C28.6388 5.91061 28.6118 5.88323 28.5576 5.82848L28.5034 5.77374C28.3951 5.66426 28.2597 5.58216 28.1242 5.52741L16.3697 0.600687C16.0717 0.463834 15.7467 0.463834 15.4488 0.600687L3.69417 5.52741C3.64 5.55478 3.58583 5.58216 3.53166 5.60953C3.45041 5.66426 3.39624 5.719 3.31499 5.77374C3.2879 5.80112 3.23373 5.85587 3.20665 5.91061C3.17957 5.96535 3.17957 5.93797 3.17957 5.96535C3.04414 6.15694 2.96289 6.40327 2.96289 6.64961V11.33L15.3134 6.15694C15.6925 5.99271 16.1529 5.99271 16.5322 6.15694L28.8826 11.33V6.64961C28.8826 6.40327 28.8014 6.15694 28.6659 5.96535Z" fill="white"/>
<path d="M52.3383 14.8602L51.6611 20.4163C51.6611 20.5806 51.5258 20.6901 51.3633 20.6627H49.6027C49.4131 20.6627 49.3319 20.5806 49.359 20.4163L50.0361 14.8602C50.0903 14.5864 50.1173 14.2853 50.1173 13.9843C50.1173 13.7379 50.0632 13.519 49.9278 13.3C49.7382 13.081 49.4131 12.9441 48.9256 12.9441C48.1944 12.9715 47.4631 13.0536 46.7589 13.2453L45.8922 20.389C45.8922 20.5532 45.7568 20.6627 45.5942 20.6353H43.8609C43.6713 20.6353 43.6171 20.5532 43.6171 20.389L44.2942 14.8875C44.3484 14.5864 44.3754 14.2853 44.3754 13.9843C44.4026 13.7379 44.3213 13.4915 44.213 13.3C44.0505 13.081 43.7254 12.9715 43.2379 12.9715C42.4795 12.999 41.7482 13.081 41.017 13.2726L40.1503 20.4163C40.1503 20.5806 40.0149 20.6901 39.8524 20.6627H38.119C37.9565 20.6627 37.8482 20.608 37.8752 20.4163L38.769 12.9715C38.8502 12.3421 39.1753 12.0957 40.1774 11.822C41.3149 11.5483 42.4796 11.384 43.6713 11.384C44.7547 11.384 45.4588 11.6303 45.8922 11.9862C47.0297 11.603 48.2485 11.4114 49.4403 11.384C50.4694 11.384 51.2278 11.4935 51.7695 11.8767C52.3111 12.2599 52.4736 12.7526 52.4736 13.6284C52.4466 14.0116 52.3924 14.4222 52.3383 14.8602Z" fill="white"/>
<path d="M61.7901 17.8161C61.3025 19.6774 60.2191 20.8817 57.7545 20.8817C56.9691 20.8817 56.1565 20.7996 55.3982 20.5806L55.4523 21.6481L55.2086 23.6461C55.2086 23.8377 55.0731 23.9745 54.8836 24.002L53.2044 24.303C52.9877 24.3304 52.8794 24.2482 52.9064 24.0293L54.2065 13.3274C54.2878 12.4241 54.6397 12.1777 55.4252 11.9315C56.5899 11.5757 57.7816 11.384 58.9734 11.384C60.2463 11.384 61.0317 11.6577 61.5463 12.2052C62.0609 12.7526 62.2505 13.519 62.2505 14.4769C62.2505 15.5991 62.088 16.7213 61.7901 17.8161ZM59.6234 13.4642C59.3796 13.0536 58.9462 12.9715 58.2691 12.9715C57.6462 12.999 57.0503 13.081 56.4545 13.2453L55.7774 19.0752C56.292 19.212 56.8337 19.2668 57.3754 19.2942C58.6483 19.2942 59.2442 18.8836 59.6234 17.2414C59.8129 16.4476 59.9213 15.5991 59.9213 14.778C59.8942 14.1211 59.84 13.7379 59.6234 13.4642Z" fill="white"/>
<path d="M71.6218 14.7781L71.1073 18.8563C70.9718 20.1428 70.4841 20.3891 69.3196 20.6628C68.534 20.827 67.7216 20.9092 66.9093 20.9092C65.9613 20.9092 64.905 20.8543 64.1466 20.4164C63.5508 20.0879 63.1445 19.5132 63.1445 18.5278C63.1445 17.7067 63.3341 16.8308 63.8487 16.2287C64.4446 15.5445 65.3384 15.4076 66.2322 15.2708L69.347 14.7781L69.4007 14.2307C69.4282 14.1759 69.4282 14.0939 69.4282 14.0117V13.7927C69.455 13.519 69.2927 13.2726 69.0492 13.1906C68.6426 13.0537 68.2094 12.999 67.776 13.0263C66.5842 13.0263 65.3925 13.3821 64.7695 13.519C64.7425 13.5464 64.7154 13.5464 64.6883 13.5464H64.6342C64.5529 13.5464 64.4987 13.4916 64.4716 13.3821L64.3633 12.3147C64.3362 12.0957 64.4987 12.041 64.5799 11.9863C65.8259 11.6031 67.0991 11.4114 68.3992 11.3841C69.6448 11.3841 70.4029 11.5483 70.9175 11.8768C71.5407 12.2326 71.7305 12.7801 71.7305 13.4643C71.7305 13.8749 71.6761 14.3128 71.6218 14.7781ZM66.9904 16.5846C66.4488 16.6666 65.9884 16.7214 65.7176 17.1867C65.555 17.4877 65.4467 17.8436 65.4738 18.1994C65.4467 18.5552 65.6092 18.911 65.9071 19.1026C66.2593 19.3764 66.7467 19.3764 67.2071 19.3764C67.7491 19.3764 68.2905 19.2942 68.805 19.13L69.1572 16.2561L66.9904 16.5846Z" fill="white"/>
<path d="M77.7154 21.7308C77.0386 23.3457 76.361 24.2762 74.2217 24.2762C73.7073 24.3036 73.1653 24.2489 72.6507 24.1667C72.4884 24.112 72.3797 24.0847 72.4341 23.8931L72.5695 22.9078C72.5964 22.7435 72.6239 22.6067 72.8943 22.6067C72.9485 22.6067 73.5175 22.6614 73.8965 22.6614C74.7907 22.6614 75.2508 22.415 75.5761 21.6213L75.9278 20.6907H74.8175C74.6551 20.6907 74.5739 20.6086 74.5197 20.417L73.0297 12.0142C73.0029 11.85 73.1109 11.6857 73.2739 11.631C73.3007 11.631 73.3276 11.631 73.3551 11.631H75.061C75.224 11.6037 75.3595 11.7405 75.3863 11.9047L76.3342 19.2127H76.7676L79.3133 11.9321C79.3677 11.7678 79.53 11.631 79.7198 11.631H81.4801C81.5888 11.6037 81.7243 11.6857 81.7243 11.8226C81.7243 11.85 81.7243 11.85 81.7243 11.8773C81.7243 11.9321 81.7243 11.9594 81.6968 12.0142L77.7154 21.7308Z" fill="white"/>
</g>
</g>
</g>
<defs>
<clipPath id="clip0_18564_71181">
<rect width="84" height="32" fill="white"/>
</clipPath>
<clipPath id="clip1_18564_71181">
<rect width="83.3237" height="31.0042" fill="white" transform="translate(2.96094 0.497925)"/>
</clipPath>
</defs>
</svg>
