<svg width="72" height="49" viewBox="0 0 72 49" fill="none" xmlns="http://www.w3.org/2000/svg">
<g clip-path="url(#clip0_18564_71193)">
<path d="M26.0348 26.3556C29.2697 26.3556 31.4454 28.4468 31.4454 32.3175V41.0315H27.6387V33.0903C27.6387 31.0262 26.7522 29.9958 25.0637 29.9958C22.9184 29.9958 21.9168 31.5142 21.9168 34.1817V41.0315H18.1372V33.0903C18.1372 31.0262 17.2202 29.9958 15.5317 29.9958C13.4134 29.9958 12.4423 31.5142 12.4423 34.1817V41.0315H8.66602V26.6979H12.3306V28.9044C13.1901 27.386 14.591 26.3522 16.7938 26.3522C18.8241 26.3522 20.4009 27.2131 21.2299 29.0196C22.1435 27.3894 23.8016 26.3556 26.0348 26.3556ZM45.2579 30.999C45.2579 25.0067 49.4639 20.9665 54.8171 20.9665C60.1701 20.9665 64.3762 25.0101 64.3762 30.999C64.3762 36.9881 60.1701 41.0315 54.8171 41.0315C49.4639 41.0315 45.2579 36.9914 45.2579 30.999ZM60.3698 30.999C60.3698 27.3012 58.0215 24.9795 54.8171 24.9795C51.5822 24.9795 49.2644 27.3012 49.2644 30.999C49.2644 34.6968 51.5822 37.0185 54.8171 37.0185C58.0249 37.0185 60.3698 34.6968 60.3698 30.999ZM27.3038 20.2378C27.2022 21.3427 28.0144 22.3188 29.1174 22.4172L32.3794 22.7154C33.4825 22.8171 34.457 22.0036 34.5551 20.8988C34.6567 19.7938 33.8445 18.8177 32.7414 18.7194L29.4795 18.4211C28.3798 18.3228 27.4052 19.1363 27.3038 20.2378ZM32.0749 9.98839C31.1646 10.6188 30.9412 11.8695 31.5707 12.7812L34.095 16.4248C34.7243 17.3365 35.9729 17.5602 36.8832 16.9298C37.7934 16.2994 38.0167 15.0487 37.3873 14.137L34.8631 10.4934C34.2337 9.58167 32.9851 9.35796 32.0749 9.98839ZM43.7048 8.03612C42.6355 7.74463 41.5358 8.37505 41.2448 9.44609L40.0842 13.7167C39.7932 14.7843 40.4225 15.8893 41.4918 16.1807C42.5611 16.4722 43.6609 15.8418 43.9518 14.7708L45.1125 10.5002C45.4001 9.42914 44.7707 8.3276 43.7048 8.03612ZM51.6059 16.2384C51.1423 15.2317 49.9512 14.7945 48.9463 15.2588L45.9753 16.6315C44.9704 17.0959 44.5338 18.2889 44.9974 19.2956C45.461 20.3022 46.6521 20.7394 47.657 20.2751L50.6279 18.9024C51.6329 18.4346 52.0694 17.2416 51.6059 16.2384ZM40.3414 20.9665C39.7797 20.9665 39.2382 21.1631 38.8085 21.5258L32.8057 26.5725C31.9598 27.2843 31.8481 28.5519 32.5587 29.3993C33.2693 30.2466 34.5349 30.3584 35.3808 29.6467L38.7172 26.8436V41.0349H42.7235V23.356C42.7235 22.0342 41.6576 20.9665 40.3414 20.9665Z" fill="white"/>
</g>
<defs>
<clipPath id="clip0_18564_71193">
<rect width="55.8056" height="33.07" fill="white" transform="translate(8.66602 7.96497)"/>
</clipPath>
</defs>
</svg>
