<svg width="67" height="46" viewBox="0 0 67 46" fill="none" xmlns="http://www.w3.org/2000/svg">
<path d="M13.7891 16.2496C13.7891 16.2496 13.6266 16.4121 13.673 16.5049C13.6963 16.5978 13.8819 16.5745 13.9748 16.621C14.114 16.6906 14.1604 16.8298 14.1604 16.9691C14.1604 17.1316 14.1604 18.7562 14.1604 20.9842C12.1877 20.9842 10.2381 20.9842 8.26538 20.961C8.21896 20.4736 8.21896 19.9166 8.26538 19.3364C8.28859 18.7794 8.35821 18.2456 8.47426 17.7118C8.52068 17.4797 8.5671 17.2476 8.63672 17.0155C8.70635 16.7602 8.89202 16.4353 8.86881 16.18C8.86881 16.1336 8.86881 16.1104 8.8456 16.0872C8.79918 16.0175 8.68314 16.0407 8.61351 16.064C8.10292 16.2032 7.63874 16.4585 7.24419 16.8066C7.12815 16.9227 6.80322 17.2012 6.52472 17.735C5.75882 19.0811 5.7124 21.0074 5.7124 21.0074C5.66599 22.2375 5.61957 24.7673 6.94247 27.3667C6.94247 27.3667 7.87083 29.2002 9.19373 29.6411C9.44903 29.734 9.51866 29.6643 9.54187 29.6411C9.6347 29.5019 9.42582 29.293 9.3562 29.177C9.24015 28.9913 9.12411 28.7824 9.05448 28.5967C8.86881 28.179 8.75276 27.738 8.65993 27.2738C8.38142 25.9045 8.19575 24.512 8.24217 23.1194H14.1836V28.3646C14.1836 28.7128 14.3229 29.0377 14.6478 29.2002C14.8335 29.293 15.0656 29.3394 15.2745 29.3626C15.6458 29.409 16.0403 29.4323 16.4117 29.3626C16.6206 29.3162 16.8527 29.2466 17.0151 29.0841C17.2704 28.852 17.2704 28.5039 17.2704 28.179C17.2704 25.5332 17.2936 22.9106 17.2704 20.2648C17.2704 19.6149 17.2704 18.9651 17.2704 18.3152C17.2704 17.4333 16.9919 16.5281 16.2028 16.0407C15.8547 15.8319 15.4833 15.7158 15.0888 15.7158C14.6246 15.7158 14.1604 15.9015 13.8123 16.3193" fill="white"/>
<path d="M4.50465 19.4526C3.71555 20.3809 3.66913 21.4718 3.62272 22.5626C3.52988 25.1155 4.45824 26.9258 4.66712 27.2972C5.13129 28.1791 5.64189 28.7361 5.78114 28.9218C6.31494 29.502 6.84875 29.9198 7.26651 30.1983C6.94158 30.1287 6.47741 29.9662 5.99002 29.6645C5.52584 29.386 5.20092 29.0611 4.99204 28.829C4.69032 28.4344 4.45823 28.0863 4.31898 27.831C3.94764 27.1811 3.46026 26.3456 3.22817 25.2316C3.15854 24.9299 3.11212 24.605 2.99608 24.605C2.81041 24.605 2.62473 25.2084 2.57832 25.3476C2.43906 25.7886 2.39265 26.1832 2.41586 26.4152C2.41586 27.2508 3.04249 28.8754 4.55107 29.9662C4.55107 29.9662 5.85077 30.9178 8.10203 31.0106C8.19486 31.0106 8.72867 31.0106 9.14642 30.7089C9.3553 30.5696 9.47135 30.3607 9.14642 30.2447C6.75591 29.5484 5.80435 26.9955 5.29375 24.7906C5.17771 24.3032 5.08487 23.8391 5.01525 23.3517C4.82958 21.8663 4.82958 20.2417 5.31696 18.8027C4.94562 18.8956 4.78316 19.1973 4.57428 19.4526" fill="white"/>
<path d="M5.24805 18.802H5.27078L5.24805 18.7793V18.802Z" fill="white"/>
<path d="M5.24805 18.7788L5.27078 18.8016L5.2935 18.7561L5.24805 18.7788Z" fill="white"/>
<path d="M46.9079 15.6926C46.9079 15.6926 46.699 15.6926 46.583 15.6926C46.4437 15.6926 46.2813 15.6926 46.142 15.6926C46.0492 15.6926 45.9331 15.6926 45.8403 15.6926C45.6546 15.6926 45.469 15.6926 45.2833 15.6926C45.028 15.6926 44.7727 15.7855 44.587 15.9943C44.3549 16.2264 44.1925 16.5514 43.8908 17.2708C43.8443 17.3869 43.7979 17.4797 43.7747 17.5493C43.6587 17.7814 42.1037 21.1931 41.5002 22.1679C41.4538 22.2375 41.361 22.4 41.2449 22.4C41.1289 22.4 41.0361 22.2375 40.9897 22.1679C40.3862 21.1931 38.8312 17.7814 38.7152 17.5493C38.692 17.4797 38.6456 17.3869 38.5991 17.2708C38.2974 16.5514 38.135 16.2264 37.9029 15.9943C37.7172 15.8087 37.4619 15.7158 37.2066 15.6926C37.0209 15.6926 36.8353 15.6926 36.6496 15.6926C36.5568 15.6926 36.4407 15.6926 36.3479 15.6926C36.2086 15.6926 36.0462 15.6926 35.9069 15.6926C35.7909 15.6926 35.698 15.6926 35.582 15.6926C35.4195 15.6926 35.2803 15.739 35.141 15.8319C34.8857 15.9943 34.7929 16.2264 34.7465 16.3193C34.6768 16.4817 34.6536 16.621 34.6536 16.6674C34.5376 17.2244 34.5376 17.6654 34.5376 17.9671C34.4215 21.4716 34.3055 24.953 34.1895 28.4575C34.1895 28.5039 34.1895 28.5968 34.2359 28.6896C34.4215 29.2002 35.0714 29.4555 35.5588 29.4555C36.0694 29.4555 36.6728 29.2234 36.8817 28.7592C36.8817 28.7592 36.9281 28.6664 36.9513 28.5735C37.0906 27.8541 37.1834 22.1215 37.2066 19.6149C38.5759 22.4232 39.6435 24.512 40.1541 25.4403C40.247 25.626 40.4791 26.0206 40.8736 26.1366C40.9897 26.183 41.1057 26.2062 41.2449 26.2062C41.3842 26.2062 41.5002 26.2062 41.6163 26.1366C42.0108 25.9974 42.2197 25.626 42.3358 25.4403C42.8232 24.512 43.914 22.4232 45.2833 19.6149C45.3065 22.1215 45.3993 27.8541 45.5386 28.5735C45.5386 28.6664 45.6082 28.7592 45.6082 28.7592C45.8171 29.2234 46.4205 29.4555 46.9311 29.4555C47.4417 29.4555 48.0916 29.2002 48.254 28.6896C48.2772 28.5968 48.3004 28.5271 48.3004 28.4575C48.1844 24.953 48.0684 21.4716 47.9523 17.9671C47.9523 17.6654 47.9523 17.2012 47.8363 16.6674C47.8363 16.621 47.8131 16.4817 47.7434 16.3193C47.697 16.2264 47.6042 15.9943 47.3489 15.8319C47.2096 15.739 47.0704 15.6926 46.9311 15.6926" fill="white"/>
<path d="M23.5352 26.2527C23.5352 26.2527 23.6048 26.2527 23.628 26.2527C23.628 26.2991 23.5352 26.2527 23.5352 26.2295" fill="white"/>
<mask id="mask0_18548_69132" style="mask-type:luminance" maskUnits="userSpaceOnUse" x="19" y="15" width="13" height="15">
<path d="M28.8539 16.0872C28.6683 16.2961 28.5986 16.5514 28.5986 16.7138C28.5986 19.29 28.5986 21.8894 28.5754 24.4656C28.5754 24.7209 28.5754 25.185 28.2969 25.7189C28.0184 26.2759 27.6471 26.5776 27.5542 26.6704C27.5542 26.6704 26.9044 27.181 26.0457 27.2506C25.9528 27.2506 25.86 27.2506 25.86 27.2506C25.86 27.2506 25.8136 27.2506 25.7904 27.2506C25.7904 27.2506 25.7439 27.2506 25.7207 27.2506C25.7207 27.2506 25.6279 27.2506 25.5351 27.2506C24.6763 27.181 24.0265 26.6704 24.0265 26.6704C23.9337 26.6008 23.5391 26.2759 23.2838 25.7189C23.0285 25.185 23.0053 24.7209 23.0053 24.4656C23.0053 21.8894 23.0053 19.3132 22.9821 16.7138C22.9821 16.5514 22.9125 16.2961 22.7268 16.0872C22.3787 15.6926 21.7984 15.7158 21.3575 15.7158C20.8933 15.7158 20.4059 15.739 20.1274 16.1104C19.8953 16.3889 19.9185 16.737 19.9417 16.8995V24.9994C19.9417 25.7653 20.1506 26.7632 20.8933 27.6916C21.7056 28.7592 22.866 29.2234 23.2142 29.3626C23.9337 29.6411 24.6531 29.7108 24.862 29.734C25.2333 29.7804 25.5583 29.7804 25.7904 29.7572C26.0225 29.7572 26.3474 29.7572 26.7187 29.734C26.9276 29.734 27.6471 29.6411 28.3665 29.3626C28.7147 29.2234 29.8751 28.7592 30.6874 27.6916C31.4069 26.74 31.639 25.7421 31.639 24.9994V16.8995C31.639 16.737 31.6854 16.3889 31.4533 16.1104C31.1748 15.739 30.6874 15.739 30.2233 15.7158C30.1536 15.7158 30.0608 15.7158 29.968 15.7158C29.5734 15.7158 29.1556 15.7623 28.8539 16.0872Z" fill="white"/>
</mask>
<g mask="url(#mask0_18548_69132)">
<path d="M23.2333 10.4061L13.5898 25.8088L28.3828 35.0705L38.0262 19.6677L23.2333 10.4061Z" fill="white"/>
</g>
<path d="M24.209 29.5947C24.209 29.5947 24.2554 29.5947 24.2786 29.5947L24.2322 29.618V29.5715L24.209 29.5947Z" fill="white"/>
<mask id="mask1_18548_69132" style="mask-type:luminance" maskUnits="userSpaceOnUse" x="50" y="15" width="14" height="15">
<path d="M53.4766 24.1868C53.082 22.4926 53.1516 20.4734 54.1032 18.9416C54.7763 17.8972 55.8903 17.2706 57.0739 17.2474C58.2576 17.2474 59.3716 17.874 60.0447 18.9416C60.9962 20.4734 61.0659 22.4694 60.6713 24.1868C60.2535 25.9507 59.0699 27.8538 57.0971 27.877C55.1012 27.877 53.9407 25.9507 53.523 24.1868M52.8035 16.76C51.7127 17.5723 50.9236 18.7327 50.529 20.0324C49.415 23.7691 51.086 28.5269 55.1244 29.5945C55.7742 29.757 56.4473 29.8266 57.0971 29.8266C57.7702 29.8266 58.42 29.7802 59.0699 29.5945C63.085 28.5501 64.7793 23.7691 63.6652 20.0324C63.2707 18.7327 62.4816 17.5723 61.3908 16.76C60.1607 15.8316 58.6289 15.3443 57.0971 15.321C55.5654 15.3675 54.0336 15.8316 52.8035 16.76Z" fill="white"/>
</mask>
<g mask="url(#mask1_18548_69132)">
<path d="M53.2251 8.61872L43.043 26.1626L60.8478 36.4962L71.0299 18.9523L53.2251 8.61872Z" fill="white"/>
</g>
</svg>
