<svg width="77" height="38" viewBox="0 0 77 38" fill="none" xmlns="http://www.w3.org/2000/svg">
<path fill-rule="evenodd" clip-rule="evenodd" d="M6.31661 23.2582C8.94032 23.2582 10.2074 21.7824 10.2074 19.6208V14.4032H8.32911V19.5612C8.32911 20.7687 7.64337 21.6035 6.31661 21.6035C4.98986 21.6035 4.28921 20.7687 4.28921 19.5612V14.4032H2.42578V19.6208C2.42578 21.7526 3.69291 23.2433 6.31661 23.2433V23.2582ZM74.5627 13.643C74.5627 14.5523 73.8472 15.2828 72.9527 15.2828C72.0583 15.2828 71.3576 14.5523 71.3576 13.6579C71.3576 12.7634 72.0732 12.033 72.9527 12.033H74.5478V13.6281L74.5627 13.643ZM21.5073 23.0943V21.4693H17.3481L21.4178 15.894V14.4032H14.948V16.0281H19.0177L14.948 21.5886V23.0943H21.5073ZM30.4964 23.2433C32.3897 23.2433 33.4779 22.1849 34.104 21.1116L32.5238 20.3364C32.1661 21.0519 31.3909 21.6035 30.4964 21.6035C28.9312 21.6035 27.7982 20.396 27.7982 18.7562C27.7982 17.1164 28.9312 15.9089 30.4964 15.9089C31.3909 15.9089 32.1661 16.4754 32.5238 17.176L34.104 16.4008C33.4928 15.3126 32.4046 14.284 30.4964 14.284C27.9174 14.284 25.9199 16.1027 25.9199 18.7711C25.9199 21.4395 27.9174 23.2731 30.4964 23.2731V23.2433ZM46.7455 23.0943L43.4212 14.4032H41.1254L37.8011 23.0943H39.8881L40.4248 21.6184H44.1218L44.6585 23.0943H46.7455ZM43.6149 19.9935H40.9316L42.2733 16.2518L43.6149 19.9935ZM58.6416 25.2707L55.4812 19.7848C56.4055 19.5612 57.3596 18.7413 57.3596 17.2058C57.3596 15.5958 56.2564 14.4032 54.4675 14.4032H50.4425V23.0943H52.2762V20.0084H53.6178L56.5248 25.2707H58.6267H58.6416ZM54.1992 18.3835H52.2762V16.0431H54.1992C54.9297 16.0431 55.4962 16.4903 55.4962 17.2207C55.4962 17.9512 54.9446 18.3984 54.1992 18.3984V18.3835ZM65.5139 23.0943C68.2122 23.0943 70.0756 21.3799 70.0756 18.7562C70.0756 16.1325 68.1973 14.4032 65.5139 14.4032H62.115V23.0943H65.5139ZM65.5139 21.4693H63.9487V16.0431H65.5139C67.2879 16.0431 68.2122 17.2356 68.2122 18.7711C68.2122 20.3066 67.2134 21.4843 65.5139 21.4843V21.4693Z" fill="white"/>
</svg>
